**ABCDEFGHIJKLMNOPQRSTUVWXYZabcdefghijklmnopqrstuvwxyz**************************
**PARASOLID !"#$%&'()*+,-./:;<=>?@[\]^_`{|}~0123456789**************************
**PART1;
MC=AMD64;
MC_MODEL=Intel64 Family 6 Model 140 Stepping 2, GenuineIntel;
MC_ID=unknown;
OS=Windows_NT;
OS_RELEASE=unknown;
FRU=Parasolid Version 33.1, build 260,  4-25-2022;
APPL=SOLIDWORKS 2022-2022290;
SITE=;
USER=unknown;
FORMAT=text;
GUISE=transmit;
KEY=FILE1114test.x_t;
DATE=Tue Nov 14 16:38:43 2023;
**PART2;
SCH=SCH_3301260_33103;
USFLD_SIZE=0;
**PART3;
**END_OF_HEADER*****************************************************************
T51 : TRANSMIT FILE created by modeller version 330126023 SCH_3301260_33103_1300
6230 0 10 21 CCCCI7 lattice222 0 CCCI4 mesh1006 0 I8 polyline1008 0 CCCCCCCCCCA1
6 mesh_offset_data206 0 Z1 7 2 3 0 0 0 0 0 0 0 0 1e3 1e-8 0 0 0 1 0 1 4 0 81 255
 1 2 7 5 1 0 0 0 0 0 70 11 CI9 list_type0 0 1 uI10 notransmit0 0 1 lCCCDCCDI12 f
inger_index0 0 1 dI12 finger_block1012 0 CZ3 0 4 T1 0 0 1 20 1 6 6 11 255 4 5 0
 1 7 8 1 9 0 9 0 12 35 CCCI7 lattice222 0 CCCI4 mesh1006 0 I8 polyline1008 0 CCC
CCCCDI5 owner1040 0 CCCCCCI13 boundary_mesh1006 0 I17 boundary_polyline1008 0 CC
CA16 index_map_offset0 0 1 dA9 index_map82 0 A17 node_id_index_map82 0 A20 schem
a_embedding_map82 0 A5 child12 0 A14 lowest_node_id0 0 1 dA16 mesh_offset_data20
6 0 Z7 71 10 11 0 0 0 0 0 0 0 1e3 1e-8 4 12 0 1 0 1 1 13 14 15 0 0 0 16 17 0 0 0
 0 0 0 0 0 100 10 CCCCCCCCCA9 precision229 0 Z8 6 4 0 0 1 0 0 0 0 1 0 -1 0 .0381
732190340101 .01737852374372875 .0589866303487309 1 3 ?0 11 9 3 0 1 7 18 1 19 4
 0 4 100 18 4 9 0 0 1 0 0 0 0 -1 0 1 0 .0381732190340101 .0573785237437288 .0542
719503073644 1 3 ?0 11 19 1 0 1 12 20 1 0 9 0 0 12 12 2919 21 22 0 0 0 0 0 0 0 1
e3 1e-8 19 23 7 1 0 1 1 24 25 26 27 0 0 28 29 30 0 0 0 0 0 0 0 100 20 2 19 0 0 1
 0 0 0 1 0 0 0 1 .03588355142156405 .03737852374372875 .01334184863475916 1 1 ?0
 81 1 21 2919 5 12 31 0 0 0 32 70 22 0 4 T12 0 0 4 20 1 33 33 13 255 24 315 0 12
 0 34 0 0 35 0 50 255 25 302 0 36 37 0 0 +.0015 0 .05 1 0 0 0 0 -1 30 255 26 184
1 0 29 38 0 0 +-.014 0 1e-5 0 1 0 29 255 27 2442 0 30 39 0 .01499 -.00499 .005 1
9 8 CCCCCCCA5 owner12 0 Z28 111 0 12 35 0 40 V0 16 255 29 1839 0 ?41 0 42 26 0 0
 12 18 255 30 2440 0 43 0 44 27 ?12 17 255 43 0 45 46 47 30 48 49 0 50 +18 44 22
68 0 51 30 52 39 ?12 17 51 0 53 54 55 44 56 57 0 58 +18 52 1828 0 59 44 60 61 ?1
2 29 39 2270 0 44 61 27 -.01499 .00499 .00614436598137758 29 61 1830 0 52 62 39
 -.01391408548319346 -.003 1e-5 29 62 1403 0 60 63 61 .014 -.004 1e-5 18 60 1401
 0 64 52 65 62 ?12 29 63 1059 0 65 66 62 .015 -.004 0 18 65 1057 0 67 60 68 63 ?
12 29 66 784 0 68 69 63 .015 .003 0 18 68 782 0 70 65 71 66 ?12 29 69 475 0 71 7
2 66 -.015 -.005 .005 18 71 473 0 73 68 74 69 ?12 29 72 243 0 75 76 69 .015 -.00
5 0 18 75 218 0 77 78 79 72 ?12 29 76 244 0 79 80 72 -.015 -.005 0 18 79 219 0 8
1 75 82 76 ?12 29 80 245 0 82 83 76 -.015 .005 0 18 82 220 0 84 79 85 80 ?12 29
 83 246 0 85 86 80 .015 .005 0 18 85 221 0 87 82 88 83 ?12 29 86 108 0 74 89 83
 .015 -.005 .05 18 74 106 0 90 71 91 86 ?12 29 89 105 0 91 92 86 -.015 -.005 .05
 18 91 103 0 93 74 94 89 ?12 29 92 102 0 94 95 89 -.015 .005 .05 18 94 100 0 96
 91 97 92 ?12 29 95 99 0 97 98 92 .015 .005 .05 18 97 97 0 99 94 100 95 ?12 29 9
8 96 0 100 101 95 -.013 .003 .05 18 100 94 0 102 97 103 98 ?12 29 101 93 0 103 1
04 98 -.013 -.003 .05 18 103 91 0 105 100 106 101 ?12 29 104 90 0 106 107 101 -.
0015 -.003 .05 18 106 88 0 108 103 109 104 ?12 29 107 87 0 109 110 104 -.0015 .0
03 .05 18 109 85 0 111 106 112 107 ?12 29 110 84 0 112 113 107 .0015 -.003 .05 1
8 112 82 0 114 109 115 110 ?12 29 113 81 0 115 116 110 .013 -.003 .05 18 115 79
 0 117 112 118 113 ?12 29 116 78 0 118 119 113 .013 .003 .05 18 118 76 0 120 115
 78 116 ?12 29 119 75 0 78 121 116 .0015 .003 .05 18 78 73 0 122 118 75 119 ?12
 29 121 597 0 88 123 119 -.015 -.005 .00614436598137758 18 88 550 0 124 85 125 1
21 ?12 29 123 598 0 125 126 121 .015 -.005 .00614436598137758 18 125 552 0 127 8
8 128 123 ?12 29 126 599 0 128 129 123 .015 -.005 .005 18 128 554 0 130 125 131
 126 ?12 29 129 756 0 131 132 126 -.015 .005 .005 18 131 709 0 133 128 134 129 ?
12 29 132 757 0 134 135 129 .015 .005 .005 18 134 711 0 136 131 137 132 ?12 29 1
35 758 0 137 138 132 .015 .005 .00614436598137758 18 137 713 0 139 134 140 135 ?
12 29 138 759 0 140 141 135 -.015 .005 .00614436598137758 18 140 707 0 142 137 1
43 138 ?12 29 141 1001 0 143 144 138 -.013 .003 1e-5 18 143 929 0 145 140 146 14
1 ?12 29 144 1002 0 146 147 141 -.0015 .003 1e-5 18 146 927 0 148 143 149 144 ?1
2 29 147 1003 0 149 150 144 .0015 .003 1e-5 18 149 924 0 151 146 152 147 ?12 29
 150 1004 0 152 153 147 .013 .003 1e-5 18 152 926 0 154 149 155 150 ?12 29 153 1
005 0 155 156 150 -.013 .003 0 18 155 928 0 157 152 158 153 ?12 29 156 1006 0 15
8 159 153 -.0015 .003 0 18 158 923 0 160 155 161 156 ?12 29 159 1007 0 161 162 1
56 .0015 .003 0 18 161 925 0 163 158 164 159 ?12 29 162 1008 0 164 165 159 .013
 .003 0 18 164 936 0 166 161 167 162 ?12 29 165 1009 0 168 169 162 .015 .004 0 1
8 168 934 0 170 171 172 165 ?12 29 169 1010 0 172 173 165 -.015 .004 0 18 172 93
5 0 174 168 175 169 ?12 29 173 1011 0 175 176 169 -.015 .003 0 18 175 938 0 177
 172 178 173 ?12 29 176 1013 0 167 179 173 .015 .004 1e-5 18 167 931 0 180 164 1
81 176 ?12 29 179 1014 0 181 182 176 -.015 .004 1e-5 18 181 933 0 183 167 184 17
9 ?12 29 182 1015 0 184 185 179 -.015 .003 1e-5 18 184 930 0 186 181 171 182 ?12
 29 185 1016 0 171 187 182 .015 .003 1e-5 18 171 937 0 188 184 168 185 ?12 29 18
7 1320 0 178 189 185 -.013 -.003 1e-5 18 178 1233 0 190 175 191 187 ?12 29 189 1
321 0 191 192 187 -.0015 -.003 1e-5 18 191 1228 0 193 178 194 189 ?12 29 192 132
2 0 194 195 189 .0015 -.003 1e-5 18 194 1230 0 196 191 197 192 ?12 29 195 1323 0
 197 198 192 .013 -.003 1e-5 18 197 1236 0 199 194 200 195 ?12 29 198 1324 0 200
 201 195 -.013 -.003 0 18 200 1234 0 202 197 203 198 ?12 29 201 1325 0 203 204 1
98 -.0015 -.003 0 18 203 1232 0 205 200 206 201 ?12 29 204 1326 0 206 207 201 .0
015 -.003 0 18 206 1229 0 208 203 209 204 ?12 29 207 1327 0 209 210 204 .013 -.0
03 0 18 209 1231 0 211 206 212 207 ?12 29 210 1328 0 213 214 207 -.015 -.003 0 1
8 213 1235 0 215 216 217 210 ?12 29 214 1329 0 217 218 210 -.015 -.004 0 18 217
 1240 0 219 213 220 214 ?12 29 218 1331 0 220 221 214 .015 -.003 0 18 220 1237 0
 222 217 223 218 ?12 29 221 1332 0 212 224 218 -.015 -.003 1e-5 18 212 1243 0 22
5 209 226 221 ?12 29 224 1333 0 226 227 221 -.015 -.004 1e-5 18 226 1238 0 228 2
12 229 224 ?12 29 227 1334 0 229 230 224 .015 -.004 1e-5 18 229 1239 0 231 226 2
16 227 ?12 29 230 1335 0 216 232 227 .015 -.003 1e-5 18 216 1241 0 233 229 213 2
30 ?12 29 232 1761 0 223 234 230 .01410088317401296 .003 1e-5 18 223 1663 0 235
 220 236 232 ?12 29 234 1762 0 236 237 232 .01410088317401296 .004 1e-5 18 236 1
669 0 238 223 239 234 ?12 29 237 1763 0 239 240 234 .01410088317401296 -.004 1e-
5 18 239 1662 0 241 236 242 237 ?12 29 240 1764 0 242 243 237 .01410088317401296
 -.003 1e-5 18 242 1664 0 244 239 245 240 ?12 29 243 1765 0 245 246 240 .0141008
8317401296 -.004 0 18 245 1659 0 247 242 248 243 ?12 29 246 1766 0 248 249 243 .
01410088317401296 -.003 0 18 248 1657 0 250 245 251 246 ?12 29 249 1767 0 251 25
2 246 .01410088317401296 .003 0 18 251 1655 0 253 248 254 249 ?12 29 252 1768 0
 254 255 249 .01410088317401296 .004 0 18 254 1675 0 256 251 257 252 ?12 29 255
 1769 0 257 258 252 .014 .004 1e-5 18 257 1665 0 259 254 260 255 ?12 29 258 1770
 0 260 261 255 .014 .003 1e-5 18 260 1672 0 262 257 263 258 ?12 29 261 1771 0 26
3 264 258 .014 -.003 1e-5 18 263 1666 0 265 260 266 261 ?12 29 264 1773 0 266 26
7 261 .014 .004 0 18 266 1653 0 268 263 269 264 ?12 29 267 1774 0 269 270 264 .0
14 .003 0 18 269 1676 0 271 266 272 267 ?12 29 270 1775 0 272 273 267 .014 -.003
 0 18 272 1656 0 274 269 275 270 ?12 29 273 1776 0 275 276 270 .014 -.004 0 18 2
75 1658 0 277 272 278 273 ?12 29 276 1777 0 279 280 273 .01410088317401296 .005
 0 18 279 1671 0 281 282 283 276 ?12 29 280 1778 0 283 284 276 .014 .005 0 18 28
3 1654 0 285 279 286 280 ?12 29 284 1779 0 286 287 280 .014 -.005 0 18 286 1674
 0 288 283 289 284 ?12 29 287 1780 0 289 290 284 .01410088317401296 -.005 0 18 2
89 1660 0 291 286 292 287 ?12 29 290 1781 0 278 293 287 .01410088317401296 .005
 2e-5 18 278 1661 0 294 275 295 290 ?12 29 293 1782 0 295 296 290 .014 .005 2e-5
 18 295 1670 0 297 278 298 293 ?12 29 296 1783 0 298 299 293 .014 -.005 2e-5 18
 298 1667 0 300 295 282 296 ?12 29 299 1784 0 282 301 296 .01410088317401296 -.0
05 2e-5 18 282 1673 0 302 298 279 299 ?12 29 301 2191 0 292 303 299 -.014 .004 1
e-5 18 292 2093 0 304 289 305 301 ?12 29 303 2192 0 305 306 301 -.014 .003 1e-5
 18 305 2099 0 307 292 308 303 ?12 29 306 2193 0 308 309 303 -.014 -.003 1e-5 18
 308 2091 0 41 305 310 306 ?12 29 309 2194 0 310 311 306 -.014 -.004 1e-5 18 310
 2094 0 312 308 313 309 ?12 29 311 2195 0 313 314 309 -.014 .004 0 18 313 2085 0
 315 310 316 311 ?12 29 314 2196 0 316 317 311 -.014 .003 0 18 316 2105 0 318 31
3 319 314 ?12 29 317 2197 0 319 320 314 -.014 -.003 0 18 319 2084 0 321 316 322
 317 ?12 29 320 2198 0 322 323 317 -.014 -.004 0 18 322 2088 0 324 319 325 320 ?
12 29 323 2199 0 325 326 320 -.01391408548319346 .003 1e-5 18 325 2095 0 327 322
 328 323 ?12 29 326 2200 0 328 329 323 -.01391408548319346 .004 1e-5 18 328 2102
 0 330 325 331 326 ?12 29 329 2201 0 331 332 326 -.01391408548319346 -.004 1e-5
 18 331 2097 0 333 328 334 329 ?12 29 332 2203 0 334 335 329 -.01391408548319346
 -.004 0 18 334 2089 0 336 331 337 332 ?12 29 335 2204 0 337 338 332 -.013914085
48319346 -.003 0 18 337 2087 0 339 334 340 335 ?12 29 338 2205 0 340 341 335 -.0
1391408548319346 .003 0 18 340 2083 0 342 337 343 338 ?12 29 341 2206 0 343 344
 338 -.01391408548319346 .004 0 18 343 2106 0 345 340 346 341 ?12 29 344 2207 0
 347 348 341 -.014 -.005 0 18 347 2101 0 349 350 351 344 ?12 29 348 2208 0 351 3
52 344 -.01391408548319346 -.005 0 18 351 2090 0 353 347 354 348 ?12 29 352 2209
 0 354 355 348 -.01391408548319346 .005 0 18 354 2104 0 356 351 357 352 ?12 29 3
55 2210 0 357 358 352 -.014 .005 0 18 357 2086 0 359 354 360 355 ?12 29 358 2211
 0 346 361 355 -.014 -.005 2e-5 18 346 2092 0 362 343 363 358 ?12 29 361 2212 0
 363 364 358 -.01391408548319346 -.005 2e-5 18 363 2100 0 365 346 366 361 ?12 29
 364 2213 0 366 367 361 -.01391408548319346 .005 2e-5 18 366 2096 0 368 363 350
 364 ?12 29 367 2214 0 350 369 364 -.014 .005 2e-5 18 350 2103 0 370 366 347 367
 ?12 29 369 2385 0 360 371 367 -.01499 .00499 .005 18 360 2331 0 372 357 373 369
 ?12 29 371 2387 0 373 374 369 -.01499 -.00499 .00614436598137758 18 373 2335 0
 375 360 376 371 ?12 29 374 2388 0 376 377 371 -.01499 -.00499 .005 18 376 2337
 0 378 373 379 374 ?12 29 377 2610 0 379 380 374 .01499 .00499 .005 18 379 2538
 0 46 376 381 377 ?12 29 380 2611 0 381 382 377 .01499 .00499 .00614436598137758
 18 381 2543 0 383 379 384 380 ?12 29 382 2621 0 384 0 380 .01499 -.00499 .00614
436598137758 18 384 2544 0 47 381 0 382 ?12 17 47 0 45 43 383 384 385 386 0 48 +
15 255 45 2582 0 47 387 0 17 383 0 45 47 46 381 388 389 0 385 -17 385 0 390 391
 392 381 47 386 0 393 -16 386 2513 0 ?47 49 0 394 0 0 12 17 48 0 395 375 396 384
 43 49 0 392 -15 395 2489 0 48 34 0 17 375 0 395 397 48 373 392 398 0 56 +17 396
 0 395 48 397 30 399 400 0 0 +16 49 2524 0 ?43 401 386 402 0 0 12 17 392 0 390 3
85 56 384 375 398 0 0 -15 390 562 0 385 403 0 17 56 0 390 392 391 373 51 57 0 55
 -16 398 2463 0 ?375 404 400 405 0 0 12 16 404 522 0 ?73 406 398 407 0 0 12 16 4
00 2280 0 ?396 398 408 409 0 0 12 30 405 593 0 398 409 410 0 +-.015 -.00499 .006
14436598137758 -1 0 0 30 409 595 0 400 411 405 0 +-.015 -.00499 .005 1 0 0 30 41
0 591 0 412 405 413 0 +-.015 -.005 .005 1 0 0 16 412 538 0 ?130 408 414 410 0 0
 12 30 413 589 0 408 410 415 0 +-.015 -.005 .00614436598137758 -1 0 0 16 408 544
 0 ?124 400 412 413 0 0 12 30 415 588 0 416 413 417 0 +-.015 -.00499 .0061443659
8137758 0 -1 0 16 416 526 0 ?418 419 420 415 0 0 12 30 417 587 0 420 415 421 0 +
.015 -.00499 .00614436598137758 0 -1 0 16 420 530 0 ?127 416 406 417 0 0 12 30 4
21 586 0 406 417 407 0 +.015 -.00499 .005 0 -1 0 16 406 534 0 ?422 420 404 421 0
 0 12 30 407 585 0 404 421 423 0 +-.015 -.00499 .005 0 -1 0 30 423 9 0 424 407 4
25 0 +.0015 0 .05 0 -1 0 16 424 7 0 ?426 427 428 423 0 0 12 30 425 15 0 427 423
 429 0 +-1131341397376176e-34 .003 .05 1 377113799125393e-31 0 16 427 13 0 ?120
 430 424 425 0 0 12 30 429 20 0 430 425 431 0 +.013 -375856753128308e-32 .05 289
120579329468e-30 1 0 16 430 18 0 ?432 433 427 429 0 0 12 30 431 25 0 433 429 434
 0 +0 -.003 .05 1 0 0 16 433 23 0 ?435 436 430 431 0 0 12 30 434 30 0 436 431 43
7 0 +0 .003 .05 1 0 0 16 436 28 0 ?438 439 433 434 0 0 12 30 437 35 0 439 434 44
0 0 +-.0015 0 .05 0 -1 0 16 439 33 0 ?108 441 436 437 0 0 12 30 440 41 0 441 437
 442 0 +0 -.003 .05 1 0 0 16 441 39 0 ?443 444 439 440 0 0 12 30 442 46 0 444 44
0 445 0 +-.013 0 .05 0 1 0 16 444 44 0 ?102 446 441 442 0 0 12 30 445 51 0 446 4
42 447 0 +.015 0 .05 0 1 0 16 446 49 0 ?99 448 444 445 0 0 12 30 447 56 0 448 44
5 449 0 +0 .005 .05 1 0 0 16 448 54 0 ?450 451 446 447 0 0 12 30 449 63 0 451 44
7 452 0 +-.015 0 .05 0 1 0 16 451 61 0 ?453 454 448 449 0 0 12 30 452 68 0 454 4
49 455 0 +0 -.005 .05 1 0 0 16 454 66 0 ?90 456 451 452 0 0 12 30 455 242 0 419
 452 457 0 +.0015 0 0 0 -1 0 16 419 212 0 ?458 459 416 455 0 0 12 30 457 240 0 4
59 455 460 0 +.013 -375856753128308e-32 0 289120579329468e-30 1 0 16 459 202 0 ?
461 462 419 457 0 0 12 30 460 237 0 462 457 463 0 +-.0015 0 0 0 -1 0 16 462 186
 0 ?464 465 459 460 0 0 12 30 463 235 0 465 460 466 0 +-.013 0 0 0 1 0 16 465 17
6 0 ?467 468 462 463 0 0 12 30 466 234 0 469 463 470 0 +.015 0 0 0 1 0 16 469 17
1 0 ?471 472 473 466 473 468 12 30 470 233 0 474 466 475 0 +0 .005 0 1 0 0 16 47
4 164 0 ?476 477 478 470 478 472 12 30 475 232 0 479 470 480 0 +-.015 0 0 0 1 0
 16 479 159 0 ?481 482 483 475 483 477 12 30 480 231 0 428 475 484 0 +0 -.005 0
 1 0 0 16 428 152 0 ?485 424 486 480 486 482 12 30 484 303 0 487 480 488 0 +.015
 -.005 .05 0 0 -1 16 487 255 0 ?489 490 491 484 491 491 12 30 488 304 0 492 484
 493 0 +-.015 -.005 .05 0 0 -1 16 492 256 0 ?494 495 490 488 490 490 12 30 493 3
05 0 496 488 497 0 +-.015 .005 .05 0 0 -1 16 496 257 0 ?498 499 495 493 495 495
 12 30 497 306 0 500 493 501 0 +.015 .005 .05 0 0 -1 16 500 258 0 ?502 503 499 4
97 499 499 12 30 501 307 0 504 497 505 0 +-.013 .003 .05 0 0 -1 16 504 259 0 ?50
6 507 508 501 0 0 12 30 505 308 0 507 501 509 0 +-.013 -.003 .05 0 0 -1 16 507 2
60 0 ?510 511 504 505 0 0 12 30 509 309 0 511 505 512 0 +-.0015 -.003 .05 0 0 -1
 16 511 261 0 ?513 514 507 509 0 0 12 30 512 310 0 514 509 515 0 +-.0015 .003 .0
5 0 0 -1 16 514 262 0 ?516 491 511 512 0 0 12 30 515 311 0 456 512 517 0 +.0015
 -.003 .05 0 0 -1 16 456 263 0 ?518 519 454 515 0 0 12 30 517 312 0 519 515 520
 0 +.013 -.003 .05 0 0 -1 16 519 264 0 ?521 522 456 517 0 0 12 30 520 313 0 522
 517 523 0 +.013 .003 .05 0 0 -1 16 522 265 0 ?524 508 519 520 0 0 12 30 523 314
 0 508 520 525 0 +.0015 .003 .05 0 0 -1 16 508 266 0 ?526 504 522 523 0 0 12 30
 525 795 0 527 523 528 0 +0 .003 0 1 0 0 16 527 797 0 ?529 530 531 525 531 503 1
2 30 528 1073 0 532 525 533 0 +-173472347597681e-33 -.003 0 1 -578241158658936e-
31 0 16 532 1086 0 ?534 535 536 528 536 530 12 30 533 1406 0 535 528 537 0 +.014
 0 1e-5 0 1 0 16 535 1404 0 ?265 538 532 533 0 0 12 30 537 1411 0 538 533 38 0 +
.01410088317401296 0 1e-5 0 -1 0 16 538 1409 0 ?241 42 535 537 0 0 12 30 38 1836
 0 42 537 26 0 +-.01391408548319346 0 1e-5 0 -1 0 16 42 1834 0 ?333 29 538 38 0
 0 12 17 333 0 539 336 59 331 540 42 0 541 +15 539 2130 0 339 542 0 17 336 0 539
 353 333 334 541 543 0 544 -17 59 0 539 333 339 52 545 546 0 540 +17 540 0 547 5
48 549 52 333 42 0 550 -17 541 0 551 552 553 331 336 543 0 549 +15 551 1282 0 55
3 554 0 17 552 0 551 555 541 60 549 556 0 0 -17 553 0 551 541 555 334 557 558 0
 0 +16 543 2062 0 ?541 546 559 560 0 0 12 17 549 0 547 540 561 331 552 556 0 0 +
15 547 1835 0 540 562 0 17 561 0 547 549 563 60 265 535 0 552 -16 556 1402 0 ?54
9 564 565 566 564 565 12 16 564 1183 0 ?567 568 556 566 565 556 12 16 565 1826 0
 ?228 556 569 566 556 564 12 30 566 1317 0 564 570 571 0 +-1156482317317874e-34
 -.004 1e-5 -1 289120579329468e-31 0 30 570 1318 0 569 572 566 0 +.015 0 1e-5 0
 -1 0 30 571 1316 0 568 566 573 0 +-.015 0 1e-5 0 1 0 16 568 1178 0 ?574 575 564
 571 0 0 12 30 573 1315 0 576 571 577 0 +-173472347597681e-33 -.003 0 -1 5782411
58658936e-31 0 16 576 1171 0 ?578 579 580 573 580 580 12 30 577 1313 0 581 573 5
82 0 +-1156482317317874e-34 -.004 0 -1 289120579329468e-31 0 16 581 1221 0 ?583
 584 558 577 579 558 12 30 582 1311 0 585 577 586 0 +-.015 -.003 1e-5 0 0 -1 16
 585 1182 0 ?215 587 588 582 0 0 12 30 586 1310 0 588 582 589 0 +-.015 -.004 1e-
5 0 0 -1 16 588 1186 0 ?590 585 591 586 0 0 12 30 589 1309 0 591 586 592 0 +.015
 -.004 1e-5 0 0 -1 16 591 1191 0 ?67 588 575 589 0 0 12 30 592 1308 0 575 589 59
3 0 +.015 -.003 1e-5 0 0 -1 16 575 1177 0 ?594 591 568 592 0 0 12 30 593 1307 0
 587 592 595 0 +-.013 -.003 .05 0 0 1 16 587 1165 0 ?190 596 585 593 0 0 12 30 5
95 1306 0 596 593 597 0 +.013 -.003 .05 0 0 1 16 596 1176 0 ?598 599 587 595 0 0
 12 30 597 1305 0 599 595 600 0 +.0015 -.003 .05 0 0 -1 16 599 1148 0 ?601 602 5
96 597 0 0 12 30 600 1304 0 602 597 603 0 +-.0015 -.003 .05 0 0 -1 16 602 1159 0
 ?205 604 599 600 0 0 12 30 603 1000 0 605 600 606 0 +.015 .004 1e-5 0 -1 0 16 6
05 884 0 ?607 608 609 603 0 0 12 30 606 999 0 610 603 611 0 +.015 .003 1e-5 -1 0
 0 16 610 896 0 ?612 613 614 606 608 615 12 30 611 998 0 613 606 616 0 +-.015 .0
04 1e-5 0 1 0 16 613 892 0 ?183 617 610 611 0 0 12 30 616 997 0 618 611 619 0 +.
015 .004 1e-5 1 0 0 16 618 888 0 ?620 621 622 616 622 617 12 30 619 995 0 623 61
6 624 0 +.015 .003 0 -1 0 0 16 623 902 0 ?625 626 604 619 604 604 12 30 624 993
 0 609 619 627 0 +.015 .004 0 1 0 0 16 609 920 0 ?628 605 629 624 629 626 12 30
 627 992 0 630 624 631 0 +.015 .004 1e-5 0 0 -1 16 630 891 0 ?632 633 634 627 0
 0 12 30 631 991 0 634 627 635 0 +-.015 .004 1e-5 0 0 -1 16 634 895 0 ?174 630 6
36 631 0 0 12 30 635 990 0 636 631 637 0 +-.015 .003 1e-5 0 0 -1 16 636 883 0 ?6
38 634 621 635 0 0 12 30 637 989 0 621 635 639 0 +.015 .003 1e-5 0 0 -1 16 621 8
87 0 ?640 636 618 637 0 0 12 30 639 988 0 633 637 641 0 +-.013 .003 .05 0 0 1 16
 633 879 0 ?642 643 630 639 0 0 12 30 641 987 0 643 639 644 0 +.013 .003 .05 0 0
 1 16 643 875 0 ?645 646 633 641 0 0 12 30 644 986 0 646 641 647 0 +.0015 .003 .
05 0 0 -1 16 646 874 0 ?163 648 643 644 0 0 12 30 647 985 0 648 644 649 0 +-.001
5 .003 .05 0 0 -1 16 648 870 0 ?650 651 646 647 0 0 12 30 649 754 0 652 647 653
 0 +-.015 .00499 .00614436598137758 1 0 0 16 652 2269 0 ?393 414 654 649 0 0 12
 30 653 752 0 414 649 655 0 +-.015 .00499 .005 -1 0 0 16 414 2444 0 ?372 412 652
 653 0 0 12 30 655 750 0 651 653 411 0 +-.015 .005 .00614436598137758 1 0 0 16 6
51 697 0 ?656 654 648 655 0 0 12 30 411 748 0 654 655 409 0 +-.015 .005 .005 -1
 0 0 16 654 703 0 ?133 652 651 411 0 0 12 17 133 0 657 73 136 131 658 654 0 659
 +15 657 570 0 133 660 0 17 73 0 657 130 133 71 659 404 0 661 +17 136 0 657 133
 130 134 422 406 0 658 -17 658 0 662 663 664 134 133 654 0 665 -17 659 0 666 667
 668 131 73 404 0 664 -15 666 2297 0 659 669 0 17 667 0 666 670 659 82 664 495 0
 671 +17 668 0 666 659 672 71 81 490 0 0 -17 664 0 662 658 671 131 667 495 0 0 -
15 662 1977 0 673 674 0 17 671 0 662 664 673 82 476 474 0 0 -16 495 627 0 ?667 4
96 492 493 496 496 12 17 673 0 662 671 675 357 370 676 0 476 +17 476 0 677 678 8
4 357 671 474 0 0 +15 677 1983 0 476 679 0 17 678 0 677 680 476 313 359 681 0 62
8 -17 84 0 677 476 680 82 670 477 0 667 +17 680 0 677 84 678 172 628 609 0 670 -
17 670 0 666 682 667 172 84 477 0 0 -16 477 792 0 ?84 483 474 475 479 483 12 16
 483 1055 0 ?177 479 477 475 477 479 12 17 177 0 683 529 684 175 685 483 0 686 +
15 683 1999 0 529 687 0 17 529 0 683 688 177 316 686 527 0 0 +17 684 0 683 177 6
88 213 534 532 0 685 -17 685 0 666 689 638 213 177 483 0 0 -17 686 0 690 691 692
 175 529 527 0 638 -15 690 1917 0 693 694 0 17 691 0 690 693 686 184 638 636 0 6
95 -17 692 0 690 686 693 316 307 696 0 529 +17 638 0 666 685 695 175 691 636 0 0
 +17 695 0 666 638 682 184 183 613 0 0 -17 682 0 666 695 670 181 174 634 0 0 -17
 183 0 697 620 186 181 695 613 0 698 +15 697 1893 0 699 700 0 17 620 0 697 699 1
83 292 698 618 0 0 +17 186 0 697 183 699 184 693 608 0 691 +17 698 0 701 174 702
 181 620 618 0 682 -15 701 1903 0 628 703 0 17 174 0 701 628 698 172 682 634 0 6
80 +17 702 0 701 698 628 292 315 704 0 620 +17 628 0 701 702 174 313 680 609 0 0
 +17 315 0 705 359 304 313 702 704 0 678 -16 704 2053 0 ?702 696 706 707 0 0 12
 16 696 2047 0 ?692 708 704 709 0 0 12 16 706 2065 0 ?304 704 710 711 0 0 12 30
 707 2170 0 704 711 709 0 +-.014 .004 1e-5 0 0 1 30 711 2171 0 706 712 707 0 +-.
014 0 1e-5 0 1 0 30 709 2169 0 696 707 713 0 +-.014 .003 1e-5 0 0 -1 30 713 1760
 0 714 709 715 0 +.01410088317401296 .005 2e-5 0 -1 0 16 714 1620 0 ?716 717 718
 713 0 0 12 30 715 1759 0 717 713 719 0 +.01410088317401296 -.005 2e-5 -1 0 0 16
 717 1643 0 ?720 721 714 715 0 0 12 30 719 1758 0 721 715 722 0 +.014 .005 2e-5
 0 1 0 16 721 1631 0 ?723 724 717 719 0 0 12 30 722 1757 0 724 719 725 0 +.01410
088317401296 .005 2e-5 1 0 0 16 724 1638 0 ?726 727 721 722 0 0 12 30 725 1756 0
 728 722 729 0 +.01410088317401296 .005 0 0 -1 0 16 728 1585 0 ?256 730 731 725
 708 731 12 30 729 1754 0 718 725 732 0 +.014 .005 0 0 1 0 16 718 1609 0 ?277 71
4 733 729 730 733 12 30 732 1752 0 734 729 735 0 +.01410088317401296 .005 2e-5 0
 0 -1 16 734 1641 0 ?281 736 737 732 0 0 12 30 735 1751 0 737 732 738 0 +.014 .0
05 2e-5 0 0 -1 16 737 1634 0 ?739 734 740 735 0 0 12 30 738 1750 0 740 735 741 0
 +.014 -.005 2e-5 0 0 -1 16 740 1646 0 ?742 737 727 738 0 0 12 30 741 1749 0 727
 738 743 0 +.01410088317401296 -.005 2e-5 0 0 -1 16 727 1623 0 ?744 740 724 741
 0 0 12 30 743 1748 0 736 741 745 0 +.014 -.004 1e-5 0 0 -1 16 736 1630 0 ?555 7
46 734 743 0 0 12 30 745 1747 0 746 743 747 0 +.014 -.003 1e-5 0 0 -1 16 746 163
6 0 ?274 748 736 745 0 0 12 30 747 1746 0 748 745 749 0 +.014 0 1e-5 0 1 0 16 74
8 1642 0 ?750 751 746 747 0 0 12 30 749 1745 0 751 747 752 0 +.014 .003 1e-5 0 0
 -1 16 751 1629 0 ?753 754 748 749 0 0 12 30 752 1744 0 754 749 755 0 +.014 .004
 1e-5 0 0 1 16 754 1628 0 ?756 757 751 752 0 0 12 30 755 1743 0 757 752 758 0 +.
01410088317401296 -.004 1e-5 0 0 1 16 757 1624 0 ?759 760 754 755 0 0 12 30 758
 1742 0 760 755 761 0 +.01410088317401296 -.003 1e-5 0 0 1 16 760 1626 0 ?244 76
2 757 758 0 0 12 30 761 1741 0 762 758 763 0 +.01410088317401296 0 1e-5 0 -1 0 1
6 762 1637 0 ?235 764 760 761 0 0 12 30 763 1740 0 764 761 765 0 +.0141008831740
1296 .003 1e-5 0 0 1 16 764 1625 0 ?766 767 762 763 0 0 12 30 765 1739 0 767 763
 572 0 +.01410088317401296 .004 1e-5 0 0 -1 16 767 1619 0 ?768 580 764 765 0 0 1
2 30 572 1319 0 769 765 570 0 +-173472347597681e-33 -.003 1e-5 -1 57824115865893
6e-31 0 16 769 1192 0 ?770 569 771 572 584 772 12 17 770 0 773 774 233 242 775 7
69 0 0 +16 569 1187 0 ?776 565 769 570 0 0 12 16 771 1396 0 ?199 769 772 572 777
 584 12 16 584 1832 0 ?225 777 581 572 771 769 12 16 772 1197 0 ?778 771 779 572
 769 779 12 17 778 0 780 114 521 194 781 772 0 518 +16 779 1202 0 ?782 772 783 5
72 772 783 12 17 782 0 784 205 196 191 785 779 0 786 +16 783 1207 0 ?787 779 777
 572 779 777 12 17 787 0 788 105 513 178 193 783 0 510 +16 777 1212 0 ?550 783 5
84 572 783 771 12 17 550 0 789 545 190 52 548 777 0 0 +15 789 1865 0 545 790 0 1
7 545 0 789 202 550 337 59 546 0 791 -17 190 0 789 550 202 178 792 587 0 548 +17
 548 0 547 193 540 178 550 777 0 787 -17 193 0 547 785 548 191 787 783 0 782 -17
 785 0 547 781 193 194 782 779 0 778 -17 781 0 547 563 785 197 778 772 0 598 -17
 563 0 547 561 781 263 199 771 0 0 -17 598 0 793 117 794 197 795 596 0 521 +15 7
93 285 0 794 796 0 17 117 0 793 432 598 115 521 519 0 797 -17 794 0 793 598 798
 209 461 459 0 0 -17 795 0 799 800 199 209 598 596 0 794 -17 521 0 780 778 435 1
97 117 519 0 0 +15 780 283 0 521 801 0 17 435 0 780 521 114 115 802 433 0 0 +17
 114 0 780 435 778 112 518 456 0 426 -17 802 0 803 804 797 112 435 433 0 0 -15 8
03 4 0 804 805 806 17 804 0 803 120 802 78 426 424 0 0 -17 797 0 803 802 120 115
 432 430 0 435 -17 120 0 803 797 804 118 807 427 0 808 +17 432 0 793 524 117 118
 797 430 0 0 +17 524 0 793 798 432 152 808 522 0 0 +17 798 0 793 794 524 164 645
 643 0 461 -17 808 0 809 807 810 118 524 522 0 432 -15 809 822 0 810 811 0 17 80
7 0 809 526 808 78 120 427 0 804 -17 810 0 809 808 526 152 812 615 0 524 -17 526
 0 809 810 807 149 122 508 0 0 +17 812 0 813 814 154 149 810 615 0 815 +16 615 8
71 0 ?812 614 816 606 610 816 12 16 614 1450 0 ?154 610 615 606 817 608 12 16 81
6 867 0 ?814 615 818 606 615 818 12 17 814 0 813 819 812 146 151 816 0 820 +16 8
18 876 0 ?819 816 817 606 816 817 12 17 819 0 813 821 814 143 820 818 0 642 +16
 817 880 0 ?821 818 608 606 818 614 12 17 821 0 813 822 819 325 145 817 0 0 +16
 608 1880 0 ?186 817 605 606 614 610 12 15 813 1889 0 822 823 0 17 822 0 813 259
 821 328 327 824 0 825 -17 145 0 826 827 828 143 821 817 0 819 -15 826 954 0 829
 830 0 17 827 0 826 829 145 155 642 633 0 467 -17 828 0 826 145 829 325 342 831
 0 821 +17 829 0 826 828 827 340 157 531 0 0 -17 342 0 539 339 327 340 828 831 0
 832 -16 831 2056 0 ?828 833 834 835 0 0 12 16 833 2048 0 ?836 710 831 837 0 0 1
2 16 834 2057 0 ?838 831 824 839 0 0 12 30 835 2174 0 831 839 837 0 +-.013914085
48319346 .003 1e-5 0 0 1 30 839 2175 0 834 840 835 0 +-.01391408548319346 .004 1
e-5 0 0 -1 30 837 2173 0 833 835 712 0 +-.014 -.004 1e-5 0 0 -1 30 712 2172 0 71
0 837 711 0 +-.014 -.003 1e-5 0 0 -1 16 710 2055 0 ?321 706 833 712 0 0 12 17 32
1 0 705 318 41 319 841 710 0 688 +15 705 2122 0 304 842 0 17 318 0 705 307 321 3
16 688 843 0 692 +17 41 0 705 321 312 308 844 29 0 841 +17 841 0 845 225 534 308
 321 710 0 846 -17 688 0 683 684 529 319 318 843 0 534 -16 843 2019 0 ?318 847 6
81 848 847 681 12 17 534 0 845 841 215 319 684 532 0 0 +15 845 1871 0 841 849 0
 17 215 0 845 534 225 213 689 585 0 684 +17 225 0 845 215 841 212 846 584 0 574
 +17 689 0 666 850 685 212 215 585 0 0 -17 850 0 666 590 689 226 574 568 0 0 -17
 590 0 666 672 850 217 851 588 0 481 +17 574 0 852 846 228 212 850 568 0 689 +15
 852 1840 0 844 853 0 17 846 0 852 844 574 308 225 584 0 0 -17 228 0 852 574 844
 226 854 565 0 851 +17 844 0 852 228 846 310 41 29 0 854 -17 854 0 855 836 851 3
10 228 565 0 0 -17 851 0 855 854 219 226 590 588 0 850 -15 855 1851 0 854 856 0
 17 219 0 855 851 836 217 857 579 0 590 +17 836 0 855 219 854 322 312 833 0 857
 +17 857 0 858 859 481 322 219 579 0 0 -16 579 1848 0 ?219 558 576 577 558 581 1
2 16 558 1418 0 ?553 581 579 577 581 579 12 15 858 1931 0 857 860 0 17 859 0 858
 861 857 347 324 847 0 485 -17 481 0 858 857 861 217 672 479 0 0 +17 861 0 858 4
81 859 79 485 428 0 672 -17 672 0 666 668 590 79 481 479 0 0 -17 485 0 862 863 8
1 347 861 428 0 0 +15 862 1947 0 485 864 0 17 863 0 862 865 485 346 349 559 0 0
 -17 81 0 862 485 661 79 668 490 0 861 +17 661 0 862 81 866 71 130 412 0 668 -16
 490 474 0 ?81 492 487 488 492 492 12 17 866 0 862 661 77 128 867 491 0 0 -17 13
0 0 657 136 73 128 661 412 0 422 +17 422 0 868 867 665 128 136 406 0 866 +15 868
 1142 0 665 869 0 17 867 0 868 471 422 75 866 491 0 870 +17 665 0 868 422 871 13
4 663 499 0 0 -17 871 0 868 665 632 85 872 468 0 663 +17 663 0 662 873 658 85 66
5 499 0 0 +16 499 648 0 ?663 500 496 497 500 500 12 17 873 0 662 874 663 279 87
 472 0 0 -17 874 0 662 875 873 278 281 734 0 0 -17 87 0 876 872 877 85 873 472 0
 871 +16 472 1535 0 ?87 478 469 470 474 478 12 16 478 1965 0 ?285 474 472 470 47
2 474 12 17 285 0 878 879 880 283 881 478 0 882 +15 878 798 0 883 884 0 17 879 0
 878 883 285 266 882 730 0 0 -17 880 0 878 285 883 354 345 885 0 881 -17 881 0 6
62 886 739 354 285 478 0 0 -17 882 0 887 297 888 283 879 730 0 739 +15 887 1700
 0 882 889 0 17 297 0 887 300 882 295 739 737 0 723 -17 888 0 887 882 750 266 75
6 754 0 879 -16 730 1589 0 ?882 733 728 729 733 718 12 17 739 0 662 881 875 283
 297 737 0 0 +17 875 0 662 739 874 295 726 724 0 0 -17 726 0 890 716 723 278 875
 724 0 874 +15 890 1723 0 716 891 0 17 716 0 890 720 726 282 294 714 0 892 +17 7
23 0 890 726 720 295 300 721 0 875 +17 720 0 890 723 716 298 892 717 0 893 +17 3
00 0 887 742 297 298 723 721 0 720 -17 742 0 887 277 300 286 893 740 0 894 +17 2
77 0 887 64 742 275 894 718 0 555 +17 893 0 862 892 288 298 742 740 0 0 -17 894
 0 895 896 557 286 277 718 0 0 -15 895 150 0 896 897 0 17 896 0 895 544 894 351
 288 486 0 0 -17 557 0 895 894 544 275 553 558 0 0 -17 544 0 895 557 896 334 353
 898 0 553 -17 353 0 539 365 336 351 544 898 0 899 +16 898 2038 0 ?353 900 847 9
01 900 885 12 16 900 2015 0 ?339 885 898 901 885 898 12 16 847 2044 0 ?324 898 8
43 848 681 843 12 30 901 2184 0 885 848 902 0 +-.01391408548319346 .005 0 0 -1 0
 16 885 2028 0 ?345 903 900 901 898 900 12 17 345 0 539 330 356 343 880 885 0 83
8 +16 903 2049 0 ?904 905 885 906 0 0 12 17 904 0 907 908 909 350 362 903 0 675
 +16 905 2071 0 ?908 910 903 911 0 0 12 30 906 2190 0 903 912 911 0 +-.014 .005
 2e-5 0 1 0 30 912 2377 0 913 914 906 0 +-.01499 .00499 .005 0 0 -1 30 911 2189
 0 905 906 915 0 +-.014 .005 2e-5 1 0 0 30 915 2188 0 910 911 916 0 +-.013914085
48319346 .005 2e-5 0 -1 0 16 910 2058 0 ?917 918 905 915 0 0 12 30 916 2187 0 91
8 915 848 0 +-.014 -.005 2e-5 -1 0 0 16 918 2066 0 ?909 676 910 916 0 0 12 30 84
8 2186 0 847 916 901 0 +-.014 .005 0 0 1 0 17 909 0 907 904 917 346 865 918 0 86
3 +16 676 2052 0 ?673 919 918 920 0 0 12 16 919 2074 0 ?356 921 676 922 0 0 12 3
0 920 2179 0 676 922 560 0 +-.014 .005 2e-5 0 0 -1 30 922 2180 0 919 923 920 0 +
-.01391408548319346 .005 2e-5 0 0 -1 30 560 2178 0 543 920 924 0 +-.013914085483
19346 -.004 1e-5 0 0 1 30 924 2177 0 546 560 840 0 +-.01391408548319346 -.003 1e
-5 0 0 1 16 546 2063 0 ?59 824 543 924 0 0 12 30 840 2176 0 824 924 839 0 +-.013
91408548319346 0 1e-5 0 -1 0 16 824 2070 0 ?327 834 546 840 0 0 12 17 327 0 539
 342 330 325 822 824 0 828 +17 330 0 539 327 345 328 838 834 0 822 -17 838 0 925
 268 825 343 330 834 0 883 +15 925 962 0 825 926 0 17 268 0 925 756 838 266 883
 629 0 888 +17 825 0 925 838 756 328 259 622 0 0 -17 883 0 878 880 879 343 268 6
29 0 0 -16 629 1900 0 ?268 609 626 624 626 609 12 16 626 1484 0 ?170 629 623 624
 609 629 12 17 170 0 927 928 768 168 929 626 0 632 +15 927 1487 0 930 931 0 17 9
28 0 927 930 170 167 632 630 0 932 -17 768 0 927 170 930 254 238 767 0 929 +17 9
29 0 876 877 872 254 170 626 0 0 -17 632 0 868 871 932 168 928 630 0 872 +17 932
 0 868 632 933 167 607 605 0 0 -17 872 0 876 929 87 168 871 468 0 0 -15 876 1553
 0 929 934 0 16 468 786 0 ?871 473 465 466 469 473 12 16 473 1061 0 ?70 469 468
 466 468 469 12 17 70 0 868 933 594 68 935 473 0 640 +17 933 0 868 932 70 171 64
0 621 0 0 -17 594 0 868 70 936 220 233 575 0 935 +17 935 0 937 578 938 220 70 47
3 0 0 -17 640 0 939 625 188 68 933 621 0 938 +15 939 1473 0 625 940 0 17 625 0 9
39 766 640 251 938 623 0 0 +17 188 0 939 640 766 171 612 610 0 607 -17 938 0 937
 935 941 68 625 623 0 0 -15 937 1569 0 578 942 0 17 941 0 937 938 578 251 250 73
1 0 625 -17 578 0 937 941 935 248 222 576 0 0 +17 250 0 943 244 253 248 941 731
 0 774 +16 731 1599 0 ?250 728 708 725 728 708 12 16 708 1613 0 ?291 731 696 725
 731 728 12 17 291 0 943 302 247 289 944 708 0 744 +15 943 1692 0 235 945 0 17 3
02 0 943 294 291 282 744 727 0 716 -17 247 0 943 291 241 245 759 757 0 944 -17 9
44 0 946 947 948 245 291 708 0 583 -17 744 0 862 77 892 289 302 727 0 948 +17 77
 0 862 866 744 75 948 482 0 867 +17 892 0 862 744 893 282 720 717 0 0 -17 948 0
 946 944 870 289 77 482 0 0 -15 946 1501 0 948 949 0 17 870 0 946 948 947 75 471
 469 0 0 -16 482 1498 0 ?77 486 479 480 428 486 12 16 486 1928 0 ?288 428 482 48
0 482 428 12 17 288 0 862 893 899 286 896 486 0 742 +17 899 0 862 288 865 351 36
5 921 0 896 +17 865 0 862 899 863 363 909 918 0 0 -17 365 0 539 368 353 363 899
 921 0 917 -16 921 2061 0 ?899 559 919 923 0 0 12 16 559 2069 0 ?349 543 921 902
 0 0 12 30 923 2181 0 921 902 922 0 +-.01391408548319346 -.005 2e-5 0 0 -1 30 90
2 2182 0 559 901 923 0 +-.014 -.005 2e-5 0 0 -1 17 349 0 705 324 362 347 863 559
 0 859 +17 324 0 705 312 349 322 859 847 0 836 +17 362 0 705 349 370 346 904 903
 0 909 -17 370 0 705 362 359 350 673 676 0 904 -17 359 0 705 370 315 357 678 681
 0 673 +16 681 2022 0 ?359 843 913 848 843 847 12 16 913 2307 0 ?54 681 57 912 0
 0 12 17 54 0 53 378 51 360 58 913 0 0 +16 57 2311 0 ?51 913 950 914 0 0 12 16 9
50 2315 0 ?55 57 951 952 0 0 12 30 914 2378 0 57 952 912 0 +-.01499 .00499 .0061
4436598137758 0 1 0 30 952 2379 0 950 953 914 0 +-.01499 -.00499 .005 0 0 1 30 9
53 2380 0 951 954 952 0 +-.01499 .00499 .005 0 -1 0 16 951 2303 0 ?378 950 389 9
53 0 0 12 30 954 2596 0 389 955 953 0 +.01499 .00499 0 0 0 -1 16 389 2528 0 ?388
 951 401 954 0 0 12 30 955 2607 0 401 402 954 0 +.01499 .005 .005 0 1 0 16 401 2
521 0 ?46 389 49 955 0 0 12 30 402 2608 0 49 394 955 0 +.01499 -.00499 .00614436
598137758 0 0 -1 30 394 2609 0 386 0 402 0 +.01499 .005 .00614436598137758 0 -1
 0 17 46 0 45 383 43 379 50 401 0 388 +17 50 0 956 399 957 30 46 401 0 396 -17 3
88 0 958 372 393 379 383 389 0 957 +15 958 732 0 393 959 0 17 372 0 958 58 388 3
60 957 414 0 960 +17 393 0 958 388 58 381 391 652 0 0 +17 957 0 956 50 960 379 3
72 414 0 0 -15 956 2626 0 957 660 657 17 960 0 956 957 399 360 378 951 0 54 -17
 399 0 956 960 50 376 396 400 0 0 -17 378 0 53 55 54 376 960 951 0 397 +15 53 23
57 0 378 961 0 17 55 0 53 51 378 373 397 950 0 0 +17 397 0 395 396 375 376 55 95
0 0 399 -14 255 961 2355 962 ?387 963 53 24 964 +0 0 387 963 40 81 1 962 2917 96
5 961 966 0 967 968 969 14 387 2580 968 ?0 961 45 24 970 +0 0 0 961 40 14 963 21
51 967 ?961 542 907 24 971 -0 0 961 542 40 50 964 2368 0 961 970 971 0 +-.01499
 0 0 -1 0 0 0 0 1 13 40 112 0 0 0 0 0 0 28 34 14 34 2491 972 ?959 0 395 24 973 -
0 0 959 0 40 81 1 972 2857 965 34 974 0 0 975 976 14 959 2486 975 ?977 34 958 24
 978 +0 0 977 34 40 50 973 584 0 34 978 979 0 +0 -.00499 0 0 1 0 0 0 1 50 978 74
3 0 959 980 973 0 +0 .00499 0 0 1 0 0 0 1 50 979 582 0 403 973 981 0 +-.015 -.00
499 .00614436598137758 0 0 1 1 0 0 14 403 559 982 ?660 897 983 24 979 -0 0 660 8
97 40 50 981 580 0 660 979 984 0 +-.015 -.00499 .005 0 0 -1 -1 0 0 14 660 567 98
5 ?986 403 956 24 981 -0 0 986 403 40 50 984 3 0 805 981 987 0 +0 0 .05 0 0 1 1
 0 0 14 805 1 988 ?897 864 803 24 984 +0 0 897 864 40 50 987 230 0 897 984 989 0
 +0 0 0 0 0 1 1 0 0 14 897 148 990 ?403 805 895 24 987 -687 884 403 805 40 50 98
9 291 0 864 987 991 0 +0 -.005 .05 0 1 0 0 0 1 14 864 268 992 ?805 993 862 24 98
9 -994 994 805 993 40 50 991 292 0 995 989 996 0 +-.015 0 .05 -1 0 0 0 0 1 14 99
5 1129 997 ?998 869 999 24 991 +669 669 998 869 40 50 996 293 0 1000 991 1001 0
 +0 .005 .05 0 1 0 0 0 1 14 1000 272 1002 ?1003 994 1004 24 996 +674 674 1003 99
4 40 50 1001 294 0 869 996 1005 0 +.015 0 .05 -1 0 0 0 0 1 14 869 1144 1006 ?995
 1007 868 24 1001 -977 977 995 1007 40 50 1005 295 0 993 1001 1008 0 +-.013 0 .0
5 -1 0 0 0 0 1 14 993 276 1009 ?864 796 1010 24 1005 -0 0 864 796 40 50 1008 296
 0 998 1005 1011 0 +0 -.003 .05 0 1 0 0 0 1 14 998 1114 1012 ?801 995 788 24 100
8 +0 0 801 995 40 50 1011 297 0 1003 1008 1013 0 +-.0015 0 .05 1 0 0 0 0 -1 14 1
003 280 1014 ?36 1000 1015 24 1011 -0 0 36 1000 40 50 1013 298 0 1016 1011 1017
 0 +0 .003 .05 0 1 0 0 0 1 14 1016 833 1018 ?811 1019 1020 24 1013 -0 0 811 1019
 40 50 1017 299 0 801 1013 1021 0 +0 -.003 .05 0 1 0 0 0 1 14 801 1102 1022 ?102
3 998 780 24 1017 +0 0 1023 998 40 50 1021 300 0 796 1017 37 0 +.013 -3758567531
28308e-32 .05 -1 289120579329468e-30 0 -289120579329468e-30 -1 0 14 796 286 1024
 ?993 36 793 24 1021 +0 0 993 36 40 50 37 301 0 811 1021 25 0 +-1131341397376176
e-34 .003 .05 -377113799125393e-31 1 0 -1 -377113799125393e-31 0 14 811 824 1025
 ?884 1016 809 24 37 -0 0 884 1016 40 81 1 1025 2887 965 811 1026 0 1018 1027 10
28 14 884 799 1027 ?674 811 878 24 987 -897 1019 674 811 40 81 1 1027 2888 965 8
84 1029 0 1025 1030 1031 14 674 653 1030 ?994 884 662 24 996 +1000 1000 994 884
 40 14 1019 1074 1032 ?1016 1033 1034 24 987 -884 1033 1016 1033 40 81 1 1032 28
85 965 1019 1035 0 1036 1018 1037 14 1033 1081 1036 ?1019 1023 1038 24 987 -1019
 1023 1019 1023 40 15 1034 1072 0 1039 1019 0 17 1039 0 1034 1040 461 269 166 60
4 0 0 -17 1040 0 1034 211 1039 272 271 733 0 800 -17 461 0 1034 1039 211 164 794
 459 0 0 +17 166 0 1041 645 753 164 1039 604 0 798 +16 604 1470 0 ?166 623 602 6
19 623 623 12 15 1041 970 0 1042 1043 0 17 645 0 1041 1042 166 152 798 643 0 810
 +17 753 0 1041 166 1042 269 262 751 0 1039 +17 1042 0 1041 753 645 260 154 614
 0 0 -17 262 0 887 750 271 260 753 751 0 1044 -17 750 0 887 888 262 257 1044 748
 0 756 +17 271 0 887 262 274 269 1040 733 0 753 +17 1044 0 813 154 259 260 750 7
48 0 1042 -17 154 0 813 812 1044 152 1042 614 0 645 +17 259 0 813 1044 822 257 8
25 622 0 750 +16 622 1886 0 ?259 618 617 616 617 618 12 16 617 1456 0 ?180 622 6
13 616 618 622 12 17 180 0 1045 607 1046 167 930 617 0 928 +15 1045 1463 0 1046
 1047 0 17 607 0 1045 612 180 171 932 605 0 933 +17 1046 0 1045 180 612 236 235
 762 0 930 -17 930 0 927 768 928 236 180 617 0 0 -17 612 0 1045 1046 607 223 188
 610 0 0 +17 235 0 943 253 238 223 1046 762 0 766 +17 253 0 943 250 235 251 766
 764 0 941 -17 238 0 943 235 256 236 768 767 0 1046 -17 766 0 939 188 625 223 25
3 764 0 612 +17 256 0 943 238 281 254 877 728 0 768 +17 281 0 943 256 294 279 87
4 734 0 877 +17 877 0 876 87 929 279 256 728 0 873 -17 294 0 943 281 302 278 716
 714 0 726 -14 1047 1460 1048 ?1049 940 1045 24 1050 +823 700 1049 940 40 81 1 1
048 2875 965 1047 1051 0 1052 1053 1054 14 1049 1436 1053 ?1055 1047 773 24 1056
 +1057 849 1055 1047 40 14 940 1474 1052 ?1047 931 939 24 980 -986 694 1047 931
 40 50 1050 984 0 823 1056 1058 0 +0 0 1e-5 0 0 -1 -1 0 0 14 823 971 1059 ?1057
 1043 813 24 1050 +700 1047 1057 1043 40 14 700 1890 1060 ?849 703 697 24 1050 +
1047 823 849 703 40 81 1 1060 2866 965 700 1061 0 1062 1063 1064 14 849 1866 106
3 ?856 700 845 24 1056 +1049 1065 856 700 40 14 703 1904 1062 ?700 694 701 24 10
58 -931 926 700 694 40 81 1 1062 2865 965 703 1066 0 1067 1060 1068 14 694 1918
 1067 ?703 860 690 24 980 -940 1043 703 860 40 50 1058 982 0 926 1050 980 0 +.01
5 .004 1e-5 0 1 0 0 0 1 14 931 1488 1069 ?940 949 927 24 1058 -926 703 940 949 4
0 14 926 959 1070 ?1043 830 925 24 1058 -703 931 1043 830 40 81 1 1070 2903 965
 926 1071 0 1072 1073 1074 14 1043 967 1073 ?823 926 1041 24 980 -694 830 823 92
6 40 14 830 951 1072 ?926 986 826 24 980 -1043 986 926 986 40 81 1 1072 2902 965
 830 1075 0 1076 1070 1077 14 986 939 1076 ?830 660 1078 24 980 -830 940 830 660
 40 50 980 980 0 1043 1058 978 0 +.015 .003 1e-5 0 -1 0 0 0 -1 81 1 1076 2901 96
5 986 1079 0 985 1072 1080 15 1078 942 0 151 986 0 17 151 0 1078 163 148 149 814
 816 0 812 -17 163 0 1078 160 151 161 815 646 0 1081 +17 148 0 1078 151 160 146
 650 648 0 814 -17 160 0 1078 148 163 158 1081 503 0 650 -17 650 0 1015 464 516
 158 148 648 0 1082 +15 1015 279 0 464 1003 0 17 464 0 1015 786 650 203 1082 462
 0 0 +17 516 0 1015 650 111 146 1083 514 0 0 +17 1082 0 1038 1081 1084 158 464 4
62 0 0 -15 1038 1080 0 1084 1033 0 17 1081 0 1038 458 1082 161 160 503 0 1085 +1
7 1084 0 1038 1082 458 203 208 530 0 464 -17 458 0 1038 1084 1081 206 1085 419 0
 0 +17 208 0 784 196 205 206 1084 530 0 601 +16 530 1079 0 ?208 536 527 528 532
 536 12 16 536 1862 0 ?202 532 530 528 530 532 12 17 202 0 789 190 545 200 791 5
36 0 792 +17 791 0 1086 832 1087 337 202 536 0 0 -17 792 0 1010 467 510 200 190
 587 0 1087 -15 1010 275 0 467 993 0 17 467 0 1010 642 792 155 1087 465 0 0 +17
 510 0 1010 792 1088 178 105 507 0 0 +17 1087 0 1086 791 157 200 467 465 0 0 -15
 1086 1087 0 791 1023 0 17 157 0 1086 1087 832 155 829 531 0 827 +17 832 0 1086
 157 791 340 339 900 0 829 -16 531 1914 0 ?157 527 503 525 503 527 12 16 503 796
 0 ?1081 531 500 525 527 531 12 17 339 0 539 59 342 337 832 900 0 545 +14 1023 1
088 1089 ?1033 801 1086 24 987 -1033 949 1033 801 40 81 1 1089 2883 965 1023 109
0 0 1022 1036 1091 14 949 1503 1092 ?931 934 946 24 987 -1023 934 931 934 40 81
 1 1092 2872 965 949 1093 0 1094 1069 1095 14 934 1555 1094 ?949 942 876 24 987
 -949 942 949 942 40 81 1 1094 2871 965 934 1096 0 1097 1092 1098 14 942 1571 10
97 ?934 853 937 24 987 -934 860 934 853 40 81 1 1097 2870 965 942 1099 0 1100 10
94 1101 14 853 1837 1100 ?942 856 852 24 1102 +1007 562 942 856 40 14 860 1933 1
103 ?694 679 858 24 987 -942 679 694 679 40 81 1 1103 2863 965 860 1104 0 1105 1
067 1106 14 679 1985 1105 ?860 687 677 24 987 -860 687 860 687 40 81 1 1105 2862
 965 679 1107 0 1108 1103 1109 14 687 2001 1108 ?679 669 683 24 987 -679 897 679
 669 40 81 1 1108 2861 965 687 1110 0 1111 1105 1112 14 669 2293 1111 ?687 977 6
66 24 991 +995 995 687 977 40 81 1 1111 2860 965 669 1113 0 1114 1108 1115 14 97
7 2475 1114 ?669 959 1116 24 1001 -869 869 669 959 40 81 1 1114 2859 965 977 111
7 0 975 1111 1118 15 1116 2473 0 139 977 0 17 139 0 1116 1119 489 137 127 420 0
 656 -17 1119 0 1116 1120 139 97 502 500 0 450 -17 489 0 1116 139 1120 125 1121
 487 0 0 +17 127 0 983 124 656 125 139 420 0 1122 +17 656 0 983 127 142 137 1123
 651 0 502 +15 983 2627 0 656 403 390 17 142 0 983 656 124 140 418 416 0 1123 -1
7 1123 0 1004 96 502 140 656 651 0 498 -17 502 0 1004 1123 450 137 1119 500 0 0
 +15 1004 651 0 1123 1000 0 17 450 0 1004 502 96 97 1124 448 0 0 +17 96 0 1004 4
50 1123 94 498 496 0 1124 -17 1124 0 1125 1126 99 94 450 448 0 453 -15 1125 6 0
 99 805 0 17 1126 0 1125 90 1124 91 453 451 0 0 -17 99 0 1125 1124 90 97 1120 44
6 0 1119 +17 453 0 999 498 93 94 1126 451 0 0 +15 999 2291 0 498 995 0 17 498 0
 999 418 453 140 96 496 0 0 +17 93 0 999 453 418 91 494 492 0 1127 -17 418 0 999
 93 498 88 142 416 0 494 +17 494 0 1128 1122 1127 88 93 492 0 0 +17 1127 0 1128
 494 1121 91 90 454 0 1126 -15 1128 477 0 494 994 0 17 1121 0 1128 1127 1122 74
 489 487 0 1120 -17 90 0 1125 99 1126 74 1127 454 0 1121 +17 1122 0 1128 1121 49
4 125 124 408 0 489 -17 1120 0 1116 489 1119 74 99 446 0 0 -17 124 0 983 142 127
 88 1122 408 0 418 +14 994 479 1129 ?1000 674 1128 24 989 -864 864 1000 674 40 8
1 1 1129 2890 965 994 1130 0 1030 1002 1131 80 255 1 965 0 1132 8001 0 0 0 0 3 5
 0 0 0 FFFFTFTFFFFFFF2 81 1 1130 2820 1133 994 0 1129 1117 1134 1135 81 1 1030 2
889 965 674 1136 0 1027 1129 1137 81 1 1002 2891 965 1000 1138 0 1129 1014 1139
 83 255 3 1131 1 1 1 81 1 1138 2723 1133 1000 0 1002 1140 1141 1142 81 1 1014 28
92 965 1003 1143 0 1002 1144 1145 83 3 1139 1 1 1 81 1 1143 2731 1133 1003 0 101
4 1146 1147 1148 81 1 1144 2893 965 36 1149 0 1014 1024 1150 83 3 1145 1 1 1 14
 36 290 1144 ?796 1003 1151 24 25 +0 0 796 1003 40 81 1 1149 2854 1133 36 0 1144
 1152 0 1153 81 1 1024 2894 965 796 1154 0 1144 1009 1155 83 3 1150 1 1 1 81 1 1
154 2738 1133 796 0 1024 1156 1026 1157 81 1 1009 2895 965 993 1158 0 1024 992 1
159 83 3 1155 1 1 1 81 1 1158 2727 1133 993 0 1009 1141 1146 1160 81 1 992 2896
 965 864 1161 0 1009 988 1162 83 3 1159 1 1 1 81 1 1161 2719 1133 864 0 992 1163
 1140 1164 81 1 988 2897 965 805 1165 0 992 990 1166 83 3 1162 1 1 1 81 1 1165 2
711 1133 805 0 988 1167 1163 1168 81 1 990 2898 965 897 1163 0 988 982 1169 83 3
 1166 1 1 1 81 1 1163 2715 1133 897 0 990 1165 1161 1170 81 1 982 2899 965 403 1
171 0 990 985 1172 83 3 1169 1 1 1 81 1 1171 2701 1133 403 0 982 1173 1167 1174
 81 1 985 2900 965 660 1167 0 982 1076 1175 83 3 1172 1 1 1 81 1 1167 2706 1133
 660 0 985 1171 1165 1176 83 3 1175 1 1 1 80 1 1133 1177 1178 9000 1 1 1 1 1 1 1
 1 0 FFFFTFTFFFFFFF1 82 255 1 1176 96600302 79 255 14 1178 SWEntUnchanged81 1 11
73 2699 1133 959 0 975 974 1171 1179 82 1 1174 96403694 81 1 975 2858 965 959 11
73 0 972 1114 1180 81 1 974 2697 1133 34 0 972 1181 1173 1182 82 1 1179 -7156528
82 81 1 1181 2695 1133 963 0 967 1183 974 1184 82 1 1182 -715194130 81 1 967 291
6 965 963 1181 0 1185 962 1186 81 1 1183 2693 1133 387 0 968 966 1181 1187 82 1
 1184 1262551272 81 1 968 2918 965 387 1183 0 962 0 1188 81 1 966 2691 1133 961
 0 962 0 1183 1189 82 1 1187 -733413138 82 1 1189 -1554710293 83 3 1188 1 1 1 81
 1 1185 2915 965 542 1152 0 1190 967 1191 83 3 1186 1 1 1 14 542 2127 1185 ?963
 842 539 24 1192 -0 0 963 842 40 81 1 1152 2852 1133 542 0 1185 1193 1149 1194 8
1 1 1190 2914 965 842 1193 0 1195 1185 1196 83 3 1191 1 1 1 14 842 2119 1190 ?54
2 891 705 24 1197 -0 0 542 891 40 81 1 1193 2850 1133 842 0 1190 1198 1152 1199
 81 1 1195 2913 965 891 1200 0 1201 1190 1202 83 3 1196 1 1 1 14 891 1721 1195 ?
842 889 890 24 1203 +0 0 842 889 40 81 1 1200 2846 1133 891 0 1195 1204 1198 120
5 81 1 1201 2912 965 889 1204 0 1206 1195 1207 83 3 1202 1 1 1 14 889 1697 1201
 ?891 945 887 24 1208 -0 0 891 945 40 81 1 1204 2844 1133 889 0 1201 1209 1200 1
210 81 1 1206 2911 965 945 1209 0 1211 1201 1212 83 3 1207 1 1 1 14 945 1689 120
6 ?889 562 943 24 1213 -0 0 889 562 40 81 1 1209 2842 1133 945 0 1206 1214 1204
 1215 81 1 1211 2910 965 562 1216 0 1217 1206 1218 83 3 1212 1 1 1 14 562 1288 1
211 ?945 554 547 24 1102 +853 1007 945 554 40 81 1 1216 2836 1133 562 0 1211 121
9 1220 1221 81 1 1217 2909 965 554 1219 0 1222 1211 1223 83 3 1218 1 1 1 14 554
 1279 1217 ?562 1065 551 24 1224 -856 1055 562 1065 40 81 1 1219 2834 1133 554 0
 1217 1225 1216 1226 81 1 1222 2908 965 1065 1225 0 1227 1217 1228 83 3 1223 1 1
 1 14 1065 1268 1222 ?554 790 799 24 1056 +849 790 554 790 40 81 1 1225 2830 113
3 1065 0 1222 1229 1219 1230 81 1 1227 2907 965 790 1229 0 1231 1222 1232 83 3 1
228 1 1 1 14 790 1262 1227 ?1065 1057 789 24 1056 +1065 1057 1065 1057 40 81 1 1
229 2826 1133 790 0 1227 1134 1225 1233 81 1 1231 2906 965 1057 1134 0 1059 1227
 1234 83 3 1232 1 1 1 14 1057 1244 1231 ?790 823 784 24 1056 +790 1049 790 823 4
0 81 1 1134 2822 1133 1057 0 1231 1130 1229 1235 81 1 1059 2905 965 823 1236 0 1
073 1231 1237 83 3 1234 1 1 1 81 1 1236 2764 1133 823 0 1059 1238 1061 1239 81 1
 1073 2904 965 1043 1240 0 1070 1059 1241 83 3 1237 1 1 1 81 1 1240 2780 1133 10
43 0 1073 1071 1075 1242 83 3 1241 1 1 1 81 1 1071 2778 1133 926 0 1070 1243 124
0 1244 81 1 1075 2782 1133 830 0 1072 1240 1079 1245 82 1 1242 87163109 81 1 107
9 2784 1133 986 0 1076 1075 1090 1246 82 1 1245 87556328 81 1 1090 2786 1133 102
3 0 1089 1079 1093 1247 82 1 1246 1552220373 81 1 1093 2790 1133 949 0 1092 1090
 1096 1248 82 1 1247 1845821672 81 1 1096 2794 1133 934 0 1094 1093 1099 1249 82
 1 1248 29556965 81 1 1099 2798 1133 942 0 1097 1096 1250 1251 82 1 1249 3427555
7 81 1 1250 2802 1133 853 0 1100 1099 1104 1252 82 1 1251 35586277 81 1 1100 286
9 965 853 1250 0 1253 1097 1254 81 1 1104 2804 1133 860 0 1103 1250 1107 1255 82
 1 1252 1273692392 81 1 1107 2808 1133 679 0 1105 1104 1110 1256 82 1 1255 12942
70696 81 1 1110 2812 1133 687 0 1108 1107 1113 1257 82 1 1256 1298989288 81 1 11
13 2816 1133 669 0 1111 1110 1117 1258 82 1 1257 1300300008 81 1 1117 2818 1133
 977 0 1114 1113 1130 1259 82 1 1258 -1542651669 82 1 1259 -716635922 81 1 1253
 2868 965 856 1198 0 1063 1100 1260 83 3 1254 1 1 1 14 856 1852 1253 ?853 849 85
5 24 1224 -1055 554 853 849 40 81 1 1198 2848 1133 856 0 1253 1200 1193 1261 81
 1 1063 2867 965 849 1262 0 1060 1253 1263 83 3 1260 1 1 1 81 1 1262 2768 1133 8
49 0 1063 1061 1066 1264 83 3 1263 1 1 1 81 1 1061 2766 1133 700 0 1060 1236 126
2 1265 81 1 1066 2772 1133 703 0 1062 1262 1266 1267 82 1 1264 1287520488 81 1 1
266 2774 1133 694 0 1067 1066 1243 1268 82 1 1267 1291321576 81 1 1067 2864 965
 694 1266 0 1103 1062 1269 81 1 1243 2776 1133 931 0 1069 1266 1071 1270 82 1 12
68 1292763368 81 1 1069 2873 965 931 1243 0 1092 1052 1271 82 1 1270 28049637 81
 1 1052 2874 965 940 1238 0 1069 1048 1272 83 3 1271 1 1 1 81 1 1238 2762 1133 9
40 0 1052 1273 1236 1274 83 3 1272 1 1 1 81 1 1273 2758 1133 1049 0 1053 1051 12
38 1275 82 1 1274 26607845 81 1 1053 2876 965 1049 1273 0 1048 1276 1277 81 1 10
51 2756 1133 1047 0 1048 1278 1273 1279 82 1 1275 22806757 81 1 1278 2752 1133 1
033 0 1036 1035 1051 1280 82 1 1279 25166053 81 1 1036 2884 965 1033 1278 0 1089
 1032 1281 81 1 1035 2748 1133 1019 0 1032 1136 1278 1282 82 1 1280 1845231841 8
1 1 1136 2746 1133 674 0 1030 1029 1035 1283 82 1 1282 1844642021 81 1 1029 2742
 1133 884 0 1027 1026 1136 1284 82 1 1283 89129198 81 1 1026 2740 1133 811 0 102
5 1154 1029 1285 82 1 1284 88998120 82 1 1285 1553727701 83 3 1281 1 1 1 81 1 12
76 2877 965 1055 1214 0 1053 1286 1287 83 3 1277 1 1 1 14 1055 1422 1276 ?1007 1
049 1288 24 1224 -554 856 1007 1049 40 81 1 1214 2840 1133 1055 0 1276 1220 1209
 1289 81 1 1286 2878 965 1007 1220 0 1276 1006 1290 83 3 1287 1 1 1 14 1007 1407
 1286 ?869 1055 1291 24 1102 +562 853 869 1055 40 81 1 1220 2838 1133 1007 0 128
6 1216 1214 1292 81 1 1006 2879 965 869 1141 0 1286 997 1293 83 3 1290 1 1 1 81
 1 1141 2725 1133 869 0 1006 1138 1158 1294 81 1 997 2880 965 995 1140 0 1006 10
12 1295 83 3 1293 1 1 1 81 1 1140 2721 1133 995 0 997 1161 1138 1296 81 1 1012 2
881 965 998 1146 0 997 1022 1297 83 3 1295 1 1 1 81 1 1146 2729 1133 998 0 1012
 1158 1143 1298 81 1 1022 2882 965 801 1156 0 1012 1089 1299 83 3 1297 1 1 1 81
 1 1156 2736 1133 801 0 1022 1147 1154 1300 83 3 1299 1 1 1 81 1 1147 2734 1133
 1016 0 1018 1143 1156 1301 82 1 1300 1854472417 81 1 1018 2886 965 1016 1147 0
 1032 1025 1302 82 1 1301 1554579669 83 3 1302 1 1 1 82 1 1298 1855652065 82 1 1
296 1857028331 82 1 1294 1858404590 82 1 1292 8978661 15 1291 1410 0 1303 1007 0
 50 1102 1303 0 562 1213 1224 0 +0 0 1e-5 0 0 -1 -1 0 0 50 1213 1729 0 945 1208
 1102 0 +.01410088317401296 .005 2e-5 1 0 0 0 0 -1 50 1224 1300 0 554 1102 1056
 0 +-1156482317317874e-34 -.004 1e-5 -289120579329468e-31 -1 0 1 -28912057932946
8e-31 0 50 1056 1298 0 1065 1224 1050 0 +-173472347597681e-33 -.003 1e-5 -578241
158658936e-31 -1 0 1 -578241158658936e-31 0 50 1208 1731 0 889 1203 1213 0 +.014
 .005 2e-5 -1 0 0 0 0 1 50 1203 1734 0 891 1197 1208 0 +0 0 2e-5 0 0 -1 -1 0 0 5
0 1197 2159 0 842 1192 1203 0 +-.014 .005 2e-5 -1 0 0 0 0 1 50 1192 2161 0 542 9
71 1197 0 +-.01391408548319346 .005 2e-5 1 0 0 0 0 -1 50 971 2164 0 963 964 1192
 0 +0 0 2e-5 0 0 1 1 0 0 17 1303 0 1291 775 567 242 241 538 0 770 -17 775 0 1291
 776 1303 216 770 769 0 936 -17 567 0 1291 1303 776 239 231 564 0 0 +17 241 0 94
3 247 244 239 1303 538 0 759 +17 244 0 943 241 250 242 774 760 0 1303 +17 759 0
 1288 231 583 239 247 757 0 567 +15 1288 1421 0 583 1055 0 17 231 0 1288 67 759
 229 567 564 0 776 -17 583 0 1288 759 67 245 947 581 0 0 +17 67 0 1288 583 231 6
5 1304 591 0 947 +17 947 0 946 870 944 65 583 581 0 471 -17 471 0 868 1304 867 6
5 870 469 0 0 +17 1304 0 868 936 471 229 67 591 0 0 -17 936 0 868 594 1304 216 7
76 569 0 0 -17 776 0 1291 567 775 229 936 569 0 1304 +17 774 0 773 222 770 248 2
44 760 0 578 -15 773 1441 0 774 1049 0 17 222 0 773 233 774 220 578 576 0 594 -1
7 233 0 773 770 222 216 594 575 0 775 -82 1 1289 19529957 83 3 1269 1 1 1 82 1 1
265 1289879784 82 1 1261 1284243688 82 1 1244 87359720 82 1 1239 87294184 82 1 1
235 1853161697 15 784 1249 0 205 1057 0 17 205 0 784 208 782 203 786 602 0 1084
 +17 786 0 1015 1305 464 191 205 602 0 513 -17 1305 0 1015 111 786 106 513 511 0
 443 -17 513 0 788 787 443 191 1305 511 0 0 +15 788 277 0 513 998 0 17 443 0 788
 513 105 106 1306 441 0 0 +17 105 0 788 443 787 103 510 507 0 1088 -17 1306 0 80
6 102 108 103 443 441 0 0 -15 806 5 0 438 805 1125 17 102 0 806 438 1306 100 108
8 444 0 1307 +17 108 0 806 1306 438 106 111 439 0 1305 +17 438 0 806 108 102 109
 1308 436 0 1083 +17 111 0 1015 516 1305 109 108 439 0 438 -17 1308 0 1020 506 1
083 100 438 436 0 0 -17 1083 0 1020 1308 820 109 516 514 0 0 -15 1020 831 0 820
 1016 0 17 820 0 1020 1083 506 146 819 818 0 516 -17 506 0 1020 820 1308 143 130
7 504 0 0 +17 1307 0 1010 1088 642 100 506 504 0 1308 -17 1088 0 1010 510 1307 1
03 102 444 0 1306 -17 642 0 1010 1307 467 143 827 633 0 506 +82 1 1233 185119562
4 82 1 1230 1838743781 15 799 1435 0 1309 1065 0 17 1309 0 799 199 800 263 274 7
46 0 563 -17 199 0 799 795 1309 197 563 771 0 781 +17 800 0 799 1309 795 272 211
 580 0 0 -17 274 0 887 271 265 272 1309 746 0 1040 +17 265 0 887 274 64 263 561
 535 0 1309 +17 64 0 887 265 277 60 555 736 0 561 -17 555 0 551 553 552 275 64 7
36 0 557 +17 211 0 1034 461 1040 209 800 580 0 795 +16 580 1432 0 ?211 576 767 5
73 576 576 12 82 1 1226 1838481640 82 1 1221 1830355176 82 1 1215 18415845 82 1
 1210 13893861 82 1 1205 -2162459 82 1 1199 1283129576 82 1 1194 1278607592 83 3
 1180 1 1 1 82 1 1170 89260264 82 1 1168 -1218379635 82 1 1164 98435304 82 1 116
0 88080609 82 1 1157 88735969 82 1 1153 92340449 15 1151 289 0 1085 36 0 17 1085
 0 1151 815 601 161 458 419 0 0 -17 815 0 1151 122 1085 149 163 646 0 526 -17 60
1 0 1151 1085 518 206 196 599 0 458 +17 518 0 1151 601 426 194 114 456 0 0 +17 1
96 0 784 782 208 194 601 599 0 785 -17 426 0 1151 518 122 112 804 424 0 802 +17
 122 0 1151 426 815 78 526 508 0 807 -82 1 1148 88342753 82 1 1142 92733678 83 3
 1137 1 1 1 82 1 1135 -1301086015 79 15 1132 SDL/TYSA_COLOUR83 3 1118 1 1 1 83 3
 1115 1 1 1 83 3 1112 1 1 1 83 3 1109 1 1 1 83 3 1106 1 1 1 83 3 1101 1 1 1 83 3
 1098 1 1 1 83 3 1095 1 1 1 83 3 1091 1 1 1 83 3 1080 1 1 1 83 3 1077 1 1 1 83 3
 1074 1 1 1 83 3 1068 1 1 1 83 3 1064 1 1 1 83 3 1054 1 1 1 16 733 1595 0 ?271 7
18 730 729 718 730 12 17 756 0 925 825 268 257 888 754 0 0 +83 3 1037 1 1 1 83 3
 1031 1 1 1 83 3 1028 1 1 1 83 3 976 1 1 1 50 970 2593 0 387 0 964 0 +.01499 0 0
 1 0 0 0 0 -1 15 907 2153 0 904 963 0 83 3 969 1 1 1 17 58 0 958 393 372 44 54 9
13 0 391 -17 391 0 390 56 385 44 393 652 0 0 -17 312 0 705 41 324 310 836 833 0
 844 -17 368 0 539 356 365 366 917 910 0 908 -17 917 0 907 909 908 363 368 910 0
 865 +17 908 0 907 917 904 366 675 905 0 886 +17 675 0 662 673 886 350 908 905 0
 0 -17 886 0 662 675 881 366 356 919 0 0 -17 356 0 539 345 368 354 886 919 0 880
 +16 491 468 0 ?867 487 514 484 487 487 12 17 307 0 705 304 318 305 692 696 0 69
9 -17 304 0 705 315 307 292 699 706 0 702 +17 699 0 697 186 620 305 304 706 0 69
3 -17 693 0 690 692 691 305 186 608 0 0 -19 35 316 0 12 0 28 24 S0 74 4 CI16 ind
ex_map_offset0 0 1 dCCZ20 33 4 0 0 1149 31 968 21 0 0 0 0 0 0 0 0 0 0 0 0 0 0 0
 0 81 2 31 406 1310 12 0 21 0 0 1311 0 80 2 1310 1312 1313 8004 0 0 0 0 3 5 0 0
 0 FFTFFFFFFFFFFF2 3 83 1 1311 1e3 79 16 1313 SDL/TYSA_DENSITY80 1 5 1314 1315 8
017 0 0 0 0 0 0 0 0 0 TTTTTTTTTTTTTF3 84 255 4 32 79 13 1315 SDL/TYSA_NAME81
 1 10 71 5 7 0 0 0 0 1316 70 11 0 4 T7 0 0 3 20 1 1317 1317 13 13 31 0 7 0 1318
 0 0 1319 0 51 255 14 30 0 1318 1320 0 0 --.003410619604392775 .0023573400206832
45 .015 0 0 -1 .003 -1 0 0 31 255 15 25 0 1321 1322 0 0 +-.003410619604392775 .0
02357340020683245 0 0 0 1 1 0 0 .003 19 16 9 0 7 1319 0 1323 V0 16 17 5 0 ?1324
 0 1321 1322 0 0 7 17 1324 0 1325 1324 1324 0 1326 17 0 0 +16 1321 20 0 ?1327 17
 0 15 0 0 7 31 1322 7 0 17 0 15 0 +-.003410619604392775 .002357340020683245 .015
 0 0 1 1 0 0 .003 17 1327 0 1328 1327 1327 0 1329 1321 0 0 +15 1328 28 0 1327 13
18 0 17 1329 0 1330 1329 1329 0 1327 1321 0 0 -15 1330 19 0 1329 1331 0 14 1331
 18 1332 ?0 1333 1330 13 1320 -0 0 0 1333 1323 81 1 1332 70 965 1331 1334 0 1335
 0 1336 14 1333 1 1335 ?1331 1318 1325 13 1337 +0 0 1331 1318 1323 50 1320 24 0
 1331 1337 14 0 +-.003410619604392775 .002357340020683245 0 0 0 1 1 0 0 13 1323
 10 0 0 0 0 0 0 16 1318 14 1318 27 1338 ?1333 0 1339 13 14 -0 0 1333 0 1323 81 1
 1338 68 965 1318 1340 0 0 1335 1341 15 1339 26 0 1326 1318 1328 17 1326 0 1339
 1326 1326 0 1324 17 0 0 -81 1 1340 66 1133 1318 0 1338 1342 0 1343 81 1 1335 69
 965 1333 1342 0 1338 1332 1344 83 3 1341 .792156862745098 .819607843137255 .933
333333333333 81 1 1342 64 1133 1333 0 1335 1334 1340 1345 83 3 1344 .79215686274
5098 .819607843137255 .933333333333333 81 1 1334 62 1133 1331 0 1332 0 1342 1346
 82 1 1345 -905117541 82 1 1346 -903413605 82 1 1343 -903151461 50 1337 3 0 1333
 0 1320 0 +-.003410619604392775 .002357340020683245 .015 0 0 1 1 0 0 15 1325 4 0
 1324 1333 0 83 3 1336 .792156862745098 .819607843137255 .933333333333333 19 131
9 32 0 7 0 16 13 S0 74 20 1317 3 0 0 1340 1332 10 0 0 0 0 0 0 0 0 0 0 0 0 0 0 0
 0 0 84 14 1316 cylindersensor74 20 6 1 0 0 2 0 0 0 0 0 0 0 0 0 0 0 0 0 0 0 0 0
 0 0 1 0 
