**ABCDEFGHIJKLMNOPQRSTUVWXYZabcdefghijklmnopqrstuvwxyz**************************
**PARASOLID !"#$%&'()*+,-./:;<=>?@[\]^_`{|}~0123456789**************************
**PART1;
MC=AMD64;
MC_MODEL=Intel64 Family 6 Model 140 Stepping 2, GenuineIntel;
MC_ID=unknown;
OS=Windows_NT;
OS_RELEASE=unknown;
FRU=Parasolid Version 33.1, build 260,  4-25-2022;
APPL=SOLIDWORKS 2022-2022290;
SITE=;
USER=unknown;
FORMAT=text;
GUISE=transmit;
KEY=FILEclawpeghole.x_t;
DATE=Sun Oct 15 10:08:48 2023;
**PART2;
SCH=SCH_3301260_33103;
USFLD_SIZE=0;
**PART3;
**END_OF_HEADER*****************************************************************
T51 : TRANSMIT FILE created by modeller version 330126023 SCH_3301260_33103_1300
6230 0 10 21 CCCCI7 lattice222 0 CCCI4 mesh1006 0 I8 polyline1008 0 CCCCCCCCCCA1
6 mesh_offset_data206 0 Z1 11 2 3 0 0 0 0 0 0 0 0 1e3 1e-8 0 0 0 1 0 1 4 0 81 25
5 1 2 11 5 1 0 0 0 0 0 70 11 CI9 list_type0 0 1 uI10 notransmit0 0 1 lCCCDCCDI12
 finger_index0 0 1 dI12 finger_block1012 0 CZ3 0 4 T1 0 0 1 20 1 6 6 11 255 4 9
 0 1 7 8 1 9 0 0 0 12 35 CCCI7 lattice222 0 CCCI4 mesh1006 0 I8 polyline1008 0 C
CCCCCCDI5 owner1040 0 CCCCCCI13 boundary_mesh1006 0 I17 boundary_polyline1008 0
 CCCA16 index_map_offset0 0 1 dA9 index_map82 0 A17 node_id_index_map82 0 A20 sc
hema_embedding_map82 0 A5 child12 0 A14 lowest_node_id0 0 1 dA16 mesh_offset_dat
a206 0 Z7 622 10 11 0 0 0 0 0 0 0 1e3 1e-8 4 12 0 1 0 1 1 13 14 15 16 0 0 17 18
 19 0 0 0 0 0 0 0 100 10 CCCCCCCCCA9 precision229 0 Z8 10 4 0 0 110824435566037e
-29 .977790154545879 .209586291710946 1 -114034800442968e-29 323336787520337e-31
 270616862252382e-30 .209586291710946 -.977790154545879 .0373322657834846 .04942
9144247 -.00209765394326132 1 3 ?0 11 9 7 0 1 12 20 1 21 4 21 0 12 12 64 22 23 0
 0 0 0 0 0 0 1e3 1e-8 9 24 7 1 0 1 1 25 26 27 0 0 0 28 29 0 0 0 0 0 0 0 0 100 20
 8 9 0 0 1 0 0 0 0 1 0 -1 0 .04458709479106775 .0771037892497577 .02424328980383
685 1 3 ?0 11 21 5 0 1 12 30 1 31 9 0 9 100 30 6 21 0 0 1 0 0 0 0 -1 0 1 0 .0445
8709479106775 .0271037892497577 .01952860976247035 1 3 ?0 11 31 3 0 1 24 32 1 33
 21 0 0 12 24 566 34 35 0 0 0 0 0 0 0 1e3 1e-8 31 36 12 1 0 1 1 37 38 39 40 0 0
 41 42 43 0 0 0 0 0 0 0 100 32 4 31 0 0 .974165738677394 .225834261322606 -25292
5296484199e-30 -.225834261322606 .974165738677394 -473440688902136e-30 139472030
021449e-30 518328895925594e-30 1 .0380684886607709 .0652627320375439 .0538064010
818435 1 3 ?0 11 33 1 0 1 36 44 1 0 31 0 0 12 36 236 45 46 0 0 0 0 0 0 0 1e3 1e-
8 33 47 24 1 0 1 1 48 49 50 51 0 0 52 53 54 0 0 0 0 0 0 0 100 44 2 33 0 0 1 0 0
 0 1 0 0 0 1 .0502984800022377 .0547658262867948 .01380640108184352 1 1 ?0 81 1
 45 236 5 36 0 0 0 0 55 70 46 0 4 T36 0 0 3 20 1 56 56 13 255 48 99 0 36 0 57 0
 0 58 0 50 255 49 94 0 57 59 0 0 +-.03032407407407405 .02233796296296295 .09 1 0
 0 0 0 -1 30 255 50 98 0 53 60 0 0 +-.03032407407407405 -.02766203703703705 .09
 0 0 -1 29 255 51 75 0 61 62 0 -.03032407407407405 .02233796296296295 0 19 8 CCC
CCCCA5 owner12 0 Z52 33 0 36 58 0 63 V0 16 255 53 82 0 ?64 0 65 50 0 0 36 18 255
 54 30 0 66 0 67 68 ?36 17 255 66 0 69 70 71 54 72 73 0 74 +18 67 27 0 71 54 75
 76 ?36 29 68 32 0 54 76 77 -.03032407407407405 .02233796296296295 .09 29 76 29
 0 67 78 68 .01967592592592595 .02233796296296295 .09 29 77 78 0 79 68 80 -.0303
2407407407405 -.02766203703703705 0 18 79 69 0 81 82 0 77 ?36 29 80 77 0 82 77 6
2 .01967592592592595 -.02766203703703705 0 18 82 68 0 83 84 79 80 ?36 29 62 76 0
 84 80 51 .01967592592592595 .02233796296296295 0 18 84 67 0 85 61 82 62 ?36 17
 85 0 86 87 88 84 89 90 0 91 +18 61 66 0 92 93 84 51 ?36 17 92 0 94 74 91 61 95
 96 0 97 +18 93 21 0 98 75 61 99 ?36 17 98 0 100 64 101 93 102 103 0 70 -18 75 2
4 0 102 67 93 78 ?36 29 99 23 0 93 0 78 -.03032407407407405 -.02766203703703705
 .09 29 78 26 0 75 99 76 .01967592592592595 -.02766203703703705 .09 17 102 0 69
 71 70 75 98 103 0 101 +15 255 69 4 0 70 104 0 17 71 0 69 66 102 67 105 106 0 87
 +17 70 0 69 102 66 93 107 108 0 109 +16 103 9 0 ?102 106 108 110 0 0 36 17 101
 0 100 98 83 75 88 65 0 105 -15 100 87 0 83 111 0 17 83 0 100 101 64 82 81 112 0
 88 +17 88 0 86 85 105 82 101 65 0 89 +16 65 81 0 ?88 53 113 60 0 0 36 17 105 0
 86 88 87 75 71 106 0 0 -15 86 85 0 85 114 0 17 87 0 86 105 85 67 91 113 0 72 -1
6 106 13 0 ?71 73 103 115 0 0 36 16 73 17 0 ?66 116 106 117 0 0 36 30 115 15 0 1
06 110 117 0 +.01967592592592595 .02233796296296295 .09 -1387778780781446e-31 1
 0 30 110 11 0 103 118 115 0 +-.03032407407407405 -.02766203703703705 .09 1 0 0
 30 117 19 0 73 115 119 0 +-.03032407407407405 .02233796296296295 .09 -1 0 0 30
 119 74 0 120 117 121 0 +-.03032407407407405 .02233796296296295 0 0 -1 0 16 120
 62 0 ?122 112 0 119 0 0 36 30 121 73 0 112 119 123 0 +-.03032407407407405 -.027
66203703703705 0 1 0 0 16 112 58 0 ?83 90 120 121 0 0 36 30 123 72 0 90 121 124
 0 +.01967592592592595 .02233796296296295 0 -1387778780781446e-31 1 0 16 90 54 0
 ?85 96 112 123 0 0 36 30 124 71 0 96 123 125 0 +-.03032407407407405 .0223379629
6296295 0 -1 0 0 16 96 50 0 ?92 108 90 124 0 0 36 30 125 95 0 116 124 126 0 +-.0
3032407407407405 .02233796296296295 .09 0 0 -1 16 116 79 0 ?97 113 73 125 0 0 36
 30 126 96 0 113 125 60 0 +.01967592592592595 .02233796296296295 .09 0 0 -1 16 1
13 80 0 ?91 65 116 126 0 0 36 30 60 97 0 65 126 50 0 +.01967592592592595 -.02766
203703703705 .09 0 0 -1 17 91 0 94 92 72 84 87 113 0 95 +15 94 83 0 92 127 0 17
 72 0 94 91 74 67 66 73 0 0 -17 95 0 128 89 129 84 92 96 0 0 -15 128 49 0 129 13
0 0 17 89 0 128 81 95 82 85 90 0 0 -17 129 0 128 95 81 61 122 120 0 0 -17 81 0 1
28 129 89 79 83 112 0 64 -17 122 0 131 109 97 79 129 120 0 0 +15 131 89 0 122 57
 0 17 109 0 131 107 122 93 64 53 0 0 -17 97 0 131 122 107 61 74 116 0 129 +17 10
7 0 131 97 109 54 70 108 0 0 -17 74 0 94 72 92 54 97 116 0 107 -16 108 5 0 ?70 1
03 96 118 0 0 36 30 118 7 0 108 0 110 0 +-.03032407407407405 .02233796296296295
 .09 0 -1 0 17 64 0 100 83 98 79 109 53 0 122 +14 255 57 90 132 ?111 0 131 48 49
 -0 0 111 0 63 81 1 132 230 133 57 134 0 0 135 136 14 111 88 135 ?114 57 100 48
 59 -0 0 114 57 63 13 63 34 0 0 0 0 0 0 52 57 81 1 135 231 133 111 137 0 132 138
 139 14 114 86 138 ?127 111 86 48 140 -0 0 127 111 63 50 59 93 0 111 140 49 0 +-
.03032407407407405 -.02766203703703705 .09 0 1 0 0 0 1 50 140 92 0 114 141 59 0
 +.01967592592592595 .02233796296296295 .09 -1 -1387778780781446e-31 0 138777878
0781446e-31 -1 0 50 141 91 0 127 142 140 0 +-.03032407407407405 .022337962962962
95 .09 0 -1 0 0 0 -1 14 127 84 143 ?104 114 94 48 141 -0 0 104 114 63 50 142 70
 0 130 144 141 0 +0 0 0 0 0 1 1 0 0 14 130 48 145 ?0 104 128 48 142 -0 0 0 104 6
3 50 144 3 0 104 0 142 0 +0 0 .09 0 0 1 1 0 0 14 104 1 146 ?130 127 69 48 144 +0
 0 130 127 63 81 1 146 234 133 104 147 0 143 145 148 80 255 1 133 0 149 8001 0 0
 0 0 3 5 0 0 0 FFFFTFTFFFFFFF2 81 1 147 229 150 104 0 146 151 0 152 81 1 143 233
 133 127 153 0 138 146 154 81 1 145 235 133 130 151 0 146 0 155 83 255 3 148 .79
2156862745098 .819607843137255 .929411764705882 81 1 151 227 150 130 0 145 153 1
47 156 83 3 155 .792156862745098 .819607843137255 .929411764705882 80 1 150 157
 158 9000 1 1 1 1 1 1 1 1 0 FFFFTFTFFFFFFF1 81 1 153 225 150 127 0 143 159 151 1
60 82 255 1 156 905773201 81 1 159 223 150 114 0 138 137 153 161 82 1 160 906690
705 81 1 138 232 133 114 159 0 135 143 162 81 1 137 221 150 111 0 135 134 159 16
3 82 1 161 906952849 81 1 134 219 150 57 0 132 0 137 164 82 1 163 907214993 82 1
 164 907477137 83 3 162 .792156862745098 .819607843137255 .929411764705882 79 25
5 14 158 SWEntUnchanged83 3 154 .792156862745098 .819607843137255 .9294117647058
82 82 1 152 900137105 79 15 149 SDL/TYSA_COLOUR83 3 139 .792156862745098 .819607
843137255 .929411764705882 83 3 136 .792156862745098 .819607843137255 .929411764
705882 19 58 100 0 36 0 52 48 S0 74 4 CI16 index_map_offset0 0 1 dCCZ20 56 3 0 0
 147 145 45 0 0 0 0 0 0 0 0 0 0 0 0 0 0 0 0 0 80 1 5 165 166 8017 0 0 0 0 0 0 0
 0 0 TTTTTTTTTTTTTF3 84 255 8 55 cube peg79 13 166 SDL/TYSA_NAME81 1 34 508 5 24
 0 0 0 0 167 70 35 0 4 T24 0 0 3 20 1 168 168 13 37 99 0 24 0 169 0 0 170 0 50 3
8 94 0 171 172 0 0 +-.0503007518796993 .0487406015037594 .05 1 1156482317317872e
-31 0 -1156482317317872e-31 1 0 30 39 98 0 42 173 0 0 +-.0503007518796992 -.0712
593984962406 .05 0 0 -1 29 40 137 0 43 174 0 .03969924812030075 .018740601503759
4 .05 19 41 33 0 24 170 0 175 V0 16 42 82 0 ?176 0 177 39 0 0 24 18 43 135 0 178
 0 179 40 ?24 17 178 0 180 181 182 43 183 184 0 185 -18 179 112 0 186 43 187 174
 ?24 17 186 0 188 189 190 179 191 192 0 193 -18 187 66 0 194 179 195 196 ?24 29
 174 114 0 179 196 40 -.02030075187969925 .0187406015037594 0 29 196 75 0 187 19
7 174 -.0503007518796993 .0487406015037594 0 29 197 76 0 195 198 196 .0696992481
203008 .0487406015037594 0 18 195 67 0 199 187 200 197 ?24 29 198 77 0 200 201 1
97 .0696992481203008 -.0712593984962406 0 18 200 68 0 202 195 203 198 ?24 29 201
 78 0 203 204 198 -.0503007518796992 -.0712593984962406 0 18 203 69 0 205 200 20
6 201 ?24 29 204 232 0 206 207 201 .03969924812030075 .0187406015037594 0 18 206
 183 0 208 203 209 204 ?24 29 207 233 0 209 210 204 .03969924812030075 -.0412593
984962406 0 18 209 181 0 211 206 212 207 ?24 29 210 234 0 212 213 207 -.02030075
187969925 -.0412593984962406 0 18 212 188 0 214 209 215 210 ?24 29 213 400 0 215
 216 210 -.02030075187969925 -.0412593984962406 .05 18 215 351 0 217 212 218 213
 ?24 29 216 401 0 218 219 213 -.02030075187969925 .0187406015037594 .05 18 218 3
52 0 182 215 220 216 ?24 29 219 403 0 220 221 216 .03969924812030075 -.041259398
4962406 .05 18 220 343 0 181 218 222 219 ?24 29 221 408 0 222 223 219 -.05030075
18796993 .0487406015037594 .06 18 222 350 0 224 220 225 221 ?24 29 223 409 0 225
 226 221 .0696992481203008 .0487406015037594 .06 18 225 349 0 227 222 228 223 ?2
4 29 226 410 0 228 229 223 .0696992481203008 -.0712593984962406 .06 18 228 348 0
 230 225 231 226 ?24 29 229 411 0 231 0 226 -.0503007518796993 -.071259398496240
6 .06 18 231 345 0 232 228 0 229 ?24 17 232 0 233 234 235 231 176 42 0 236 -15 2
33 89 0 235 171 0 17 234 0 233 237 232 222 238 239 0 0 -17 235 0 233 232 237 203
 240 241 0 0 +17 176 0 242 202 236 203 232 42 0 235 +17 236 0 242 176 230 231 24
3 244 0 238 -15 242 87 0 202 245 0 17 230 0 242 236 202 228 246 177 0 243 -17 24
3 0 247 248 238 228 236 244 0 249 +16 244 333 0 ?243 250 239 251 0 0 24 17 238 0
 247 243 252 231 234 239 0 0 +15 247 376 0 238 253 0 17 252 0 247 238 248 222 25
4 255 0 234 +16 239 330 0 ?238 244 0 256 0 0 24 30 256 399 0 239 0 251 0 +-.0503
007518796993 .0487406015037594 .06 0 -1 0 30 251 398 0 244 256 257 0 +-.05030075
18796993 -.0712593984962406 .06 1 0 0 30 257 397 0 250 251 258 0 +.0696992481203
008 .0487406015037594 .06 0 1 0 16 250 336 0 ?248 255 244 257 0 0 24 30 258 396
 0 255 257 259 0 +-.0503007518796993 .0487406015037594 .06 -1 0 0 16 255 339 0 ?
252 192 250 258 0 0 24 30 259 230 0 260 258 261 0 +-.02030075187969925 .01874060
15037594 .05 404768811061255e-30 -1 0 16 260 169 0 ?262 263 264 259 0 0 24 30 26
1 229 0 263 259 265 0 +-.02030075187969925 -.0412593984962406 .05 1 0 0 16 263 1
72 0 ?266 267 260 261 0 0 24 30 265 228 0 267 261 268 0 +.03969924812030075 .018
7406015037594 .05 -2312964634635745e-31 1 0 16 267 175 0 ?269 184 263 265 0 0 24
 30 268 227 0 184 265 270 0 +-.02030075187969925 .0187406015037594 .05 -1 0 0 16
 184 178 0 ?183 271 267 268 0 0 24 30 270 226 0 192 268 272 0 +-.020300751879699
25 .0187406015037594 0 404768811061255e-30 -1 0 16 192 153 0 ?191 273 255 270 0
 0 24 30 272 225 0 273 270 274 0 +-.02030075187969925 -.0412593984962406 0 1 0 0
 16 273 157 0 ?275 276 192 272 0 0 24 30 274 224 0 276 272 277 0 +.0396992481203
0075 .0187406015037594 0 -2312964634635745e-31 1 0 16 276 161 0 ?278 264 273 274
 0 0 24 30 277 223 0 264 274 279 0 +-.02030075187969925 .0187406015037594 0 -1 0
 0 16 264 165 0 ?280 260 276 277 0 0 24 30 279 222 0 271 277 281 0 +-.0203007518
7969925 .0187406015037594 .05 0 0 -1 16 271 156 0 ?193 282 184 279 0 0 24 30 281
 221 0 282 279 283 0 +.03969924812030075 .0187406015037594 .05 0 0 -1 16 282 168
 0 ?208 284 271 281 0 0 24 30 283 220 0 284 281 285 0 +.03969924812030075 -.0412
593984962406 .05 0 0 -1 16 284 164 0 ?211 286 282 283 0 0 24 30 285 219 0 286 28
3 287 0 +-.02030075187969925 -.0412593984962406 .05 0 0 -1 16 286 160 0 ?190 241
 284 285 0 0 24 30 287 74 0 241 285 288 0 +-.0503007518796993 .0487406015037594
 0 1156482317317872e-31 -1 0 16 241 62 0 ?235 289 286 287 0 0 24 30 288 73 0 289
 287 290 0 +-.0503007518796992 -.0712593984962406 0 1 0 0 16 289 58 0 ?202 291 2
41 288 0 0 24 30 290 72 0 291 288 292 0 +.0696992481203008 .0487406015037594 0 -
1156482317317872e-31 1 0 16 291 54 0 ?199 293 289 290 0 0 24 30 292 71 0 293 290
 294 0 +-.0503007518796993 .0487406015037594 0 -1 0 0 16 293 50 0 ?194 295 291 2
92 0 0 24 30 294 95 0 295 292 296 0 +-.0503007518796993 .0487406015037594 .05 0
 0 -1 16 295 79 0 ?237 297 293 294 0 0 24 30 296 96 0 297 294 173 0 +.0696992481
203008 .0487406015037594 .05 0 0 -1 16 297 80 0 ?298 177 295 296 0 0 24 30 173 9
7 0 177 296 39 0 +.0696992481203008 -.0712593984962406 .05 0 0 -1 16 177 81 0 ?2
46 42 297 173 0 0 24 17 246 0 299 199 249 200 230 177 0 300 +15 299 85 0 199 301
 0 17 199 0 299 227 246 195 300 291 0 298 +17 249 0 299 246 227 228 248 250 0 0
 -17 300 0 302 205 303 200 199 291 0 0 -15 302 49 0 240 169 304 17 205 0 302 240
 300 203 202 289 0 176 -17 303 0 302 300 240 195 194 293 0 0 -17 240 0 302 303 2
05 187 235 241 0 0 -17 194 0 305 224 298 187 303 293 0 237 +15 305 83 0 194 306
 0 17 224 0 305 254 194 222 237 295 0 252 -17 298 0 305 194 254 195 227 297 0 30
3 +17 237 0 233 235 234 187 224 295 0 240 +17 254 0 305 298 224 225 252 255 0 0
 -17 227 0 299 249 199 225 298 297 0 248 -17 248 0 247 252 243 225 249 250 0 254
 +14 306 84 307 ?308 301 305 37 309 -0 0 308 301 175 81 1 307 546 150 306 310 0
 0 311 312 14 308 189 311 ?313 306 188 37 314 +0 0 313 306 175 14 301 86 315 ?30
6 245 299 37 316 -0 0 306 245 175 50 309 91 0 306 317 316 0 +-.0503007518796993
 .0487406015037594 .05 0 -1 0 0 0 -1 13 175 34 0 0 0 0 0 0 41 169 14 169 130 318
 ?171 0 302 37 317 -0 0 171 0 175 81 1 318 552 150 169 319 0 315 320 321 14 171
 90 320 ?245 169 233 37 38 -0 0 245 169 175 50 317 70 0 169 314 309 0 +0 0 0 0 0
 1 1 0 0 50 314 213 0 308 322 317 0 +-.02030075187969925 .0187406015037594 .05 1
 404768811061255e-30 0 -404768811061255e-30 1 0 50 322 214 0 313 323 314 0 +-.02
030075187969925 -.0412593984962406 .05 0 1 0 0 0 1 14 313 193 324 ?325 308 326 3
7 322 +0 0 325 308 175 50 323 215 0 325 327 322 0 +.03969924812030075 .018740601
5037594 .05 -1 -2312964634635745e-31 0 2312964634635745e-31 -1 0 14 325 197 328
 ?329 313 330 37 323 +0 0 329 313 175 50 327 216 0 329 331 323 0 +-.020300751879
69925 .0187406015037594 .05 0 -1 0 0 0 -1 14 329 201 332 ?333 325 334 37 327 +0
 0 333 325 175 50 331 386 0 333 335 327 0 +0 0 .05 0 0 1 1 0 0 14 333 377 336 ?2
53 329 180 37 331 -0 0 253 329 175 50 335 387 0 253 0 331 0 +0 0 .06 0 0 1 1 0 0
 14 253 374 337 ?0 333 247 37 335 +0 0 0 333 175 81 1 337 564 150 253 338 0 336
 339 340 81 1 338 507 133 253 0 337 341 0 342 81 1 336 562 150 333 341 0 332 337
 343 81 1 339 566 150 245 344 0 337 0 345 82 1 340 280428703 14 245 88 339 ?301
 171 242 37 172 -0 0 301 171 175 81 1 344 499 133 245 0 339 346 347 348 82 1 345
 2055733407 81 1 346 498 133 171 0 320 319 344 349 81 1 347 500 133 301 0 315 34
4 310 350 83 3 348 .792156862745098 .819607843137255 .929411764705882 81 1 315 5
50 150 301 347 0 311 318 351 81 1 310 501 133 306 0 307 347 352 353 83 3 350 .79
2156862745098 .819607843137255 .929411764705882 81 1 352 502 133 308 0 311 310 3
54 355 83 3 353 .792156862745098 .819607843137255 .929411764705882 81 1 311 548
 150 308 352 0 307 315 356 81 1 354 503 133 313 0 324 352 357 358 83 3 355 .7921
56862745098 .819607843137255 .929411764705882 81 1 324 556 150 313 354 0 320 328
 359 81 1 357 504 133 325 0 328 354 360 361 83 3 358 .792156862745098 .819607843
137255 .929411764705882 81 1 328 558 150 325 357 0 324 332 362 81 1 360 505 133
 329 0 332 357 341 363 83 3 361 .792156862745098 .819607843137255 .9294117647058
82 81 1 332 560 150 329 360 0 328 336 364 81 1 341 506 133 333 0 336 360 338 365
 83 3 363 .792156862745098 .819607843137255 .929411764705882 83 3 365 .792156862
745098 .819607843137255 .929411764705882 82 1 364 2057306271 82 1 362 2057044127
 81 1 320 554 150 171 346 0 318 324 366 82 1 359 2056913055 82 1 366 2055930015
 82 1 356 2056781983 82 1 351 2055864479 81 1 319 497 133 169 0 318 0 346 367 83
 3 349 .792156862745098 .819607843137255 .929411764705882 83 3 367 .792156862745
098 .819607843137255 .929411764705882 50 172 93 0 245 316 38 0 +-.05030075187969
92 -.0712593984962406 .05 0 1 0 0 0 1 50 316 92 0 301 309 172 0 +.06969924812030
08 .0487406015037594 .05 -1 -1156482317317872e-31 0 1156482317317872e-31 -1 0 82
 1 343 286064799 83 3 342 .792156862745098 .819607843137255 .929411764705882 15
 180 379 0 217 333 0 17 217 0 180 182 181 215 266 263 0 262 -17 182 0 180 178 21
7 218 262 260 0 183 -17 181 0 180 217 178 220 269 267 0 266 -17 266 0 326 211 36
8 220 217 263 0 369 +17 262 0 188 190 189 215 182 260 0 368 +15 188 192 0 186 30
8 0 17 190 0 188 186 262 212 368 286 0 191 +17 189 0 188 262 186 218 193 271 0 0
 -17 368 0 326 266 214 215 190 286 0 0 -15 326 196 0 214 313 0 17 214 0 326 368
 211 212 275 273 0 190 -17 211 0 326 214 266 209 369 284 0 370 +17 275 0 304 278
 191 209 214 273 0 0 +15 304 128 0 191 169 0 17 278 0 304 280 275 206 370 276 0
 0 +17 191 0 304 275 280 212 186 192 0 0 +17 280 0 304 191 278 179 371 264 0 0 +
17 371 0 334 185 193 206 280 264 0 278 -15 334 204 0 371 329 0 17 185 0 334 183
 371 43 208 282 0 269 -17 193 0 334 371 183 179 189 271 0 280 +17 183 0 334 193
 185 218 178 184 0 189 +17 208 0 330 370 269 206 185 282 0 371 +17 269 0 330 208
 369 43 181 267 0 0 +15 330 200 0 370 325 0 17 369 0 330 269 370 220 211 284 0 0
 -17 370 0 330 369 208 209 278 276 0 275 -82 1 321 2080112789 82 1 312 205658537
5 17 202 0 242 230 176 200 205 289 0 246 +19 170 100 0 24 0 41 37 S0 74 20 168 3
 0 0 339 338 34 0 0 0 0 0 0 0 0 0 0 0 0 0 0 0 0 0 84 8 167 cubehole81 1 22 64 5
 12 0 0 0 0 372 70 23 0 4 T12 0 0 3 20 1 373 373 13 25 31 0 12 0 374 0 0 375 0 5
1 255 26 30 0 374 376 0 0 --.003410619604392775 .002357340020683245 .015 0 0 -1
 .003 -1 0 0 31 255 27 25 0 377 378 0 0 +-.003410619604392775 .00235734002068324
5 0 0 0 1 1 0 0 .003 19 28 9 0 12 375 0 379 V0 16 29 5 0 ?380 0 377 378 0 0 12 1
7 380 0 381 380 380 0 382 29 0 0 +16 377 20 0 ?383 29 0 27 0 0 12 31 378 7 0 29
 0 27 0 +-.003410619604392775 .002357340020683245 .015 0 0 1 1 0 0 .003 17 383 0
 384 383 383 0 385 377 0 0 +15 384 28 0 383 374 0 17 385 0 386 385 385 0 383 377
 0 0 -15 386 19 0 385 387 0 14 387 18 388 ?0 389 386 25 376 -0 0 0 389 379 81 1
 388 63 133 387 390 0 391 0 392 14 389 1 391 ?387 374 381 25 393 +0 0 387 374 37
9 50 376 24 0 387 393 26 0 +-.003410619604392775 .002357340020683245 0 0 0 1 1 0
 0 13 379 10 0 0 0 0 0 0 28 374 14 374 27 394 ?389 0 395 25 26 -0 0 389 0 379 81
 1 394 61 133 374 396 0 0 391 397 15 395 26 0 382 374 384 17 382 0 395 382 382 0
 380 29 0 0 -81 1 396 59 150 374 0 394 398 0 399 81 1 391 62 133 389 398 0 394 3
88 400 83 3 397 .792156862745098 .819607843137255 .933333333333333 81 1 398 57 1
50 389 0 391 390 396 401 83 3 400 .792156862745098 .819607843137255 .93333333333
3333 81 1 390 55 150 387 0 388 0 398 402 82 1 401 -905117541 82 1 402 -903413605
 82 1 399 -903151461 50 393 3 0 389 0 376 0 +-.003410619604392775 .0023573400206
83245 .015 0 0 1 1 0 0 15 381 4 0 380 389 0 83 3 392 .792156862745098 .819607843
137255 .933333333333333 19 375 32 0 12 0 28 25 S0 74 20 373 3 0 0 396 388 22 0 0
 0 0 0 0 0 0 0 0 0 0 0 0 0 0 0 84 14 372 cylindersensor81 1 10 622 5 7 0 0 0 0 4
03 70 11 0 4 T7 0 0 3 20 1 404 404 13 13 99 0 7 0 405 0 0 406 0 50 14 94 0 407 4
08 0 0 +-.04232535499724225 .0175326298321326 .01 1 0 0 0 0 -1 30 15 98 0 18 409
 0 0 +-.04232535499724225 -.01058307264720622 .01 0 0 -1 29 16 391 0 19 410 0 .0
426746450027577 .0175326298321326 0 19 17 33 0 7 406 0 411 V0 16 18 82 0 ?412 0
 413 15 0 0 7 18 19 389 0 414 0 415 16 ?7 17 414 0 416 417 418 19 419 420 0 421
 -18 415 265 0 422 19 423 410 ?7 17 422 0 424 425 421 415 426 427 0 428 +18 423
 150 0 429 415 430 431 ?7 29 410 267 0 415 431 16 -.03732535499724225 .017532629
8321326 0 29 431 152 0 423 432 410 .01049960962558262 -.002771425022100325 .01 2
9 432 149 0 430 433 431 -.01049960962558262 -.002771425022100325 .01 18 430 147
 0 434 423 435 432 ?7 29 433 143 0 435 436 432 .01049960962558262 .0097209822070
2673 .01 18 435 141 0 437 430 438 433 ?7 29 436 32 0 438 439 433 -.0423253549972
4225 .0175326298321326 .01 18 438 30 0 440 435 441 436 ?7 29 439 29 0 441 442 43
6 .0476746450027577 .0175326298321326 .01 18 441 27 0 443 438 444 439 ?7 29 442
 26 0 444 445 439 .0476746450027577 -.01058307264720622 .01 18 444 24 0 446 441
 447 442 ?7 29 445 23 0 447 448 442 -.04232535499724225 -.01058307264720622 .01
 18 447 21 0 449 444 450 445 ?7 29 448 238 0 451 452 445 -.01049960962558262 .00
972098220702673 .01 18 451 186 0 453 454 455 448 ?7 29 452 240 0 450 456 448 .01
049960962558262 -.002771425022100325 .04 18 450 192 0 457 447 458 452 ?7 29 456
 241 0 458 459 452 -.01049960962558262 -.002771425022100325 .04 18 458 191 0 460
 450 461 456 ?7 29 459 242 0 461 462 456 -.01049960962558262 .00972098220702673
 .04 18 461 190 0 463 458 454 459 ?7 29 462 243 0 454 464 459 .01049960962558262
 .00972098220702673 .04 18 454 187 0 465 461 451 462 ?7 29 464 369 0 466 467 462
 -.03732535499724225 -.01058307264720622 0 18 466 313 0 468 469 470 464 ?7 29 46
7 371 0 455 471 464 -.04232535499724225 .0175326298321326 -.03 18 455 319 0 472
 451 473 467 ?7 29 471 372 0 473 474 467 -.04232535499724225 -.01058307264720622
 -.03 18 473 318 0 412 455 475 471 ?7 29 474 373 0 475 476 471 -.037325354997242
25 -.01058307264720622 -.03 18 475 317 0 477 473 469 474 ?7 29 476 374 0 469 478
 474 -.03732535499724225 .0175326298321326 -.03 18 469 314 0 479 475 466 476 ?7
 29 478 491 0 480 481 476 .0426746450027577 -.01058307264720622 0 18 480 438 0 4
18 482 0 478 ?7 29 481 495 0 470 483 478 .0426746450027577 -.01058307264720622 -
.03 18 470 444 0 484 466 485 481 ?7 29 483 496 0 485 486 481 .0476746450027577 -
.01058307264720622 -.03 18 485 443 0 487 470 488 483 ?7 29 486 497 0 488 489 483
 .0476746450027577 .0175326298321326 -.03 18 488 442 0 490 485 482 486 ?7 29 489
 498 0 482 0 486 .04267464500275775 .0175326298321326 -.03 18 482 437 0 417 488
 480 489 ?7 17 417 0 416 491 414 482 421 492 0 493 -15 416 448 0 414 494 0 17 49
1 0 416 418 417 470 495 496 0 0 +17 421 0 424 422 493 19 417 492 0 426 +16 492 4
10 0 ?421 497 498 499 0 0 7 17 493 0 424 421 490 482 500 501 0 495 -15 424 83 0
 490 502 0 17 490 0 424 493 503 488 504 505 0 500 +17 500 0 506 507 495 488 493
 501 0 508 +16 501 421 0 ?500 509 496 510 0 0 7 17 495 0 506 500 484 482 491 496
 0 0 -15 506 467 0 495 511 0 17 484 0 506 495 507 470 512 513 0 514 +16 496 401
 0 ?491 501 420 515 0 0 7 16 420 434 0 ?419 496 0 516 0 0 7 30 515 490 0 496 0 5
10 0 +.04267464500275775 -315960272675361e-31 -.03 -740393441245833e-30 -1 0 30
 510 489 0 501 515 517 0 +0 .0175326298321326 -.03 1 0 0 30 517 488 0 509 510 51
8 0 +.0476746450027577 0 -.03 0 -1 0 16 509 426 0 ?507 513 501 517 0 0 7 30 518
 487 0 513 517 516 0 +0 -.01058307264720622 -.03 -1 0 0 16 513 430 0 ?484 498 50
9 518 0 0 7 30 516 486 0 420 518 519 0 +.04267464500275775 -315960272675361e-31
 0 -740393441245833e-30 -1 0 30 519 482 0 498 516 499 0 +.0426746450027577 -.010
58307264720622 -.03 0 0 1 16 498 404 0 ?418 492 513 519 0 0 7 30 499 479 0 492 5
19 520 0 +.04267464500275775 .0175326298321326 -.03 0 0 1 30 520 366 0 521 499 5
22 0 +0 .0175326298321326 -.03 1 0 0 16 521 297 0 ?523 524 497 520 0 0 7 30 522
 365 0 524 520 525 0 +-.03732535499724225 460590800535509e-31 -.03 -123398906874
3054e-30 -1 0 16 524 302 0 ?477 526 521 522 0 0 7 30 525 364 0 526 522 527 0 +0
 -.01058307264720622 -.03 -1 0 0 16 526 305 0 ?528 529 524 525 0 0 7 30 527 363
 0 529 525 530 0 +-.04232535499724225 0 -.03 0 1 0 16 529 309 0 ?531 532 526 527
 0 0 7 30 530 361 0 497 527 533 0 +-.03732535499724225 460590800535509e-31 0 -12
33989068743054e-30 -1 0 16 497 283 0 ?534 521 492 530 0 0 7 30 533 356 0 532 530
 535 0 +-.03732535499724225 -.01058307264720622 -.03 0 0 1 16 532 291 0 ?536 537
 529 533 0 0 7 30 535 355 0 537 533 538 0 +-.03732535499724225 .0175326298321326
 -.03 0 0 1 16 537 286 0 ?539 540 532 535 0 0 7 30 538 235 0 541 535 542 0 +.010
49960962558262 -.002771425022100325 .04 0 1 0 16 541 174 0 ?543 544 545 538 0 0
 7 30 542 234 0 544 538 546 0 +-.01049960962558262 .00972098220702673 .04 -1 0 0
 16 544 177 0 ?463 547 541 542 0 0 7 30 546 233 0 547 542 548 0 +-.0104996096255
8262 -.002771425022100325 .04 0 -1 0 16 547 180 0 ?460 549 544 546 0 0 7 30 548
 232 0 549 546 550 0 +-.01049960962558262 -.002771425022100325 .04 1 0 0 16 549
 183 0 ?457 551 547 548 0 0 7 30 550 231 0 540 548 552 0 +.01049960962558262 -.0
02771425022100325 .01 0 1 0 16 540 158 0 ?553 554 537 550 0 0 7 30 552 230 0 554
 550 555 0 +-.01049960962558262 .00972098220702673 .01 -1 0 0 16 554 162 0 ?556
 557 540 552 0 0 7 30 555 229 0 557 552 558 0 +-.01049960962558262 -.00277142502
2100325 .01 0 -1 0 16 557 166 0 ?559 545 554 555 0 0 7 30 558 228 0 545 555 560
 0 +-.01049960962558262 -.002771425022100325 .01 1 0 0 16 545 170 0 ?561 541 557
 558 0 0 7 30 560 227 0 551 558 562 0 +.01049960962558262 -.002771425022100325 .
04 0 0 -1 16 551 161 0 ?563 564 549 560 0 0 7 30 562 226 0 564 560 565 0 +-.0104
9960962558262 -.002771425022100325 .04 0 0 -1 16 564 173 0 ?566 567 551 562 0 0
 7 30 565 225 0 567 562 568 0 +-.01049960962558262 .00972098220702673 .04 0 0 -1
 16 567 169 0 ?569 570 564 565 0 0 7 30 568 224 0 570 565 571 0 +.01049960962558
262 .00972098220702673 .04 0 0 -1 16 570 165 0 ?572 573 567 568 0 0 7 30 571 7 0
 574 568 575 0 +-.04232535499724225 .0175326298321326 .01 0 -1 0 16 574 5 0 ?576
 577 427 571 0 0 7 30 575 11 0 577 571 578 0 +-.04232535499724225 -.010583072647
20622 .01 1 0 0 16 577 9 0 ?446 579 574 575 0 0 7 30 578 15 0 579 575 580 0 +.04
76746450027577 .0175326298321326 .01 0 1 0 16 579 13 0 ?443 581 577 578 0 0 7 30
 580 19 0 581 578 582 0 +-.04232535499724225 .0175326298321326 .01 -1 0 0 16 581
 17 0 ?440 583 579 580 0 0 7 30 582 73 0 573 580 584 0 +-.04232535499724225 -.01
058307264720622 0 1 0 0 16 573 269 0 ?585 427 570 582 0 0 7 30 584 71 0 427 582
 586 0 +-.04232535499724225 .0175326298321326 0 -1 0 0 16 427 390 0 ?422 574 573
 584 0 0 7 30 586 95 0 583 584 587 0 +-.04232535499724225 .0175326298321326 .01
 0 0 -1 16 583 79 0 ?472 505 581 586 0 0 7 30 587 96 0 505 586 409 0 +.047674645
0027577 .0175326298321326 .01 0 0 -1 16 505 80 0 ?490 413 583 587 0 0 7 30 409 9
7 0 413 587 15 0 +.0476746450027577 -.01058307264720622 .01 0 0 -1 16 413 81 0 ?
487 18 505 409 0 0 7 17 487 0 588 508 589 485 590 413 0 507 +15 588 85 0 487 591
 0 17 508 0 588 504 487 488 507 509 0 0 -17 589 0 588 487 504 444 443 579 0 0 -1
7 590 0 592 449 512 444 487 413 0 589 -17 507 0 506 484 500 485 508 509 0 512 +1
7 512 0 592 590 514 485 484 513 0 0 -15 592 87 0 412 593 0 17 514 0 592 512 585
 470 418 498 0 491 -17 585 0 592 514 536 480 468 573 0 0 +17 418 0 416 414 491 4
80 514 498 0 419 +17 419 0 594 468 426 480 414 420 0 585 +15 594 272 0 426 405 0
 17 468 0 594 428 419 466 585 573 0 534 -17 426 0 594 419 428 19 422 427 0 0 -17
 428 0 594 426 468 415 534 497 0 539 -17 534 0 595 596 539 466 428 497 0 536 +17
 539 0 595 534 479 415 425 537 0 0 +15 595 330 0 534 597 0 17 479 0 595 539 596
 469 477 524 0 523 -17 425 0 424 598 422 469 539 537 0 0 -17 598 0 424 599 425 4
55 523 521 0 0 -17 599 0 424 503 598 438 472 583 0 600 -17 523 0 601 477 531 469
 598 521 0 425 +15 601 343 0 523 602 0 17 477 0 601 528 523 475 479 524 0 596 +1
7 531 0 601 523 528 455 603 529 0 598 +17 528 0 601 531 477 473 604 526 0 603 +1
7 603 0 605 606 472 473 531 529 0 0 -15 605 89 0 472 407 0 17 606 0 605 600 603
 447 412 18 0 0 -17 472 0 605 603 600 455 599 583 0 531 +17 600 0 605 472 606 43
8 576 574 0 0 -17 576 0 607 446 440 447 600 574 0 606 +15 607 4 0 576 608 0 17 4
46 0 607 443 576 444 449 577 0 590 +17 440 0 607 576 443 438 503 581 0 599 +17 4
43 0 607 440 446 441 589 579 0 504 +17 503 0 424 490 599 441 440 581 0 0 -17 504
 0 588 589 508 441 490 505 0 503 -17 449 0 592 412 590 447 446 577 0 576 -17 412
 0 592 604 449 473 606 18 0 528 +17 604 0 592 536 412 475 528 526 0 0 -17 536 0
 592 585 604 466 596 532 0 0 +17 596 0 595 479 534 475 536 532 0 604 -14 608 1 6
09 ?610 502 611 13 612 +0 0 610 502 411 81 1 609 612 133 608 613 0 614 615 616 1
4 610 194 615 ?617 608 618 13 619 -0 0 617 608 411 14 502 84 614 ?608 591 424 13
 620 -0 0 608 591 411 15 611 154 0 429 608 607 50 612 3 0 608 619 621 0 +0 0 .01
 0 0 1 1 0 0 13 411 34 0 0 0 0 0 0 17 405 14 405 273 622 ?407 0 594 13 621 -0 0
 407 0 411 81 1 622 607 133 405 623 0 0 624 625 14 407 90 624 ?593 405 605 13 14
 -0 0 593 405 411 50 621 70 0 405 612 620 0 +0 0 0 0 0 1 1 0 0 50 620 91 0 502 6
21 626 0 +-.04232535499724225 .0175326298321326 .01 0 -1 0 0 0 -1 50 626 92 0 59
1 620 408 0 +.0476746450027577 .0175326298321326 .01 -1 0 0 0 0 1 14 591 86 627
 ?502 593 588 13 626 -0 0 502 593 411 50 408 93 0 593 626 14 0 +-.04232535499724
225 -.01058307264720622 .01 0 1 0 0 0 1 14 593 88 628 ?591 407 592 13 408 -0 0 5
91 407 411 81 1 628 609 133 593 629 0 624 627 630 81 1 629 585 150 593 0 628 631
 632 633 81 1 624 608 133 407 634 0 622 628 635 81 1 627 610 133 591 631 0 628 6
14 636 83 3 630 .792156862745098 .819607843137255 .933333333333333 81 1 631 581
 150 591 0 627 634 629 637 81 1 614 611 133 502 638 0 627 609 639 83 3 636 .7921
56862745098 .819607843137255 .933333333333333 81 1 638 567 150 502 0 614 640 623
 641 83 3 639 .792156862745098 .819607843137255 .933333333333333 81 1 640 565 15
0 610 0 615 613 638 642 81 1 623 575 150 405 0 622 638 634 643 82 1 641 19708642
79 81 1 634 577 150 407 0 624 623 631 644 82 1 643 -1868889961 82 1 644 19716507
11 81 1 615 613 133 610 640 0 609 645 646 81 1 613 563 150 608 0 609 0 640 647 8
2 1 642 -1135935340 82 1 647 1964310676 81 1 645 614 133 617 648 0 615 649 650 8
3 3 646 .792156862745098 .819607843137255 .933333333333333 14 617 198 645 ?651 6
10 652 13 653 -0 0 651 610 411 81 1 648 605 150 617 0 645 654 0 655 81 1 649 615
 133 651 654 0 645 656 657 83 3 650 .792156862745098 .819607843137255 .933333333
333333 14 651 202 649 ?658 617 659 13 660 -0 0 658 617 411 81 1 654 603 150 651
 0 649 661 648 662 81 1 656 616 133 658 661 0 649 663 664 83 3 657 .792156862745
098 .819607843137255 .933333333333333 14 658 206 656 ?665 651 666 13 667 -0 0 66
5 651 411 81 1 661 601 150 658 0 656 668 654 669 81 1 663 617 133 665 668 0 656
 670 671 83 3 664 .792156862745098 .819607843137255 .933333333333333 14 665 210
 663 ?597 658 672 13 673 -0 0 597 658 411 81 1 668 599 150 665 0 663 674 661 675
 81 1 670 618 133 597 632 0 663 676 677 83 3 671 .792156862745098 .8196078431372
55 .933333333333333 14 597 327 670 ?602 665 595 13 678 -0 0 602 665 411 81 1 632
 591 150 597 0 670 629 679 680 81 1 676 619 133 602 679 0 670 681 682 83 3 677 .
792156862745098 .819607843137255 .933333333333333 14 602 341 676 ?494 597 601 13
 683 +0 0 494 597 411 81 1 679 593 150 602 0 676 632 684 685 81 1 681 620 133 49
4 684 0 676 686 687 83 3 682 .792156862745098 .819607843137255 .933333333333333
 14 494 445 681 ?511 602 416 13 688 +0 0 511 602 411 81 1 684 595 150 494 0 681
 679 674 689 81 1 686 621 133 511 674 0 681 0 690 83 3 687 .792156862745098 .819
607843137255 .933333333333333 14 511 465 686 ?0 494 506 13 691 +0 0 0 494 411 81
 1 674 597 150 511 0 686 684 668 692 83 3 690 .792156862745098 .819607843137255
 .933333333333333 82 1 692 -1884159849 50 691 478 0 511 0 688 0 +0 0 -.03 0 0 -1
 -1 0 0 50 688 473 0 494 691 683 0 +.04267464500275775 -315960272675361e-31 -.03
 -1 740393441245833e-30 0 -740393441245833e-30 -1 0 50 683 354 0 602 688 678 0 +
0 0 -.03 0 0 -1 -1 0 0 50 678 350 0 597 683 673 0 +-.03732535499724225 460590800
535509e-31 -.03 -1 1233989068743054e-30 0 -1233989068743054e-30 -1 0 50 673 223
 0 665 678 667 0 +0 0 .04 0 0 -1 -1 0 0 50 667 221 0 658 673 660 0 +-.0104996096
2558262 -.002771425022100325 .04 0 1 0 0 0 1 50 660 220 0 651 667 653 0 +-.01049
960962558262 -.002771425022100325 .04 1 0 0 0 0 -1 50 653 219 0 617 660 619 0 +-
.01049960962558262 .00972098220702673 .04 0 -1 0 0 0 -1 50 619 218 0 610 653 612
 0 +.01049960962558262 -.002771425022100325 .04 -1 0 0 0 0 1 82 1 689 -187550909
7 82 1 685 -1898119017 82 1 680 -1889730409 82 1 675 -1143275372 15 672 212 0 54
3 665 0 17 543 0 672 463 457 454 693 541 0 694 +17 463 0 672 460 543 461 465 544
 0 695 +17 457 0 672 543 460 450 696 549 0 697 +17 693 0 618 563 694 450 543 541
 0 0 -17 694 0 618 693 553 454 572 570 0 0 -15 618 197 0 553 610 0 17 553 0 618
 694 563 435 429 540 0 0 +17 572 0 652 556 465 435 694 570 0 553 +15 652 201 0 5
56 617 0 17 556 0 652 695 572 451 437 554 0 569 +17 465 0 652 572 695 454 463 54
4 0 543 -17 695 0 652 465 556 461 569 567 0 698 -17 569 0 659 559 698 451 695 56
7 0 0 +17 698 0 659 569 699 461 460 547 0 0 -15 659 205 0 559 651 0 17 699 0 659
 698 559 458 566 564 0 696 -17 460 0 672 457 463 458 698 547 0 699 +17 559 0 659
 699 569 430 453 557 0 566 +17 566 0 666 561 696 430 699 564 0 0 +17 696 0 666 5
66 697 458 457 549 0 0 -15 666 209 0 561 658 0 17 697 0 666 696 561 450 563 551
 0 693 -17 561 0 666 697 566 423 434 545 0 563 +17 563 0 618 553 693 423 697 551
 0 0 +17 434 0 611 453 429 430 561 545 0 559 -17 453 0 611 437 434 451 559 557 0
 556 -17 429 0 611 434 437 423 553 540 0 561 -17 437 0 611 429 453 435 556 554 0
 572 -82 1 669 -1136721772 82 1 662 -1136459628 82 1 655 -1136197484 82 1 637 19
71126423 83 3 635 .792156862745098 .819607843137255 .933333333333333 82 1 633 19
71388567 83 3 625 .792156862745098 .819607843137255 .933333333333333 83 3 616 .7
92156862745098 .819607843137255 .933333333333333 19 406 100 0 7 0 17 13 S0 74 20
 404 3 0 0 648 686 10 0 0 0 0 0 0 0 0 0 0 0 0 0 0 0 0 0 84 4 403 claw74 20 6 1 0
 0 2 0 0 0 0 0 0 0 0 0 0 0 0 0 0 0 0 0 0 0 1 0 
