**ABCDEFGHIJKLMNOPQRSTUVWXYZabcdefghijklmnopqrstuvwxyz**************************
**PARASOLID !"#$%&'()*+,-./:;<=>?@[\]^_`{|}~0123456789**************************
**PART1;
MC=AMD64;
MC_MODEL=Intel64 Family 6 Model 140 Stepping 2, GenuineIntel;
MC_ID=unknown;
OS=Windows_NT;
OS_RELEASE=unknown;
FRU=Parasolid Version 33.1, build 260,  4-25-2022;
APPL=SOLIDWORKS 2022-2022290;
SITE=;
USER=unknown;
FORMAT=text;
GUISE=transmit;
KEY=FILEpeg hole 01.x_t;
DATE=Sun Oct 15 09:34:12 2023;
**PART2;
SCH=SCH_3301260_33103;
USFLD_SIZE=0;
**PART3;
**END_OF_HEADER*****************************************************************
T51 : TRANSMIT FILE created by modeller version 330126023 SCH_3301260_33103_1300
6230 0 10 21 CCCCI7 lattice222 0 CCCI4 mesh1006 0 I8 polyline1008 0 CCCCCCCCCCA1
6 mesh_offset_data206 0 Z1 9 2 3 0 0 0 0 0 0 0 0 1e3 1e-8 0 0 0 1 0 1 4 0 81 255
 1 2 9 5 1 0 0 0 0 0 70 11 CI9 list_type0 0 1 uI10 notransmit0 0 1 lCCCDCCDI12 f
inger_index0 0 1 dI12 finger_block1012 0 CZ3 0 4 T1 0 0 1 20 1 6 6 11 255 4 7 0
 1 7 8 1 9 0 9 0 12 35 CCCI7 lattice222 0 CCCI4 mesh1006 0 I8 polyline1008 0 CCC
CCCCDI5 owner1040 0 CCCCCCI13 boundary_mesh1006 0 I17 boundary_polyline1008 0 CC
CA16 index_map_offset0 0 1 dA9 index_map82 0 A17 node_id_index_map82 0 A20 schem
a_embedding_map82 0 A5 child12 0 A14 lowest_node_id0 0 1 dA16 mesh_offset_data20
6 0 Z7 71 10 11 0 0 0 0 0 0 0 1e3 1e-8 4 12 0 1 0 1 1 13 14 15 0 0 0 16 17 0 0 0
 0 0 0 0 0 100 10 CCCCCCCCCA9 precision229 0 Z8 8 4 0 0 1 0 0 0 0 1 0 -1 0 .0360
1388029415295 .0771037892497577 .0336637411025268 1 3 ?0 11 9 5 0 1 7 18 1 19 4
 0 4 100 18 6 9 0 0 1 0 0 0 0 -1 0 1 0 .0457579341948933 .0271037892497577 .0171
8268507163015 1 3 ?0 11 19 3 0 1 12 20 1 21 9 0 0 12 12 566 22 23 0 0 0 0 0 0 0
 1e3 1e-8 19 24 7 1 0 1 1 25 26 27 28 0 0 29 30 31 0 0 0 0 0 0 0 100 20 4 19 0 0
 .974165738677394 .225834261322606 -252925296484199e-30 -.225834261322606 .97416
5738677394 -473440688902136e-30 139472030021449e-30 518328895925594e-30 1 .03806
84886607709 .0652627320375439 .0538064010818435 1 3 ?0 11 21 1 0 1 24 32 1 0 19
 0 0 12 24 228 33 34 0 0 0 0 0 0 0 1e3 1e-8 21 35 12 1 0 1 1 36 37 38 39 0 0 40
 41 42 0 0 0 0 0 0 0 100 32 2 21 0 0 1 0 0 0 1 0 0 0 1 .0502984800022377 .054765
8262867948 .01380640108184352 1 1 ?0 81 1 33 190 5 24 0 0 0 0 43 70 34 0 4 T24 0
 0 3 20 1 44 44 13 255 36 99 0 24 0 45 0 0 46 0 50 255 37 94 0 45 47 0 0 +-.0303
2407407407405 .02233796296296295 .09 1 0 0 0 0 -1 30 255 38 98 0 41 48 0 0 +-.03
032407407407405 -.02766203703703705 .09 0 0 -1 29 255 39 75 0 49 50 0 -.03032407
407407405 .02233796296296295 0 19 8 CCCCCCCA5 owner12 0 Z40 33 0 24 46 0 51 V0 1
6 255 41 82 0 ?52 0 53 38 0 0 24 18 255 42 30 0 54 0 55 56 ?24 17 255 54 0 57 58
 59 42 60 61 0 62 +18 55 27 0 59 42 63 64 ?24 29 56 32 0 42 64 65 -.030324074074
07405 .02233796296296295 .09 29 64 29 0 55 66 56 .01967592592592595 .02233796296
296295 .09 29 65 78 0 67 56 68 -.03032407407407405 -.02766203703703705 0 18 67 6
9 0 69 70 0 65 ?24 29 68 77 0 70 65 50 .01967592592592595 -.02766203703703705 0
 18 70 68 0 71 72 67 68 ?24 29 50 76 0 72 68 39 .01967592592592595 .022337962962
96295 0 18 72 67 0 73 49 70 50 ?24 17 73 0 74 75 76 72 77 78 0 79 +18 49 66 0 80
 81 72 39 ?24 17 80 0 82 62 79 49 83 84 0 85 +18 81 21 0 86 63 49 87 ?24 17 86 0
 88 52 89 81 90 91 0 58 -18 63 24 0 90 55 81 66 ?24 29 87 23 0 81 0 66 -.0303240
7407407405 -.02766203703703705 .09 29 66 26 0 63 87 64 .01967592592592595 -.0276
6203703703705 .09 17 90 0 57 59 58 63 86 91 0 89 +15 255 57 4 0 58 92 0 17 59 0
 57 54 90 55 93 94 0 75 +17 58 0 57 90 54 81 95 96 0 97 +16 91 9 0 ?90 94 96 98
 0 0 24 17 89 0 88 86 71 63 76 53 0 93 -15 88 87 0 71 99 0 17 71 0 88 89 52 70 6
9 100 0 76 +17 76 0 74 73 93 70 89 53 0 77 +16 53 81 0 ?76 41 101 48 0 0 24 17 9
3 0 74 76 75 63 59 94 0 0 -15 74 85 0 73 102 0 17 75 0 74 93 73 55 79 101 0 60 -
16 94 13 0 ?59 61 91 103 0 0 24 16 61 17 0 ?54 104 94 105 0 0 24 30 103 15 0 94
 98 105 0 +.01967592592592595 .02233796296296295 .09 -1387778780781446e-31 1 0 3
0 98 11 0 91 106 103 0 +-.03032407407407405 -.02766203703703705 .09 1 0 0 30 105
 19 0 61 103 107 0 +-.03032407407407405 .02233796296296295 .09 -1 0 0 30 107 74
 0 108 105 109 0 +-.03032407407407405 .02233796296296295 0 0 -1 0 16 108 62 0 ?1
10 100 0 107 0 0 24 30 109 73 0 100 107 111 0 +-.03032407407407405 -.02766203703
703705 0 1 0 0 16 100 58 0 ?71 78 108 109 0 0 24 30 111 72 0 78 109 112 0 +.0196
7592592592595 .02233796296296295 0 -1387778780781446e-31 1 0 16 78 54 0 ?73 84 1
00 111 0 0 24 30 112 71 0 84 111 113 0 +-.03032407407407405 .02233796296296295 0
 -1 0 0 16 84 50 0 ?80 96 78 112 0 0 24 30 113 95 0 104 112 114 0 +-.03032407407
407405 .02233796296296295 .09 0 0 -1 16 104 79 0 ?85 101 61 113 0 0 24 30 114 96
 0 101 113 48 0 +.01967592592592595 .02233796296296295 .09 0 0 -1 16 101 80 0 ?7
9 53 104 114 0 0 24 30 48 97 0 53 114 38 0 +.01967592592592595 -.027662037037037
05 .09 0 0 -1 17 79 0 82 80 60 72 75 101 0 83 +15 82 83 0 80 115 0 17 60 0 82 79
 62 55 54 61 0 0 -17 83 0 116 77 117 72 80 84 0 0 -15 116 49 0 117 118 0 17 77 0
 116 69 83 70 73 78 0 0 -17 117 0 116 83 69 49 110 108 0 0 -17 69 0 116 117 77 6
7 71 100 0 52 -17 110 0 119 97 85 67 117 108 0 0 +15 119 89 0 110 45 0 17 97 0 1
19 95 110 81 52 41 0 0 -17 85 0 119 110 95 49 62 104 0 117 +17 95 0 119 85 97 42
 58 96 0 0 -17 62 0 82 60 80 42 85 104 0 95 -16 96 5 0 ?58 91 84 106 0 0 24 30 1
06 7 0 96 0 98 0 +-.03032407407407405 .02233796296296295 .09 0 -1 0 17 52 0 88 7
1 86 67 97 41 0 110 +14 255 45 90 120 ?99 0 119 36 37 -0 0 99 0 51 81 1 120 218
 121 45 122 0 0 123 124 14 99 88 123 ?102 45 88 36 47 -0 0 102 45 51 13 51 34 0
 0 0 0 0 0 40 45 81 1 123 220 121 99 125 0 120 126 127 14 102 86 126 ?115 99 74
 36 128 -0 0 115 99 51 50 47 93 0 99 128 37 0 +-.03032407407407405 -.02766203703
703705 .09 0 1 0 0 0 1 50 128 92 0 102 129 47 0 +.01967592592592595 .02233796296
296295 .09 -1 -1387778780781446e-31 0 1387778780781446e-31 -1 0 50 129 91 0 115
 130 128 0 +-.03032407407407405 .02233796296296295 .09 0 -1 0 0 0 -1 14 115 84 1
31 ?92 102 82 36 129 -0 0 92 102 51 50 130 70 0 118 132 129 0 +0 0 0 0 0 1 1 0 0
 14 118 48 133 ?0 92 116 36 130 -0 0 0 92 51 50 132 3 0 92 0 130 0 +0 0 .09 0 0
 1 1 0 0 14 92 1 134 ?118 115 57 36 132 +0 0 118 115 51 81 1 134 228 121 92 135
 0 133 0 136 80 255 1 121 137 138 9000 1 1 1 1 1 1 1 1 0 FFFFTFTFFFFFFF1 81 1 13
5 188 139 92 0 134 140 141 142 81 1 133 226 121 118 141 0 131 134 143 82 255 1 1
36 900137105 81 1 141 189 139 118 0 133 135 0 144 81 1 131 224 121 115 140 0 126
 133 145 82 1 143 905773201 81 1 140 187 139 115 0 131 146 135 147 81 1 126 222
 121 102 146 0 123 131 148 82 1 145 906690705 81 1 146 186 139 102 0 126 125 140
 149 82 1 148 906952849 80 1 139 0 150 8001 0 0 0 0 3 5 0 0 0 FFFFTFTFFFFFFF2 81
 1 125 185 139 99 0 123 122 146 151 83 255 3 149 .792156862745098 .8196078431372
55 .929411764705882 81 1 122 184 139 45 0 120 0 125 152 83 3 151 .79215686274509
8 .819607843137255 .929411764705882 83 3 152 .792156862745098 .819607843137255 .
929411764705882 79 255 15 150 SDL/TYSA_COLOUR83 3 147 .792156862745098 .81960784
3137255 .929411764705882 83 3 144 .792156862745098 .819607843137255 .92941176470
5882 83 3 142 .792156862745098 .819607843137255 .929411764705882 79 14 138 SWEnt
Unchanged82 1 127 907214993 82 1 124 907477137 19 46 100 0 24 0 40 36 S0 74 4 CI
16 index_map_offset0 0 1 dCCZ20 44 3 0 0 134 141 33 0 0 0 0 0 0 0 0 0 0 0 0 0 0
 0 0 0 80 1 5 153 154 8017 0 0 0 0 0 0 0 0 0 TTTTTTTTTTTTTF3 84 255 8 43 cube pe
g79 13 154 SDL/TYSA_NAME81 1 22 508 5 12 0 0 0 0 155 70 23 0 4 T12 0 0 3 20 1 15
6 156 13 25 99 0 12 0 157 0 0 158 0 50 26 94 0 159 160 0 0 +-.0503007518796993 .
0487406015037594 .05 1 1156482317317872e-31 0 -1156482317317872e-31 1 0 30 27 98
 0 30 161 0 0 +-.0503007518796992 -.0712593984962406 .05 0 0 -1 29 28 137 0 31 1
62 0 .03969924812030075 .0187406015037594 .05 19 29 33 0 12 158 0 163 V0 16 30 8
2 0 ?164 0 165 27 0 0 12 18 31 135 0 166 0 167 28 ?12 17 166 0 168 169 170 31 17
1 172 0 173 -18 167 112 0 174 31 175 162 ?12 17 174 0 176 177 178 167 179 180 0
 181 -18 175 66 0 182 167 183 184 ?12 29 162 114 0 167 184 28 -.0203007518796992
5 .0187406015037594 0 29 184 75 0 175 185 162 -.0503007518796993 .04874060150375
94 0 29 185 76 0 183 186 184 .0696992481203008 .0487406015037594 0 18 183 67 0 1
87 175 188 185 ?12 29 186 77 0 188 189 185 .0696992481203008 -.0712593984962406
 0 18 188 68 0 190 183 191 186 ?12 29 189 78 0 191 192 186 -.0503007518796992 -.
0712593984962406 0 18 191 69 0 193 188 194 189 ?12 29 192 232 0 194 195 189 .039
69924812030075 .0187406015037594 0 18 194 183 0 196 191 197 192 ?12 29 195 233 0
 197 198 192 .03969924812030075 -.0412593984962406 0 18 197 181 0 199 194 200 19
5 ?12 29 198 234 0 200 201 195 -.02030075187969925 -.0412593984962406 0 18 200 1
88 0 202 197 203 198 ?12 29 201 400 0 203 204 198 -.02030075187969925 -.04125939
84962406 .05 18 203 351 0 205 200 206 201 ?12 29 204 401 0 206 207 201 -.0203007
5187969925 .0187406015037594 .05 18 206 352 0 170 203 208 204 ?12 29 207 403 0 2
08 209 204 .03969924812030075 -.0412593984962406 .05 18 208 343 0 169 206 210 20
7 ?12 29 209 408 0 210 211 207 -.0503007518796993 .0487406015037594 .06 18 210 3
50 0 212 208 213 209 ?12 29 211 409 0 213 214 209 .0696992481203008 .04874060150
37594 .06 18 213 349 0 215 210 216 211 ?12 29 214 410 0 216 217 211 .06969924812
03008 -.0712593984962406 .06 18 216 348 0 218 213 219 214 ?12 29 217 411 0 219 0
 214 -.0503007518796993 -.0712593984962406 .06 18 219 345 0 220 216 0 217 ?12 17
 220 0 221 222 223 219 164 30 0 224 -15 221 89 0 223 159 0 17 222 0 221 225 220
 210 226 227 0 0 -17 223 0 221 220 225 191 228 229 0 0 +17 164 0 230 190 224 191
 220 30 0 223 +17 224 0 230 164 218 219 231 232 0 226 -15 230 87 0 190 233 0 17
 218 0 230 224 190 216 234 165 0 231 -17 231 0 235 236 226 216 224 232 0 237 +16
 232 333 0 ?231 238 227 239 0 0 12 17 226 0 235 231 240 219 222 227 0 0 +15 235
 376 0 226 241 0 17 240 0 235 226 236 210 242 243 0 222 +16 227 330 0 ?226 232 0
 244 0 0 12 30 244 399 0 227 0 239 0 +-.0503007518796993 .0487406015037594 .06 0
 -1 0 30 239 398 0 232 244 245 0 +-.0503007518796993 -.0712593984962406 .06 1 0
 0 30 245 397 0 238 239 246 0 +.0696992481203008 .0487406015037594 .06 0 1 0 16
 238 336 0 ?236 243 232 245 0 0 12 30 246 396 0 243 245 247 0 +-.050300751879699
3 .0487406015037594 .06 -1 0 0 16 243 339 0 ?240 180 238 246 0 0 12 30 247 230 0
 248 246 249 0 +-.02030075187969925 .0187406015037594 .05 404768811061255e-30 -1
 0 16 248 169 0 ?250 251 252 247 0 0 12 30 249 229 0 251 247 253 0 +-.0203007518
7969925 -.0412593984962406 .05 1 0 0 16 251 172 0 ?254 255 248 249 0 0 12 30 253
 228 0 255 249 256 0 +.03969924812030075 .0187406015037594 .05 -2312964634635745
e-31 1 0 16 255 175 0 ?257 172 251 253 0 0 12 30 256 227 0 172 253 258 0 +-.0203
0075187969925 .0187406015037594 .05 -1 0 0 16 172 178 0 ?171 259 255 256 0 0 12
 30 258 226 0 180 256 260 0 +-.02030075187969925 .0187406015037594 0 40476881106
1255e-30 -1 0 16 180 153 0 ?179 261 243 258 0 0 12 30 260 225 0 261 258 262 0 +-
.02030075187969925 -.0412593984962406 0 1 0 0 16 261 157 0 ?263 264 180 260 0 0
 12 30 262 224 0 264 260 265 0 +.03969924812030075 .0187406015037594 0 -23129646
34635745e-31 1 0 16 264 161 0 ?266 252 261 262 0 0 12 30 265 223 0 252 262 267 0
 +-.02030075187969925 .0187406015037594 0 -1 0 0 16 252 165 0 ?268 248 264 265 0
 0 12 30 267 222 0 259 265 269 0 +-.02030075187969925 .0187406015037594 .05 0 0
 -1 16 259 156 0 ?181 270 172 267 0 0 12 30 269 221 0 270 267 271 0 +.0396992481
2030075 .0187406015037594 .05 0 0 -1 16 270 168 0 ?196 272 259 269 0 0 12 30 271
 220 0 272 269 273 0 +.03969924812030075 -.0412593984962406 .05 0 0 -1 16 272 16
4 0 ?199 274 270 271 0 0 12 30 273 219 0 274 271 275 0 +-.02030075187969925 -.04
12593984962406 .05 0 0 -1 16 274 160 0 ?178 229 272 273 0 0 12 30 275 74 0 229 2
73 276 0 +-.0503007518796993 .0487406015037594 0 1156482317317872e-31 -1 0 16 22
9 62 0 ?223 277 274 275 0 0 12 30 276 73 0 277 275 278 0 +-.0503007518796992 -.0
712593984962406 0 1 0 0 16 277 58 0 ?190 279 229 276 0 0 12 30 278 72 0 279 276
 280 0 +.0696992481203008 .0487406015037594 0 -1156482317317872e-31 1 0 16 279 5
4 0 ?187 281 277 278 0 0 12 30 280 71 0 281 278 282 0 +-.0503007518796993 .04874
06015037594 0 -1 0 0 16 281 50 0 ?182 283 279 280 0 0 12 30 282 95 0 283 280 284
 0 +-.0503007518796993 .0487406015037594 .05 0 0 -1 16 283 79 0 ?225 285 281 282
 0 0 12 30 284 96 0 285 282 161 0 +.0696992481203008 .0487406015037594 .05 0 0 -
1 16 285 80 0 ?286 165 283 284 0 0 12 30 161 97 0 165 284 27 0 +.069699248120300
8 -.0712593984962406 .05 0 0 -1 16 165 81 0 ?234 30 285 161 0 0 12 17 234 0 287
 187 237 188 218 165 0 288 +15 287 85 0 187 289 0 17 187 0 287 215 234 183 288 2
79 0 286 +17 237 0 287 234 215 216 236 238 0 0 -17 288 0 290 193 291 188 187 279
 0 0 -15 290 49 0 228 157 292 17 193 0 290 228 288 191 190 277 0 164 -17 291 0 2
90 288 228 183 182 281 0 0 -17 228 0 290 291 193 175 223 229 0 0 -17 182 0 293 2
12 286 175 291 281 0 225 +15 293 83 0 182 294 0 17 212 0 293 242 182 210 225 283
 0 240 -17 286 0 293 182 242 183 215 285 0 291 +17 225 0 221 223 222 175 212 283
 0 228 +17 242 0 293 286 212 213 240 243 0 0 -17 215 0 287 237 187 213 286 285 0
 236 -17 236 0 235 240 231 213 237 238 0 242 +14 294 84 295 ?296 289 293 25 297
 -0 0 296 289 163 81 1 295 546 121 294 298 0 0 299 300 14 296 189 299 ?301 294 1
76 25 302 +0 0 301 294 163 14 289 86 303 ?294 233 287 25 304 -0 0 294 233 163 50
 297 91 0 294 305 304 0 +-.0503007518796993 .0487406015037594 .05 0 -1 0 0 0 -1
 13 163 34 0 0 0 0 0 0 29 157 14 157 130 306 ?159 0 290 25 305 -0 0 159 0 163 81
 1 306 552 121 157 307 0 303 308 309 14 159 90 308 ?233 157 221 25 26 -0 0 233 1
57 163 50 305 70 0 157 302 297 0 +0 0 0 0 0 1 1 0 0 50 302 213 0 296 310 305 0 +
-.02030075187969925 .0187406015037594 .05 1 404768811061255e-30 0 -4047688110612
55e-30 1 0 50 310 214 0 301 311 302 0 +-.02030075187969925 -.0412593984962406 .0
5 0 1 0 0 0 1 14 301 193 312 ?313 296 314 25 310 +0 0 313 296 163 50 311 215 0 3
13 315 310 0 +.03969924812030075 .0187406015037594 .05 -1 -2312964634635745e-31
 0 2312964634635745e-31 -1 0 14 313 197 316 ?317 301 318 25 311 +0 0 317 301 163
 50 315 216 0 317 319 311 0 +-.02030075187969925 .0187406015037594 .05 0 -1 0 0
 0 -1 14 317 201 320 ?321 313 322 25 315 +0 0 321 313 163 50 319 386 0 321 323 3
15 0 +0 0 .05 0 0 1 1 0 0 14 321 377 324 ?241 317 168 25 319 -0 0 241 317 163 50
 323 387 0 241 0 319 0 +0 0 .06 0 0 1 1 0 0 14 241 374 325 ?0 321 235 25 323 +0
 0 0 321 163 81 1 325 564 121 241 326 0 324 327 328 81 1 326 507 139 241 0 325 3
29 0 330 81 1 324 562 121 321 329 0 320 325 331 81 1 327 566 121 233 332 0 325 0
 333 82 1 328 280428703 14 233 88 327 ?289 159 230 25 160 -0 0 289 159 163 81 1
 332 499 139 233 0 327 334 335 336 82 1 333 2055733407 81 1 334 498 139 159 0 30
8 307 332 337 81 1 335 500 139 289 0 303 332 298 338 83 3 336 .792156862745098 .
819607843137255 .929411764705882 81 1 303 550 121 289 335 0 299 306 339 81 1 298
 501 139 294 0 295 335 340 341 83 3 338 .792156862745098 .819607843137255 .92941
1764705882 81 1 340 502 139 296 0 299 298 342 343 83 3 341 .792156862745098 .819
607843137255 .929411764705882 81 1 299 548 121 296 340 0 295 303 344 81 1 342 50
3 139 301 0 312 340 345 346 83 3 343 .792156862745098 .819607843137255 .92941176
4705882 81 1 312 556 121 301 342 0 308 316 347 81 1 345 504 139 313 0 316 342 34
8 349 83 3 346 .792156862745098 .819607843137255 .929411764705882 81 1 316 558 1
21 313 345 0 312 320 350 81 1 348 505 139 317 0 320 345 329 351 83 3 349 .792156
862745098 .819607843137255 .929411764705882 81 1 320 560 121 317 348 0 316 324 3
52 81 1 329 506 139 321 0 324 348 326 353 83 3 351 .792156862745098 .81960784313
7255 .929411764705882 83 3 353 .792156862745098 .819607843137255 .92941176470588
2 82 1 352 2057306271 82 1 350 2057044127 81 1 308 554 121 159 334 0 306 312 354
 82 1 347 2056913055 82 1 354 2055930015 82 1 344 2056781983 82 1 339 2055864479
 81 1 307 497 139 157 0 306 0 334 355 83 3 337 .792156862745098 .819607843137255
 .929411764705882 83 3 355 .792156862745098 .819607843137255 .929411764705882 50
 160 93 0 233 304 26 0 +-.0503007518796992 -.0712593984962406 .05 0 1 0 0 0 1 50
 304 92 0 289 297 160 0 +.0696992481203008 .0487406015037594 .05 -1 -11564823173
17872e-31 0 1156482317317872e-31 -1 0 82 1 331 286064799 83 3 330 .7921568627450
98 .819607843137255 .929411764705882 15 168 379 0 205 321 0 17 205 0 168 170 169
 203 254 251 0 250 -17 170 0 168 166 205 206 250 248 0 171 -17 169 0 168 205 166
 208 257 255 0 254 -17 254 0 314 199 356 208 205 251 0 357 +17 250 0 176 178 177
 203 170 248 0 356 +15 176 192 0 174 296 0 17 178 0 176 174 250 200 356 274 0 17
9 +17 177 0 176 250 174 206 181 259 0 0 -17 356 0 314 254 202 203 178 274 0 0 -1
5 314 196 0 202 301 0 17 202 0 314 356 199 200 263 261 0 178 -17 199 0 314 202 2
54 197 357 272 0 358 +17 263 0 292 266 179 197 202 261 0 0 +15 292 128 0 179 157
 0 17 266 0 292 268 263 194 358 264 0 0 +17 179 0 292 263 268 200 174 180 0 0 +1
7 268 0 292 179 266 167 359 252 0 0 +17 359 0 322 173 181 194 268 252 0 266 -15
 322 204 0 359 317 0 17 173 0 322 171 359 31 196 270 0 257 -17 181 0 322 359 171
 167 177 259 0 268 +17 171 0 322 181 173 206 166 172 0 177 +17 196 0 318 358 257
 194 173 270 0 359 +17 257 0 318 196 357 31 169 255 0 0 +15 318 200 0 358 313 0
 17 357 0 318 257 358 208 199 272 0 0 -17 358 0 318 357 196 197 266 264 0 263 -8
2 1 309 2080112789 82 1 300 2056585375 17 190 0 230 218 164 188 193 277 0 234 +1
9 158 100 0 12 0 29 25 S0 74 20 156 3 0 0 327 326 22 0 0 0 0 0 0 0 0 0 0 0 0 0 0
 0 0 0 84 8 155 cubehole81 1 10 71 5 7 0 0 0 0 360 70 11 0 4 T7 0 0 3 20 1 361 3
61 13 13 31 0 7 0 362 0 0 363 0 51 255 14 30 0 362 364 0 0 --.003410619604392775
 .002357340020683245 .015 0 0 -1 .003 -1 0 0 31 255 15 25 0 365 366 0 0 +-.00341
0619604392775 .002357340020683245 0 0 0 1 1 0 0 .003 19 16 9 0 7 363 0 367 V0 16
 17 5 0 ?368 0 365 366 0 0 7 17 368 0 369 368 368 0 370 17 0 0 +16 365 20 0 ?371
 17 0 15 0 0 7 31 366 7 0 17 0 15 0 +-.003410619604392775 .002357340020683245 .0
15 0 0 1 1 0 0 .003 17 371 0 372 371 371 0 373 365 0 0 +15 372 28 0 371 362 0 17
 373 0 374 373 373 0 371 365 0 0 -15 374 19 0 373 375 0 14 375 18 376 ?0 377 374
 13 364 -0 0 0 377 367 81 1 376 70 139 375 378 0 379 0 380 14 377 1 379 ?375 362
 369 13 381 +0 0 375 362 367 50 364 24 0 375 381 14 0 +-.003410619604392775 .002
357340020683245 0 0 0 1 1 0 0 13 367 10 0 0 0 0 0 0 16 362 14 362 27 382 ?377 0
 383 13 14 -0 0 377 0 367 81 1 382 68 139 362 384 0 0 379 385 15 383 26 0 370 36
2 372 17 370 0 383 370 370 0 368 17 0 0 -81 1 384 66 121 362 0 382 386 0 387 81
 1 379 69 139 377 386 0 382 376 388 83 3 385 .792156862745098 .819607843137255 .
933333333333333 81 1 386 64 121 377 0 379 378 384 389 83 3 388 .792156862745098
 .819607843137255 .933333333333333 81 1 378 62 121 375 0 376 0 386 390 82 1 389
 1867776152 82 1 390 1869480088 82 1 387 1869742232 50 381 3 0 377 0 364 0 +-.00
3410619604392775 .002357340020683245 .015 0 0 1 1 0 0 15 369 4 0 368 377 0 83 3
 380 .792156862745098 .819607843137255 .933333333333333 19 363 32 0 7 0 16 13 S0
 74 20 361 3 0 0 384 376 10 0 0 0 0 0 0 0 0 0 0 0 0 0 0 0 0 0 84 14 360 cylinder
sensor74 20 6 1 0 0 2 0 0 0 0 0 0 0 0 0 0 0 0 0 0 0 0 0 0 0 1 0 
