**ABCDEFGHIJKLMNOPQRSTUVWXYZabcdefghijklmnopqrstuvwxyz**************************
**PARASOLID !"#$%&'()*+,-./:;<=>?@[\]^_`{|}~0123456789**************************
**PART1;
MC=AMD64;
MC_MODEL=Intel64 Family 6 Model 140 Stepping 2, GenuineIntel;
MC_ID=unknown;
OS=Windows_NT;
OS_RELEASE=unknown;
FRU=Parasolid Version 33.1, build 260,  4-25-2022;
APPL=SOLIDWORKS 2022-2022290;
SITE=;
USER=unknown;
FORMAT=text;
GUISE=transmit;
KEY=FILEpeg hole 0.x_t;
DATE=Sat Oct 14 16:39:10 2023;
**PART2;
SCH=SCH_3301260_33103;
USFLD_SIZE=0;
**PART3;
**END_OF_HEADER*****************************************************************
T51 : TRANSMIT FILE created by modeller version 330126023 SCH_3301260_33103_1300
6230 0 10 21 CCCCI7 lattice222 0 CCCI4 mesh1006 0 I8 polyline1008 0 CCCCCCCCCCA1
6 mesh_offset_data206 0 Z1 9 2 3 0 0 0 0 0 0 0 0 1e3 1e-8 0 0 0 1 0 1 4 0 81 255
 1 2 9 5 1 0 0 0 0 0 70 11 CI9 list_type0 0 1 uI10 notransmit0 0 1 lCCCDCCDI12 f
inger_index0 0 1 dI12 finger_block1012 0 CZ3 0 4 T1 0 0 1 20 1 6 6 11 255 4 7 0
 1 7 8 1 9 0 9 0 12 35 CCCI7 lattice222 0 CCCI4 mesh1006 0 I8 polyline1008 0 CCC
CCCCDI5 owner1040 0 CCCCCCI13 boundary_mesh1006 0 I17 boundary_polyline1008 0 CC
CA16 index_map_offset0 0 1 dA9 index_map82 0 A17 node_id_index_map82 0 A20 schem
a_embedding_map82 0 A5 child12 0 A14 lowest_node_id0 0 1 dA16 mesh_offset_data20
6 0 Z7 68 10 11 0 0 0 0 0 0 0 1e3 1e-8 4 12 0 1 0 1 1 13 14 15 0 0 0 16 17 0 0 0
 0 0 0 0 0 100 10 CCCCCCCCCA9 precision229 0 Z8 8 4 0 0 1 832667268468868e-31 83
2667268468868e-31 832667268468868e-31 -616679249661193e-31 -1 -832667268468868e-
31 1 -616679249661193e-31 .04426105343526175 .02478043503090405 .038378395659222
25 1 3 ?0 11 9 5 0 1 7 18 1 19 4 0 4 100 18 6 9 0 0 1 -555111512312578e-31 55511
1512312578e-31 -555111512312578e-31 616679249661193e-31 1 -555111512312578e-31 -
1 616679249661193e-31 .04426105343526175 .074780435030904 .0430930757005887 1 3
 ?0 11 19 3 0 1 12 20 1 21 9 0 0 12 12 224 22 23 0 0 0 0 0 0 0 1e3 1e-8 19 24 7
 1 0 1 1 25 26 27 28 0 0 29 30 31 0 0 0 0 0 0 0 100 20 4 19 0 0 -555111512312578
e-31 1 693889390390722e-32 -1 -2220446049250315e-31 -616679249661193e-31 -616679
249661193e-31 -693889390390724e-32 1 .0503580356947486 .04445636095683 .03342787
55317047 1 3 ?0 11 21 1 0 1 24 32 1 0 19 0 0 12 24 562 33 34 0 0 0 0 0 0 0 1e3 1
e-8 21 35 12 1 0 1 1 36 37 38 39 0 0 40 41 42 0 0 0 0 0 0 0 100 32 2 21 0 0 1 0
 0 0 1 0 0 0 1 .03993618211263605 .0660398335271446 .0734278755317047 1 1 ?0 81
 1 33 508 5 24 0 0 0 0 43 70 34 0 4 T24 0 0 3 20 1 44 44 13 255 36 99 0 24 0 45
 0 0 46 0 50 255 37 94 0 47 48 0 0 +-.0503007518796993 .0487406015037594 .05 1 1
156482317317872e-31 0 -1156482317317872e-31 1 0 30 255 38 98 0 41 49 0 0 +-.0503
007518796992 -.0712593984962406 .05 0 0 -1 29 255 39 137 0 42 50 0 .039699248120
30075 .0187406015037594 .05 19 8 CCCCCCCA5 owner12 0 Z40 33 0 24 46 0 51 V0 16 2
55 41 82 0 ?52 0 53 38 0 0 24 18 255 42 135 0 54 0 55 39 ?24 17 255 54 0 56 57 5
8 42 59 60 0 61 -18 55 112 0 62 42 63 50 ?24 17 62 0 64 65 66 55 67 68 0 69 -18
 63 66 0 70 55 71 72 ?24 29 50 114 0 55 72 39 -.02030075187969925 .0187406015037
594 0 29 72 75 0 63 73 50 -.0503007518796993 .0487406015037594 0 29 73 76 0 71 7
4 72 .0696992481203008 .0487406015037594 0 18 71 67 0 75 63 76 73 ?24 29 74 77 0
 76 77 73 .0696992481203008 -.0712593984962406 0 18 76 68 0 78 71 79 74 ?24 29 7
7 78 0 79 80 74 -.0503007518796992 -.0712593984962406 0 18 79 69 0 81 76 82 77 ?
24 29 80 232 0 82 83 77 .03969924812030075 .0187406015037594 0 18 82 183 0 84 79
 85 80 ?24 29 83 233 0 85 86 80 .03969924812030075 -.0412593984962406 0 18 85 18
1 0 87 82 88 83 ?24 29 86 234 0 88 89 83 -.02030075187969925 -.0412593984962406
 0 18 88 188 0 90 85 91 86 ?24 29 89 400 0 91 92 86 -.02030075187969925 -.041259
3984962406 .05 18 91 351 0 93 88 94 89 ?24 29 92 401 0 94 95 89 -.02030075187969
925 .0187406015037594 .05 18 94 352 0 58 91 96 92 ?24 29 95 403 0 96 97 92 .0396
9924812030075 -.0412593984962406 .05 18 96 343 0 57 94 98 95 ?24 29 97 408 0 98
 99 95 -.0503007518796993 .0487406015037594 .06 18 98 350 0 100 96 101 97 ?24 29
 99 409 0 101 102 97 .0696992481203008 .0487406015037594 .06 18 101 349 0 103 98
 104 99 ?24 29 102 410 0 104 105 99 .0696992481203008 -.0712593984962406 .06 18
 104 348 0 106 101 107 102 ?24 29 105 411 0 107 0 102 -.0503007518796993 -.07125
93984962406 .06 18 107 345 0 108 104 0 105 ?24 17 108 0 109 110 111 107 52 41 0
 112 -15 255 109 89 0 111 47 0 17 110 0 109 113 108 98 114 115 0 0 -17 111 0 109
 108 113 79 116 117 0 0 +17 52 0 118 78 112 79 108 41 0 111 +17 112 0 118 52 106
 107 119 120 0 114 -15 118 87 0 78 121 0 17 106 0 118 112 78 104 122 53 0 119 -1
7 119 0 123 124 114 104 112 120 0 125 +16 120 333 0 ?119 126 115 127 0 0 24 17 1
14 0 123 119 128 107 110 115 0 0 +15 123 376 0 114 129 0 17 128 0 123 114 124 98
 130 131 0 110 +16 115 330 0 ?114 120 0 132 0 0 24 30 132 399 0 115 0 127 0 +-.0
503007518796993 .0487406015037594 .06 0 -1 0 30 127 398 0 120 132 133 0 +-.05030
07518796993 -.0712593984962406 .06 1 0 0 30 133 397 0 126 127 134 0 +.0696992481
203008 .0487406015037594 .06 0 1 0 16 126 336 0 ?124 131 120 133 0 0 24 30 134 3
96 0 131 133 135 0 +-.0503007518796993 .0487406015037594 .06 -1 0 0 16 131 339 0
 ?128 68 126 134 0 0 24 30 135 230 0 136 134 137 0 +-.02030075187969925 .0187406
015037594 .05 404768811061255e-30 -1 0 16 136 169 0 ?138 139 140 135 0 0 24 30 1
37 229 0 139 135 141 0 +-.02030075187969925 -.0412593984962406 .05 1 0 0 16 139
 172 0 ?142 143 136 137 0 0 24 30 141 228 0 143 137 144 0 +.03969924812030075 .0
187406015037594 .05 -2312964634635745e-31 1 0 16 143 175 0 ?145 60 139 141 0 0 2
4 30 144 227 0 60 141 146 0 +-.02030075187969925 .0187406015037594 .05 -1 0 0 16
 60 178 0 ?59 147 143 144 0 0 24 30 146 226 0 68 144 148 0 +-.02030075187969925
 .0187406015037594 0 404768811061255e-30 -1 0 16 68 153 0 ?67 149 131 146 0 0 24
 30 148 225 0 149 146 150 0 +-.02030075187969925 -.0412593984962406 0 1 0 0 16 1
49 157 0 ?151 152 68 148 0 0 24 30 150 224 0 152 148 153 0 +.03969924812030075 .
0187406015037594 0 -2312964634635745e-31 1 0 16 152 161 0 ?154 140 149 150 0 0 2
4 30 153 223 0 140 150 155 0 +-.02030075187969925 .0187406015037594 0 -1 0 0 16
 140 165 0 ?156 136 152 153 0 0 24 30 155 222 0 147 153 157 0 +-.020300751879699
25 .0187406015037594 .05 0 0 -1 16 147 156 0 ?69 158 60 155 0 0 24 30 157 221 0
 158 155 159 0 +.03969924812030075 .0187406015037594 .05 0 0 -1 16 158 168 0 ?84
 160 147 157 0 0 24 30 159 220 0 160 157 161 0 +.03969924812030075 -.04125939849
62406 .05 0 0 -1 16 160 164 0 ?87 162 158 159 0 0 24 30 161 219 0 162 159 163 0
 +-.02030075187969925 -.0412593984962406 .05 0 0 -1 16 162 160 0 ?66 117 160 161
 0 0 24 30 163 74 0 117 161 164 0 +-.0503007518796993 .0487406015037594 0 115648
2317317872e-31 -1 0 16 117 62 0 ?111 165 162 163 0 0 24 30 164 73 0 165 163 166
 0 +-.0503007518796992 -.0712593984962406 0 1 0 0 16 165 58 0 ?78 167 117 164 0
 0 24 30 166 72 0 167 164 168 0 +.0696992481203008 .0487406015037594 0 -11564823
17317872e-31 1 0 16 167 54 0 ?75 169 165 166 0 0 24 30 168 71 0 169 166 170 0 +-
.0503007518796993 .0487406015037594 0 -1 0 0 16 169 50 0 ?70 171 167 168 0 0 24
 30 170 95 0 171 168 172 0 +-.0503007518796993 .0487406015037594 .05 0 0 -1 16 1
71 79 0 ?113 173 169 170 0 0 24 30 172 96 0 173 170 49 0 +.0696992481203008 .048
7406015037594 .05 0 0 -1 16 173 80 0 ?174 53 171 172 0 0 24 30 49 97 0 53 172 38
 0 +.0696992481203008 -.0712593984962406 .05 0 0 -1 16 53 81 0 ?122 41 173 49 0
 0 24 17 122 0 175 75 125 76 106 53 0 176 +15 175 85 0 75 177 0 17 75 0 175 103
 122 71 176 167 0 174 +17 125 0 175 122 103 104 124 126 0 0 -17 176 0 178 81 179
 76 75 167 0 0 -15 178 49 0 116 45 180 17 81 0 178 116 176 79 78 165 0 52 -17 17
9 0 178 176 116 71 70 169 0 0 -17 116 0 178 179 81 63 111 117 0 0 -17 70 0 181 1
00 174 63 179 169 0 113 +15 181 83 0 70 182 0 17 100 0 181 130 70 98 113 171 0 1
28 -17 174 0 181 70 130 71 103 173 0 179 +17 113 0 109 111 110 63 100 171 0 116
 +17 130 0 181 174 100 101 128 131 0 0 -17 103 0 175 125 75 101 174 173 0 124 -1
7 124 0 123 128 119 101 125 126 0 130 +14 255 182 84 183 ?184 177 181 36 185 -0
 0 184 177 51 81 1 183 542 186 182 187 0 0 188 189 14 184 189 188 ?190 182 64 36
 191 +0 0 190 182 51 14 177 86 192 ?182 121 175 36 193 -0 0 182 121 51 50 185 91
 0 182 194 193 0 +-.0503007518796993 .0487406015037594 .05 0 -1 0 0 0 -1 13 51 3
4 0 0 0 0 0 0 40 45 14 45 130 195 ?47 0 178 36 194 -0 0 47 0 51 81 1 195 548 186
 45 196 0 192 197 198 14 47 90 197 ?121 45 109 36 37 -0 0 121 45 51 50 194 70 0
 45 191 185 0 +0 0 0 0 0 1 1 0 0 50 191 213 0 184 199 194 0 +-.02030075187969925
 .0187406015037594 .05 1 404768811061255e-30 0 -404768811061255e-30 1 0 50 199 2
14 0 190 200 191 0 +-.02030075187969925 -.0412593984962406 .05 0 1 0 0 0 1 14 19
0 193 201 ?202 184 203 36 199 +0 0 202 184 51 50 200 215 0 202 204 199 0 +.03969
924812030075 .0187406015037594 .05 -1 -2312964634635745e-31 0 2312964634635745e-
31 -1 0 14 202 197 205 ?206 190 207 36 200 +0 0 206 190 51 50 204 216 0 206 208
 200 0 +-.02030075187969925 .0187406015037594 .05 0 -1 0 0 0 -1 14 206 201 209 ?
210 202 211 36 204 +0 0 210 202 51 50 208 386 0 210 212 204 0 +0 0 .05 0 0 1 1 0
 0 14 210 377 213 ?129 206 56 36 208 -0 0 129 206 51 50 212 387 0 129 0 208 0 +0
 0 .06 0 0 1 1 0 0 14 129 374 214 ?0 210 123 36 212 +0 0 0 210 51 81 1 214 560 1
86 129 215 0 213 216 217 80 255 1 186 218 219 9000 1 1 1 1 1 1 1 1 0 FFFFTFTFFFF
FFF1 81 1 215 507 220 129 0 214 221 0 222 81 1 213 558 186 210 221 0 209 214 223
 81 1 216 562 186 121 224 0 214 0 225 82 255 1 217 280428703 14 121 88 216 ?177
 47 118 36 48 -0 0 177 47 51 81 1 224 499 220 121 0 216 226 227 228 82 1 225 205
5733407 80 1 220 0 229 8001 0 0 0 0 3 5 0 0 0 FFFFTFTFFFFFFF2 81 1 226 498 220 4
7 0 197 196 224 230 81 1 227 500 220 177 0 192 224 187 231 83 255 3 228 .7921568
62745098 .819607843137255 .929411764705882 81 1 192 546 186 177 227 0 188 195 23
2 81 1 187 501 220 182 0 183 227 233 234 83 3 231 .792156862745098 .819607843137
255 .929411764705882 81 1 233 502 220 184 0 188 187 235 236 83 3 234 .7921568627
45098 .819607843137255 .929411764705882 81 1 188 544 186 184 233 0 183 192 237 8
1 1 235 503 220 190 0 201 233 238 239 83 3 236 .792156862745098 .819607843137255
 .929411764705882 81 1 201 552 186 190 235 0 197 205 240 81 1 238 504 220 202 0
 205 235 241 242 83 3 239 .792156862745098 .819607843137255 .929411764705882 81
 1 205 554 186 202 238 0 201 209 243 81 1 241 505 220 206 0 209 238 221 244 83 3
 242 .792156862745098 .819607843137255 .929411764705882 81 1 209 556 186 206 241
 0 205 213 245 81 1 221 506 220 210 0 213 241 215 246 83 3 244 .792156862745098
 .819607843137255 .929411764705882 83 3 246 .792156862745098 .819607843137255 .9
29411764705882 82 1 245 2057306271 82 1 243 2057044127 81 1 197 550 186 47 226 0
 195 201 247 82 1 240 2056913055 82 1 247 2055930015 82 1 237 2056781983 82 1 23
2 2055864479 81 1 196 497 220 45 0 195 0 226 248 83 3 230 .792156862745098 .8196
07843137255 .929411764705882 83 3 248 .792156862745098 .819607843137255 .9294117
64705882 79 255 15 229 SDL/TYSA_COLOUR50 48 93 0 121 193 37 0 +-.050300751879699
2 -.0712593984962406 .05 0 1 0 0 0 1 50 193 92 0 177 185 48 0 +.0696992481203008
 .0487406015037594 .05 -1 -1156482317317872e-31 0 1156482317317872e-31 -1 0 82 1
 223 286064799 83 3 222 .792156862745098 .819607843137255 .929411764705882 79 14
 219 SWEntUnchanged15 56 379 0 93 210 0 17 93 0 56 58 57 91 142 139 0 138 -17 58
 0 56 54 93 94 138 136 0 59 -17 57 0 56 93 54 96 145 143 0 142 -17 142 0 203 87
 249 96 93 139 0 250 +17 138 0 64 66 65 91 58 136 0 249 +15 64 192 0 62 184 0 17
 66 0 64 62 138 88 249 162 0 67 +17 65 0 64 138 62 94 69 147 0 0 -17 249 0 203 1
42 90 91 66 162 0 0 -15 203 196 0 90 190 0 17 90 0 203 249 87 88 151 149 0 66 -1
7 87 0 203 90 142 85 250 160 0 251 +17 151 0 180 154 67 85 90 149 0 0 +15 180 12
8 0 67 45 0 17 154 0 180 156 151 82 251 152 0 0 +17 67 0 180 151 156 88 62 68 0
 0 +17 156 0 180 67 154 55 252 140 0 0 +17 252 0 211 61 69 82 156 140 0 154 -15
 211 204 0 252 206 0 17 61 0 211 59 252 42 84 158 0 145 -17 69 0 211 252 59 55 6
5 147 0 156 +17 59 0 211 69 61 94 54 60 0 65 +17 84 0 207 251 145 82 61 158 0 25
2 +17 145 0 207 84 250 42 57 143 0 0 +15 207 200 0 251 202 0 17 250 0 207 145 25
1 96 87 160 0 0 -17 251 0 207 250 84 85 154 152 0 151 -82 1 198 2080112789 82 1
 189 2056585375 17 78 0 118 106 52 76 81 165 0 122 +19 46 100 0 24 0 40 36 S0 74
 4 CI16 index_map_offset0 0 1 dCCZ20 44 3 0 0 216 215 33 0 0 0 0 0 0 0 0 0 0 0 0
 0 0 0 0 0 80 1 5 253 254 8017 0 0 0 0 0 0 0 0 0 TTTTTTTTTTTTTF3 84 255 8 43 cub
ehole79 13 254 SDL/TYSA_NAME81 1 22 190 5 12 0 0 0 0 255 70 23 0 4 T12 0 0 3 20
 1 256 256 13 25 99 0 12 0 257 0 0 258 0 50 26 94 0 257 259 0 0 +-.0303240740740
7405 .02233796296296295 .09 1 0 0 0 0 -1 30 27 98 0 30 260 0 0 +-.03032407407407
405 -.02766203703703705 .09 0 0 -1 29 28 75 0 261 262 0 -.03032407407407405 .022
33796296296295 0 19 29 33 0 12 258 0 263 V0 16 30 82 0 ?264 0 265 27 0 0 12 18 3
1 30 0 266 0 267 268 ?12 17 266 0 269 270 271 31 272 273 0 274 +18 267 27 0 271
 31 275 276 ?12 29 268 32 0 31 276 277 -.03032407407407405 .02233796296296295 .0
9 29 276 29 0 267 278 268 .01967592592592595 .02233796296296295 .09 29 277 78 0
 279 268 280 -.03032407407407405 -.02766203703703705 0 18 279 69 0 281 282 0 277
 ?12 29 280 77 0 282 277 262 .01967592592592595 -.02766203703703705 0 18 282 68
 0 283 284 279 280 ?12 29 262 76 0 284 280 28 .01967592592592595 .02233796296296
295 0 18 284 67 0 285 261 282 262 ?12 17 285 0 286 287 288 284 289 290 0 291 +18
 261 66 0 292 293 284 28 ?12 17 292 0 294 274 291 261 295 296 0 297 +18 293 21 0
 298 275 261 299 ?12 17 298 0 300 264 301 293 302 303 0 270 -18 275 24 0 302 267
 293 278 ?12 29 299 23 0 293 0 278 -.03032407407407405 -.02766203703703705 .09 2
9 278 26 0 275 299 276 .01967592592592595 -.02766203703703705 .09 17 302 0 269 2
71 270 275 298 303 0 301 +15 269 4 0 270 304 0 17 271 0 269 266 302 267 305 306
 0 287 +17 270 0 269 302 266 293 307 308 0 309 +16 303 9 0 ?302 306 308 310 0 0
 12 17 301 0 300 298 283 275 288 265 0 305 -15 300 87 0 283 311 0 17 283 0 300 3
01 264 282 281 312 0 288 +17 288 0 286 285 305 282 301 265 0 289 +16 265 81 0 ?2
88 30 313 260 0 0 12 17 305 0 286 288 287 275 271 306 0 0 -15 286 85 0 285 314 0
 17 287 0 286 305 285 267 291 313 0 272 -16 306 13 0 ?271 273 303 315 0 0 12 16
 273 17 0 ?266 316 306 317 0 0 12 30 315 15 0 306 310 317 0 +.01967592592592595
 .02233796296296295 .09 -1387778780781446e-31 1 0 30 310 11 0 303 318 315 0 +-.0
3032407407407405 -.02766203703703705 .09 1 0 0 30 317 19 0 273 315 319 0 +-.0303
2407407407405 .02233796296296295 .09 -1 0 0 30 319 74 0 320 317 321 0 +-.0303240
7407407405 .02233796296296295 0 0 -1 0 16 320 62 0 ?322 312 0 319 0 0 12 30 321
 73 0 312 319 323 0 +-.03032407407407405 -.02766203703703705 0 1 0 0 16 312 58 0
 ?283 290 320 321 0 0 12 30 323 72 0 290 321 324 0 +.01967592592592595 .02233796
296296295 0 -1387778780781446e-31 1 0 16 290 54 0 ?285 296 312 323 0 0 12 30 324
 71 0 296 323 325 0 +-.03032407407407405 .02233796296296295 0 -1 0 0 16 296 50 0
 ?292 308 290 324 0 0 12 30 325 95 0 316 324 326 0 +-.03032407407407405 .0223379
6296296295 .09 0 0 -1 16 316 79 0 ?297 313 273 325 0 0 12 30 326 96 0 313 325 26
0 0 +.01967592592592595 .02233796296296295 .09 0 0 -1 16 313 80 0 ?291 265 316 3
26 0 0 12 30 260 97 0 265 326 27 0 +.01967592592592595 -.02766203703703705 .09 0
 0 -1 17 291 0 294 292 272 284 287 313 0 295 +15 294 83 0 292 327 0 17 272 0 294
 291 274 267 266 273 0 0 -17 295 0 328 289 329 284 292 296 0 0 -15 328 49 0 329
 330 0 17 289 0 328 281 295 282 285 290 0 0 -17 329 0 328 295 281 261 322 320 0
 0 -17 281 0 328 329 289 279 283 312 0 264 -17 322 0 331 309 297 279 329 320 0 0
 +15 331 89 0 322 257 0 17 309 0 331 307 322 293 264 30 0 0 -17 297 0 331 322 30
7 261 274 316 0 329 +17 307 0 331 297 309 31 270 308 0 0 -17 274 0 294 272 292 3
1 297 316 0 307 -16 308 5 0 ?270 303 296 318 0 0 12 30 318 7 0 308 0 310 0 +-.03
032407407407405 .02233796296296295 .09 0 -1 0 17 264 0 300 283 298 279 309 30 0
 322 +14 257 90 332 ?311 0 331 25 26 -0 0 311 0 263 81 1 332 214 186 257 333 0 0
 334 335 14 311 88 334 ?314 257 300 25 259 -0 0 314 257 263 13 263 34 0 0 0 0 0
 0 29 257 81 1 334 216 186 311 336 0 332 337 338 14 314 86 337 ?327 311 286 25 3
39 -0 0 327 311 263 50 259 93 0 311 339 26 0 +-.03032407407407405 -.027662037037
03705 .09 0 1 0 0 0 1 50 339 92 0 314 340 259 0 +.01967592592592595 .02233796296
296295 .09 -1 -1387778780781446e-31 0 1387778780781446e-31 -1 0 50 340 91 0 327
 341 339 0 +-.03032407407407405 .02233796296296295 .09 0 -1 0 0 0 -1 14 327 84 3
42 ?304 314 294 25 340 -0 0 304 314 263 50 341 70 0 330 343 340 0 +0 0 0 0 0 1 1
 0 0 14 330 48 344 ?0 304 328 25 341 -0 0 0 304 263 50 343 3 0 304 0 341 0 +0 0
 .09 0 0 1 1 0 0 14 304 1 345 ?330 327 269 25 343 +0 0 330 327 263 81 1 345 224
 186 304 346 0 344 0 347 81 1 346 188 220 304 0 345 348 349 350 81 1 344 222 186
 330 349 0 342 345 351 82 1 347 900137105 81 1 349 189 220 330 0 344 346 0 352 8
1 1 342 220 186 327 348 0 337 344 353 82 1 351 905773201 81 1 348 187 220 327 0
 342 354 346 355 81 1 337 218 186 314 354 0 334 342 356 82 1 353 906690705 81 1
 354 186 220 314 0 337 336 348 357 82 1 356 906952849 81 1 336 185 220 311 0 334
 333 354 358 83 3 357 .792156862745098 .819607843137255 .929411764705882 81 1 33
3 184 220 257 0 332 0 336 359 83 3 358 .792156862745098 .819607843137255 .929411
764705882 83 3 359 .792156862745098 .819607843137255 .929411764705882 83 3 355 .
792156862745098 .819607843137255 .929411764705882 83 3 352 .792156862745098 .819
607843137255 .929411764705882 83 3 350 .792156862745098 .819607843137255 .929411
764705882 82 1 338 907214993 82 1 335 907477137 19 258 100 0 12 0 29 25 S0 74 20
 256 3 0 0 345 349 22 0 0 0 0 0 0 0 0 0 0 0 0 0 0 0 0 0 84 8 255 cube peg81 1 10
 68 5 7 0 0 0 0 360 70 11 0 4 T7 0 0 3 20 1 361 361 13 13 31 0 7 0 362 0 0 363 0
 51 255 14 30 0 362 364 0 0 --.003410619604392775 .002357340020683245 .015 0 0 -
1 .003 -1 0 0 31 255 15 25 0 365 366 0 0 +-.003410619604392775 .0023573400206832
45 0 0 0 1 1 0 0 .003 19 16 9 0 7 363 0 367 V0 16 17 5 0 ?368 0 365 366 0 0 7 17
 368 0 369 368 368 0 370 17 0 0 +16 365 20 0 ?371 17 0 15 0 0 7 31 366 7 0 17 0
 15 0 +-.003410619604392775 .002357340020683245 .015 0 0 1 1 0 0 .003 17 371 0 3
72 371 371 0 373 365 0 0 +15 372 28 0 371 362 0 17 373 0 374 373 373 0 371 365 0
 0 -15 374 19 0 373 375 0 14 375 18 376 ?0 377 374 13 364 -0 0 0 377 367 81 1 37
6 67 220 375 378 0 379 0 380 14 377 1 379 ?375 362 369 13 381 +0 0 375 362 367 5
0 364 24 0 375 381 14 0 +-.003410619604392775 .002357340020683245 0 0 0 1 1 0 0
 13 367 10 0 0 0 0 0 0 16 362 14 362 27 382 ?377 0 383 13 14 -0 0 377 0 367 81 1
 382 65 220 362 384 0 0 379 385 15 383 26 0 370 362 372 17 370 0 383 370 370 0 3
68 17 0 0 -81 1 384 63 186 362 0 382 386 0 387 81 1 379 66 220 377 386 0 382 376
 388 83 3 385 .792156862745098 .819607843137255 .933333333333333 81 1 386 61 186
 377 0 379 378 384 389 83 3 388 .792156862745098 .819607843137255 .9333333333333
33 81 1 378 59 186 375 0 376 0 386 390 82 1 389 1867776152 82 1 390 1869480088 8
2 1 387 1869742232 50 381 3 0 377 0 364 0 +-.003410619604392775 .002357340020683
245 .015 0 0 1 1 0 0 15 369 4 0 368 377 0 83 3 380 .792156862745098 .81960784313
7255 .933333333333333 19 363 32 0 7 0 16 13 S0 74 20 361 3 0 0 384 376 10 0 0 0
 0 0 0 0 0 0 0 0 0 0 0 0 0 0 84 14 360 cylindersensor74 20 6 1 0 0 2 0 0 0 0 0 0
 0 0 0 0 0 0 0 0 0 0 0 0 0 1 0 
