**ABCDEFGHIJKLMNOPQRSTUVWXYZabcdefghijklmnopqrstuvwxyz**************************
**PARASOLID !"#$%&'()*+,-./:;<=>?@[\]^_`{|}~0123456789**************************
**PART1;
MC=AMD64;
MC_MODEL=Intel64 Family 6 Model 140 Stepping 2, GenuineIntel;
MC_ID=unknown;
OS=Windows_NT;
OS_RELEASE=unknown;
FRU=Parasolid Version 33.1, build 260,  4-25-2022;
APPL=SOLIDWORKS 2022-2022290;
SITE=;
USER=unknown;
FORMAT=text;
GUISE=transmit;
KEY=FILEpeg hole.x_t;
DATE=Sun Oct  8 14:03:37 2023;
**PART2;
SCH=SCH_3301260_33103;
USFLD_SIZE=0;
**PART3;
**END_OF_HEADER*****************************************************************
T51 : TRANSMIT FILE created by modeller version 330126023 SCH_3301260_33103_1300
6230 0 10 21 CCCCI7 lattice222 0 CCCI4 mesh1006 0 I8 polyline1008 0 CCCCCCCCCCA1
6 mesh_offset_data206 0 Z1 5 2 3 0 0 0 0 0 0 0 0 1e3 1e-8 0 0 0 1 0 1 4 0 81 255
 1 2 5 5 1 0 0 0 0 0 70 11 CI9 list_type0 0 1 uI10 notransmit0 0 1 lCCCDCCDI12 f
inger_index0 0 1 dI12 finger_block1012 0 CZ3 0 4 T1 0 0 1 20 1 6 6 11 255 4 3 0
 1 7 8 1 9 0 0 0 12 35 CCCI7 lattice222 0 CCCI4 mesh1006 0 I8 polyline1008 0 CCC
CCCCDI5 owner1040 0 CCCCCCI13 boundary_mesh1006 0 I17 boundary_polyline1008 0 CC
CA16 index_map_offset0 0 1 dA9 index_map82 0 A17 node_id_index_map82 0 A20 schem
a_embedding_map82 0 A5 child12 0 A14 lowest_node_id0 0 1 dA16 mesh_offset_data20
6 0 Z7 190 10 11 0 0 0 0 0 0 0 1e3 1e-8 4 12 0 1 0 1 1 13 14 15 16 0 0 17 18 19
 0 0 0 0 0 0 0 100 10 CCCCCCCCCA9 precision229 0 Z8 4 4 0 0 1 0 0 0 1 0 0 0 1 .0
583264472848877 .0595610375397372 -.01296729022542766 1 1 ?0 11 9 1 0 1 12 20 1
 0 4 0 0 12 12 508 21 22 0 0 0 0 0 0 0 1e3 1e-8 9 23 7 1 0 1 1 24 25 26 27 0 0 2
8 29 30 0 0 0 0 0 0 0 100 20 2 9 0 0 1 0 0 0 1 0 0 0 1 .03993618211263605 .06603
98335271446 .0734278755317047 1 1 ?0 81 1 21 508 5 12 0 0 0 0 31 70 22 0 4 T12 0
 0 3 20 1 32 32 13 255 24 99 0 12 0 33 0 0 34 0 50 255 25 94 0 35 36 0 0 +-.0503
007518796993 .0487406015037594 .05 1 1156482317317872e-31 0 -1156482317317872e-3
1 1 0 30 255 26 98 0 29 37 0 0 +-.0503007518796992 -.0712593984962406 .05 0 0 -1
 29 255 27 137 0 30 38 0 .03969924812030075 .0187406015037594 .05 19 8 CCCCCCCA5
 owner12 0 Z28 33 0 12 34 0 39 V0 16 255 29 82 0 ?40 0 41 26 0 0 12 18 255 30 13
5 0 42 0 43 27 ?12 17 255 42 0 44 45 46 30 47 48 0 49 -18 43 112 0 50 30 51 38 ?
12 17 50 0 52 53 54 43 55 56 0 57 -18 51 66 0 58 43 59 60 ?12 29 38 114 0 43 60
 27 -.02030075187969925 .0187406015037594 0 29 60 75 0 51 61 38 -.05030075187969
93 .0487406015037594 0 29 61 76 0 59 62 60 .0696992481203008 .0487406015037594 0
 18 59 67 0 63 51 64 61 ?12 29 62 77 0 64 65 61 .0696992481203008 -.071259398496
2406 0 18 64 68 0 66 59 67 62 ?12 29 65 78 0 67 68 62 -.0503007518796992 -.07125
93984962406 0 18 67 69 0 69 64 70 65 ?12 29 68 232 0 70 71 65 .03969924812030075
 .0187406015037594 0 18 70 183 0 72 67 73 68 ?12 29 71 233 0 73 74 68 .039699248
12030075 -.0412593984962406 0 18 73 181 0 75 70 76 71 ?12 29 74 234 0 76 77 71 -
.02030075187969925 -.0412593984962406 0 18 76 188 0 78 73 79 74 ?12 29 77 400 0
 79 80 74 -.02030075187969925 -.0412593984962406 .05 18 79 351 0 81 76 82 77 ?12
 29 80 401 0 82 83 77 -.02030075187969925 .0187406015037594 .05 18 82 352 0 46 7
9 84 80 ?12 29 83 403 0 84 85 80 .03969924812030075 -.0412593984962406 .05 18 84
 343 0 45 82 86 83 ?12 29 85 408 0 86 87 83 -.0503007518796993 .0487406015037594
 .06 18 86 350 0 88 84 89 85 ?12 29 87 409 0 89 90 85 .0696992481203008 .0487406
015037594 .06 18 89 349 0 91 86 92 87 ?12 29 90 410 0 92 93 87 .0696992481203008
 -.0712593984962406 .06 18 92 348 0 94 89 95 90 ?12 29 93 411 0 95 0 90 -.050300
7518796993 -.0712593984962406 .06 18 95 345 0 96 92 0 93 ?12 17 96 0 97 98 99 95
 40 29 0 100 -15 255 97 89 0 99 35 0 17 98 0 97 101 96 86 102 103 0 0 -17 99 0 9
7 96 101 67 104 105 0 0 +17 40 0 106 66 100 67 96 29 0 99 +17 100 0 106 40 94 95
 107 108 0 102 -15 106 87 0 66 109 0 17 94 0 106 100 66 92 110 41 0 107 -17 107
 0 111 112 102 92 100 108 0 113 +16 108 333 0 ?107 114 103 115 0 0 12 17 102 0 1
11 107 116 95 98 103 0 0 +15 111 376 0 102 117 0 17 116 0 111 102 112 86 118 119
 0 98 +16 103 330 0 ?102 108 0 120 0 0 12 30 120 399 0 103 0 115 0 +-.0503007518
796993 .0487406015037594 .06 0 -1 0 30 115 398 0 108 120 121 0 +-.05030075187969
93 -.0712593984962406 .06 1 0 0 30 121 397 0 114 115 122 0 +.0696992481203008 .0
487406015037594 .06 0 1 0 16 114 336 0 ?112 119 108 121 0 0 12 30 122 396 0 119
 121 123 0 +-.0503007518796993 .0487406015037594 .06 -1 0 0 16 119 339 0 ?116 56
 114 122 0 0 12 30 123 230 0 124 122 125 0 +-.02030075187969925 .018740601503759
4 .05 404768811061255e-30 -1 0 16 124 169 0 ?126 127 128 123 0 0 12 30 125 229 0
 127 123 129 0 +-.02030075187969925 -.0412593984962406 .05 1 0 0 16 127 172 0 ?1
30 131 124 125 0 0 12 30 129 228 0 131 125 132 0 +.03969924812030075 .0187406015
037594 .05 -2312964634635745e-31 1 0 16 131 175 0 ?133 48 127 129 0 0 12 30 132
 227 0 48 129 134 0 +-.02030075187969925 .0187406015037594 .05 -1 0 0 16 48 178
 0 ?47 135 131 132 0 0 12 30 134 226 0 56 132 136 0 +-.02030075187969925 .018740
6015037594 0 404768811061255e-30 -1 0 16 56 153 0 ?55 137 119 134 0 0 12 30 136
 225 0 137 134 138 0 +-.02030075187969925 -.0412593984962406 0 1 0 0 16 137 157
 0 ?139 140 56 136 0 0 12 30 138 224 0 140 136 141 0 +.03969924812030075 .018740
6015037594 0 -2312964634635745e-31 1 0 16 140 161 0 ?142 128 137 138 0 0 12 30 1
41 223 0 128 138 143 0 +-.02030075187969925 .0187406015037594 0 -1 0 0 16 128 16
5 0 ?144 124 140 141 0 0 12 30 143 222 0 135 141 145 0 +-.02030075187969925 .018
7406015037594 .05 0 0 -1 16 135 156 0 ?57 146 48 143 0 0 12 30 145 221 0 146 143
 147 0 +.03969924812030075 .0187406015037594 .05 0 0 -1 16 146 168 0 ?72 148 135
 145 0 0 12 30 147 220 0 148 145 149 0 +.03969924812030075 -.0412593984962406 .0
5 0 0 -1 16 148 164 0 ?75 150 146 147 0 0 12 30 149 219 0 150 147 151 0 +-.02030
075187969925 -.0412593984962406 .05 0 0 -1 16 150 160 0 ?54 105 148 149 0 0 12 3
0 151 74 0 105 149 152 0 +-.0503007518796993 .0487406015037594 0 115648231731787
2e-31 -1 0 16 105 62 0 ?99 153 150 151 0 0 12 30 152 73 0 153 151 154 0 +-.05030
07518796992 -.0712593984962406 0 1 0 0 16 153 58 0 ?66 155 105 152 0 0 12 30 154
 72 0 155 152 156 0 +.0696992481203008 .0487406015037594 0 -1156482317317872e-31
 1 0 16 155 54 0 ?63 157 153 154 0 0 12 30 156 71 0 157 154 158 0 +-.05030075187
96993 .0487406015037594 0 -1 0 0 16 157 50 0 ?58 159 155 156 0 0 12 30 158 95 0
 159 156 160 0 +-.0503007518796993 .0487406015037594 .05 0 0 -1 16 159 79 0 ?101
 161 157 158 0 0 12 30 160 96 0 161 158 37 0 +.0696992481203008 .048740601503759
4 .05 0 0 -1 16 161 80 0 ?162 41 159 160 0 0 12 30 37 97 0 41 160 26 0 +.0696992
481203008 -.0712593984962406 .05 0 0 -1 16 41 81 0 ?110 29 161 37 0 0 12 17 110
 0 163 63 113 64 94 41 0 164 +15 163 85 0 63 165 0 17 63 0 163 91 110 59 164 155
 0 162 +17 113 0 163 110 91 92 112 114 0 0 -17 164 0 166 69 167 64 63 155 0 0 -1
5 166 49 0 104 33 168 17 69 0 166 104 164 67 66 153 0 40 -17 167 0 166 164 104 5
9 58 157 0 0 -17 104 0 166 167 69 51 99 105 0 0 -17 58 0 169 88 162 51 167 157 0
 101 +15 169 83 0 58 170 0 17 88 0 169 118 58 86 101 159 0 116 -17 162 0 169 58
 118 59 91 161 0 167 +17 101 0 97 99 98 51 88 159 0 104 +17 118 0 169 162 88 89
 116 119 0 0 -17 91 0 163 113 63 89 162 161 0 112 -17 112 0 111 116 107 89 113 1
14 0 118 +14 255 170 84 171 ?172 165 169 24 173 -0 0 172 165 39 81 1 171 501 174
 170 175 0 176 177 178 14 172 189 177 ?179 170 52 24 180 +0 0 179 170 39 14 165
 86 176 ?170 109 163 24 181 -0 0 170 109 39 50 173 91 0 170 182 181 0 +-.0503007
518796993 .0487406015037594 .05 0 -1 0 0 0 -1 13 39 34 0 0 0 0 0 0 28 33 14 33 1
30 183 ?35 0 166 24 182 -0 0 35 0 39 81 1 183 497 174 33 184 0 0 185 186 14 35 9
0 185 ?109 33 97 24 25 -0 0 109 33 39 50 182 70 0 33 180 173 0 +0 0 0 0 0 1 1 0
 0 50 180 213 0 172 187 182 0 +-.02030075187969925 .0187406015037594 .05 1 40476
8811061255e-30 0 -404768811061255e-30 1 0 50 187 214 0 179 188 180 0 +-.02030075
187969925 -.0412593984962406 .05 0 1 0 0 0 1 14 179 193 189 ?190 172 191 24 187
 +0 0 190 172 39 50 188 215 0 190 192 187 0 +.03969924812030075 .018740601503759
4 .05 -1 -2312964634635745e-31 0 2312964634635745e-31 -1 0 14 190 197 193 ?194 1
79 195 24 188 +0 0 194 179 39 50 192 216 0 194 196 188 0 +-.02030075187969925 .0
187406015037594 .05 0 -1 0 0 0 -1 14 194 201 197 ?198 190 199 24 192 +0 0 198 19
0 39 50 196 386 0 198 200 192 0 +0 0 .05 0 0 1 1 0 0 14 198 377 201 ?117 194 44
 24 196 -0 0 117 194 39 50 200 387 0 117 0 196 0 +0 0 .06 0 0 1 1 0 0 14 117 374
 202 ?0 198 111 24 200 +0 0 0 198 39 81 1 202 507 174 117 203 0 201 0 204 80 255
 1 174 0 205 8001 0 0 0 0 3 5 0 0 0 FFFFTFTFFFFFFF2 81 1 203 492 206 117 0 202 2
07 208 209 81 1 201 506 174 198 207 0 197 202 210 83 255 3 204 .792156862745098
 .819607843137255 .933333333333333 81 1 207 490 206 198 0 201 211 203 212 81 1 1
97 505 174 194 211 0 193 201 213 83 3 210 .792156862745098 .819607843137255 .933
333333333333 81 1 211 488 206 194 0 197 214 207 215 81 1 193 504 174 190 214 0 1
89 197 216 83 3 213 .792156862745098 .819607843137255 .933333333333333 81 1 214
 486 206 190 0 193 217 211 218 81 1 189 503 174 179 217 0 177 193 219 83 3 216 .
792156862745098 .819607843137255 .933333333333333 81 1 217 484 206 179 0 189 220
 214 221 81 1 177 502 174 172 222 0 171 189 223 83 3 219 .792156862745098 .81960
7843137255 .933333333333333 81 1 222 474 206 172 0 177 175 224 225 83 3 223 .792
156862745098 .819607843137255 .933333333333333 80 1 206 226 227 9000 1 1 1 1 1 1
 1 1 0 FFFFTFTFFFFFFF1 81 1 175 471 206 170 0 171 0 222 228 81 1 224 476 206 165
 0 176 222 184 229 82 255 1 225 2056781983 81 1 176 500 174 165 224 0 230 171 23
1 81 1 184 479 206 33 0 183 224 220 232 82 1 229 2055864479 81 1 220 481 206 35
 0 185 184 217 233 82 1 232 2080112789 81 1 185 498 174 35 220 0 183 230 234 82
 1 233 2055930015 81 1 230 499 174 109 208 0 185 176 235 83 3 234 .7921568627450
98 .819607843137255 .933333333333333 14 109 88 230 ?165 35 106 24 36 -0 0 165 35
 39 81 1 208 494 206 109 0 230 203 0 236 83 3 235 .792156862745098 .819607843137
255 .933333333333333 82 1 236 2055733407 50 36 93 0 109 181 25 0 +-.050300751879
6992 -.0712593984962406 .05 0 1 0 0 0 1 50 181 92 0 165 173 36 0 +.0696992481203
008 .0487406015037594 .05 -1 -1156482317317872e-31 0 1156482317317872e-31 -1 0 8
3 3 231 .792156862745098 .819607843137255 .933333333333333 82 1 228 2056585375 7
9 255 14 227 SWEntUnchanged82 1 221 2056913055 82 1 218 2057044127 82 1 215 2057
306271 82 1 212 286064799 82 1 209 280428703 79 15 205 SDL/TYSA_COLOUR15 44 379
 0 81 198 0 17 81 0 44 46 45 79 130 127 0 126 -17 46 0 44 42 81 82 126 124 0 47
 -17 45 0 44 81 42 84 133 131 0 130 -17 130 0 191 75 237 84 81 127 0 238 +17 126
 0 52 54 53 79 46 124 0 237 +15 52 192 0 50 172 0 17 54 0 52 50 126 76 237 150 0
 55 +17 53 0 52 126 50 82 57 135 0 0 -17 237 0 191 130 78 79 54 150 0 0 -15 191
 196 0 78 179 0 17 78 0 191 237 75 76 139 137 0 54 -17 75 0 191 78 130 73 238 14
8 0 239 +17 139 0 168 142 55 73 78 137 0 0 +15 168 128 0 55 33 0 17 142 0 168 14
4 139 70 239 140 0 0 +17 55 0 168 139 144 76 50 56 0 0 +17 144 0 168 55 142 43 2
40 128 0 0 +17 240 0 199 49 57 70 144 128 0 142 -15 199 204 0 240 194 0 17 49 0
 199 47 240 30 72 146 0 133 -17 57 0 199 240 47 43 53 135 0 144 +17 47 0 199 57
 49 82 42 48 0 53 +17 72 0 195 239 133 70 49 146 0 240 +17 133 0 195 72 238 30 4
5 131 0 0 +15 195 200 0 239 190 0 17 238 0 195 133 239 84 75 148 0 0 -17 239 0 1
95 238 72 73 142 140 0 139 -83 3 186 .792156862745098 .819607843137255 .93333333
3333333 83 3 178 .792156862745098 .819607843137255 .933333333333333 17 66 0 106
 94 40 64 69 153 0 110 +19 34 100 0 12 0 28 24 S0 74 4 CI16 index_map_offset0 0
 1 dCCZ20 32 3 0 0 208 202 21 0 0 0 0 0 0 0 0 0 0 0 0 0 0 0 0 0 80 1 5 241 242 8
017 0 0 0 0 0 0 0 0 0 TTTTTTTTTTTTTF3 84 255 8 31 cubehole79 13 242 SDL/TYSA_NAM
E81 1 10 190 5 7 0 0 0 0 243 70 11 0 4 T7 0 0 3 20 1 244 244 13 13 99 0 7 0 245
 0 0 246 0 50 14 94 0 245 247 0 0 +-.03032407407407405 .02233796296296295 .09 1
 0 0 0 0 -1 30 15 98 0 18 248 0 0 +-.03032407407407405 -.02766203703703705 .09 0
 0 -1 29 16 75 0 249 250 0 -.03032407407407405 .02233796296296295 0 19 17 33 0 7
 246 0 251 V0 16 18 82 0 ?252 0 253 15 0 0 7 18 19 30 0 254 0 255 256 ?7 17 254
 0 257 258 259 19 260 261 0 262 +18 255 27 0 259 19 263 264 ?7 29 256 32 0 19 26
4 265 -.03032407407407405 .02233796296296295 .09 29 264 29 0 255 266 256 .019675
92592592595 .02233796296296295 .09 29 265 78 0 267 256 268 -.03032407407407405 -
.02766203703703705 0 18 267 69 0 269 270 0 265 ?7 29 268 77 0 270 265 250 .01967
592592592595 -.02766203703703705 0 18 270 68 0 271 272 267 268 ?7 29 250 76 0 27
2 268 16 .01967592592592595 .02233796296296295 0 18 272 67 0 273 249 270 250 ?7
 17 273 0 274 275 276 272 277 278 0 279 +18 249 66 0 280 281 272 16 ?7 17 280 0
 282 262 279 249 283 284 0 285 +18 281 21 0 286 263 249 287 ?7 17 286 0 288 252
 289 281 290 291 0 258 -18 263 24 0 290 255 281 266 ?7 29 287 23 0 281 0 266 -.0
3032407407407405 -.02766203703703705 .09 29 266 26 0 263 287 264 .01967592592592
595 -.02766203703703705 .09 17 290 0 257 259 258 263 286 291 0 289 +15 257 4 0 2
58 292 0 17 259 0 257 254 290 255 293 294 0 275 +17 258 0 257 290 254 281 295 29
6 0 297 +16 291 9 0 ?290 294 296 298 0 0 7 17 289 0 288 286 271 263 276 253 0 29
3 -15 288 87 0 271 299 0 17 271 0 288 289 252 270 269 300 0 276 +17 276 0 274 27
3 293 270 289 253 0 277 +16 253 81 0 ?276 18 301 248 0 0 7 17 293 0 274 276 275
 263 259 294 0 0 -15 274 85 0 273 302 0 17 275 0 274 293 273 255 279 301 0 260 -
16 294 13 0 ?259 261 291 303 0 0 7 16 261 17 0 ?254 304 294 305 0 0 7 30 303 15
 0 294 298 305 0 +.01967592592592595 .02233796296296295 .09 -1387778780781446e-3
1 1 0 30 298 11 0 291 306 303 0 +-.03032407407407405 -.02766203703703705 .09 1 0
 0 30 305 19 0 261 303 307 0 +-.03032407407407405 .02233796296296295 .09 -1 0 0
 30 307 74 0 308 305 309 0 +-.03032407407407405 .02233796296296295 0 0 -1 0 16 3
08 62 0 ?310 300 0 307 0 0 7 30 309 73 0 300 307 311 0 +-.03032407407407405 -.02
766203703703705 0 1 0 0 16 300 58 0 ?271 278 308 309 0 0 7 30 311 72 0 278 309 3
12 0 +.01967592592592595 .02233796296296295 0 -1387778780781446e-31 1 0 16 278 5
4 0 ?273 284 300 311 0 0 7 30 312 71 0 284 311 313 0 +-.03032407407407405 .02233
796296296295 0 -1 0 0 16 284 50 0 ?280 296 278 312 0 0 7 30 313 95 0 304 312 314
 0 +-.03032407407407405 .02233796296296295 .09 0 0 -1 16 304 79 0 ?285 301 261 3
13 0 0 7 30 314 96 0 301 313 248 0 +.01967592592592595 .02233796296296295 .09 0
 0 -1 16 301 80 0 ?279 253 304 314 0 0 7 30 248 97 0 253 314 15 0 +.019675925925
92595 -.02766203703703705 .09 0 0 -1 17 279 0 282 280 260 272 275 301 0 283 +15
 282 83 0 280 315 0 17 260 0 282 279 262 255 254 261 0 0 -17 283 0 316 277 317 2
72 280 284 0 0 -15 316 49 0 317 318 0 17 277 0 316 269 283 270 273 278 0 0 -17 3
17 0 316 283 269 249 310 308 0 0 -17 269 0 316 317 277 267 271 300 0 252 -17 310
 0 319 297 285 267 317 308 0 0 +15 319 89 0 310 245 0 17 297 0 319 295 310 281 2
52 18 0 0 -17 285 0 319 310 295 249 262 304 0 317 +17 295 0 319 285 297 19 258 2
96 0 0 -17 262 0 282 260 280 19 285 304 0 295 -16 296 5 0 ?258 291 284 306 0 0 7
 30 306 7 0 296 0 298 0 +-.03032407407407405 .02233796296296295 .09 0 -1 0 17 25
2 0 288 271 286 267 297 18 0 310 +14 245 90 320 ?299 0 319 13 14 -0 0 299 0 251
 81 1 320 184 174 245 321 0 0 322 323 14 299 88 322 ?302 245 288 13 247 -0 0 302
 245 251 13 251 34 0 0 0 0 0 0 17 245 81 1 322 185 174 299 324 0 320 325 326 14
 302 86 325 ?315 299 274 13 327 -0 0 315 299 251 50 247 93 0 299 327 14 0 +-.030
32407407407405 -.02766203703703705 .09 0 1 0 0 0 1 50 327 92 0 302 328 247 0 +.0
1967592592592595 .02233796296296295 .09 -1 -1387778780781446e-31 0 1387778780781
446e-31 -1 0 50 328 91 0 315 329 327 0 +-.03032407407407405 .02233796296296295 .
09 0 -1 0 0 0 -1 14 315 84 330 ?292 302 282 13 328 -0 0 292 302 251 50 329 70 0
 318 331 328 0 +0 0 0 0 0 1 1 0 0 14 318 48 332 ?0 292 316 13 329 -0 0 0 292 251
 50 331 3 0 292 0 329 0 +0 0 .09 0 0 1 1 0 0 14 292 1 333 ?318 315 257 13 331 +0
 0 318 315 251 81 1 333 188 174 292 334 0 330 332 335 81 1 334 182 206 292 0 333
 336 0 337 81 1 330 187 174 315 338 0 325 333 339 81 1 332 189 174 318 336 0 333
 0 340 83 3 335 .792156862745098 .819607843137255 .933333333333333 81 1 336 180
 206 318 0 332 338 334 341 83 3 340 .792156862745098 .819607843137255 .933333333
333333 81 1 338 178 206 315 0 330 342 336 343 82 1 341 905773201 81 1 342 176 20
6 302 0 325 324 338 344 82 1 343 906690705 81 1 325 186 174 302 342 0 322 330 34
5 81 1 324 174 206 299 0 322 321 342 346 82 1 344 906952849 81 1 321 172 206 245
 0 320 0 324 347 82 1 346 907214993 82 1 347 907477137 83 3 345 .792156862745098
 .819607843137255 .933333333333333 83 3 339 .792156862745098 .819607843137255 .9
33333333333333 82 1 337 900137105 83 3 326 .792156862745098 .819607843137255 .93
3333333333333 83 3 323 .792156862745098 .819607843137255 .933333333333333 19 246
 100 0 7 0 17 13 S0 74 20 244 3 0 0 334 332 10 0 0 0 0 0 0 0 0 0 0 0 0 0 0 0 0 0
 84 8 243 cube peg74 20 6 1 0 0 2 0 0 0 0 0 0 0 0 0 0 0 0 0 0 0 0 0 0 0 1 0 
