**ABCDEFGHIJKLMNOPQRSTUVWXYZabcdefghijklmnopqrstuvwxyz**************************
**PARASOLID !"#$%&'()*+,-./:;<=>?@[\]^_`{|}~0123456789**************************
**PART1;
MC=AMD64;
MC_MODEL=Intel64 Family 6 Model 140 Stepping 2, GenuineIntel;
MC_ID=unknown;
OS=Windows_NT;
OS_RELEASE=unknown;
FRU=Parasolid Version 33.1, build 260,  4-25-2022;
APPL=SOLIDWORKS 2022-2022290;
SITE=;
USER=unknown;
FORMAT=text;
GUISE=transmit;
KEY=FILEpeg hole ball.x_t;
DATE=Sat Oct 14 17:45:24 2023;
**PART2;
SCH=SCH_3301260_33103;
USFLD_SIZE=0;
**PART3;
**END_OF_HEADER*****************************************************************
T51 : TRANSMIT FILE created by modeller version 330126023 SCH_3301260_33103_1300
6230 0 10 21 CCCCI7 lattice222 0 CCCI4 mesh1006 0 I8 polyline1008 0 CCCCCCCCCCA1
6 mesh_offset_data206 0 Z1 9 2 3 0 0 0 0 0 0 0 0 1e3 1e-8 0 0 0 1 0 1 4 0 81 255
 1 2 9 5 1 0 0 0 0 0 70 11 CI9 list_type0 0 1 uI10 notransmit0 0 1 lCCCDCCDI12 f
inger_index0 0 1 dI12 finger_block1012 0 CZ3 0 4 T1 0 0 1 20 1 6 6 11 255 4 7 0
 1 7 8 1 9 0 9 0 12 35 CCCI7 lattice222 0 CCCI4 mesh1006 0 I8 polyline1008 0 CCC
CCCCDI5 owner1040 0 CCCCCCI13 boundary_mesh1006 0 I17 boundary_polyline1008 0 CC
CA16 index_map_offset0 0 1 dA9 index_map82 0 A17 node_id_index_map82 0 A20 schem
a_embedding_map82 0 A5 child12 0 A14 lowest_node_id0 0 1 dA16 mesh_offset_data20
6 0 Z7 98 10 11 0 0 0 0 0 0 0 1e3 1e-8 4 12 0 1 0 1 1 13 14 0 0 0 0 15 0 0 0 0 0
 0 0 0 0 100 10 CCCCCCCCCA9 precision229 0 Z8 8 4 0 0 -.0989271312767476 .445078
7177601315 .890010313251678 .3043648393881955 -.837999715985789 .45290012204893
 .947404595324274 .315691955875874 -.0525654045329631 .0563893355645253 .0197804
3503090435 .04339166806357985 1 3 ?0 11 9 5 0 1 7 16 1 17 4 0 4 100 16 6 9 0 0 .
0591487338303253 .181307795287481 .981646021055585 -.3186752347249825 -.92848434
7156703 .190690618169768 .946016660561138 -.3241053847947975 .002859630705111995
 .0494147951360258 .0797804350309043 .04449182449935485 1 3 ?0 11 17 3 0 1 12 18
 1 19 9 0 0 12 12 224 20 21 0 0 0 0 0 0 0 1e3 1e-8 17 22 7 1 0 1 1 23 24 25 26 0
 0 27 28 29 0 0 0 0 0 0 0 100 18 4 17 0 0 -555111512312578e-31 1 693889390390722
e-32 -1 -2220446049250315e-31 -616679249661193e-31 -616679249661193e-31 -6938893
90390724e-32 1 .0503580356947486 .04445636095683 .0334278755317047 1 3 ?0 11 19
 1 0 1 22 30 1 0 17 0 0 12 22 562 31 32 0 0 0 0 0 0 0 1e3 1e-8 19 33 12 1 0 1 1
 34 35 36 37 0 0 38 39 40 0 0 0 0 0 0 0 100 30 2 19 0 0 1 0 0 0 1 0 0 0 1 .03993
618211263605 .0660398335271446 .0734278755317047 1 1 ?0 81 1 31 508 5 22 0 0 0 0
 41 70 32 0 4 T22 0 0 3 20 1 42 42 13 255 34 99 0 22 0 43 0 0 44 0 50 255 35 94
 0 45 46 0 0 +-.0503007518796993 .0487406015037594 .05 1 1156482317317872e-31 0
 -1156482317317872e-31 1 0 30 255 36 98 0 39 47 0 0 +-.0503007518796992 -.071259
3984962406 .05 0 0 -1 29 255 37 137 0 40 48 0 .03969924812030075 .01874060150375
94 .05 19 8 CCCCCCCA5 owner12 0 Z38 33 0 22 44 0 49 V0 16 255 39 82 0 ?50 0 51 3
6 0 0 22 18 255 40 135 0 52 0 53 37 ?22 17 255 52 0 54 55 56 40 57 58 0 59 -18 5
3 112 0 60 40 61 48 ?22 17 60 0 62 63 64 53 65 66 0 67 -18 61 66 0 68 53 69 70 ?
22 29 48 114 0 53 70 37 -.02030075187969925 .0187406015037594 0 29 70 75 0 61 71
 48 -.0503007518796993 .0487406015037594 0 29 71 76 0 69 72 70 .0696992481203008
 .0487406015037594 0 18 69 67 0 73 61 74 71 ?22 29 72 77 0 74 75 71 .06969924812
03008 -.0712593984962406 0 18 74 68 0 76 69 77 72 ?22 29 75 78 0 77 78 72 -.0503
007518796992 -.0712593984962406 0 18 77 69 0 79 74 80 75 ?22 29 78 232 0 80 81 7
5 .03969924812030075 .0187406015037594 0 18 80 183 0 82 77 83 78 ?22 29 81 233 0
 83 84 78 .03969924812030075 -.0412593984962406 0 18 83 181 0 85 80 86 81 ?22 29
 84 234 0 86 87 81 -.02030075187969925 -.0412593984962406 0 18 86 188 0 88 83 89
 84 ?22 29 87 400 0 89 90 84 -.02030075187969925 -.0412593984962406 .05 18 89 35
1 0 91 86 92 87 ?22 29 90 401 0 92 93 87 -.02030075187969925 .0187406015037594 .
05 18 92 352 0 56 89 94 90 ?22 29 93 403 0 94 95 90 .03969924812030075 -.0412593
984962406 .05 18 94 343 0 55 92 96 93 ?22 29 95 408 0 96 97 93 -.050300751879699
3 .0487406015037594 .06 18 96 350 0 98 94 99 95 ?22 29 97 409 0 99 100 95 .06969
92481203008 .0487406015037594 .06 18 99 349 0 101 96 102 97 ?22 29 100 410 0 102
 103 97 .0696992481203008 -.0712593984962406 .06 18 102 348 0 104 99 105 100 ?22
 29 103 411 0 105 0 100 -.0503007518796993 -.0712593984962406 .06 18 105 345 0 1
06 102 0 103 ?22 17 106 0 107 108 109 105 50 39 0 110 -15 255 107 89 0 109 45 0
 17 108 0 107 111 106 96 112 113 0 0 -17 109 0 107 106 111 77 114 115 0 0 +17 50
 0 116 76 110 77 106 39 0 109 +17 110 0 116 50 104 105 117 118 0 112 -15 116 87
 0 76 119 0 17 104 0 116 110 76 102 120 51 0 117 -17 117 0 121 122 112 102 110 1
18 0 123 +16 118 333 0 ?117 124 113 125 0 0 22 17 112 0 121 117 126 105 108 113
 0 0 +15 121 376 0 112 127 0 17 126 0 121 112 122 96 128 129 0 108 +16 113 330 0
 ?112 118 0 130 0 0 22 30 130 399 0 113 0 125 0 +-.0503007518796993 .04874060150
37594 .06 0 -1 0 30 125 398 0 118 130 131 0 +-.0503007518796993 -.07125939849624
06 .06 1 0 0 30 131 397 0 124 125 132 0 +.0696992481203008 .0487406015037594 .06
 0 1 0 16 124 336 0 ?122 129 118 131 0 0 22 30 132 396 0 129 131 133 0 +-.050300
7518796993 .0487406015037594 .06 -1 0 0 16 129 339 0 ?126 66 124 132 0 0 22 30 1
33 230 0 134 132 135 0 +-.02030075187969925 .0187406015037594 .05 40476881106125
5e-30 -1 0 16 134 169 0 ?136 137 138 133 0 0 22 30 135 229 0 137 133 139 0 +-.02
030075187969925 -.0412593984962406 .05 1 0 0 16 137 172 0 ?140 141 134 135 0 0 2
2 30 139 228 0 141 135 142 0 +.03969924812030075 .0187406015037594 .05 -23129646
34635745e-31 1 0 16 141 175 0 ?143 58 137 139 0 0 22 30 142 227 0 58 139 144 0 +
-.02030075187969925 .0187406015037594 .05 -1 0 0 16 58 178 0 ?57 145 141 142 0 0
 22 30 144 226 0 66 142 146 0 +-.02030075187969925 .0187406015037594 0 404768811
061255e-30 -1 0 16 66 153 0 ?65 147 129 144 0 0 22 30 146 225 0 147 144 148 0 +-
.02030075187969925 -.0412593984962406 0 1 0 0 16 147 157 0 ?149 150 66 146 0 0 2
2 30 148 224 0 150 146 151 0 +.03969924812030075 .0187406015037594 0 -2312964634
635745e-31 1 0 16 150 161 0 ?152 138 147 148 0 0 22 30 151 223 0 138 148 153 0 +
-.02030075187969925 .0187406015037594 0 -1 0 0 16 138 165 0 ?154 134 150 151 0 0
 22 30 153 222 0 145 151 155 0 +-.02030075187969925 .0187406015037594 .05 0 0 -1
 16 145 156 0 ?67 156 58 153 0 0 22 30 155 221 0 156 153 157 0 +.039699248120300
75 .0187406015037594 .05 0 0 -1 16 156 168 0 ?82 158 145 155 0 0 22 30 157 220 0
 158 155 159 0 +.03969924812030075 -.0412593984962406 .05 0 0 -1 16 158 164 0 ?8
5 160 156 157 0 0 22 30 159 219 0 160 157 161 0 +-.02030075187969925 -.041259398
4962406 .05 0 0 -1 16 160 160 0 ?64 115 158 159 0 0 22 30 161 74 0 115 159 162 0
 +-.0503007518796993 .0487406015037594 0 1156482317317872e-31 -1 0 16 115 62 0 ?
109 163 160 161 0 0 22 30 162 73 0 163 161 164 0 +-.0503007518796992 -.071259398
4962406 0 1 0 0 16 163 58 0 ?76 165 115 162 0 0 22 30 164 72 0 165 162 166 0 +.0
696992481203008 .0487406015037594 0 -1156482317317872e-31 1 0 16 165 54 0 ?73 16
7 163 164 0 0 22 30 166 71 0 167 164 168 0 +-.0503007518796993 .0487406015037594
 0 -1 0 0 16 167 50 0 ?68 169 165 166 0 0 22 30 168 95 0 169 166 170 0 +-.050300
7518796993 .0487406015037594 .05 0 0 -1 16 169 79 0 ?111 171 167 168 0 0 22 30 1
70 96 0 171 168 47 0 +.0696992481203008 .0487406015037594 .05 0 0 -1 16 171 80 0
 ?172 51 169 170 0 0 22 30 47 97 0 51 170 36 0 +.0696992481203008 -.071259398496
2406 .05 0 0 -1 16 51 81 0 ?120 39 171 47 0 0 22 17 120 0 173 73 123 74 104 51 0
 174 +15 173 85 0 73 175 0 17 73 0 173 101 120 69 174 165 0 172 +17 123 0 173 12
0 101 102 122 124 0 0 -17 174 0 176 79 177 74 73 165 0 0 -15 176 49 0 114 43 178
 17 79 0 176 114 174 77 76 163 0 50 -17 177 0 176 174 114 69 68 167 0 0 -17 114
 0 176 177 79 61 109 115 0 0 -17 68 0 179 98 172 61 177 167 0 111 +15 179 83 0 6
8 180 0 17 98 0 179 128 68 96 111 169 0 126 -17 172 0 179 68 128 69 101 171 0 17
7 +17 111 0 107 109 108 61 98 169 0 114 +17 128 0 179 172 98 99 126 129 0 0 -17
 101 0 173 123 73 99 172 171 0 122 -17 122 0 121 126 117 99 123 124 0 128 +14 25
5 180 84 181 ?182 175 179 34 183 -0 0 182 175 49 81 1 181 542 184 180 185 0 0 18
6 187 14 182 189 186 ?188 180 62 34 189 +0 0 188 180 49 14 175 86 190 ?180 119 1
73 34 191 -0 0 180 119 49 50 183 91 0 180 192 191 0 +-.0503007518796993 .0487406
015037594 .05 0 -1 0 0 0 -1 13 49 34 0 0 0 0 0 0 38 43 14 43 130 193 ?45 0 176 3
4 192 -0 0 45 0 49 81 1 193 548 184 43 194 0 190 195 196 14 45 90 195 ?119 43 10
7 34 35 -0 0 119 43 49 50 192 70 0 43 189 183 0 +0 0 0 0 0 1 1 0 0 50 189 213 0
 182 197 192 0 +-.02030075187969925 .0187406015037594 .05 1 404768811061255e-30
 0 -404768811061255e-30 1 0 50 197 214 0 188 198 189 0 +-.02030075187969925 -.04
12593984962406 .05 0 1 0 0 0 1 14 188 193 199 ?200 182 201 34 197 +0 0 200 182 4
9 50 198 215 0 200 202 197 0 +.03969924812030075 .0187406015037594 .05 -1 -23129
64634635745e-31 0 2312964634635745e-31 -1 0 14 200 197 203 ?204 188 205 34 198 +
0 0 204 188 49 50 202 216 0 204 206 198 0 +-.02030075187969925 .0187406015037594
 .05 0 -1 0 0 0 -1 14 204 201 207 ?208 200 209 34 202 +0 0 208 200 49 50 206 386
 0 208 210 202 0 +0 0 .05 0 0 1 1 0 0 14 208 377 211 ?127 204 54 34 206 -0 0 127
 204 49 50 210 387 0 127 0 206 0 +0 0 .06 0 0 1 1 0 0 14 127 374 212 ?0 208 121
 34 210 +0 0 0 208 49 81 1 212 560 184 127 213 0 211 214 215 80 255 1 184 216 21
7 9000 1 1 1 1 1 1 1 1 0 FFFFTFTFFFFFFF1 81 1 213 507 218 127 0 212 219 0 220 81
 1 211 558 184 208 219 0 207 212 221 81 1 214 562 184 119 222 0 212 0 223 82 255
 1 215 280428703 14 119 88 214 ?175 45 116 34 46 -0 0 175 45 49 81 1 222 499 218
 119 0 214 224 225 226 82 1 223 2055733407 80 1 218 0 227 8001 0 0 0 0 3 5 0 0 0
 FFFFTFTFFFFFFF2 81 1 224 498 218 45 0 195 194 222 228 81 1 225 500 218 175 0 19
0 222 185 229 83 255 3 226 .792156862745098 .819607843137255 .929411764705882 81
 1 190 546 184 175 225 0 186 193 230 81 1 185 501 218 180 0 181 225 231 232 83 3
 229 .792156862745098 .819607843137255 .929411764705882 81 1 231 502 218 182 0 1
86 185 233 234 83 3 232 .792156862745098 .819607843137255 .929411764705882 81 1
 186 544 184 182 231 0 181 190 235 81 1 233 503 218 188 0 199 231 236 237 83 3 2
34 .792156862745098 .819607843137255 .929411764705882 81 1 199 552 184 188 233 0
 195 203 238 81 1 236 504 218 200 0 203 233 239 240 83 3 237 .792156862745098 .8
19607843137255 .929411764705882 81 1 203 554 184 200 236 0 199 207 241 81 1 239
 505 218 204 0 207 236 219 242 83 3 240 .792156862745098 .819607843137255 .92941
1764705882 81 1 207 556 184 204 239 0 203 211 243 81 1 219 506 218 208 0 211 239
 213 244 83 3 242 .792156862745098 .819607843137255 .929411764705882 83 3 244 .7
92156862745098 .819607843137255 .929411764705882 82 1 243 2057306271 82 1 241 20
57044127 81 1 195 550 184 45 224 0 193 199 245 82 1 238 2056913055 82 1 245 2055
930015 82 1 235 2056781983 82 1 230 2055864479 81 1 194 497 218 43 0 193 0 224 2
46 83 3 228 .792156862745098 .819607843137255 .929411764705882 83 3 246 .7921568
62745098 .819607843137255 .929411764705882 79 255 15 227 SDL/TYSA_COLOUR50 46 93
 0 119 191 35 0 +-.0503007518796992 -.0712593984962406 .05 0 1 0 0 0 1 50 191 92
 0 175 183 46 0 +.0696992481203008 .0487406015037594 .05 -1 -1156482317317872e-3
1 0 1156482317317872e-31 -1 0 82 1 221 286064799 83 3 220 .792156862745098 .8196
07843137255 .929411764705882 79 14 217 SWEntUnchanged15 54 379 0 91 208 0 17 91
 0 54 56 55 89 140 137 0 136 -17 56 0 54 52 91 92 136 134 0 57 -17 55 0 54 91 52
 94 143 141 0 140 -17 140 0 201 85 247 94 91 137 0 248 +17 136 0 62 64 63 89 56
 134 0 247 +15 62 192 0 60 182 0 17 64 0 62 60 136 86 247 160 0 65 +17 63 0 62 1
36 60 92 67 145 0 0 -17 247 0 201 140 88 89 64 160 0 0 -15 201 196 0 88 188 0 17
 88 0 201 247 85 86 149 147 0 64 -17 85 0 201 88 140 83 248 158 0 249 +17 149 0
 178 152 65 83 88 147 0 0 +15 178 128 0 65 43 0 17 152 0 178 154 149 80 249 150
 0 0 +17 65 0 178 149 154 86 60 66 0 0 +17 154 0 178 65 152 53 250 138 0 0 +17 2
50 0 209 59 67 80 154 138 0 152 -15 209 204 0 250 204 0 17 59 0 209 57 250 40 82
 156 0 143 -17 67 0 209 250 57 53 63 145 0 154 +17 57 0 209 67 59 92 52 58 0 63
 +17 82 0 205 249 143 80 59 156 0 250 +17 143 0 205 82 248 40 55 141 0 0 +15 205
 200 0 249 200 0 17 248 0 205 143 249 94 85 158 0 0 -17 249 0 205 248 82 83 152
 150 0 149 -82 1 196 2080112789 82 1 187 2056585375 17 76 0 116 104 50 74 79 163
 0 120 +19 44 100 0 22 0 38 34 S0 74 4 CI16 index_map_offset0 0 1 dCCZ20 42 3 0
 0 214 213 31 0 0 0 0 0 0 0 0 0 0 0 0 0 0 0 0 0 80 1 5 251 252 8017 0 0 0 0 0 0
 0 0 0 TTTTTTTTTTTTTF3 84 255 8 41 cubehole79 13 252 SDL/TYSA_NAME81 1 20 190 5
 12 0 0 0 0 253 70 21 0 4 T12 0 0 3 20 1 254 254 13 23 99 0 12 0 255 0 0 256 0 5
0 24 94 0 255 257 0 0 +-.03032407407407405 .02233796296296295 .09 1 0 0 0 0 -1 3
0 25 98 0 28 258 0 0 +-.03032407407407405 -.02766203703703705 .09 0 0 -1 29 26 7
5 0 259 260 0 -.03032407407407405 .02233796296296295 0 19 27 33 0 12 256 0 261 V
0 16 28 82 0 ?262 0 263 25 0 0 12 18 29 30 0 264 0 265 266 ?12 17 264 0 267 268
 269 29 270 271 0 272 +18 265 27 0 269 29 273 274 ?12 29 266 32 0 29 274 275 -.0
3032407407407405 .02233796296296295 .09 29 274 29 0 265 276 266 .019675925925925
95 .02233796296296295 .09 29 275 78 0 277 266 278 -.03032407407407405 -.02766203
703703705 0 18 277 69 0 279 280 0 275 ?12 29 278 77 0 280 275 260 .0196759259259
2595 -.02766203703703705 0 18 280 68 0 281 282 277 278 ?12 29 260 76 0 282 278 2
6 .01967592592592595 .02233796296296295 0 18 282 67 0 283 259 280 260 ?12 17 283
 0 284 285 286 282 287 288 0 289 +18 259 66 0 290 291 282 26 ?12 17 290 0 292 27
2 289 259 293 294 0 295 +18 291 21 0 296 273 259 297 ?12 17 296 0 298 262 299 29
1 300 301 0 268 -18 273 24 0 300 265 291 276 ?12 29 297 23 0 291 0 276 -.0303240
7407407405 -.02766203703703705 .09 29 276 26 0 273 297 274 .01967592592592595 -.
02766203703703705 .09 17 300 0 267 269 268 273 296 301 0 299 +15 267 4 0 268 302
 0 17 269 0 267 264 300 265 303 304 0 285 +17 268 0 267 300 264 291 305 306 0 30
7 +16 301 9 0 ?300 304 306 308 0 0 12 17 299 0 298 296 281 273 286 263 0 303 -15
 298 87 0 281 309 0 17 281 0 298 299 262 280 279 310 0 286 +17 286 0 284 283 303
 280 299 263 0 287 +16 263 81 0 ?286 28 311 258 0 0 12 17 303 0 284 286 285 273
 269 304 0 0 -15 284 85 0 283 312 0 17 285 0 284 303 283 265 289 311 0 270 -16 3
04 13 0 ?269 271 301 313 0 0 12 16 271 17 0 ?264 314 304 315 0 0 12 30 313 15 0
 304 308 315 0 +.01967592592592595 .02233796296296295 .09 -1387778780781446e-31
 1 0 30 308 11 0 301 316 313 0 +-.03032407407407405 -.02766203703703705 .09 1 0
 0 30 315 19 0 271 313 317 0 +-.03032407407407405 .02233796296296295 .09 -1 0 0
 30 317 74 0 318 315 319 0 +-.03032407407407405 .02233796296296295 0 0 -1 0 16 3
18 62 0 ?320 310 0 317 0 0 12 30 319 73 0 310 317 321 0 +-.03032407407407405 -.0
2766203703703705 0 1 0 0 16 310 58 0 ?281 288 318 319 0 0 12 30 321 72 0 288 319
 322 0 +.01967592592592595 .02233796296296295 0 -1387778780781446e-31 1 0 16 288
 54 0 ?283 294 310 321 0 0 12 30 322 71 0 294 321 323 0 +-.03032407407407405 .02
233796296296295 0 -1 0 0 16 294 50 0 ?290 306 288 322 0 0 12 30 323 95 0 314 322
 324 0 +-.03032407407407405 .02233796296296295 .09 0 0 -1 16 314 79 0 ?295 311 2
71 323 0 0 12 30 324 96 0 311 323 258 0 +.01967592592592595 .02233796296296295 .
09 0 0 -1 16 311 80 0 ?289 263 314 324 0 0 12 30 258 97 0 263 324 25 0 +.0196759
2592592595 -.02766203703703705 .09 0 0 -1 17 289 0 292 290 270 282 285 311 0 293
 +15 292 83 0 290 325 0 17 270 0 292 289 272 265 264 271 0 0 -17 293 0 326 287 3
27 282 290 294 0 0 -15 326 49 0 327 328 0 17 287 0 326 279 293 280 283 288 0 0 -
17 327 0 326 293 279 259 320 318 0 0 -17 279 0 326 327 287 277 281 310 0 262 -17
 320 0 329 307 295 277 327 318 0 0 +15 329 89 0 320 255 0 17 307 0 329 305 320 2
91 262 28 0 0 -17 295 0 329 320 305 259 272 314 0 327 +17 305 0 329 295 307 29 2
68 306 0 0 -17 272 0 292 270 290 29 295 314 0 305 -16 306 5 0 ?268 301 294 316 0
 0 12 30 316 7 0 306 0 308 0 +-.03032407407407405 .02233796296296295 .09 0 -1 0
 17 262 0 298 281 296 277 307 28 0 320 +14 255 90 330 ?309 0 329 23 24 -0 0 309
 0 261 81 1 330 214 184 255 331 0 0 332 333 14 309 88 332 ?312 255 298 23 257 -0
 0 312 255 261 13 261 34 0 0 0 0 0 0 27 255 81 1 332 216 184 309 334 0 330 335 3
36 14 312 86 335 ?325 309 284 23 337 -0 0 325 309 261 50 257 93 0 309 337 24 0 +
-.03032407407407405 -.02766203703703705 .09 0 1 0 0 0 1 50 337 92 0 312 338 257
 0 +.01967592592592595 .02233796296296295 .09 -1 -1387778780781446e-31 0 1387778
780781446e-31 -1 0 50 338 91 0 325 339 337 0 +-.03032407407407405 .0223379629629
6295 .09 0 -1 0 0 0 -1 14 325 84 340 ?302 312 292 23 338 -0 0 302 312 261 50 339
 70 0 328 341 338 0 +0 0 0 0 0 1 1 0 0 14 328 48 342 ?0 302 326 23 339 -0 0 0 30
2 261 50 341 3 0 302 0 339 0 +0 0 .09 0 0 1 1 0 0 14 302 1 343 ?328 325 267 23 3
41 +0 0 328 325 261 81 1 343 224 184 302 344 0 342 0 345 81 1 344 188 218 302 0
 343 346 347 348 81 1 342 222 184 328 347 0 340 343 349 82 1 345 900137105 81 1
 347 189 218 328 0 342 344 0 350 81 1 340 220 184 325 346 0 335 342 351 82 1 349
 905773201 81 1 346 187 218 325 0 340 352 344 353 81 1 335 218 184 312 352 0 332
 340 354 82 1 351 906690705 81 1 352 186 218 312 0 335 334 346 355 82 1 354 9069
52849 81 1 334 185 218 309 0 332 331 352 356 83 3 355 .792156862745098 .81960784
3137255 .929411764705882 81 1 331 184 218 255 0 330 0 334 357 83 3 356 .79215686
2745098 .819607843137255 .929411764705882 83 3 357 .792156862745098 .81960784313
7255 .929411764705882 83 3 353 .792156862745098 .819607843137255 .92941176470588
2 83 3 350 .792156862745098 .819607843137255 .929411764705882 83 3 348 .79215686
2745098 .819607843137255 .929411764705882 82 1 336 907214993 82 1 333 907477137
 19 256 100 0 12 0 27 23 S0 74 20 254 3 0 0 343 347 20 0 0 0 0 0 0 0 0 0 0 0 0 0
 0 0 0 0 84 8 253 cube peg81 1 10 98 5 7 0 0 0 0 358 70 11 0 4 T7 0 0 3 20 1 359
 359 13 13 62 0 7 360 361 0 0 362 0 53 255 14 66 0 363 364 0 0 +0 0 0 .003 -1 0
 0 0 -1 0 19 15 64 0 7 365 0 366 V0 19 365 38 0 7 362 15 367 V0 13 366 63 0 0 0
 0 0 0 15 361 14 361 50 368 ?0 0 0 13 364 -0 0 0 0 366 81 1 368 96 218 361 369 0
 0 370 371 53 364 65 0 361 0 14 0 -0 0 0 .005 -1 0 0 0 1 0 81 1 369 92 184 361 0
 368 0 372 373 81 1 370 97 218 363 372 0 368 0 374 83 3 371 .792156862745098 .81
9607843137255 .933333333333333 14 363 58 370 ?0 0 0 360 14 -0 0 0 0 367 81 1 372
 94 184 363 0 370 369 0 375 83 3 374 .792156862745098 .819607843137255 .93333333
3333333 82 1 375 -1358823269 13 360 34 0 7 0 363 0 0 362 0 13 367 37 0 0 0 0 0 0
 365 363 19 362 33 0 7 0 365 13 S0 82 1 373 -1359740773 74 20 359 3 0 0 372 370
 10 0 0 0 0 0 0 0 0 0 0 0 0 0 0 0 0 0 84 10 358 ballsensor74 20 6 1 0 0 2 0 0 0
 0 0 0 0 0 0 0 0 0 0 0 0 0 0 0 0 1 0 
