**ABCDEFGHIJKLMNOPQRSTUVWXYZabcdefghijklmnopqrstuvwxyz**************************
**PARASOLID !"#$%&'()*+,-./:;<=>?@[\]^_`{|}~0123456789**************************
**PART1;
MC=AMD64;
MC_MODEL=Intel64 Family 6 Model 140 Stepping 2, GenuineIntel;
MC_ID=unknown;
OS=Windows_NT;
OS_RELEASE=unknown;
FRU=Parasolid Version 33.1, build 260,  4-25-2022;
APPL=SOLIDWORKS 2022-2022290;
SITE=;
USER=unknown;
FORMAT=text;
GUISE=transmit;
KEY=FILEpeg and sensor.x_t;
DATE=Thu Oct 19 17:12:53 2023;
**PART2;
SCH=SCH_3301260_33103;
USFLD_SIZE=0;
**PART3;
**END_OF_HEADER*****************************************************************
T51 : TRANSMIT FILE created by modeller version 330126023 SCH_3301260_33103_1300
6230 0 10 21 CCCCI7 lattice222 0 CCCI4 mesh1006 0 I8 polyline1008 0 CCCCCCCCCCA1
6 mesh_offset_data206 0 Z1 43 2 3 0 0 0 0 0 0 0 0 1e3 1e-8 0 0 0 1 0 1 4 0 81 25
5 1 2 43 5 1 0 0 0 0 0 70 11 CI9 list_type0 0 1 uI10 notransmit0 0 1 lCCCDCCDI12
 finger_index0 0 1 dI12 finger_block1012 0 CZ3 0 4 T1 0 0 1 20 1 6 6 11 255 4 41
 0 1 7 8 1 9 0 10 0 12 35 CCCI7 lattice222 0 CCCI4 mesh1006 0 I8 polyline1008 0
 CCCCCCCDI5 owner1040 0 CCCCCCI13 boundary_mesh1006 0 I17 boundary_polyline1008
 0 CCCA16 index_map_offset0 0 1 dA9 index_map82 0 A17 node_id_index_map82 0 A20
 schema_embedding_map82 0 A5 child12 0 A14 lowest_node_id0 0 1 dA16 mesh_offset_
data206 0 Z7 1403 11 12 0 0 0 0 0 0 0 1e3 1e-8 4 13 14 1 0 1 1 15 16 17 0 0 0 18
 19 0 0 0 0 0 0 0 0 100 10 CCCCCCCCCA9 precision229 0 Z8 42 4 0 0 .9956340747410
32 .093342322740382 0 -.093342322740382 .995634074741032 0 0 0 1 .01459233772472
066 .0129752563260671 -.0487717174259645 1 3 ?0 11 9 39 0 1 13 20 1 21 4 22 0 12
 13 58 23 24 0 0 0 0 0 0 0 1e3 1e-8 9 25 7 1 0 1 1 26 27 28 0 0 0 29 30 0 0 0 0
 0 0 0 0 100 20 40 9 0 0 .995634074741032 .093342322740382 0 -.093342322740382 .
995634074741032 0 0 0 1 .01459233772472066 .0129752563260671 -.0487717174259645
 1 3 ?0 11 21 37 0 1 25 31 1 32 9 33 0 12 25 52 34 35 0 0 0 0 0 0 0 1e3 1e-8 21
 36 13 1 0 1 1 37 38 39 0 0 0 40 41 0 0 0 0 0 0 0 0 100 31 38 21 0 0 .9956340747
41032 .093342322740382 0 -.093342322740382 .995634074741032 0 0 0 1 .01459233772
472066 .0129752563260671 -.0487717174259645 1 3 ?0 11 32 35 0 1 36 42 1 43 21 44
 0 12 36 52 45 46 0 0 0 0 0 0 0 1e3 1e-8 32 47 25 1 0 1 1 48 49 50 0 0 0 51 52 0
 0 0 0 0 0 0 0 100 42 36 32 0 0 .995634074741032 .093342322740382 0 -.0933423227
40382 .995634074741032 0 0 0 1 .01459233772472066 .0129752563260671 -.0487717174
259645 1 3 ?0 11 43 33 0 1 47 53 1 54 32 55 0 12 47 52 56 57 0 0 0 0 0 0 0 1e3 1
e-8 43 58 36 1 0 1 1 59 60 61 0 0 0 62 63 0 0 0 0 0 0 0 0 100 53 34 43 0 0 .9956
34074741032 .093342322740382 0 -.093342322740382 .995634074741032 0 0 0 1 .01459
233772472066 .0129752563260671 -.0487717174259645 1 3 ?0 11 54 31 0 1 58 64 1 65
 43 66 0 12 58 52 67 68 0 0 0 0 0 0 0 1e3 1e-8 54 69 47 1 0 1 1 70 71 72 0 0 0 7
3 74 0 0 0 0 0 0 0 0 100 64 32 54 0 0 .995634074741032 .093342322740382 0 -.0933
42322740382 .995634074741032 0 0 0 1 .01459233772472066 .0129752563260671 -.0487
717174259645 1 3 ?0 11 65 29 0 1 69 75 1 76 54 77 0 12 69 52 78 79 0 0 0 0 0 0 0
 1e3 1e-8 65 80 58 1 0 1 1 81 82 83 0 0 0 84 85 0 0 0 0 0 0 0 0 100 75 30 65 0 0
 .995634074741032 .093342322740382 0 -.093342322740382 .995634074741032 0 0 0 1
 .01459233772472066 .0129752563260671 -.0487717174259645 1 3 ?0 11 76 27 0 1 80
 86 1 87 65 88 0 12 80 52 89 90 0 0 0 0 0 0 0 1e3 1e-8 76 91 69 1 0 1 1 92 93 94
 0 0 0 95 96 0 0 0 0 0 0 0 0 100 86 28 76 0 0 .995634074741032 .093342322740382
 0 -.093342322740382 .995634074741032 0 0 0 1 .01459233772472066 .01297525632606
71 -.0487717174259645 1 3 ?0 11 87 25 0 1 91 97 1 98 76 99 0 12 91 52 100 101 0
 0 0 0 0 0 0 1e3 1e-8 87 102 80 1 0 1 1 103 104 105 0 0 0 106 107 0 0 0 0 0 0 0
 0 100 97 26 87 0 0 .995634074741032 .093342322740382 0 -.093342322740382 .99563
4074741032 0 0 0 1 .01459233772472066 .0129752563260671 -.0487717174259645 1 3 ?
0 11 98 23 0 1 102 108 1 109 87 110 0 12 102 1310 111 112 0 0 0 0 0 0 0 1e3 1e-8
 98 113 91 1 0 1 1 114 115 116 117 0 0 118 119 120 0 0 0 0 0 0 0 100 108 24 98 0
 0 1 0 0 0 1 0 0 0 1 .01679671527014175 .01497369773267506 -.0487717174259646 1
 1 ?0 11 109 21 0 1 14 121 1 10 98 0 0 12 14 245 122 123 0 0 0 0 0 0 0 1e3 1e-8
 109 7 0 1 0 1 1 124 125 126 127 0 0 128 129 130 0 0 0 0 0 0 0 100 121 22 109 0
 0 1387778780781446e-31 -190973122421398e-30 1 -1 -482961298790166e-30 138777878
0781444e-31 482961298790166e-30 -1 -1909731224213985e-31 -.03939758416449975 .02
102089046847865 -.0132215403591148 1 3 ?0 11 10 19 0 1 7 131 1 22 109 0 4 100 13
1 20 10 0 0 -.998976537238852 .0452313834220472 0 .0452313834220472 .99897653723
8852 0 0 0 -1 -.00723969176710368 .0135595289115481 .027652710781809 1 3 ?0 11 2
2 17 0 1 13 132 1 33 10 0 9 100 132 18 22 0 0 -.998976537238852 .045231383422047
2 0 .0452313834220472 .998976537238852 0 0 0 -1 -.00723969176710368 .01355952891
15481 .027652710781809 1 3 ?0 11 33 15 0 1 25 133 1 44 22 0 21 100 133 16 33 0 0
 -.998976537238852 .0452313834220472 0 .0452313834220472 .998976537238852 0 0 0
 -1 -.00723969176710368 .0135595289115481 .027652710781809 1 3 ?0 11 44 13 0 1 3
6 134 1 55 33 0 32 100 134 14 44 0 0 -.998976537238852 .0452313834220472 0 .0452
313834220472 .998976537238852 0 0 0 -1 -.00723969176710368 .0135595289115481 .02
7652710781809 1 3 ?0 11 55 11 0 1 47 135 1 66 44 0 43 100 135 12 55 0 0 -.998976
537238852 .0452313834220472 0 .0452313834220472 .998976537238852 0 0 0 -1 -.0072
3969176710368 .0135595289115481 .027652710781809 1 3 ?0 11 66 9 0 1 58 136 1 77
 55 0 54 100 136 10 66 0 0 -.998976537238852 .0452313834220472 0 .04523138342204
72 .998976537238852 0 0 0 -1 -.00723969176710368 .0135595289115481 .027652710781
809 1 3 ?0 11 77 7 0 1 69 137 1 88 66 0 65 100 137 8 77 0 0 -.998976537238852 .0
452313834220472 0 .0452313834220472 .998976537238852 0 0 0 -1 -.0072396917671036
8 .0135595289115481 .027652710781809 1 3 ?0 11 88 5 0 1 80 138 1 99 77 0 76 100
 138 6 88 0 0 -.998976537238852 .0452313834220472 0 .0452313834220472 .998976537
238852 0 0 0 -1 -.00723969176710368 .0135595289115481 .027652710781809 1 3 ?0 11
 99 3 0 1 91 139 1 110 88 0 87 100 139 4 99 0 0 -.998976537238852 .0452313834220
472 0 .0452313834220472 .998976537238852 0 0 0 -1 -.00723969176710368 .013559528
9115481 .027652710781809 1 3 ?0 11 110 1 0 1 102 140 1 0 99 0 98 100 140 2 110 0
 0 1 0 0 0 1 0 0 0 1 .01692797996594905 .01497369773267506 .017652710781809 1 1
 ?0 81 1 122 245 5 14 0 0 0 0 141 70 123 0 4 T14 0 0 3 20 1 142 142 13 255 124 9
9 0 14 0 143 0 0 144 0 50 255 125 94 0 143 145 0 0 +-.03032407407407405 .0223379
6296296295 .09 1 0 0 0 0 -1 30 255 126 98 0 129 146 0 0 +-.03032407407407405 -.0
2766203703703705 .09 0 0 -1 29 255 127 75 0 147 148 0 -.03032407407407405 .02233
796296296295 0 19 8 CCCCCCCA5 owner12 0 Z128 33 0 14 144 0 149 V0 16 255 129 82
 0 ?150 0 151 126 0 0 14 18 255 130 30 0 152 0 153 154 ?14 17 255 152 0 155 156
 157 130 158 159 0 160 +18 153 27 0 157 130 161 162 ?14 29 154 32 0 130 162 163
 -.03032407407407405 .02233796296296295 .09 29 162 29 0 153 164 154 .01967592592
592595 .02233796296296295 .09 29 163 78 0 165 154 166 -.03032407407407405 -.0276
6203703703705 0 18 165 69 0 167 168 0 163 ?14 29 166 77 0 168 163 148 .019675925
92592595 -.02766203703703705 0 18 168 68 0 169 170 165 166 ?14 29 148 76 0 170 1
66 127 .01967592592592595 .02233796296296295 0 18 170 67 0 171 147 168 148 ?14 1
7 171 0 172 173 174 170 175 176 0 177 +18 147 66 0 178 179 170 127 ?14 17 178 0
 180 160 177 147 181 182 0 183 +18 179 21 0 184 161 147 185 ?14 17 184 0 186 150
 187 179 188 189 0 156 -18 161 24 0 188 153 179 164 ?14 29 185 23 0 179 0 164 -.
03032407407407405 -.02766203703703705 .09 29 164 26 0 161 185 162 .0196759259259
2595 -.02766203703703705 .09 17 188 0 155 157 156 161 184 189 0 187 +15 255 155
 4 0 156 190 0 17 157 0 155 152 188 153 191 192 0 173 +17 156 0 155 188 152 179
 193 194 0 195 +16 189 9 0 ?188 192 194 196 0 0 14 17 187 0 186 184 169 161 174
 151 0 191 -15 186 87 0 169 197 0 17 169 0 186 187 150 168 167 198 0 174 +17 174
 0 172 171 191 168 187 151 0 175 +16 151 81 0 ?174 129 199 146 0 0 14 17 191 0 1
72 174 173 161 157 192 0 0 -15 172 85 0 171 200 0 17 173 0 172 191 171 153 177 1
99 0 158 -16 192 13 0 ?157 159 189 201 0 0 14 16 159 17 0 ?152 202 192 203 0 0 1
4 30 201 15 0 192 196 203 0 +.01967592592592595 .02233796296296295 .09 -13877787
80781446e-31 1 0 30 196 11 0 189 204 201 0 +-.03032407407407405 -.02766203703703
705 .09 1 0 0 30 203 19 0 159 201 205 0 +-.03032407407407405 .02233796296296295
 .09 -1 0 0 30 205 74 0 206 203 207 0 +-.03032407407407405 .02233796296296295 0
 0 -1 0 16 206 62 0 ?208 198 0 205 0 0 14 30 207 73 0 198 205 209 0 +-.030324074
07407405 -.02766203703703705 0 1 0 0 16 198 58 0 ?169 176 206 207 0 0 14 30 209
 72 0 176 207 210 0 +.01967592592592595 .02233796296296295 0 -1387778780781446e-
31 1 0 16 176 54 0 ?171 182 198 209 0 0 14 30 210 71 0 182 209 211 0 +-.03032407
407407405 .02233796296296295 0 -1 0 0 16 182 50 0 ?178 194 176 210 0 0 14 30 211
 95 0 202 210 212 0 +-.03032407407407405 .02233796296296295 .09 0 0 -1 16 202 79
 0 ?183 199 159 211 0 0 14 30 212 96 0 199 211 146 0 +.01967592592592595 .022337
96296296295 .09 0 0 -1 16 199 80 0 ?177 151 202 212 0 0 14 30 146 97 0 151 212 1
26 0 +.01967592592592595 -.02766203703703705 .09 0 0 -1 17 177 0 180 178 158 170
 173 199 0 181 +15 180 83 0 178 213 0 17 158 0 180 177 160 153 152 159 0 0 -17 1
81 0 214 175 215 170 178 182 0 0 -15 214 49 0 215 216 0 17 175 0 214 167 181 168
 171 176 0 0 -17 215 0 214 181 167 147 208 206 0 0 -17 167 0 214 215 175 165 169
 198 0 150 -17 208 0 217 195 183 165 215 206 0 0 +15 217 89 0 208 143 0 17 195 0
 217 193 208 179 150 129 0 0 -17 183 0 217 208 193 147 160 202 0 215 +17 193 0 2
17 183 195 130 156 194 0 0 -17 160 0 180 158 178 130 183 202 0 193 -16 194 5 0 ?
156 189 182 204 0 0 14 30 204 7 0 194 0 196 0 +-.03032407407407405 .022337962962
96295 .09 0 -1 0 17 150 0 186 169 184 165 195 129 0 208 +14 255 143 90 218 ?197
 0 217 124 125 -0 0 197 0 149 81 1 218 234 219 143 220 0 0 221 222 14 197 88 221
 ?200 143 186 124 145 -0 0 200 143 149 13 149 34 0 0 0 0 0 0 128 143 81 1 221 23
6 219 197 223 0 218 224 225 14 200 86 224 ?213 197 172 124 226 -0 0 213 197 149
 50 145 93 0 197 226 125 0 +-.03032407407407405 -.02766203703703705 .09 0 1 0 0
 0 1 50 226 92 0 200 227 145 0 +.01967592592592595 .02233796296296295 .09 -1 -13
87778780781446e-31 0 1387778780781446e-31 -1 0 50 227 91 0 213 228 226 0 +-.0303
2407407407405 .02233796296296295 .09 0 -1 0 0 0 -1 14 213 84 229 ?190 200 180 12
4 227 -0 0 190 200 149 50 228 70 0 216 230 227 0 +0 0 0 0 0 1 1 0 0 14 216 48 23
1 ?0 190 214 124 228 -0 0 0 190 149 50 230 3 0 190 0 228 0 +0 0 .09 0 0 1 1 0 0
 14 190 1 232 ?216 213 155 124 230 +0 0 216 213 149 81 1 232 244 219 190 233 0 2
31 0 234 80 255 1 219 235 236 9000 1 1 1 1 1 1 1 1 0 FFFFTFTFFFFFFF1 81 1 233 22
7 237 190 0 232 238 239 240 81 1 231 242 219 216 239 0 229 232 241 82 255 1 234
 900137105 81 1 239 228 237 216 0 231 233 0 242 81 1 229 240 219 213 238 0 224 2
31 243 82 1 241 905773201 81 1 238 226 237 213 0 229 244 233 245 81 1 224 238 21
9 200 244 0 221 229 246 82 1 243 906690705 81 1 244 225 237 200 0 224 223 238 24
7 82 1 246 906952849 80 1 237 0 248 8001 0 0 0 0 3 5 0 0 0 FFFFTFTFFFFFFF2 81 1
 223 224 237 197 0 221 220 244 249 83 255 3 247 .792156862745098 .81960784313725
5 .929411764705882 81 1 220 223 237 143 0 218 0 223 250 83 3 249 .79215686274509
8 .819607843137255 .929411764705882 83 3 250 .792156862745098 .819607843137255 .
929411764705882 79 255 15 248 SDL/TYSA_COLOUR83 3 245 .792156862745098 .81960784
3137255 .929411764705882 83 3 242 .792156862745098 .819607843137255 .92941176470
5882 83 3 240 .792156862745098 .819607843137255 .929411764705882 79 14 236 SWEnt
Unchanged82 1 225 907214993 82 1 222 907477137 19 144 100 0 14 0 128 124 S0 74 4
 CI16 index_map_offset0 0 1 dCCZ20 142 3 0 0 232 239 122 0 0 0 0 0 0 0 0 0 0 0 0
 0 0 0 0 0 80 1 5 251 252 8017 0 0 0 0 0 0 0 0 0 TTTTTTTTTTTTTF3 84 255 8 141 cu
be peg79 13 252 SDL/TYSA_NAME81 1 111 1310 5 102 0 0 0 0 253 70 112 0 4 T102 0 0
 3 20 1 254 254 13 114 99 0 102 0 255 0 0 256 0 50 115 94 0 255 257 0 0 +-.02451
25871846065 .0121293913556656 .01 1 0 0 0 0 -1 30 116 95 0 119 258 0 0 +-.024512
5871846065 .0121293913556656 .01 0 0 -1 29 117 872 0 120 259 0 -.000937210749999
265 .0121293913556656 0 19 118 33 0 102 256 0 260 V0 16 119 79 0 ?261 0 262 116
 0 0 102 18 120 870 0 263 0 264 117 ?102 17 263 0 265 266 267 120 268 269 0 270
 -18 264 30 0 271 120 272 273 ?102 17 271 0 274 275 276 264 277 262 0 278 +18 27
2 66 0 279 264 280 259 ?102 29 273 32 0 264 281 259 -.0245125871846065 .01212939
13556656 .01 29 281 955 0 280 282 273 -.000937210749999265 .0121293913556656 .01
 29 259 75 0 272 273 117 -.0245125871846065 .0121293913556656 0 18 280 918 0 266
 272 283 281 ?102 29 282 956 0 283 284 281 -.0245125871846065 -.0120451070499223
6 .01 18 283 917 0 285 280 286 282 ?102 29 284 957 0 286 287 282 -.0009372107499
99265 -.01204510704992236 .01 18 286 916 0 288 283 289 284 ?102 29 287 959 0 289
 290 284 -.0245125871846065 -.01204510704992236 0 18 289 920 0 291 286 292 287 ?
102 29 290 960 0 292 0 287 -.000937210749999265 -.01204510704992236 0 18 292 919
 0 293 289 0 290 ?102 17 293 0 294 295 291 292 296 297 0 267 -15 294 929 0 295 2
98 0 17 295 0 294 285 293 286 267 299 0 300 -17 291 0 294 293 285 289 301 302 0
 296 +17 296 0 303 304 268 289 293 297 0 305 +16 297 911 0 ?296 306 269 307 0 0
 102 17 267 0 265 263 288 292 295 299 0 268 +15 265 932 0 266 308 0 17 288 0 265
 267 266 286 276 309 0 295 +16 299 909 0 ?267 310 302 311 0 0 102 17 268 0 303 2
96 312 292 263 269 0 0 +15 303 49 0 312 313 0 17 312 0 303 268 304 120 279 314 0
 0 -16 269 910 0 ?268 297 0 315 0 0 102 30 315 950 0 269 316 307 0 +-.0009372107
49999265 .0121293913556656 0 0 -1 0 30 316 951 0 309 0 315 0 +-.0009372107499992
65 .0121293913556656 .01 0 -1 0 30 307 949 0 297 315 317 0 +-.000937210749999265
 -.01204510704992236 0 -1 0 0 30 317 948 0 306 307 318 0 +-.000937210749999265 .
0121293913556656 .0847345573672973 0 0 -1 16 306 905 0 ?270 302 297 317 0 0 102
 30 318 947 0 302 317 311 0 +-.0245125871846065 -.01204510704992236 .08473455736
72973 0 0 -1 16 302 907 0 ?291 299 306 318 0 0 102 30 311 946 0 299 318 319 0 +-
.000937210749999265 -.01204510704992236 .0847345573672973 0 0 -1 30 319 945 0 31
0 311 320 0 +-.000937210749999265 -.01204510704992236 .01 -1 0 0 16 310 906 0 ?2
85 309 299 319 0 0 102 30 320 7 0 321 319 322 0 +-.0245125871846065 .01212939135
56656 .01 0 -1 0 16 321 5 0 ?275 262 314 320 0 0 102 30 322 19 0 262 320 323 0 +
-.0245125871846065 .0121293913556656 .01 -1 0 0 16 262 874 0 ?271 119 321 322 0
 0 102 30 323 74 0 324 322 258 0 +-.0245125871846065 .0121293913556656 0 0 -1 0
 16 324 62 0 ?305 314 309 323 0 0 102 30 258 71 0 314 323 116 0 +-.0245125871846
065 .0121293913556656 0 -1 0 0 16 314 871 0 ?279 321 324 258 0 0 102 17 279 0 32
5 278 270 272 312 314 0 261 +15 325 83 0 277 326 0 17 278 0 325 277 279 264 261
 119 0 327 -17 270 0 325 279 277 120 266 306 0 312 +17 261 0 328 305 327 272 278
 119 0 304 +15 328 887 0 301 255 0 17 305 0 328 301 261 289 304 324 0 0 +17 327
 0 328 261 301 264 275 321 0 0 -17 304 0 303 312 296 272 305 324 0 0 -17 301 0 3
28 327 305 283 291 302 0 275 -17 275 0 274 300 271 283 327 321 0 0 +15 274 894 0
 300 329 0 17 300 0 274 276 275 286 285 310 0 0 -17 276 0 274 271 300 280 288 30
9 0 277 -17 285 0 294 291 295 283 300 310 0 301 +16 309 908 0 ?288 324 310 316 0
 0 102 17 277 0 325 270 278 280 271 262 0 0 -14 329 144 330 ?0 308 274 114 331 +
0 0 0 308 260 81 1 330 1309 237 329 332 0 333 0 334 14 308 930 333 ?329 298 265
 114 335 +0 0 329 298 260 50 331 3 0 329 335 336 0 +0 0 .01 0 0 1 1 0 0 13 260 3
4 0 0 0 0 0 0 118 255 14 255 888 337 ?326 0 328 114 115 -0 0 326 0 260 81 1 337
 1304 237 255 338 0 0 339 340 14 326 84 339 ?313 255 325 114 257 -0 0 313 255 26
0 81 1 339 1305 237 326 341 0 337 342 343 14 313 48 342 ?298 326 303 114 336 -0
 0 298 326 260 50 257 91 0 326 336 115 0 +-.0245125871846065 .0121293913556656 .
01 0 -1 0 0 0 -1 50 336 70 0 313 331 257 0 +0 0 0 0 0 1 1 0 0 81 1 342 1306 237
 313 344 0 339 345 346 14 298 927 345 ?308 313 294 114 347 +0 0 308 313 260 81 1
 345 1307 237 298 348 0 342 333 349 50 347 940 0 298 0 335 0 +-.0009372107499992
65 -.01204510704992236 .0847345573672973 0 -1 0 0 0 -1 50 335 939 0 308 347 331
 0 +-.000937210749999265 .0121293913556656 .0847345573672973 1 0 0 0 0 -1 81 1 3
48 1302 219 298 0 345 344 0 350 81 1 333 1308 237 308 351 0 345 330 352 83 3 349
 .792156862745098 .819607843137255 .933333333333333 81 1 351 1294 219 308 0 333
 332 338 353 83 3 352 .792156862745098 .819607843137255 .933333333333333 81 1 33
2 1291 219 329 0 330 0 351 354 81 1 338 1296 219 255 0 337 351 341 355 82 1 353
 -1614348059 81 1 341 1298 219 326 0 339 338 344 356 82 1 355 -1559953179 81 1 3
44 1300 219 313 0 342 341 348 357 82 1 356 -663682843 82 1 357 -664600347 82 1 3
54 -630390547 82 1 350 -1615986459 83 3 346 .792156862745098 .819607843137255 .9
33333333333333 83 3 343 .792156862745098 .819607843137255 .933333333333333 83 3
 340 .792156862745098 .819607843137255 .933333333333333 83 3 334 .79215686274509
8 .819607843137255 .933333333333333 17 266 0 265 288 263 280 270 306 0 276 -19 2
56 100 0 102 0 118 114 S0 74 20 254 3 0 0 348 330 111 0 0 0 0 0 0 0 0 0 0 0 0 0
 0 0 0 0 84 10 253 sensorbase81 1 100 52 5 91 0 0 0 0 358 70 101 0 4 T91 0 0 3 2
0 1 359 359 13 103 8 0 91 0 360 0 0 361 0 50 104 26 0 362 363 0 0 +-.02451258718
46065 .03795489295007765 .01 0 0 1 1 0 0 31 255 105 25 0 364 365 0 0 --.01147594
487294998 -.00671492943372793 .01 0 0 1 1 0 0 .00301221410388678 19 106 6 0 91 3
61 0 366 V0 16 107 10 0 ?367 0 364 365 0 0 91 17 367 0 368 367 367 0 369 107 0 0
 +16 364 9 0 ?370 107 0 105 0 0 91 31 365 24 0 107 0 105 0 +-.01147594487294998
 -.00671492943372793 .01 0 0 1 1 0 0 .003212214103886785 17 370 0 371 370 370 0
 372 364 0 0 +15 371 13 0 370 360 0 17 372 0 373 372 372 0 370 364 0 0 -15 373 1
7 0 372 362 374 14 362 14 375 ?376 360 373 103 104 -0 0 376 360 366 15 374 18 0
 369 362 0 17 369 0 374 369 369 0 367 107 0 0 -81 1 375 50 237 362 377 0 378 379
 380 14 376 19 379 ?0 362 368 103 363 -0 0 0 362 366 14 360 11 378 ?362 0 371 10
3 381 -0 0 362 0 366 13 366 7 0 0 0 0 0 0 106 360 81 1 378 49 237 360 382 0 0 37
5 383 53 255 381 22 0 360 0 363 0 +-.01147594487294998 -.00671492943372793 .01 .
00301221410388678 -1 0 0 0 0 -1 53 363 23 0 376 381 104 0 --.01147594487294998 -
.00671492943372793 .01 .003212214103886785 -1 0 0 0 0 1 81 1 382 47 219 360 0 37
8 384 0 385 83 3 383 .792156862745098 .819607843137255 .933333333333333 81 1 384
 45 219 376 0 379 377 382 386 82 1 385 -1931935513 81 1 379 51 237 376 384 0 375
 0 387 81 1 377 43 219 362 0 375 0 384 388 82 1 386 -1932853017 82 1 388 -152017
2825 83 3 387 .792156862745098 .819607843137255 .933333333333333 15 368 21 0 367
 376 0 83 3 380 .792156862745098 .819607843137255 .933333333333333 19 361 1 0 91
 0 106 103 S0 74 20 359 3 0 0 382 379 100 0 0 0 0 0 0 0 0 0 0 0 0 0 0 0 0 0 84 6
 358 sensor81 1 89 52 5 80 0 0 0 0 389 70 90 0 4 T80 0 0 3 20 1 390 390 13 92 8
 0 80 0 391 0 0 392 0 50 93 26 0 393 394 0 0 +-.0245125871846065 .03795489295007
765 .01 0 0 1 1 0 0 31 94 25 0 395 396 0 0 --.01847594487295 -.00671492943372793
 .01 0 0 1 1 0 0 .00301221410388678 19 95 6 0 80 392 0 397 V0 16 96 10 0 ?398 0
 395 396 0 0 80 17 398 0 399 398 398 0 400 96 0 0 +16 395 9 0 ?401 96 0 94 0 0 8
0 31 396 24 0 96 0 94 0 +-.01847594487295 -.00671492943372793 .01 0 0 1 1 0 0 .0
03212214103886785 17 401 0 402 401 401 0 403 395 0 0 +15 402 13 0 401 391 0 17 4
03 0 404 403 403 0 401 395 0 0 -15 404 17 0 403 393 405 14 393 14 406 ?407 391 4
04 92 93 -0 0 407 391 397 15 405 18 0 400 393 0 17 400 0 405 400 400 0 398 96 0
 0 -81 1 406 50 237 393 408 0 409 410 411 14 407 19 410 ?0 393 399 92 394 -0 0 0
 393 397 14 391 11 409 ?393 0 402 92 412 -0 0 393 0 397 13 397 7 0 0 0 0 0 0 95
 391 81 1 409 49 237 391 413 0 0 406 414 53 412 22 0 391 0 394 0 +-.018475944872
95 -.00671492943372793 .01 .00301221410388678 -1 0 0 0 0 -1 53 394 23 0 407 412
 93 0 --.01847594487295 -.00671492943372793 .01 .003212214103886785 -1 0 0 0 0 1
 81 1 413 47 219 391 0 409 415 0 416 83 3 414 .792156862745098 .819607843137255
 .933333333333333 81 1 415 45 219 407 0 410 408 413 417 82 1 416 -1997209369 81
 1 410 51 237 407 415 0 406 0 418 81 1 408 43 219 393 0 406 0 415 419 82 1 417 -
1998126873 82 1 419 -1518403353 83 3 418 .792156862745098 .819607843137255 .9333
33333333333 15 399 21 0 398 407 0 83 3 411 .792156862745098 .819607843137255 .93
3333333333333 19 392 1 0 80 0 95 92 S0 74 20 390 3 0 0 413 410 89 0 0 0 0 0 0 0
 0 0 0 0 0 0 0 0 0 0 84 6 389 sensor81 1 78 52 5 69 0 0 0 0 420 70 79 0 4 T69 0
 0 3 20 1 421 421 13 81 8 0 69 0 422 0 0 423 0 50 82 26 0 424 425 0 0 +-.0245125
871846065 .03795489295007765 .01 0 0 1 1 0 0 31 83 25 0 426 427 0 0 --.004475944
872949975 .000285070566272073 .01 0 0 1 1 0 0 .00301221410388678 19 84 6 0 69 42
3 0 428 V0 16 85 10 0 ?429 0 426 427 0 0 69 17 429 0 430 429 429 0 431 85 0 0 +1
6 426 9 0 ?432 85 0 83 0 0 69 31 427 24 0 85 0 83 0 +-.004475944872949975 .00028
5070566272073 .01 0 0 1 1 0 0 .003212214103886785 17 432 0 433 432 432 0 434 426
 0 0 +15 433 13 0 432 422 0 17 434 0 435 434 434 0 432 426 0 0 -15 435 17 0 434
 424 436 14 424 14 437 ?438 422 435 81 82 -0 0 438 422 428 15 436 18 0 431 424 0
 17 431 0 436 431 431 0 429 85 0 0 -81 1 437 50 237 424 439 0 440 441 442 14 438
 19 441 ?0 424 430 81 425 -0 0 0 424 428 14 422 11 440 ?424 0 433 81 443 -0 0 42
4 0 428 13 428 7 0 0 0 0 0 0 84 422 81 1 440 49 237 422 444 0 0 437 445 53 443 2
2 0 422 0 425 0 +-.004475944872949975 .000285070566272073 .01 .00301221410388678
 -1 0 0 0 0 -1 53 425 23 0 438 443 82 0 --.004475944872949975 .00028507056627207
3 .01 .003212214103886785 -1 0 0 0 0 1 81 1 444 47 219 422 0 440 446 0 447 83 3
 445 .792156862745098 .819607843137255 .933333333333333 81 1 446 45 219 438 0 44
1 439 444 448 82 1 447 -1888419609 81 1 441 51 237 438 446 0 437 0 449 81 1 439
 43 219 424 0 437 0 446 450 82 1 448 -1889337113 82 1 450 -1521352473 83 3 449 .
792156862745098 .819607843137255 .933333333333333 15 430 21 0 429 438 0 83 3 442
 .792156862745098 .819607843137255 .933333333333333 19 423 1 0 69 0 84 81 S0 74
 20 421 3 0 0 444 441 78 0 0 0 0 0 0 0 0 0 0 0 0 0 0 0 0 0 84 6 420 sensor81 1 6
7 52 5 58 0 0 0 0 451 70 68 0 4 T58 0 0 3 20 1 452 452 13 70 8 0 58 0 453 0 0 45
4 0 50 71 26 0 455 456 0 0 +-.0245125871846065 .03795489295007765 .01 0 0 1 1 0
 0 31 72 25 0 457 458 0 0 --.01147594487294998 .000285070566272073 .01 0 0 1 1 0
 0 .00301221410388678 19 73 6 0 58 454 0 459 V0 16 74 10 0 ?460 0 457 458 0 0 58
 17 460 0 461 460 460 0 462 74 0 0 +16 457 9 0 ?463 74 0 72 0 0 58 31 458 24 0 7
4 0 72 0 +-.01147594487294998 .000285070566272073 .01 0 0 1 1 0 0 .0032122141038
86785 17 463 0 464 463 463 0 465 457 0 0 +15 464 13 0 463 453 0 17 465 0 466 465
 465 0 463 457 0 0 -15 466 17 0 465 455 467 14 455 14 468 ?469 453 466 70 71 -0
 0 469 453 459 15 467 18 0 462 455 0 17 462 0 467 462 462 0 460 74 0 0 -81 1 468
 50 237 455 470 0 471 472 473 14 469 19 472 ?0 455 461 70 456 -0 0 0 455 459 14
 453 11 471 ?455 0 464 70 474 -0 0 455 0 459 13 459 7 0 0 0 0 0 0 73 453 81 1 47
1 49 237 453 475 0 0 468 476 53 474 22 0 453 0 456 0 +-.01147594487294998 .00028
5070566272073 .01 .00301221410388678 -1 0 0 0 0 -1 53 456 23 0 469 474 71 0 --.0
1147594487294998 .000285070566272073 .01 .003212214103886785 -1 0 0 0 0 1 81 1 4
75 47 219 453 0 471 477 0 478 83 3 476 .792156862745098 .819607843137255 .933333
333333333 81 1 477 45 219 469 0 472 470 475 479 82 1 478 -1953693465 81 1 472 51
 237 469 477 0 468 0 480 81 1 470 43 219 455 0 468 0 477 481 82 1 479 -195461096
9 82 1 481 -1519583001 83 3 480 .792156862745098 .819607843137255 .9333333333333
33 15 461 21 0 460 469 0 83 3 473 .792156862745098 .819607843137255 .93333333333
3333 19 454 1 0 58 0 73 70 S0 74 20 452 3 0 0 475 472 67 0 0 0 0 0 0 0 0 0 0 0 0
 0 0 0 0 0 84 6 451 sensor81 1 56 52 5 47 0 0 0 0 482 70 57 0 4 T47 0 0 3 20 1 4
83 483 13 59 8 0 47 0 484 0 0 485 0 50 60 26 0 486 487 0 0 +-.0245125871846065 .
03795489295007765 .01 0 0 1 1 0 0 31 61 25 0 488 489 0 0 --.01847594487295 .0002
85070566272073 .01 0 0 1 1 0 0 .00301221410388678 19 62 6 0 47 485 0 490 V0 16 6
3 10 0 ?491 0 488 489 0 0 47 17 491 0 492 491 491 0 493 63 0 0 +16 488 9 0 ?494
 63 0 61 0 0 47 31 489 24 0 63 0 61 0 +-.01847594487295 .000285070566272073 .01
 0 0 1 1 0 0 .003212214103886785 17 494 0 495 494 494 0 496 488 0 0 +15 495 13 0
 494 484 0 17 496 0 497 496 496 0 494 488 0 0 -15 497 17 0 496 486 498 14 486 14
 499 ?500 484 497 59 60 -0 0 500 484 490 15 498 18 0 493 486 0 17 493 0 498 493
 493 0 491 63 0 0 -81 1 499 50 237 486 501 0 502 503 504 14 500 19 503 ?0 486 49
2 59 487 -0 0 0 486 490 14 484 11 502 ?486 0 495 59 505 -0 0 486 0 490 13 490 7
 0 0 0 0 0 0 62 484 81 1 502 49 237 484 506 0 0 499 507 53 505 22 0 484 0 487 0
 +-.01847594487295 .000285070566272073 .01 .00301221410388678 -1 0 0 0 0 -1 53 4
87 23 0 500 505 60 0 --.01847594487295 .000285070566272073 .01 .0032122141038867
85 -1 0 0 0 0 1 81 1 506 47 219 484 0 502 508 0 509 83 3 507 .792156862745098 .8
19607843137255 .933333333333333 81 1 508 45 219 500 0 503 501 506 510 82 1 509 -
2019032857 81 1 503 51 237 500 508 0 499 0 511 81 1 501 43 219 486 0 499 0 508 5
12 82 1 510 -2019950361 82 1 512 -1517813529 83 3 511 .792156862745098 .81960784
3137255 .933333333333333 15 492 21 0 491 500 0 83 3 504 .792156862745098 .819607
843137255 .933333333333333 19 485 1 0 47 0 62 59 S0 74 20 483 3 0 0 506 503 56 0
 0 0 0 0 0 0 0 0 0 0 0 0 0 0 0 0 84 6 482 sensor81 1 45 52 5 36 0 0 0 0 513 70 4
6 0 4 T36 0 0 3 20 1 514 514 13 48 8 0 36 0 515 0 0 516 0 50 49 26 0 517 518 0 0
 +-.0245125871846065 .03795489295007765 .01 0 0 1 1 0 0 31 50 25 0 519 520 0 0 -
-.004475944872949975 .00728507056627207 .01 0 0 1 1 0 0 .00301221410388678 19 51
 6 0 36 516 0 521 V0 16 52 10 0 ?522 0 519 520 0 0 36 17 522 0 523 522 522 0 524
 52 0 0 +16 519 9 0 ?525 52 0 50 0 0 36 31 520 24 0 52 0 50 0 +-.004475944872949
975 .00728507056627207 .01 0 0 1 1 0 0 .003212214103886785 17 525 0 526 525 525
 0 527 519 0 0 +15 526 13 0 525 515 0 17 527 0 528 527 527 0 525 519 0 0 -15 528
 17 0 527 517 529 14 517 14 530 ?531 515 528 48 49 -0 0 531 515 521 15 529 18 0
 524 517 0 17 524 0 529 524 524 0 522 52 0 0 -81 1 530 50 237 517 532 0 533 534
 535 14 531 19 534 ?0 517 523 48 518 -0 0 0 517 521 14 515 11 533 ?517 0 526 48
 536 -0 0 517 0 521 13 521 7 0 0 0 0 0 0 51 515 81 1 533 49 237 515 537 0 0 530
 538 53 536 22 0 515 0 518 0 +-.004475944872949975 .00728507056627207 .01 .00301
221410388678 -1 0 0 0 0 -1 53 518 23 0 531 536 49 0 --.004475944872949975 .00728
507056627207 .01 .003212214103886785 -1 0 0 0 0 1 81 1 537 47 219 515 0 533 539
 0 540 83 3 538 .792156862745098 .819607843137255 .933333333333333 81 1 539 45 2
19 531 0 534 532 537 541 82 1 540 -1910177561 81 1 534 51 237 531 539 0 530 0 54
2 81 1 532 43 219 517 0 530 0 539 543 82 1 541 -1911095065 82 1 543 -1520762649
 83 3 542 .792156862745098 .819607843137255 .933333333333333 15 523 21 0 522 531
 0 83 3 535 .792156862745098 .819607843137255 .933333333333333 19 516 1 0 36 0 5
1 48 S0 74 20 514 3 0 0 537 534 45 0 0 0 0 0 0 0 0 0 0 0 0 0 0 0 0 0 84 6 513 se
nsor81 1 34 52 5 25 0 0 0 0 544 70 35 0 4 T25 0 0 3 20 1 545 545 13 37 8 0 25 0
 546 0 0 547 0 50 38 26 0 548 549 0 0 +-.0245125871846065 .03795489295007765 .01
 0 0 1 1 0 0 31 39 25 0 550 551 0 0 --.01147594487294998 .00728507056627207 .01
 0 0 1 1 0 0 .00301221410388678 19 40 6 0 25 547 0 552 V0 16 41 10 0 ?553 0 550
 551 0 0 25 17 553 0 554 553 553 0 555 41 0 0 +16 550 9 0 ?556 41 0 39 0 0 25 31
 551 24 0 41 0 39 0 +-.01147594487294998 .00728507056627207 .01 0 0 1 1 0 0 .003
212214103886785 17 556 0 557 556 556 0 558 550 0 0 +15 557 13 0 556 546 0 17 558
 0 559 558 558 0 556 550 0 0 -15 559 17 0 558 548 560 14 548 14 561 ?562 546 559
 37 38 -0 0 562 546 552 15 560 18 0 555 548 0 17 555 0 560 555 555 0 553 41 0 0
 -81 1 561 50 237 548 563 0 564 565 566 14 562 19 565 ?0 548 554 37 549 -0 0 0 5
48 552 14 546 11 564 ?548 0 557 37 567 -0 0 548 0 552 13 552 7 0 0 0 0 0 0 40 54
6 81 1 564 49 237 546 568 0 0 561 569 53 567 22 0 546 0 549 0 +-.011475944872949
98 .00728507056627207 .01 .00301221410388678 -1 0 0 0 0 -1 53 549 23 0 562 567 3
8 0 --.01147594487294998 .00728507056627207 .01 .003212214103886785 -1 0 0 0 0 1
 81 1 568 47 219 546 0 564 570 0 571 83 3 569 .792156862745098 .819607843137255
 .933333333333333 81 1 570 45 219 562 0 565 563 568 572 82 1 571 -1975451417 81
 1 565 51 237 562 570 0 561 0 573 81 1 563 43 219 548 0 561 0 570 574 82 1 572 -
1976368921 82 1 574 -1518993177 83 3 573 .792156862745098 .819607843137255 .9333
33333333333 15 554 21 0 553 562 0 83 3 566 .792156862745098 .819607843137255 .93
3333333333333 19 547 1 0 25 0 40 37 S0 74 20 545 3 0 0 568 565 34 0 0 0 0 0 0 0
 0 0 0 0 0 0 0 0 0 0 84 6 544 sensor81 1 23 58 5 13 0 0 0 0 575 70 24 0 4 T13 0
 0 3 20 1 576 576 13 26 8 0 13 0 577 0 0 578 0 50 27 32 0 579 580 0 0 +-.0245125
871846065 .03795489295007765 .01 0 0 1 1 0 0 31 28 25 0 581 582 0 0 --.004475944
872949975 -.00671492943372793 .01 0 0 1 1 0 0 .00301221410388678 19 29 6 0 13 57
8 0 583 V0 16 30 10 0 ?584 0 581 582 0 0 13 17 584 0 585 584 584 0 586 30 0 0 +1
6 581 9 0 ?587 30 0 28 0 0 13 31 582 24 0 30 0 28 0 +-.004475944872949975 -.0067
1492943372793 .01 0 0 1 1 0 0 .003212214103886785 17 587 0 588 587 587 0 589 581
 0 0 +15 588 13 0 587 577 0 17 589 0 590 589 589 0 587 581 0 0 -15 590 17 0 589
 579 591 14 579 14 592 ?593 577 590 26 27 -0 0 593 577 583 15 591 18 0 586 579 0
 17 586 0 591 586 586 0 584 30 0 0 -81 1 592 56 237 579 594 0 595 596 597 14 593
 19 596 ?0 579 585 26 580 -0 0 0 579 583 14 577 11 595 ?579 0 588 26 598 -0 0 57
9 0 583 13 583 7 0 0 0 0 0 0 29 577 81 1 595 55 237 577 599 0 0 592 600 53 598 2
2 0 577 0 580 0 +-.004475944872949975 -.00671492943372793 .01 .00301221410388678
 -1 0 0 0 0 -1 53 580 23 0 593 598 27 0 --.004475944872949975 -.0067149294337279
3 .01 .003212214103886785 -1 0 0 0 0 1 81 1 599 53 219 577 0 595 601 0 602 83 3
 600 .792156862745098 .819607843137255 .933333333333333 81 1 601 51 219 593 0 59
6 594 599 603 82 1 602 -1866661657 81 1 596 57 237 593 601 0 592 0 604 81 1 594
 49 219 579 0 592 0 601 605 82 1 603 -1867579161 82 1 605 -1521942297 83 3 604 .
792156862745098 .819607843137255 .933333333333333 15 585 21 0 584 593 0 83 3 597
 .792156862745098 .819607843137255 .933333333333333 19 578 1 0 13 0 29 26 S0 74
 20 576 3 0 0 599 596 23 0 0 0 0 0 0 0 0 0 0 0 0 0 0 0 0 0 84 6 575 sensor81 1 1
1 1403 5 7 0 0 0 0 606 70 12 0 4 T7 0 0 3 20 1 607 607 13 15 160 0 7 0 608 0 0 6
09 0 53 16 172 0 608 610 0 0 +-.01847594487295 .00728507056627207 .01 .003012214
10388678 -1 0 0 0 0 -1 31 17 1220 0 19 611 0 0 +-.01847594487295 .00728507056627
207 .01 0 0 1 1 0 0 .003212214103886785 19 18 170 0 7 609 0 612 V0 16 19 1023 0
 ?613 0 614 17 0 0 7 17 613 0 615 613 613 0 616 19 0 0 +16 614 1022 0 ?617 19 0
 611 0 0 7 17 617 0 618 617 617 0 619 614 0 0 +31 611 1229 0 614 0 17 0 --.01847
594487295 .00728507056627207 .01 0 0 1 1 0 0 .00301221410388678 15 618 167 0 617
 608 0 17 619 0 620 619 619 0 617 614 0 0 -15 620 1108 0 619 621 622 14 621 1105
 623 ?624 608 620 15 625 -0 0 624 608 612 15 622 1109 0 616 621 0 17 616 0 622 6
16 616 0 613 19 0 0 -81 1 623 1401 237 621 626 0 627 628 629 14 624 157 628 ?0 6
21 615 15 610 -0 0 0 621 612 14 608 165 627 ?621 0 618 15 16 -0 0 621 0 612 50 6
25 1213 0 621 0 610 0 +-.0245125871846065 .03795489295007765 .01 0 0 1 1 0 0 13
 612 171 0 0 0 0 0 0 18 608 53 610 173 0 624 625 16 0 --.01847594487295 .0072850
7056627207 .01 .003212214103886785 -1 0 0 0 0 1 81 1 627 1400 237 608 630 0 0 62
3 631 81 1 630 1398 219 608 0 627 632 0 633 83 3 631 .792156862745098 .819607843
137255 .933333333333333 81 1 632 1396 219 624 0 628 626 630 634 82 1 633 -632684
352 81 1 628 1402 237 624 632 0 623 0 635 81 1 626 1394 219 621 0 623 0 632 636
 82 1 634 -633601856 82 1 636 -1517223705 83 3 635 .792156862745098 .81960784313
7255 .933333333333333 15 615 159 0 613 624 0 83 3 629 .792156862745098 .81960784
3137255 .933333333333333 19 609 100 0 7 0 18 15 S0 74 20 607 3 0 0 630 628 11 0
 0 0 0 0 0 0 0 0 0 0 0 0 0 0 0 0 84 6 606 sensor74 20 6 1 0 0 2 0 0 0 0 0 0 0 0
 0 0 0 0 0 0 0 0 0 0 0 1 0 
