**ABCDEFGHIJKLMNOPQRSTUVWXYZabcdefghijklmnopqrstuvwxyz**************************
**PARASOLID !"#$%&'()*+,-./:;<=>?@[\]^_`{|}~0123456789**************************
**PART1;
MC=AMD64;
MC_MODEL=Intel64 Family 6 Model 140 Stepping 2, GenuineIntel;
MC_ID=unknown;
OS=Windows_NT;
OS_RELEASE=unknown;
FRU=Parasolid Version 33.1, build 260,  4-25-2022;
APPL=SOLIDWORKS 2022-2022290;
SITE=;
USER=unknown;
FORMAT=text;
GUISE=transmit;
KEY=FILEsensorandpeg.x_t;
DATE=Sun Oct  8 15:00:02 2023;
**PART2;
SCH=SCH_3301260_33103;
USFLD_SIZE=0;
**PART3;
**END_OF_HEADER*****************************************************************
T51 : TRANSMIT FILE created by modeller version 330126023 SCH_3301260_33103_1300
6230 0 10 21 CCCCI7 lattice222 0 CCCI4 mesh1006 0 I8 polyline1008 0 CCCCCCCCCCA1
6 mesh_offset_data206 0 Z1 7 2 3 0 0 0 0 0 0 0 0 1e3 1e-8 0 0 0 1 0 1 4 0 81 255
 1 2 7 5 1 0 0 0 0 0 70 11 CI9 list_type0 0 1 uI10 notransmit0 0 1 lCCCDCCDI12 f
inger_index0 0 1 dI12 finger_block1012 0 CZ3 0 4 T1 0 0 1 20 1 6 6 11 255 4 5 0
 1 7 8 1 9 0 10 0 12 35 CCCI7 lattice222 0 CCCI4 mesh1006 0 I8 polyline1008 0 CC
CCCCCDI5 owner1040 0 CCCCCCI13 boundary_mesh1006 0 I17 boundary_polyline1008 0 C
CCA16 index_map_offset0 0 1 dA9 index_map82 0 A17 node_id_index_map82 0 A20 sche
ma_embedding_map82 0 A5 child12 0 A14 lowest_node_id0 0 1 dA16 mesh_offset_data2
06 0 Z7 389 11 12 0 0 0 0 0 0 0 1e3 1e-8 4 13 14 1 0 1 1 15 16 17 18 0 0 19 20 2
1 0 0 0 0 0 0 0 100 10 CCCCCCCCCA9 precision229 0 Z8 6 4 0 0 .587746844251563 -.
252932940556814 -.768491102520786 .0733018826667558 .962615868772813 -.260763347
08749 .805717370465499 .096930989719723 .584314899828951 .0698229069020635 .0451
732715200374 -.03550176240329055 1 3 ?0 11 9 3 0 1 14 22 1 10 4 0 0 12 14 190 23
 24 0 0 0 0 0 0 0 1e3 1e-8 9 7 0 1 0 1 1 25 26 27 28 0 0 29 30 31 0 0 0 0 0 0 0
 100 22 4 9 0 0 -.3194591293314025 .768491102520786 -.554407151859722 .947596114
545426 .26076334708749 -.184564570040244 .00273283465168171 -.58431489982895 -.8
1152241463354 .0616352515556286 .04449060852166765 .01426596267565746 1 3 ?0 11
 10 1 0 1 7 32 1 0 9 0 4 100 32 2 10 0 0 .587746844251563 .252932940556814 .7684
91102520786 .0733018826667555 -.962615868772813 .2607633470874905 .8057173704654
99 -.0969309897197232 -.584314899828951 .0109499164985746 .0244900455284097 .008
63134403179461 1 3 ?0 81 1 23 190 5 14 0 0 0 0 33 70 24 0 4 T14 0 0 3 20 1 34 34
 13 255 25 99 0 14 0 35 0 0 36 0 50 255 26 94 0 35 37 0 0 +-.03032407407407405 .
02233796296296295 .09 1 0 0 0 0 -1 30 255 27 98 0 30 38 0 0 +-.03032407407407405
 -.02766203703703705 .09 0 0 -1 29 255 28 75 0 39 40 0 -.03032407407407405 .0223
3796296296295 0 19 8 CCCCCCCA5 owner12 0 Z29 33 0 14 36 0 41 V0 16 255 30 82 0 ?
42 0 43 27 0 0 14 18 255 31 30 0 44 0 45 46 ?14 17 255 44 0 47 48 49 31 50 51 0
 52 +18 45 27 0 49 31 53 54 ?14 29 46 32 0 31 54 55 -.03032407407407405 .0223379
6296296295 .09 29 54 29 0 45 56 46 .01967592592592595 .02233796296296295 .09 29
 55 78 0 57 46 58 -.03032407407407405 -.02766203703703705 0 18 57 69 0 59 60 0 5
5 ?14 29 58 77 0 60 55 40 .01967592592592595 -.02766203703703705 0 18 60 68 0 61
 62 57 58 ?14 29 40 76 0 62 58 28 .01967592592592595 .02233796296296295 0 18 62
 67 0 63 39 60 40 ?14 17 63 0 64 65 66 62 67 68 0 69 +18 39 66 0 70 71 62 28 ?14
 17 70 0 72 52 69 39 73 74 0 75 +18 71 21 0 76 53 39 77 ?14 17 76 0 78 42 79 71
 80 81 0 48 -18 53 24 0 80 45 71 56 ?14 29 77 23 0 71 0 56 -.03032407407407405 -
.02766203703703705 .09 29 56 26 0 53 77 54 .01967592592592595 -.0276620370370370
5 .09 17 80 0 47 49 48 53 76 81 0 79 +15 255 47 4 0 48 82 0 17 49 0 47 44 80 45
 83 84 0 65 +17 48 0 47 80 44 71 85 86 0 87 +16 81 9 0 ?80 84 86 88 0 0 14 17 79
 0 78 76 61 53 66 43 0 83 -15 78 87 0 61 89 0 17 61 0 78 79 42 60 59 90 0 66 +17
 66 0 64 63 83 60 79 43 0 67 +16 43 81 0 ?66 30 91 38 0 0 14 17 83 0 64 66 65 53
 49 84 0 0 -15 64 85 0 63 92 0 17 65 0 64 83 63 45 69 91 0 50 -16 84 13 0 ?49 51
 81 93 0 0 14 16 51 17 0 ?44 94 84 95 0 0 14 30 93 15 0 84 88 95 0 +.01967592592
592595 .02233796296296295 .09 -1387778780781446e-31 1 0 30 88 11 0 81 96 93 0 +-
.03032407407407405 -.02766203703703705 .09 1 0 0 30 95 19 0 51 93 97 0 +-.030324
07407407405 .02233796296296295 .09 -1 0 0 30 97 74 0 98 95 99 0 +-.0303240740740
7405 .02233796296296295 0 0 -1 0 16 98 62 0 ?100 90 0 97 0 0 14 30 99 73 0 90 97
 101 0 +-.03032407407407405 -.02766203703703705 0 1 0 0 16 90 58 0 ?61 68 98 99
 0 0 14 30 101 72 0 68 99 102 0 +.01967592592592595 .02233796296296295 0 -138777
8780781446e-31 1 0 16 68 54 0 ?63 74 90 101 0 0 14 30 102 71 0 74 101 103 0 +-.0
3032407407407405 .02233796296296295 0 -1 0 0 16 74 50 0 ?70 86 68 102 0 0 14 30
 103 95 0 94 102 104 0 +-.03032407407407405 .02233796296296295 .09 0 0 -1 16 94
 79 0 ?75 91 51 103 0 0 14 30 104 96 0 91 103 38 0 +.01967592592592595 .02233796
296296295 .09 0 0 -1 16 91 80 0 ?69 43 94 104 0 0 14 30 38 97 0 43 104 27 0 +.01
967592592592595 -.02766203703703705 .09 0 0 -1 17 69 0 72 70 50 62 65 91 0 73 +1
5 72 83 0 70 105 0 17 50 0 72 69 52 45 44 51 0 0 -17 73 0 106 67 107 62 70 74 0
 0 -15 106 49 0 107 108 0 17 67 0 106 59 73 60 63 68 0 0 -17 107 0 106 73 59 39
 100 98 0 0 -17 59 0 106 107 67 57 61 90 0 42 -17 100 0 109 87 75 57 107 98 0 0
 +15 109 89 0 100 35 0 17 87 0 109 85 100 71 42 30 0 0 -17 75 0 109 100 85 39 52
 94 0 107 +17 85 0 109 75 87 31 48 86 0 0 -17 52 0 72 50 70 31 75 94 0 85 -16 86
 5 0 ?48 81 74 96 0 0 14 30 96 7 0 86 0 88 0 +-.03032407407407405 .0223379629629
6295 .09 0 -1 0 17 42 0 78 61 76 57 87 30 0 100 +14 255 35 90 110 ?89 0 109 25 2
6 -0 0 89 0 41 81 1 110 184 111 35 112 0 0 113 114 14 89 88 113 ?92 35 78 25 37
 -0 0 92 35 41 13 41 34 0 0 0 0 0 0 29 35 81 1 113 185 111 89 115 0 110 116 117
 14 92 86 116 ?105 89 64 25 118 -0 0 105 89 41 50 37 93 0 89 118 26 0 +-.0303240
7407407405 -.02766203703703705 .09 0 1 0 0 0 1 50 118 92 0 92 119 37 0 +.0196759
2592592595 .02233796296296295 .09 -1 -1387778780781446e-31 0 1387778780781446e-3
1 -1 0 50 119 91 0 105 120 118 0 +-.03032407407407405 .02233796296296295 .09 0 -
1 0 0 0 -1 14 105 84 121 ?82 92 72 25 119 -0 0 82 92 41 50 120 70 0 108 122 119
 0 +0 0 0 0 0 1 1 0 0 14 108 48 123 ?0 82 106 25 120 -0 0 0 82 41 50 122 3 0 82
 0 120 0 +0 0 .09 0 0 1 1 0 0 14 82 1 124 ?108 105 47 25 122 +0 0 108 105 41 81
 1 124 188 111 82 125 0 121 123 126 80 255 1 111 0 127 8001 0 0 0 0 3 5 0 0 0 FF
FFTFTFFFFFFF2 81 1 125 182 128 82 0 124 129 0 130 81 1 121 187 111 105 131 0 116
 124 132 81 1 123 189 111 108 129 0 124 0 133 83 255 3 126 .792156862745098 .819
607843137255 .933333333333333 81 1 129 180 128 108 0 123 131 125 134 83 3 133 .7
92156862745098 .819607843137255 .933333333333333 80 1 128 135 136 9000 1 1 1 1 1
 1 1 1 0 FFFFTFTFFFFFFF1 81 1 131 178 128 105 0 121 137 129 138 82 255 1 134 905
773201 81 1 137 176 128 92 0 116 115 131 139 82 1 138 906690705 81 1 116 186 111
 92 137 0 113 121 140 81 1 115 174 128 89 0 113 112 137 141 82 1 139 906952849 8
1 1 112 172 128 35 0 110 0 115 142 82 1 141 907214993 82 1 142 907477137 83 3 14
0 .792156862745098 .819607843137255 .933333333333333 79 255 14 136 SWEntUnchange
d83 3 132 .792156862745098 .819607843137255 .933333333333333 82 1 130 900137105
 79 15 127 SDL/TYSA_COLOUR83 3 117 .792156862745098 .819607843137255 .9333333333
33333 83 3 114 .792156862745098 .819607843137255 .933333333333333 19 36 100 0 14
 0 29 25 S0 74 4 CI16 index_map_offset0 0 1 dCCZ20 34 3 0 0 125 123 23 0 0 0 0 0
 0 0 0 0 0 0 0 0 0 0 0 0 80 1 5 143 144 8017 0 0 0 0 0 0 0 0 0 TTTTTTTTTTTTTF3 8
4 255 8 33 cube peg79 13 144 SDL/TYSA_NAME81 1 11 389 5 7 0 0 0 0 145 70 12 0 4
 T7 0 0 3 20 1 146 146 13 15 99 0 7 147 148 0 0 149 0 53 255 16 270 0 148 150 0
 0 -.02152405512705 -.00571492943372793 .01 .003212214103886785 -1 0 0 0 0 1 31
 255 17 276 0 20 151 0 0 -.02152405512705 -.00571492943372793 .01 0 0 1 1 0 0 .0
03212214103886785 29 18 75 0 152 153 0 -.0245125871846065 .0121293913556656 0 19
 19 33 0 7 154 0 155 V0 16 20 274 0 ?156 0 157 17 0 0 7 18 21 30 0 158 0 159 160
 ?7 17 158 0 161 162 163 21 164 165 0 166 +18 159 27 0 163 21 167 168 ?7 29 160
 32 0 21 168 169 -.0245125871846065 .0121293913556656 .01 29 168 29 0 159 170 16
0 .02548741281539355 .0121293913556656 .01 29 169 78 0 171 160 172 -.02451258718
46065 -.0128706086443344 0 18 171 69 0 173 174 0 169 ?7 29 172 77 0 174 169 153
 .02548741281539355 -.0128706086443344 0 18 174 68 0 175 176 171 172 ?7 29 153 7
6 0 176 172 18 .02548741281539355 .0121293913556656 0 18 176 67 0 177 152 174 15
3 ?7 17 177 0 178 179 180 176 181 182 0 183 +18 152 66 0 184 185 176 18 ?7 17 18
4 0 186 166 183 152 187 188 0 189 +18 185 21 0 190 167 152 191 ?7 17 190 0 192 1
93 194 185 195 196 0 162 -18 167 24 0 195 159 185 170 ?7 29 191 23 0 185 0 170 -
.0245125871846065 -.0128706086443344 .01 29 170 26 0 167 191 168 .02548741281539
355 -.0128706086443344 .01 17 195 0 161 163 162 167 190 196 0 194 +15 161 4 0 16
2 197 198 17 163 0 161 158 195 159 199 200 0 179 +17 162 0 161 195 158 185 201 2
02 0 203 +16 196 9 0 ?195 200 202 204 0 0 7 17 194 0 192 190 175 167 180 205 0 1
99 -15 192 87 0 175 206 0 17 175 0 192 194 193 174 173 207 0 180 +17 180 0 178 1
77 199 174 194 205 0 181 +16 205 81 0 ?180 208 209 210 0 0 7 17 199 0 178 180 17
9 167 163 200 0 0 -15 178 85 0 177 211 0 17 179 0 178 199 177 159 183 209 0 164
 -16 200 13 0 ?163 165 196 212 0 0 7 16 165 17 0 ?158 213 200 214 0 0 7 30 212 1
5 0 200 204 214 0 +.02548741281539355 .0121293913556656 .01 -277555756156289e-30
 1 0 30 204 11 0 196 215 212 0 +-.0245125871846065 -.0128706086443344 .01 1 0 0
 30 214 19 0 165 212 216 0 +-.0245125871846065 .0121293913556656 .01 -1 0 0 30 2
16 74 0 217 214 218 0 +-.0245125871846065 .0121293913556656 0 0 -1 0 16 217 62 0
 ?219 207 220 216 0 0 7 30 218 73 0 207 216 221 0 +-.0245125871846065 -.01287060
86443344 0 1 0 0 16 207 58 0 ?175 182 217 218 0 0 7 30 221 72 0 182 218 222 0 +.
02548741281539355 .0121293913556656 0 -277555756156289e-30 1 0 16 182 54 0 ?177
 188 207 221 0 0 7 30 222 71 0 188 221 223 0 +-.0245125871846065 .01212939135566
56 0 -1 0 0 16 188 50 0 ?184 202 182 222 0 0 7 30 223 95 0 213 222 224 0 +-.0245
125871846065 .0121293913556656 .01 0 0 -1 16 213 79 0 ?189 209 165 223 0 0 7 30
 224 96 0 209 223 210 0 +.02548741281539355 .0121293913556656 .01 0 0 -1 16 209
 80 0 ?183 205 213 224 0 0 7 30 210 97 0 205 224 225 0 +.02548741281539355 -.012
8706086443344 .01 0 0 -1 30 225 98 0 208 210 226 0 +-.0245125871846065 -.0128706
086443344 .01 0 0 -1 16 208 82 0 ?193 227 205 225 0 0 7 31 226 140 0 228 225 229
 0 +-.01847594487295 .00728507056627207 .01 0 0 1 1 0 0 .00301221410388678 16 22
8 158 0 ?230 220 0 226 0 0 7 31 229 146 0 220 226 231 0 --.01847594487295 .00728
507056627207 .01 0 0 1 1 0 0 .003212214103886785 16 220 150 0 ?232 217 228 229 0
 0 7 31 231 196 0 227 229 233 0 --.00847594487294998 .00728507056627207 .01 0 0
 1 1 0 0 .003212214103886785 16 227 194 0 ?234 235 208 231 0 0 7 31 233 206 0 23
5 231 236 0 -.001524055127050025 .00728507056627207 .01 0 0 1 1 0 0 .00321221410
3886785 16 235 204 0 ?237 238 227 233 0 0 7 31 236 216 0 238 233 239 0 -.0115240
5512705002 .00728507056627207 .01 0 0 1 1 0 0 .003212214103886785 16 238 214 0 ?
240 241 235 236 0 0 7 31 239 226 0 241 236 242 0 -.02152405512705 .0072850705662
7207 .01 0 0 1 1 0 0 .003212214103886785 16 241 224 0 ?243 244 238 239 0 0 7 31
 242 236 0 244 239 245 0 --.01847594487295 -.00571492943372793 .01 0 0 1 1 0 0 .
003212214103886785 16 244 234 0 ?246 247 241 242 0 0 7 31 245 246 0 247 242 248
 0 --.00847594487294998 -.00571492943372793 .01 0 0 1 1 0 0 .003212214103886785
 16 247 244 0 ?249 250 244 245 0 0 7 31 248 256 0 250 245 151 0 -.00152405512705
0025 -.00571492943372793 .01 0 0 1 1 0 0 .003212214103886785 16 250 254 0 ?251 1
57 247 248 0 0 7 31 151 266 0 157 248 17 0 -.01152405512705002 -.005714929433727
93 .01 0 0 1 1 0 0 .003212214103886785 16 157 264 0 ?252 20 250 151 0 0 7 17 252
 0 253 252 252 0 254 157 0 0 +15 253 257 0 252 197 255 17 254 0 256 254 254 0 25
2 157 0 0 -15 256 263 0 254 257 0 14 257 258 258 ?259 148 256 15 150 -0 0 259 14
8 155 81 1 258 372 111 257 260 0 261 262 263 14 259 248 262 ?264 257 265 15 266
 -0 0 264 257 155 14 148 268 261 ?257 0 267 15 16 -0 0 257 0 155 53 150 260 0 25
7 266 16 0 -.01152405512705002 -.00571492943372793 .01 .003212214103886785 -1 0
 0 0 0 1 13 155 34 0 0 0 0 0 0 19 148 53 266 250 0 259 268 150 0 -.0015240551270
50025 -.00571492943372793 .01 .003212214103886785 -1 0 0 0 0 1 53 268 240 0 264
 269 266 0 --.00847594487294998 -.00571492943372793 .01 .003212214103886785 -1 0
 0 0 0 1 14 264 238 270 ?271 259 272 15 268 -0 0 271 259 155 53 269 230 0 271 27
3 268 0 --.01847594487295 -.00571492943372793 .01 .003212214103886785 -1 0 0 0 0
 1 14 271 228 274 ?275 264 276 15 269 -0 0 275 264 155 53 273 220 0 275 277 269
 0 -.02152405512705 .00728507056627207 .01 .003212214103886785 -1 0 0 0 0 1 14 2
75 218 278 ?279 271 280 15 273 -0 0 279 271 155 53 277 210 0 279 281 273 0 -.011
52405512705002 .00728507056627207 .01 .003212214103886785 -1 0 0 0 0 1 14 279 20
8 282 ?283 275 284 15 277 -0 0 283 275 155 53 281 200 0 283 285 277 0 -.00152405
5127050025 .00728507056627207 .01 .003212214103886785 -1 0 0 0 0 1 14 283 198 28
6 ?287 279 288 15 281 -0 0 287 279 155 53 285 190 0 287 289 281 0 --.00847594487
294998 .00728507056627207 .01 .003212214103886785 -1 0 0 0 0 1 14 287 188 290 ?1
97 283 291 15 285 -0 0 197 283 155 50 289 94 0 292 293 285 0 +-.0245125871846065
 .0121293913556656 .01 1 0 0 0 0 -1 14 292 90 294 ?206 197 295 15 289 -0 0 206 1
97 155 50 293 93 0 206 296 289 0 +-.0245125871846065 -.0128706086443344 .01 0 1
 0 0 0 1 14 206 88 297 ?211 292 192 15 293 -0 0 211 292 155 50 296 92 0 211 298
 293 0 +.02548741281539355 .0121293913556656 .01 -1 -277555756156289e-30 0 27755
5756156289e-30 -1 0 14 211 86 299 ?300 206 178 15 296 -0 0 300 206 155 50 298 91
 0 300 301 296 0 +-.0245125871846065 .0121293913556656 .01 0 -1 0 0 0 -1 14 300
 84 302 ?303 211 186 15 298 -0 0 303 211 155 50 301 70 0 303 304 298 0 +0 0 0 0
 0 1 1 0 0 14 303 48 305 ?306 300 307 15 301 -0 0 306 300 155 50 304 3 0 197 308
 301 0 +0 0 .01 0 0 1 1 0 0 14 197 147 309 ?292 287 310 15 304 +311 311 292 287
 155 53 308 169 0 312 313 304 0 +-.01847594487295 .00728507056627207 .01 .003012
21410388678 -1 0 0 0 0 -1 14 312 162 314 ?311 0 315 147 308 -0 0 311 0 316 53 31
3 170 0 306 0 308 0 --.01847594487295 .00728507056627207 .01 .003212214103886785
 -1 0 0 0 0 1 14 306 154 317 ?0 303 318 15 313 -0 0 0 303 155 81 1 317 386 111 3
06 319 0 305 314 320 15 318 156 0 321 306 0 17 321 0 318 321 321 0 232 220 0 0 -
17 232 0 198 232 232 0 321 220 0 0 +15 198 144 0 232 197 0 81 1 319 367 128 306
 0 317 322 323 324 81 1 305 385 111 303 325 0 302 317 326 81 1 314 387 111 312 3
22 0 317 327 328 83 3 320 .792156862745098 .819607843137255 .933333333333333 81
 1 322 365 128 312 0 314 329 319 330 81 1 327 388 111 311 323 0 314 0 331 83 3 3
28 .792156862745098 .819607843137255 .933333333333333 14 311 141 327 ?0 312 332
 147 304 +197 197 0 312 316 81 1 323 369 128 311 0 327 319 0 333 83 3 331 .79215
6862745098 .819607843137255 .933333333333333 82 1 333 922812581 15 332 138 0 230
 311 0 13 147 157 0 7 0 312 0 0 149 0 13 316 168 0 0 0 0 0 0 154 312 19 154 167
 0 7 149 19 316 V0 19 149 100 0 7 0 154 15 S0 17 230 0 332 230 230 0 334 228 0 0
 +17 334 0 315 334 334 0 230 228 0 0 -15 315 164 0 334 312 0 81 1 329 363 128 19
7 0 309 325 322 335 82 1 330 920453285 81 1 309 380 111 197 329 0 290 294 336 81
 1 325 361 128 303 0 305 337 329 338 82 1 335 923336881 81 1 337 359 128 300 0 3
02 339 325 340 82 1 338 124190865 81 1 302 384 111 300 337 0 299 305 341 81 1 33
9 357 128 211 0 299 342 337 343 82 1 340 125108369 81 1 299 383 111 211 339 0 29
7 302 344 81 1 342 355 128 206 0 297 345 339 346 82 1 343 125370513 81 1 297 382
 111 206 342 0 294 299 347 81 1 345 353 128 292 0 294 348 342 349 82 1 346 12563
2657 81 1 294 381 111 292 345 0 309 297 350 81 1 348 351 128 287 0 290 351 345 3
52 82 1 349 125894801 81 1 290 379 111 287 348 0 286 309 353 81 1 351 349 128 28
3 0 286 354 348 355 82 1 352 139002033 81 1 286 378 111 283 351 0 282 290 356 81
 1 354 347 128 279 0 282 357 351 358 82 1 355 139657393 81 1 282 377 111 279 354
 0 278 286 359 81 1 357 345 128 275 0 278 360 354 361 82 1 358 140312753 81 1 27
8 376 111 275 357 0 274 282 362 81 1 360 343 128 271 0 274 363 357 364 82 1 361
 140968113 81 1 274 375 111 271 360 0 270 278 365 81 1 363 341 128 264 0 270 366
 360 367 82 1 364 141623473 81 1 270 374 111 264 363 0 262 274 368 81 1 366 339
 128 148 0 261 369 363 370 82 1 367 142278833 81 1 261 371 111 148 366 0 0 258 3
71 81 1 369 337 128 259 0 262 260 366 372 82 1 370 144244913 81 1 262 373 111 25
9 369 0 258 270 373 81 1 260 335 128 257 0 258 0 369 374 82 1 372 142934193 82 1
 374 143589553 83 3 373 .792156862745098 .819607843137255 .933333333333333 83 3
 371 .792156862745098 .819607843137255 .933333333333333 83 3 368 .79215686274509
8 .819607843137255 .933333333333333 83 3 365 .792156862745098 .819607843137255 .
933333333333333 83 3 362 .792156862745098 .819607843137255 .933333333333333 83 3
 359 .792156862745098 .819607843137255 .933333333333333 83 3 356 .79215686274509
8 .819607843137255 .933333333333333 83 3 353 .792156862745098 .819607843137255 .
933333333333333 83 3 350 .792156862745098 .819607843137255 .933333333333333 83 3
 347 .792156862745098 .819607843137255 .933333333333333 83 3 344 .79215686274509
8 .819607843137255 .933333333333333 83 3 341 .792156862745098 .819607843137255 .
933333333333333 83 3 336 .792156862745098 .819607843137255 .933333333333333 83 3
 326 .792156862745098 .819607843137255 .933333333333333 82 1 324 919535781 15 31
0 267 0 156 197 253 17 156 0 310 156 156 0 375 20 0 0 +17 375 0 267 375 375 0 15
6 20 0 0 -15 267 273 0 375 148 0 15 307 49 0 376 303 0 17 376 0 307 187 173 152
 219 217 0 0 -17 187 0 307 181 376 176 184 188 0 0 -17 173 0 307 376 181 171 175
 207 0 193 -17 219 0 295 203 189 171 376 217 0 0 +15 295 89 0 219 292 0 17 203 0
 295 201 219 185 193 208 0 0 -17 189 0 295 219 201 152 166 213 0 376 +17 201 0 2
95 189 203 21 162 202 0 0 -17 166 0 186 164 184 21 189 213 0 201 -15 186 83 0 18
4 300 0 17 164 0 186 183 166 159 158 165 0 0 -17 183 0 186 184 164 176 179 209 0
 187 +16 202 5 0 ?162 196 188 215 0 0 7 30 215 7 0 202 0 204 0 +-.02451258718460
65 .0121293913556656 .01 0 -1 0 17 193 0 192 175 190 171 203 208 0 219 +17 181 0
 307 173 187 174 177 182 0 0 -15 291 193 0 377 287 0 17 377 0 291 377 377 0 234
 227 0 0 -17 234 0 378 234 234 0 377 227 0 0 +15 378 187 0 234 197 161 15 288 20
3 0 379 283 0 17 379 0 288 379 379 0 237 235 0 0 -17 237 0 380 237 237 0 379 235
 0 0 +15 380 197 0 237 197 378 15 284 213 0 381 279 0 17 381 0 284 381 381 0 240
 238 0 0 -17 240 0 382 240 240 0 381 238 0 0 +15 382 207 0 240 197 380 15 280 22
3 0 383 275 0 17 383 0 280 383 383 0 243 241 0 0 -17 243 0 384 243 243 0 383 241
 0 0 +15 384 217 0 243 197 382 15 276 233 0 385 271 0 17 385 0 276 385 385 0 246
 244 0 0 -17 246 0 386 246 246 0 385 244 0 0 +15 386 227 0 246 197 384 15 272 24
3 0 387 264 0 17 387 0 272 387 387 0 249 247 0 0 -17 249 0 388 249 249 0 387 247
 0 0 +15 388 237 0 249 197 386 15 265 253 0 389 259 0 17 389 0 265 389 389 0 251
 250 0 0 -17 251 0 255 251 251 0 389 250 0 0 +15 255 247 0 251 197 388 83 3 263
 .792156862745098 .819607843137255 .933333333333333 74 20 146 3 0 0 323 327 11 0
 0 0 0 0 0 0 0 0 0 0 0 0 0 0 0 0 84 6 145 sensor74 20 6 1 0 0 2 0 0 0 0 0 0 0 0
 0 0 0 0 0 0 0 0 0 0 0 1 0 
