**ABCDEFGHIJKLMNOPQRSTUVWXYZabcdefghijklmnopqrstuvwxyz**************************
**PARASOLID !"#$%&'()*+,-./:;<=>?@[\]^_`{|}~0123456789**************************
**PART1;
MC=AMD64;
MC_MODEL=Intel64 Family 6 Model 140 Stepping 2, GenuineIntel;
MC_ID=unknown;
OS=Windows_NT;
OS_RELEASE=unknown;
FRU=Parasolid Version 33.1, build 260,  4-25-2022;
APPL=SOLIDWORKS 2022-2022290;
SITE=;
USER=unknown;
FORMAT=text;
GUISE=transmit;
KEY=FILE1119cylin.x_t;
DATE=Sun Nov 19 12:48:05 2023;
**PART2;
SCH=SCH_3301260_33103;
USFLD_SIZE=0;
**PART3;
**END_OF_HEADER*****************************************************************
T51 : TRANSMIT FILE created by modeller version 330126023 SCH_3301260_33103_1300
6230 0 10 21 CCCCI7 lattice222 0 CCCI4 mesh1006 0 I8 polyline1008 0 CCCCCCCCCCA1
6 mesh_offset_data206 0 Z1 43 2 3 0 0 0 0 0 0 0 0 1e3 1e-8 0 0 0 1 0 1 4 0 81 25
5 1 2 43 5 1 0 0 0 0 0 70 11 CI9 list_type0 0 1 uI10 notransmit0 0 1 lCCCDCCDI12
 finger_index0 0 1 dI12 finger_block1012 0 CZ3 0 4 T1 0 0 1 20 1 6 6 11 255 4 41
 0 1 7 8 1 9 0 9 0 12 35 CCCI7 lattice222 0 CCCI4 mesh1006 0 I8 polyline1008 0 C
CCCCCCDI5 owner1040 0 CCCCCCI13 boundary_mesh1006 0 I17 boundary_polyline1008 0
 CCCA16 index_map_offset0 0 1 dA9 index_map82 0 A17 node_id_index_map82 0 A20 sc
hema_embedding_map82 0 A5 child12 0 A14 lowest_node_id0 0 1 dA16 mesh_offset_dat
a206 0 Z7 1316 10 11 0 0 0 0 0 0 0 1e3 1e-8 4 12 0 1 0 1 1 13 14 15 16 0 0 17 18
 19 0 0 0 0 0 0 0 100 10 CCCCCCCCCA9 precision229 0 Z8 42 4 0 0 .968323945518591
 .246276275946459 -.04119141222697735 -.2408542541162105 .877720604279305 -.4142
411967654785 -.0658632280520259 .411040796916213 .909234567348301 .0180481849156
8525 .0384044031066869 .0252142566229292 1 3 ?0 11 9 39 0 1 7 20 1 21 4 0 4 100
 20 40 9 0 0 .968323945518591 -.246276275946459 .04119141222697755 -.24085425411
62105 -.877720604279305 .414241196765479 -.0658632280520258 -.4110407969162135 -
.9092345673483 .0165860513004532 .02356569809489785 .0579813453356682 1 3 ?0 11
 21 37 0 1 12 22 1 23 9 24 0 12 12 57 25 26 0 0 0 0 0 0 0 1e3 1e-8 21 27 7 1 0 1
 1 28 29 30 0 0 0 31 32 0 0 0 0 0 0 0 0 100 22 38 21 0 0 .968323945518591 .24627
6275946459 -.04119141222697755 -.2408542541162105 .877720604279305 -.41424119676
5479 -.0658632280520259 .4110407969162135 .9092345673483 .0162316496860787 .0331
0980200063135 .03701751711847205 1 3 ?0 11 23 35 0 1 27 33 1 34 21 35 0 12 27 50
 36 37 0 0 0 0 0 0 0 1e3 1e-8 23 38 12 1 0 1 1 39 40 41 0 0 0 42 43 0 0 0 0 0 0
 0 0 100 33 36 23 0 0 .968323945518591 .246276275946459 -.04119141222697755 -.24
08542541162105 .877720604279305 -.414241196765479 -.0658632280520259 .4110407969
162135 .9092345673483 .0162316496860787 .03310980200063135 .03701751711847205 1
 3 ?0 11 34 33 0 1 38 44 1 45 23 46 0 12 38 50 47 48 0 0 0 0 0 0 0 1e3 1e-8 34 4
9 27 1 0 1 1 50 51 52 0 0 0 53 54 0 0 0 0 0 0 0 0 100 44 34 34 0 0 .968323945518
591 .246276275946459 -.04119141222697755 -.2408542541162105 .877720604279305 -.4
14241196765479 -.0658632280520259 .4110407969162135 .9092345673483 .016231649686
0787 .03310980200063135 .03701751711847205 1 3 ?0 11 45 31 0 1 49 55 1 56 34 57
 0 12 49 50 58 59 0 0 0 0 0 0 0 1e3 1e-8 45 60 38 1 0 1 1 61 62 63 0 0 0 64 65 0
 0 0 0 0 0 0 0 100 55 32 45 0 0 .968323945518591 .246276275946459 -.041191412226
97755 -.2408542541162105 .877720604279305 -.414241196765479 -.0658632280520259 .
4110407969162135 .9092345673483 .0162316496860787 .03310980200063135 .0370175171
1847205 1 3 ?0 11 56 29 0 1 60 66 1 67 45 68 0 12 60 50 69 70 0 0 0 0 0 0 0 1e3
 1e-8 56 71 49 1 0 1 1 72 73 74 0 0 0 75 76 0 0 0 0 0 0 0 0 100 66 30 56 0 0 .96
8323945518591 .246276275946459 -.04119141222697755 -.2408542541162105 .877720604
279305 -.414241196765479 -.0658632280520259 .4110407969162135 .9092345673483 .01
62316496860787 .03310980200063135 .03701751711847205 1 3 ?0 11 67 27 0 1 71 77 1
 78 56 79 0 12 71 51 80 81 0 0 0 0 0 0 0 1e3 1e-8 67 82 60 1 0 1 1 83 84 85 0 0
 0 86 87 0 0 0 0 0 0 0 0 100 77 28 67 0 0 .968323945518591 .246276275946459 -.04
119141222697755 -.2408542541162105 .877720604279305 -.414241196765479 -.06586322
80520259 .4110407969162135 .9092345673483 .0162316496860787 .03310980200063135 .
03701751711847205 1 3 ?0 11 78 25 0 1 82 88 1 89 67 90 0 12 82 50 91 92 0 0 0 0
 0 0 0 1e3 1e-8 78 93 71 1 0 1 1 94 95 96 0 0 0 97 98 0 0 0 0 0 0 0 0 100 88 26
 78 0 0 .968323945518591 .246276275946459 -.04119141222697755 -.2408542541162105
 .877720604279305 -.414241196765479 -.0658632280520259 .4110407969162135 .909234
5673483 .0162316496860787 .03310980200063135 .03701751711847205 1 3 ?0 11 89 23
 0 1 93 99 1 100 78 101 0 12 93 50 102 103 0 0 0 0 0 0 0 1e3 1e-8 89 104 82 1 0
 1 1 105 106 107 0 0 0 108 109 0 0 0 0 0 0 0 0 100 99 24 89 0 0 .968323945518591
 .246276275946459 -.04119141222697755 -.2408542541162105 .877720604279305 -.4142
41196765479 -.0658632280520259 .4110407969162135 .9092345673483 .016231649686078
7 .03310980200063135 .03701751711847205 1 3 ?0 11 100 21 0 1 104 110 1 24 89 111
 0 12 104 910 112 113 0 0 0 0 0 0 0 1e3 1e-8 100 114 93 1 0 1 1 115 116 117 0 0
 0 118 119 0 0 0 0 0 0 0 0 100 110 22 100 0 0 .968323945518591 .246276275946459
 -.04119141222697755 -.2408542541162105 .877720604279305 -.414241196765479 -.065
8632280520259 .4110407969162135 .9092345673483 .0162316496860787 .03310980200063
135 .03701751711847205 1 3 ?0 11 24 19 0 1 12 120 1 35 100 0 21 100 120 20 24 0
 0 .968323945518591 .246276275946459 -.04119141222697735 -.2408542541162105 .877
720604279305 -.414241196765478 -.0658632280520259 .411040796916213 .909234567348
301 .01676713804502935 .03849493755858255 .0251974677429441 1 3 ?0 11 35 17 0 1
 27 121 1 46 24 0 23 100 121 18 35 0 0 .968323945518591 .246276275946459 -.04119
141222697735 -.2408542541162105 .877720604279305 -.414241196765478 -.06586322805
20259 .411040796916213 .909234567348301 .01676713804502935 .03849493755858255 .0
251974677429441 1 3 ?0 11 46 15 0 1 38 122 1 57 35 0 34 100 122 16 46 0 0 .96832
3945518591 .246276275946459 -.04119141222697735 -.2408542541162105 .877720604279
305 -.414241196765478 -.0658632280520259 .411040796916213 .909234567348301 .0167
6713804502935 .03849493755858255 .0251974677429441 1 3 ?0 11 57 13 0 1 49 123 1
 68 46 0 45 100 123 14 57 0 0 .968323945518591 .246276275946459 -.04119141222697
735 -.2408542541162105 .877720604279305 -.414241196765478 -.0658632280520259 .41
1040796916213 .909234567348301 .01676713804502935 .03849493755858255 .0251974677
429441 1 3 ?0 11 68 11 0 1 60 124 1 79 57 0 56 100 124 12 68 0 0 .96832394551859
1 .246276275946459 -.04119141222697735 -.2408542541162105 .877720604279305 -.414
241196765478 -.0658632280520259 .411040796916213 .909234567348301 .0167671380450
2935 .03849493755858255 .0251974677429441 1 3 ?0 11 79 9 0 1 71 125 1 90 68 0 67
 100 125 10 79 0 0 .968323945518591 .246276275946459 -.04119141222697735 -.24085
42541162105 .877720604279305 -.414241196765478 -.0658632280520259 .4110407969162
13 .909234567348301 .01676713804502935 .03849493755858255 .0251974677429441 1 3
 ?0 11 90 7 0 1 82 126 1 101 79 0 78 100 126 8 90 0 0 .968323945518591 .24627627
5946459 -.04119141222697735 -.2408542541162105 .877720604279305 -.41424119676547
8 -.0658632280520259 .411040796916213 .909234567348301 .01676713804502935 .03849
493755858255 .0251974677429441 1 3 ?0 11 101 5 0 1 93 127 1 111 90 0 89 100 127
 6 101 0 0 .968323945518591 .246276275946459 -.04119141222697735 -.2408542541162
105 .877720604279305 -.414241196765478 -.0658632280520259 .411040796916213 .9092
34567348301 .01676713804502935 .03849493755858255 .0251974677429441 1 3 ?0 11 11
1 3 0 1 104 128 1 129 101 0 100 100 128 4 111 0 0 .968323945518591 .246276275946
459 -.04119141222697735 -.2408542541162105 .877720604279305 -.414241196765478 -.
0658632280520259 .411040796916213 .909234567348301 .01676713804502935 .038494937
55858255 .0251974677429441 1 3 ?0 11 129 1 0 1 114 130 1 0 111 0 0 12 114 867 13
1 132 0 0 0 0 0 0 0 1e3 1e-8 129 133 104 1 0 1 1 134 135 136 137 0 0 138 139 140
 0 0 0 0 0 0 0 100 130 2 129 0 0 -.246276275946459 .0411914122269775 .9683239455
18591 -.877720604279305 .4142411967654785 -.2408542541162105 -.411040796916213 -
.909234567348301 -.0658632280520258 -.0122412585199866 .03839133345638985 .04363
29591922519 1 3 ?0 81 1 131 867 5 114 141 0 0 0 142 70 132 0 4 T114 0 0 4 20 1 1
43 143 13 255 134 315 0 114 144 145 0 0 146 0 50 255 135 302 0 147 148 0 0 +.001
5 0 .05 1 0 0 0 0 -1 30 255 136 314 0 149 150 0 0 +.0015 .003 .05 0 0 -1 29 255
 137 249 0 151 152 0 -.0015 -.003 0 19 8 CCCCCCCA5 owner12 0 Z138 111 0 114 153
 0 154 V0 16 255 139 258 0 ?155 0 156 157 0 0 114 18 255 140 91 0 158 0 159 160
 ?114 17 255 158 0 161 162 163 140 164 165 0 166 -18 159 88 0 167 140 168 169 ?1
14 29 160 93 0 140 169 152 -.013 -.003 .05 29 169 90 0 159 170 160 -.0015 -.003
 .05 29 152 253 0 171 160 137 .013 .003 0 18 171 228 0 172 151 173 152 ?114 17 1
72 0 174 175 176 171 177 178 0 179 +18 151 224 0 180 181 171 137 ?114 18 173 455
 0 182 171 183 184 ?114 17 182 0 174 176 175 173 185 186 0 187 +18 183 456 0 176
 173 188 189 ?114 29 184 521 0 173 189 190 .0015 -.003 0 29 189 522 0 183 191 18
4 .013 -.003 0 29 190 81 0 181 184 170 .013 -.003 .05 18 181 79 0 192 168 151 19
0 ?114 29 170 87 0 168 190 169 -.0015 .003 .05 18 168 85 0 193 159 181 170 ?114
 17 193 0 194 195 167 168 196 197 0 198 -15 255 194 279 0 199 200 0 17 195 0 194
 199 193 201 198 202 0 203 +17 167 0 194 193 199 159 204 205 0 162 -17 196 0 206
 207 208 159 193 197 0 0 +16 197 33 0 ?196 209 210 211 0 0 114 17 198 0 212 213
 203 168 195 202 0 208 -15 212 281 0 203 214 0 17 213 0 212 215 198 216 208 210
 0 217 -17 203 0 212 198 215 201 218 219 0 0 +16 202 262 0 ?195 220 205 221 0 0
 114 17 208 0 206 196 222 168 213 210 0 0 +15 206 663 0 222 223 0 17 222 0 206 2
08 207 216 166 224 0 0 +16 210 28 0 ?208 197 225 226 0 0 114 16 225 23 0 ?227 21
0 228 229 0 0 114 30 226 30 0 210 229 211 0 +0 .003 .05 1 0 0 30 229 25 0 225 23
0 226 0 +0 -.003 .05 1 0 0 30 211 35 0 197 226 231 0 +-.0015 0 .05 0 -1 0 30 231
 41 0 209 211 232 0 +0 -.003 .05 1 0 0 16 209 39 0 ?162 224 197 231 0 0 114 30 2
32 46 0 224 231 233 0 +-.013 0 .05 0 1 0 16 224 44 0 ?222 234 209 232 0 0 114 30
 233 242 0 186 232 235 0 +.0015 0 0 0 -1 0 16 186 212 0 ?182 236 237 233 0 0 114
 30 235 241 0 236 233 238 0 +-1131341397376176e-34 .003 0 1 377113799125393e-31
 0 16 236 207 0 ?239 178 186 235 0 0 114 30 238 240 0 178 235 240 0 +.013 -37585
6753128308e-32 0 289120579329468e-30 1 0 16 178 202 0 ?172 241 236 238 0 0 114 3
0 240 239 0 241 238 242 0 +0 -.003 0 1 0 0 16 241 197 0 ?176 219 178 240 0 0 114
 30 242 238 0 219 240 243 0 +0 .003 0 1 0 0 16 219 192 0 ?203 244 241 242 0 0 11
4 30 243 237 0 244 242 245 0 +-.0015 0 0 0 -1 0 16 244 186 0 ?199 246 219 243 0
 0 114 30 245 236 0 246 243 247 0 +0 -.003 0 1 0 0 16 246 181 0 ?180 248 244 245
 0 0 114 30 247 235 0 248 245 249 0 +-.013 0 0 0 1 0 16 248 176 0 ?250 251 246 2
47 0 0 114 30 249 303 0 220 247 252 0 +.015 -.005 .05 0 0 -1 16 220 255 0 ?253 2
54 202 249 0 0 114 30 252 304 0 254 249 255 0 +-.015 -.005 .05 0 0 -1 16 254 256
 0 ?256 156 220 252 0 0 114 30 255 305 0 156 252 157 0 +-.015 .005 .05 0 0 -1 16
 156 257 0 ?257 139 254 255 0 0 114 30 157 306 0 139 255 258 0 +.015 .005 .05 0
 0 -1 30 258 307 0 259 157 260 0 +-.013 .003 .05 0 0 -1 16 259 259 0 ?215 165 14
9 258 0 0 114 30 260 308 0 165 258 261 0 +-.013 -.003 .05 0 0 -1 16 165 260 0 ?1
64 205 259 260 0 0 114 30 261 309 0 205 260 221 0 +-.0015 -.003 .05 0 0 -1 16 20
5 261 0 ?204 202 165 261 0 0 114 30 221 310 0 202 261 262 0 +-.0015 .003 .05 0 0
 -1 30 262 311 0 234 221 263 0 +.0015 -.003 .05 0 0 -1 16 234 263 0 ?187 264 224
 262 0 0 114 30 263 312 0 264 262 150 0 +.013 -.003 .05 0 0 -1 16 264 264 0 ?265
 266 234 263 0 0 114 30 150 313 0 266 263 136 0 +.013 .003 .05 0 0 -1 16 266 265
 0 ?179 149 264 150 0 0 114 17 179 0 267 177 268 171 269 266 0 239 +16 149 266 0
 ?270 259 266 136 0 0 114 17 270 0 271 239 272 188 273 149 0 185 +15 271 287 0 2
39 274 0 17 239 0 271 269 270 171 175 236 0 0 +17 272 0 271 270 269 275 276 277
 0 0 -18 188 458 0 175 183 278 191 ?114 17 273 0 279 280 185 275 270 149 0 272 -
17 185 0 279 273 187 188 182 186 0 0 -15 279 289 0 185 147 0 17 187 0 279 185 28
0 173 281 234 0 282 +17 280 0 279 187 273 283 284 251 0 0 +17 281 0 285 227 282
 283 187 234 0 280 -17 282 0 285 281 265 173 176 241 0 0 -15 285 283 0 282 286 0
 17 265 0 285 282 227 183 287 264 0 177 +17 176 0 174 172 182 183 282 241 0 265
 +15 174 473 0 175 288 0 17 175 0 174 182 172 188 239 236 0 270 -14 255 288 471
 289 ?286 0 174 144 290 -291 291 286 0 292 81 1 289 855 293 288 294 0 295 296 29
7 14 286 284 296 ?298 288 285 144 299 +0 0 298 288 292 13 144 732 0 114 300 288
 0 0 146 0 50 290 507 0 291 301 302 0 +0 0 0 0 0 -1 -1 0 0 14 291 498 303 ?304 2
23 305 300 290 -288 288 304 223 306 13 292 733 0 0 0 0 0 0 153 288 19 153 734 0
 114 307 138 292 V0 19 307 728 0 114 146 153 306 V0 19 146 316 0 114 0 307 134 S
0 13 306 727 0 0 0 0 0 0 307 223 14 223 661 308 ?291 0 206 300 309 -310 310 291
 0 306 81 1 308 861 293 223 311 0 312 303 313 13 300 726 0 114 0 223 0 0 146 0 5
0 309 692 0 310 314 301 0 +0 0 .05 0 0 1 1 0 0 14 310 683 312 ?0 147 315 144 309
 -223 223 0 147 292 81 1 312 860 293 310 316 0 317 308 318 14 147 290 317 ?310 2
74 279 144 135 +0 0 310 274 292 15 315 685 0 284 310 0 17 284 0 315 276 319 275
 280 251 0 273 -17 276 0 315 192 284 320 272 277 0 269 +17 319 0 315 284 192 283
 227 225 0 281 -18 275 653 0 284 321 320 322 ?114 16 251 7 0 ?280 277 248 323 0
 0 114 16 277 13 0 ?276 228 251 324 0 0 114 30 323 9 0 251 325 324 0 +.0015 0 .0
5 0 -1 0 30 325 517 0 237 326 323 0 +.015 .005 -.003 1 0 0 30 324 15 0 277 323 2
30 0 +-1131341397376176e-34 .003 .05 1 377113799125393e-31 0 30 230 20 0 228 324
 229 0 +.013 -375856753128308e-32 .05 289120579329468e-30 1 0 16 228 18 0 ?268 2
25 277 230 0 0 114 17 268 0 267 179 287 320 192 228 0 0 +15 267 285 0 177 298 0
 17 287 0 267 268 177 181 265 264 0 227 -18 320 654 0 276 275 283 327 ?114 17 19
2 0 315 319 276 181 268 228 0 287 -18 283 642 0 319 320 216 328 ?114 29 327 707
 0 320 328 322 .013 .003 .05 29 328 709 0 283 329 327 .0015 -.003 .05 29 322 706
 0 275 327 330 .0015 .003 .05 29 330 536 0 321 322 331 .015 -.005 -.003 18 321 4
62 0 253 332 275 330 ?114 29 331 535 0 332 330 333 -.015 -.005 -.003 18 332 465
 0 256 334 321 331 ?114 29 333 534 0 334 331 335 -.015 .005 -.003 18 334 466 0 2
57 336 332 333 ?114 29 335 533 0 336 333 337 .015 .005 -.003 18 336 467 0 155 20
1 334 335 ?114 29 337 528 0 201 335 338 -.0015 .003 0 18 201 460 0 339 340 336 3
37 ?114 29 338 526 0 340 337 341 -.013 -.003 0 18 340 469 0 342 278 201 338 ?114
 29 341 525 0 278 338 191 -.013 .003 0 18 278 468 0 218 188 340 341 ?114 29 191
 524 0 188 341 189 .0015 .003 0 17 218 0 305 342 339 278 203 219 0 250 -15 305 5
00 0 218 291 0 17 342 0 305 180 218 340 250 248 0 164 -17 339 0 305 218 180 201
 199 244 0 195 -17 250 0 343 217 164 278 342 248 0 215 +15 343 275 0 250 304 0 1
7 217 0 343 166 250 216 215 259 0 222 -17 164 0 343 250 166 340 158 165 0 163 +1
7 215 0 212 203 213 278 217 259 0 0 +17 166 0 343 164 217 140 222 224 0 207 -17
 163 0 161 158 204 340 180 246 0 0 -15 161 277 0 163 344 0 17 204 0 161 163 162
 151 167 205 0 199 +17 180 0 305 339 342 151 163 246 0 204 +17 162 0 161 204 158
 159 207 209 0 196 +17 199 0 194 167 195 151 339 244 0 0 +17 207 0 206 222 196 1
40 162 209 0 0 -14 344 278 345 ?200 304 161 300 346 +0 0 200 304 306 81 1 345 86
4 293 344 347 0 348 349 350 14 200 280 349 ?214 344 194 300 351 -0 0 214 344 306
 14 304 276 348 ?344 291 343 300 352 -0 0 344 291 306 50 346 296 0 344 352 351 0
 +0 -.003 .05 0 1 0 0 0 1 50 352 295 0 304 353 346 0 +-.013 0 .05 -1 0 0 0 0 1 5
0 351 297 0 200 346 354 0 +-.0015 0 .05 1 0 0 0 0 -1 50 354 298 0 214 351 299 0
 +0 .003 .05 0 1 0 0 0 1 14 214 282 355 ?0 200 212 300 354 -0 0 0 200 306 50 299
 299 0 286 354 356 0 +0 -.003 .05 0 1 0 0 0 1 50 356 300 0 298 299 148 0 +.013 -
375856753128308e-32 .05 -1 289120579329468e-30 0 -289120579329468e-30 -1 0 14 29
8 286 357 ?274 286 267 144 356 +0 0 274 286 292 50 148 301 0 274 356 135 0 +-113
1341397376176e-34 .003 .05 -377113799125393e-31 1 0 -1 -377113799125393e-31 0 14
 274 288 358 ?147 298 271 144 148 -0 0 147 298 292 81 1 358 858 293 274 359 0 35
7 317 360 80 255 1 293 0 361 8001 0 0 0 0 3 5 0 0 0 FFFFTFTFFFFFFF2 81 1 359 827
 362 274 0 358 363 364 365 81 1 357 857 293 298 363 0 296 358 366 81 1 317 859 2
93 147 367 0 358 312 368 83 255 3 360 1 1 1 81 1 367 813 362 147 0 317 316 347 3
69 83 3 368 1 1 1 80 1 362 370 371 9000 1 1 1 1 1 1 1 1 0 FFFFTFTFFFFFFF1 81 1 3
16 811 362 310 0 312 311 367 372 81 1 347 816 362 344 0 345 367 373 374 82 255 1
 369 203161905 81 1 373 818 362 200 0 349 347 375 376 82 1 374 201785649 81 1 34
9 865 293 200 373 0 345 355 377 81 1 375 821 362 304 0 348 373 378 379 82 1 376
 201982257 81 1 348 863 293 304 375 0 303 345 380 81 1 378 823 362 214 0 355 375
 363 381 82 1 379 201523505 81 1 355 866 293 214 378 0 349 0 382 81 1 363 825 36
2 298 0 357 378 359 383 82 1 381 202309937 82 1 383 202703153 83 3 382 1 1 1 81
 1 303 862 293 291 384 0 308 348 385 83 3 380 1 1 1 81 1 384 807 362 291 0 303 3
86 311 387 83 3 385 1 1 1 81 1 386 805 362 286 0 296 294 384 388 81 1 311 809 36
2 223 0 308 384 316 389 82 1 387 1336541486 82 1 389 1852047665 81 1 296 856 293
 286 386 0 289 357 390 81 1 294 803 362 288 0 289 0 386 391 82 1 388 202572081 8
2 1 391 1344405806 83 3 390 1 1 1 83 3 377 1 1 1 82 1 372 1845756209 79 255 14 3
71 SWEntUnchanged83 3 366 1 1 1 81 1 364 829 362 392 0 393 359 394 395 82 1 365
 202834225 14 392 270 393 ?396 397 398 134 399 +0 0 396 397 154 81 1 393 851 293
 392 364 0 400 401 402 81 1 394 833 362 397 0 400 364 403 404 82 1 395 200868145
 14 397 272 400 ?392 145 405 134 406 +0 0 392 145 154 81 1 400 850 293 397 394 0
 407 393 408 81 1 403 837 362 145 0 407 394 409 410 82 1 404 201064753 14 145 27
4 407 ?397 0 411 134 353 -0 0 397 0 154 81 1 407 849 293 145 403 0 0 400 412 81
 1 409 841 362 396 0 401 403 413 414 82 1 410 201195825 14 396 268 401 ?415 392
 416 134 302 -0 0 415 392 154 81 1 401 852 293 396 409 0 393 417 418 81 1 413 84
5 362 419 0 295 409 420 421 82 1 414 200606001 14 419 680 295 ?0 415 422 134 314
 +0 0 0 415 154 81 1 295 854 293 419 413 0 417 289 423 81 1 420 847 362 415 0 41
7 413 0 424 82 1 421 1840120113 14 415 495 417 ?419 396 425 134 301 +0 0 419 396
 154 81 1 417 853 293 415 420 0 401 295 426 82 1 424 1330905390 83 3 426 1 1 1 1
5 425 497 0 427 415 0 50 301 508 0 415 309 290 0 +0 0 -.003 0 0 -1 -1 0 0 13 154
 112 0 0 0 0 0 0 138 145 17 427 0 425 428 429 321 430 431 0 0 +17 428 0 425 432
 427 332 433 434 0 435 +17 429 0 425 427 432 336 436 237 0 430 +17 430 0 411 437
 253 336 427 431 0 0 -16 431 442 0 ?427 434 438 439 0 0 114 16 434 445 0 ?428 44
0 431 441 0 0 114 16 438 636 0 ?442 431 443 444 0 0 114 30 439 520 0 431 444 441
 0 +.015 .005 -.003 0 -1 0 30 444 702 0 438 445 439 0 +-.015 .005 .053 -1 0 0 30
 441 519 0 434 439 326 0 +.015 -.005 -.003 -1 0 0 30 326 518 0 440 441 325 0 +-.
015 .005 -.003 0 1 0 16 440 448 0 ?432 237 434 326 0 0 114 17 432 0 425 429 428
 334 435 440 0 436 +16 237 451 0 ?429 186 440 325 0 0 114 17 435 0 398 446 257 3
32 432 440 0 0 -17 436 0 405 447 155 334 429 237 0 0 -15 405 271 0 155 397 0 17
 447 0 405 448 436 449 257 156 0 442 -17 155 0 405 436 448 336 437 139 0 429 +17
 448 0 405 155 447 450 442 438 0 0 -17 437 0 411 451 430 450 155 139 0 452 -15 4
11 273 0 253 145 0 17 451 0 411 253 437 453 452 443 0 0 -18 450 651 0 437 449 45
3 454 ?114 17 452 0 422 442 455 450 451 443 0 448 +15 422 682 0 456 419 0 17 442
 0 422 456 452 449 448 438 0 457 +17 455 0 422 452 456 453 458 459 0 451 +16 443
 633 0 ?452 438 459 445 0 0 114 16 459 630 0 ?455 443 460 461 0 0 114 30 445 703
 0 443 461 444 0 +.015 .005 .053 0 1 0 30 461 704 0 459 462 445 0 +-.015 -.005 .
053 1 0 0 30 462 705 0 460 0 461 0 +-.015 .005 .053 0 -1 0 16 460 627 0 ?456 459
 0 462 0 0 114 17 456 0 422 455 442 463 457 460 0 0 +18 463 647 0 446 453 0 464
 ?114 17 457 0 398 257 446 449 456 460 0 0 -15 398 269 0 257 392 0 17 257 0 398
 435 457 334 447 156 0 432 +17 446 0 398 457 435 463 256 254 0 458 -18 449 652 0
 447 216 450 465 ?114 18 216 640 0 213 283 449 329 ?114 29 465 718 0 449 454 329
 -.015 .005 .053 29 454 719 0 450 466 465 .015 .005 .053 29 329 712 0 216 465 32
8 -.013 .003 .05 29 466 720 0 453 464 454 .015 -.005 .053 18 453 650 0 467 450 4
63 466 ?114 29 464 721 0 463 0 466 -.015 -.005 .053 17 467 0 416 458 433 453 253
 220 0 455 -15 416 267 0 256 396 0 17 458 0 416 256 467 463 455 459 0 456 -17 43
3 0 416 467 256 321 428 434 0 427 -17 253 0 411 430 451 321 467 220 0 433 +17 25
6 0 416 433 458 332 446 254 0 428 +83 3 423 1 1 1 50 314 693 0 419 0 309 0 +0 0
 .053 0 0 1 1 0 0 83 3 418 1 1 1 50 302 291 0 396 290 399 0 +0 -.005 .05 0 1 0 0
 0 1 50 399 292 0 392 302 406 0 +-.015 0 .05 -1 0 0 0 0 1 50 406 293 0 397 399 3
53 0 +0 .005 .05 0 1 0 0 0 1 50 353 294 0 145 406 352 0 +.015 0 .05 -1 0 0 0 0 1
 83 3 412 1 1 1 83 3 408 1 1 1 83 3 402 1 1 1 79 15 361 SDL/TYSA_COLOUR83 3 350
 1 1 1 17 177 0 267 287 179 183 172 178 0 0 -17 227 0 285 265 281 181 319 225 0
 0 +17 269 0 271 272 239 320 179 266 0 268 -83 3 318 1 1 1 83 3 313 1 1 1 83 3 2
97 1 1 1 74 4 CI16 index_map_offset0 0 1 dCCZ20 143 4 0 0 420 141 355 131 0 0 0
 0 0 0 0 0 0 0 0 0 0 0 0 0 81 2 141 779 468 114 0 131 0 0 469 0 80 2 468 470 471
 8004 0 0 0 0 3 5 0 0 0 FFTFFFFFFFFFFF2 3 83 1 469 1e3 79 16 471 SDL/TYSA_DENSIT
Y80 1 5 472 473 8017 0 0 0 0 0 0 0 0 0 TTTTTTTTTTTTTF3 84 255 4 142 ²åÍ·79 13 47
3 SDL/TYSA_NAME81 1 112 910 5 104 0 0 0 0 474 70 113 0 4 T104 0 0 3 20 1 475 475
 13 115 883 0 104 0 476 0 0 477 0 50 116 335 0 476 478 0 0 +-.0114637307690632 -
.00671492943372793 .013 0 0 1 1 0 0 31 255 117 344 0 119 479 0 0 +-.011463730769
0632 -.00671492943372793 .013 0 0 1 1 0 0 .0028 19 118 885 0 104 477 0 480 V0 16
 119 342 0 ?481 0 482 117 0 0 104 17 481 0 483 481 481 0 484 119 0 0 +16 482 675
 0 ?485 119 0 479 0 0 104 17 485 0 486 485 485 0 487 482 0 0 +31 479 795 0 482 0
 117 0 +-.0114637307690632 -.00671492943372793 .01 0 0 1 1 0 0 .0028 15 486 332
 0 485 488 0 17 487 0 489 487 487 0 485 482 0 0 -15 489 726 0 487 490 0 14 490 7
23 491 ?0 488 489 115 492 -0 0 0 488 480 81 1 491 909 293 490 493 0 494 0 495 14
 488 327 494 ?490 476 496 115 478 -0 0 490 476 480 50 492 789 0 490 0 478 0 +-.0
245125871846065 -.0178706086443344 .01 0 0 1 1 0 0 13 480 884 0 0 0 0 0 0 118 47
6 14 476 333 497 ?488 0 483 115 116 +0 0 488 0 480 81 1 497 907 293 476 498 0 0
 494 499 15 483 337 0 481 476 0 81 1 498 905 362 476 0 497 500 0 501 81 1 494 90
8 293 488 500 0 497 491 502 83 3 499 .792156862745098 .819607843137255 .93333333
3333333 81 1 500 903 362 488 0 494 493 498 503 83 3 502 .792156862745098 .819607
843137255 .933333333333333 81 1 493 901 362 490 0 491 0 500 504 82 1 503 -784269
020 82 1 504 -701103831 82 1 501 -783810268 51 255 478 329 0 488 492 116 0 --.01
14637307690632 -.00671492943372793 .013 0 0 -1 .0028 -1 0 0 15 496 331 0 484 488
 486 17 484 0 496 484 484 0 481 119 0 0 -83 3 495 .792156862745098 .819607843137
255 .933333333333333 19 477 100 0 104 0 118 115 S0 74 20 475 3 0 0 498 491 112 0
 0 0 0 0 0 0 0 0 0 0 0 0 0 0 0 0 84 16 474 sensor cyli bump81 1 102 50 5 93 0 0
 0 0 505 70 103 0 4 T93 0 0 3 20 1 506 506 13 105 8 0 93 0 507 0 0 508 0 50 106
 26 0 509 510 0 0 +-.0245125871846065 -.0178706086443344 .01 0 0 1 1 0 0 31 107
 25 0 109 511 0 0 +-.0184637307690632 -.00671492943372793 .01 0 0 1 1 0 0 .0028
 19 108 6 0 93 508 0 512 V0 16 109 10 0 ?513 0 514 107 0 0 93 17 513 0 515 513 5
13 0 516 109 0 0 +16 514 9 0 ?517 109 0 511 0 0 93 17 517 0 518 517 517 0 519 51
4 0 0 +31 511 24 0 514 0 107 0 +-.0184637307690632 -.00671492943372793 .013 0 0
 1 1 0 0 .0028 15 518 13 0 517 507 0 17 519 0 520 519 519 0 517 514 0 0 -15 520
 16 0 519 521 515 14 521 14 522 ?509 507 520 105 510 -0 0 509 507 512 15 515 17
 0 513 521 0 81 1 522 48 293 521 523 0 524 525 526 14 509 18 525 ?0 521 527 105
 106 -0 0 0 521 512 14 507 11 524 ?521 0 518 105 528 +0 0 521 0 512 51 510 23 0
 521 528 106 0 --.0184637307690632 -.00671492943372793 .013 0 0 -1 .0028 -1 0 0
 13 512 7 0 0 0 0 0 0 108 507 50 528 22 0 507 0 510 0 +-.0184637307690632 -.0067
1492943372793 .013 0 0 1 1 0 0 81 1 524 47 293 507 529 0 0 522 530 81 1 529 45 3
62 507 0 524 531 0 532 83 3 530 .792156862745098 .819607843137255 .9333333333333
33 81 1 531 43 362 509 0 525 523 529 533 82 1 532 -785317591 81 1 525 49 293 509
 531 0 522 0 534 81 1 523 41 362 521 0 522 0 531 535 82 1 533 -701693655 82 1 53
5 -785776343 83 3 534 .792156862745098 .819607843137255 .933333333333333 15 527
 21 0 516 509 0 17 516 0 527 516 516 0 513 109 0 0 -83 3 526 .792156862745098 .8
19607843137255 .933333333333333 19 508 1 0 93 0 108 105 S0 74 20 506 3 0 0 529 5
25 102 0 0 0 0 0 0 0 0 0 0 0 0 0 0 0 0 0 84 16 505 sensor cyli bump81 1 91 50 5
 82 0 0 0 0 536 70 92 0 4 T82 0 0 3 20 1 537 537 13 94 8 0 82 0 538 0 0 539 0 50
 95 26 0 540 541 0 0 +-.0245125871846065 -.0178706086443344 .01 0 0 1 1 0 0 31 9
6 25 0 98 542 0 0 +-.004463730769063195 .000285070566272073 .01 0 0 1 1 0 0 .002
8 19 97 6 0 82 539 0 543 V0 16 98 10 0 ?544 0 545 96 0 0 82 17 544 0 546 544 544
 0 547 98 0 0 +16 545 9 0 ?548 98 0 542 0 0 82 17 548 0 549 548 548 0 550 545 0
 0 +31 542 24 0 545 0 96 0 +-.004463730769063195 .000285070566272073 .013 0 0 1
 1 0 0 .0028 15 549 13 0 548 538 0 17 550 0 551 550 550 0 548 545 0 0 -15 551 16
 0 550 552 546 14 552 14 553 ?540 538 551 94 541 -0 0 540 538 543 15 546 17 0 54
4 552 0 81 1 553 48 293 552 554 0 555 556 557 14 540 18 556 ?0 552 558 94 95 -0
 0 0 552 543 14 538 11 555 ?552 0 549 94 559 +0 0 552 0 543 51 541 23 0 552 559
 95 0 --.004463730769063195 .000285070566272073 .013 0 0 -1 .0028 -1 0 0 13 543
 7 0 0 0 0 0 0 97 538 50 559 22 0 538 0 541 0 +-.004463730769063195 .00028507056
6272073 .013 0 0 1 1 0 0 81 1 555 47 293 538 560 0 0 553 561 81 1 560 45 362 538
 0 555 562 0 563 83 3 561 .792156862745098 .819607843137255 .933333333333333 81
 1 562 43 362 540 0 556 554 560 564 82 1 563 -786824919 81 1 556 49 293 540 562
 0 553 0 565 81 1 554 41 362 552 0 553 0 562 566 82 1 564 -702283479 82 1 566 -7
87283671 83 3 565 .792156862745098 .819607843137255 .933333333333333 15 558 21 0
 547 540 0 17 547 0 558 547 547 0 544 98 0 0 -83 3 557 .792156862745098 .8196078
43137255 .933333333333333 19 539 1 0 82 0 97 94 S0 74 20 537 3 0 0 560 556 91 0
 0 0 0 0 0 0 0 0 0 0 0 0 0 0 0 0 84 16 536 sensor cyli bump81 1 80 51 5 71 0 0 0
 0 567 70 81 0 4 T71 0 0 3 20 1 568 568 13 83 8 0 71 0 569 0 0 570 0 50 84 26 0
 571 572 0 0 +-.0245125871846065 -.0178706086443344 .01 0 0 1 1 0 0 31 85 25 0 8
7 573 0 0 +-.0114637307690632 .000285070566272073 .01 0 0 1 1 0 0 .0028 19 86 6
 0 71 570 0 574 V0 16 87 10 0 ?575 0 576 85 0 0 71 17 575 0 577 575 575 0 578 87
 0 0 +16 576 9 0 ?579 87 0 573 0 0 71 17 579 0 580 579 579 0 581 576 0 0 +31 573
 24 0 576 0 85 0 +-.0114637307690632 .000285070566272073 .013 0 0 1 1 0 0 .0028
 15 580 13 0 579 569 0 17 581 0 582 581 581 0 579 576 0 0 -15 582 16 0 581 583 5
77 14 583 14 584 ?571 569 582 83 572 -0 0 571 569 574 15 577 17 0 575 583 0 81 1
 584 49 293 583 585 0 586 587 588 14 571 18 587 ?0 583 589 83 84 -0 0 0 583 574
 14 569 11 586 ?583 0 580 83 590 +0 0 583 0 574 51 572 23 0 583 590 84 0 --.0114
637307690632 .000285070566272073 .013 0 0 -1 .0028 -1 0 0 13 574 7 0 0 0 0 0 0 8
6 569 50 590 22 0 569 0 572 0 +-.0114637307690632 .000285070566272073 .013 0 0 1
 1 0 0 81 1 586 48 293 569 591 0 0 584 592 81 1 591 46 362 569 0 586 593 0 594 8
3 3 592 .792156862745098 .819607843137255 .933333333333333 81 1 593 44 362 571 0
 587 585 591 595 82 1 594 -788332247 81 1 587 50 293 571 593 0 584 0 596 81 1 58
5 42 362 583 0 584 0 593 597 82 1 595 -702873303 82 1 597 -788790999 83 3 596 .7
92156862745098 .819607843137255 .933333333333333 15 589 21 0 578 571 0 17 578 0
 589 578 578 0 575 87 0 0 -83 3 588 .792156862745098 .819607843137255 .933333333
333333 19 570 1 0 71 0 86 83 S0 74 20 568 3 0 0 591 587 80 0 0 0 0 0 0 0 0 0 0 0
 0 0 0 0 0 0 84 16 567 sensor cyli bump81 1 69 50 5 60 0 0 0 0 598 70 70 0 4 T60
 0 0 3 20 1 599 599 13 72 8 0 60 0 600 0 0 601 0 50 73 26 0 602 603 0 0 +-.02451
25871846065 -.0178706086443344 .01 0 0 1 1 0 0 31 74 25 0 76 604 0 0 +-.01846373
07690632 .000285070566272073 .01 0 0 1 1 0 0 .0028 19 75 6 0 60 601 0 605 V0 16
 76 10 0 ?606 0 607 74 0 0 60 17 606 0 608 606 606 0 609 76 0 0 +16 607 9 0 ?610
 76 0 604 0 0 60 17 610 0 611 610 610 0 612 607 0 0 +31 604 24 0 607 0 74 0 +-.0
184637307690632 .000285070566272073 .013 0 0 1 1 0 0 .0028 15 611 13 0 610 600 0
 17 612 0 613 612 612 0 610 607 0 0 -15 613 16 0 612 614 608 14 614 14 615 ?602
 600 613 72 603 -0 0 602 600 605 15 608 17 0 606 614 0 81 1 615 48 293 614 616 0
 617 618 619 14 602 18 618 ?0 614 620 72 73 -0 0 0 614 605 14 600 11 617 ?614 0
 611 72 621 +0 0 614 0 605 51 603 23 0 614 621 73 0 --.0184637307690632 .0002850
70566272073 .013 0 0 -1 .0028 -1 0 0 13 605 7 0 0 0 0 0 0 75 600 50 621 22 0 600
 0 603 0 +-.0184637307690632 .000285070566272073 .013 0 0 1 1 0 0 81 1 617 47 29
3 600 622 0 0 615 623 81 1 622 45 362 600 0 617 624 0 625 83 3 623 .792156862745
098 .819607843137255 .933333333333333 81 1 624 43 362 602 0 618 616 622 626 82 1
 625 -789839575 81 1 618 49 293 602 624 0 615 0 627 81 1 616 41 362 614 0 615 0
 624 628 82 1 626 -703463127 82 1 628 -790298327 83 3 627 .792156862745098 .8196
07843137255 .933333333333333 15 620 21 0 609 602 0 17 609 0 620 609 609 0 606 76
 0 0 -83 3 619 .792156862745098 .819607843137255 .933333333333333 19 601 1 0 60
 0 75 72 S0 74 20 599 3 0 0 622 618 69 0 0 0 0 0 0 0 0 0 0 0 0 0 0 0 0 0 84 16 5
98 sensor cyli bump81 1 58 50 5 49 0 0 0 0 629 70 59 0 4 T49 0 0 3 20 1 630 630
 13 61 8 0 49 0 631 0 0 632 0 50 62 26 0 633 634 0 0 +-.0245125871846065 -.01787
06086443344 .01 0 0 1 1 0 0 31 63 25 0 65 635 0 0 +-.004463730769063195 .0072850
7056627207 .01 0 0 1 1 0 0 .0028 19 64 6 0 49 632 0 636 V0 16 65 10 0 ?637 0 638
 63 0 0 49 17 637 0 639 637 637 0 640 65 0 0 +16 638 9 0 ?641 65 0 635 0 0 49 17
 641 0 642 641 641 0 643 638 0 0 +31 635 24 0 638 0 63 0 +-.004463730769063195 .
00728507056627207 .013 0 0 1 1 0 0 .0028 15 642 13 0 641 631 0 17 643 0 644 643
 643 0 641 638 0 0 -15 644 16 0 643 645 639 14 645 14 646 ?633 631 644 61 634 -0
 0 633 631 636 15 639 17 0 637 645 0 81 1 646 48 293 645 647 0 648 649 650 14 63
3 18 649 ?0 645 651 61 62 -0 0 0 645 636 14 631 11 648 ?645 0 642 61 652 +0 0 64
5 0 636 51 634 23 0 645 652 62 0 --.004463730769063195 .00728507056627207 .013 0
 0 -1 .0028 -1 0 0 13 636 7 0 0 0 0 0 0 64 631 50 652 22 0 631 0 634 0 +-.004463
730769063195 .00728507056627207 .013 0 0 1 1 0 0 81 1 648 47 293 631 653 0 0 646
 654 81 1 653 45 362 631 0 648 655 0 656 83 3 654 .792156862745098 .819607843137
255 .933333333333333 81 1 655 43 362 633 0 649 647 653 657 82 1 656 -791346903 8
1 1 649 49 293 633 655 0 646 0 658 81 1 647 41 362 645 0 646 0 655 659 82 1 657
 -704052951 82 1 659 -791805655 83 3 658 .792156862745098 .819607843137255 .9333
33333333333 15 651 21 0 640 633 0 17 640 0 651 640 640 0 637 65 0 0 -83 3 650 .7
92156862745098 .819607843137255 .933333333333333 19 632 1 0 49 0 64 61 S0 74 20
 630 3 0 0 653 649 58 0 0 0 0 0 0 0 0 0 0 0 0 0 0 0 0 0 84 16 629 sensor cyli bu
mp81 1 47 50 5 38 0 0 0 0 660 70 48 0 4 T38 0 0 3 20 1 661 661 13 50 8 0 38 0 66
2 0 0 663 0 50 51 26 0 664 665 0 0 +-.0245125871846065 -.0178706086443344 .01 0
 0 1 1 0 0 31 52 25 0 54 666 0 0 +-.0184637307690632 .00728507056627207 .01 0 0
 1 1 0 0 .0028 19 53 6 0 38 663 0 667 V0 16 54 10 0 ?668 0 669 52 0 0 38 17 668
 0 670 668 668 0 671 54 0 0 +16 669 9 0 ?672 54 0 666 0 0 38 17 672 0 673 672 67
2 0 674 669 0 0 +31 666 24 0 669 0 52 0 +-.0184637307690632 .00728507056627207 .
013 0 0 1 1 0 0 .0028 15 673 13 0 672 662 0 17 674 0 675 674 674 0 672 669 0 0 -
15 675 16 0 674 676 670 14 676 14 677 ?664 662 675 50 678 -0 0 664 662 667 15 67
0 17 0 668 676 0 81 1 677 48 293 676 679 0 680 681 682 14 664 18 681 ?0 676 683
 50 51 -0 0 0 676 667 14 662 11 680 ?676 0 673 50 665 +0 0 676 0 667 51 678 22 0
 676 0 665 0 --.0184637307690632 .00728507056627207 .013 0 0 -1 .0028 -1 0 0 13
 667 7 0 0 0 0 0 0 53 662 50 665 23 0 662 678 51 0 +-.0184637307690632 .00728507
056627207 .013 0 0 1 1 0 0 81 1 680 47 293 662 684 0 0 677 685 81 1 684 45 362 6
62 0 680 686 0 687 83 3 685 .792156862745098 .819607843137255 .933333333333333 8
1 1 686 43 362 664 0 681 679 684 688 82 1 687 140771625 81 1 681 49 293 664 686
 0 677 0 689 81 1 679 41 362 676 0 677 0 686 690 82 1 688 -704642775 82 1 690 14
0509481 83 3 689 .792156862745098 .819607843137255 .933333333333333 15 683 21 0
 671 664 0 17 671 0 683 671 671 0 668 54 0 0 -83 3 682 .792156862745098 .8196078
43137255 .933333333333333 19 663 1 0 38 0 53 50 S0 74 20 661 3 0 0 684 681 47 0
 0 0 0 0 0 0 0 0 0 0 0 0 0 0 0 0 84 16 660 sensor cyli bump81 1 36 50 5 27 0 0 0
 0 691 70 37 0 4 T27 0 0 3 20 1 692 692 13 39 8 0 27 0 693 0 0 694 0 50 40 26 0
 695 696 0 0 +-.0245125871846065 -.0178706086443344 .01 0 0 1 1 0 0 31 41 25 0 4
3 697 0 0 +-.0114637307690632 .00728507056627207 .01 0 0 1 1 0 0 .0028 19 42 6 0
 27 694 0 698 V0 16 43 10 0 ?699 0 700 41 0 0 27 17 699 0 701 699 699 0 702 43 0
 0 +16 700 9 0 ?703 43 0 697 0 0 27 17 703 0 704 703 703 0 705 700 0 0 +31 697 2
4 0 700 0 41 0 +-.0114637307690632 .00728507056627207 .013 0 0 1 1 0 0 .0028 15
 704 13 0 703 693 0 17 705 0 706 705 705 0 703 700 0 0 -15 706 16 0 705 707 701
 14 707 14 708 ?695 693 706 39 709 -0 0 695 693 698 15 701 17 0 699 707 0 81 1 7
08 48 293 707 710 0 711 712 713 14 695 18 712 ?0 707 714 39 40 -0 0 0 707 698 14
 693 11 711 ?707 0 704 39 696 +0 0 707 0 698 51 709 22 0 707 0 696 0 --.01146373
07690632 .00728507056627207 .013 0 0 -1 .0028 -1 0 0 13 698 7 0 0 0 0 0 0 42 693
 50 696 23 0 693 709 40 0 +-.0114637307690632 .00728507056627207 .013 0 0 1 1 0
 0 81 1 711 47 293 693 715 0 0 708 716 81 1 715 45 362 693 0 711 717 0 718 83 3
 716 .792156862745098 .819607843137255 .933333333333333 81 1 717 43 362 695 0 71
2 710 715 719 82 1 718 -793706199 81 1 712 49 293 695 717 0 708 0 720 81 1 710 4
1 362 707 0 708 0 717 721 82 1 719 -705232599 82 1 721 -793902807 83 3 720 .7921
56862745098 .819607843137255 .933333333333333 15 714 21 0 702 695 0 17 702 0 714
 702 702 0 699 43 0 0 -83 3 713 .792156862745098 .819607843137255 .9333333333333
33 19 694 1 0 27 0 42 39 S0 74 20 692 3 0 0 715 712 36 0 0 0 0 0 0 0 0 0 0 0 0 0
 0 0 0 0 84 16 691 sensor cyli bump81 1 25 57 5 12 0 0 0 0 722 70 26 0 4 T12 0 0
 3 20 1 723 723 13 28 8 0 12 0 724 0 0 725 0 50 29 33 0 726 727 0 0 +-.024512587
1846065 -.0178706086443344 .01 0 0 1 1 0 0 31 30 25 0 32 728 0 0 +-.004463730769
063195 -.00671492943372793 .01 0 0 1 1 0 0 .0028 19 31 6 0 12 725 0 729 V0 16 32
 10 0 ?730 0 731 30 0 0 12 17 730 0 732 730 730 0 733 32 0 0 +16 731 9 0 ?734 32
 0 728 0 0 12 17 734 0 735 734 734 0 736 731 0 0 +31 728 24 0 731 0 30 0 +-.0044
63730769063195 -.00671492943372793 .013 0 0 1 1 0 0 .0028 15 735 13 0 734 724 0
 17 736 0 737 736 736 0 734 731 0 0 -15 737 16 0 736 738 732 14 738 14 739 ?726
 724 737 28 727 -0 0 726 724 729 15 732 17 0 730 738 0 81 1 739 55 293 738 740 0
 741 742 743 14 726 18 742 ?0 738 744 28 29 -0 0 0 738 729 14 724 11 741 ?738 0
 735 28 745 +0 0 738 0 729 51 727 23 0 738 745 29 0 --.004463730769063195 -.0067
1492943372793 .013 0 0 -1 .0028 -1 0 0 13 729 7 0 0 0 0 0 0 31 724 50 745 22 0 7
24 0 727 0 +-.004463730769063195 -.00671492943372793 .013 0 0 1 1 0 0 81 1 741 5
4 293 724 746 0 0 739 747 81 1 746 52 362 724 0 741 748 0 749 83 3 747 .79215686
2745098 .819607843137255 .933333333333333 81 1 748 50 362 726 0 742 740 746 750
 82 1 749 -782302935 81 1 742 56 293 726 748 0 739 0 751 81 1 740 48 362 738 0 7
39 0 748 752 82 1 750 -700514007 82 1 752 -782761687 83 3 751 .792156862745098 .
819607843137255 .933333333333333 15 744 21 0 733 726 0 17 733 0 744 733 733 0 73
0 32 0 0 -83 3 743 .792156862745098 .819607843137255 .933333333333333 19 725 1 0
 12 0 31 28 S0 74 20 723 3 0 0 746 742 25 0 0 0 0 0 0 0 0 0 0 0 0 0 0 0 0 0 84 1
6 722 sensor cyli bump81 1 10 1316 5 7 753 0 0 0 754 70 11 0 4 T7 0 0 4 20 1 755
 755 13 13 99 0 7 0 756 0 0 757 0 50 14 94 0 756 758 0 0 +-.0245125871846065 .01
21293913556656 .01 1 0 0 0 0 -1 30 15 95 0 18 759 0 0 +-.0245125871846065 .01212
93913556656 .01 0 0 -1 29 16 872 0 19 760 0 -.000937210749999265 .01212939135566
56 0 19 17 33 0 7 757 0 761 V0 16 18 79 0 ?762 0 763 15 0 0 7 18 19 870 0 764 0
 765 16 ?7 17 764 0 766 767 768 19 769 770 0 771 -18 765 30 0 772 19 773 774 ?7
 17 772 0 775 776 777 765 778 763 0 779 +18 773 66 0 780 765 781 760 ?7 29 774 3
2 0 765 782 760 -.0245125871846065 .0121293913556656 .01 29 782 955 0 781 783 77
4 -.000937210749999265 .0121293913556656 .01 29 760 75 0 773 774 16 -.0245125871
846065 .0121293913556656 0 18 781 918 0 767 773 784 782 ?7 29 783 956 0 784 785
 782 -.0245125871846065 -.01204510704992236 .01 18 784 917 0 786 781 787 783 ?7
 29 785 957 0 787 788 783 -.000937210749999265 -.01204510704992236 .01 18 787 91
6 0 789 784 790 785 ?7 29 788 959 0 790 791 785 -.0245125871846065 -.01204510704
992236 0 18 790 920 0 792 787 793 788 ?7 29 791 960 0 793 0 788 -.00093721074999
9265 -.01204510704992236 0 18 793 919 0 794 790 0 791 ?7 17 794 0 795 796 792 79
3 797 798 0 768 -15 795 929 0 796 799 0 17 796 0 795 786 794 787 768 800 0 801 -
17 792 0 795 794 786 790 802 803 0 797 +17 797 0 804 805 769 790 794 798 0 806 +
16 798 911 0 ?797 807 770 808 0 0 7 17 768 0 766 764 789 793 796 800 0 769 +15 7
66 932 0 767 809 0 17 789 0 766 768 767 787 777 810 0 796 +16 800 909 0 ?768 811
 803 812 0 0 7 17 769 0 804 797 813 793 764 770 0 0 +15 804 49 0 813 814 0 17 81
3 0 804 769 805 19 780 815 0 0 -16 770 910 0 ?769 798 0 816 0 0 7 30 816 950 0 7
70 817 808 0 +-.000937210749999265 .0121293913556656 0 0 -1 0 30 817 951 0 810 0
 816 0 +-.000937210749999265 .0121293913556656 .01 0 -1 0 30 808 949 0 798 816 8
18 0 +-.000937210749999265 -.01204510704992236 0 -1 0 0 30 818 948 0 807 808 819
 0 +-.000937210749999265 .0121293913556656 .0847345573672973 0 0 -1 16 807 905 0
 ?771 803 798 818 0 0 7 30 819 947 0 803 818 812 0 +-.0245125871846065 -.0120451
0704992236 .0847345573672973 0 0 -1 16 803 907 0 ?792 800 807 819 0 0 7 30 812 9
46 0 800 819 820 0 +-.000937210749999265 -.01204510704992236 .0847345573672973 0
 0 -1 30 820 945 0 811 812 821 0 +-.000937210749999265 -.01204510704992236 .01 -
1 0 0 16 811 906 0 ?786 810 800 820 0 0 7 30 821 7 0 822 820 823 0 +-.0245125871
846065 .0121293913556656 .01 0 -1 0 16 822 5 0 ?776 763 815 821 0 0 7 30 823 19
 0 763 821 824 0 +-.0245125871846065 .0121293913556656 .01 -1 0 0 16 763 874 0 ?
772 18 822 823 0 0 7 30 824 74 0 825 823 759 0 +-.0245125871846065 .012129391355
6656 0 0 -1 0 16 825 62 0 ?806 815 810 824 0 0 7 30 759 71 0 815 824 15 0 +-.024
5125871846065 .0121293913556656 0 -1 0 0 16 815 871 0 ?780 822 825 759 0 0 7 17
 780 0 826 779 771 773 813 815 0 762 +15 826 83 0 778 827 0 17 779 0 826 778 780
 765 762 18 0 828 -17 771 0 826 780 778 19 767 807 0 813 +17 762 0 829 806 828 7
73 779 18 0 805 +15 829 887 0 802 756 0 17 806 0 829 802 762 790 805 825 0 0 +17
 828 0 829 762 802 765 776 822 0 0 -17 805 0 804 813 797 773 806 825 0 0 -17 802
 0 829 828 806 784 792 803 0 776 -17 776 0 775 801 772 784 828 822 0 0 +15 775 8
94 0 801 830 0 17 801 0 775 777 776 787 786 811 0 0 -17 777 0 775 772 801 781 78
9 810 0 778 -17 786 0 795 792 796 784 801 811 0 802 +16 810 908 0 ?789 825 811 8
17 0 0 7 17 778 0 826 771 779 781 772 763 0 0 -14 830 144 831 ?0 809 775 13 832
 +0 0 0 809 761 81 1 831 1315 293 830 833 0 834 0 835 14 809 930 834 ?830 799 76
6 13 836 +0 0 830 799 761 50 832 3 0 830 836 837 0 +0 0 .01 0 0 1 1 0 0 13 761 3
4 0 0 0 0 0 0 17 756 14 756 888 838 ?827 0 829 13 14 -0 0 827 0 761 81 1 838 131
0 293 756 839 0 0 840 841 14 827 84 840 ?814 756 826 13 758 -0 0 814 756 761 81
 1 840 1311 293 827 842 0 838 843 844 14 814 48 843 ?799 827 804 13 837 -0 0 799
 827 761 50 758 91 0 827 837 14 0 +-.0245125871846065 .0121293913556656 .01 0 -1
 0 0 0 -1 50 837 70 0 814 832 758 0 +0 0 0 0 0 1 1 0 0 81 1 843 1312 293 814 845
 0 840 846 847 14 799 927 846 ?809 814 795 13 848 +0 0 809 814 761 81 1 846 1313
 293 799 849 0 843 834 850 50 848 940 0 799 0 836 0 +-.000937210749999265 -.0120
4510704992236 .0847345573672973 0 -1 0 0 0 -1 50 836 939 0 809 848 832 0 +-.0009
37210749999265 .0121293913556656 .0847345573672973 1 0 0 0 0 -1 81 1 849 1308 36
2 799 0 846 845 0 851 81 1 834 1314 293 809 852 0 846 831 853 83 3 850 .79215686
2745098 .819607843137255 .933333333333333 81 1 852 1300 362 809 0 834 833 839 85
4 83 3 853 .792156862745098 .819607843137255 .933333333333333 81 1 833 1297 362
 830 0 831 0 852 855 81 1 839 1302 362 756 0 838 852 842 856 82 1 854 -161434805
9 81 1 842 1304 362 827 0 840 839 845 857 82 1 856 -1559953179 81 1 845 1306 362
 814 0 843 842 849 858 82 1 857 -663682843 82 1 858 -664600347 82 1 855 -6303905
47 82 1 851 -1615986459 83 3 847 .792156862745098 .819607843137255 .933333333333
333 83 3 844 .792156862745098 .819607843137255 .933333333333333 83 3 841 .792156
862745098 .819607843137255 .933333333333333 83 3 835 .792156862745098 .819607843
137255 .933333333333333 17 767 0 766 789 764 781 771 807 0 777 -19 757 100 0 7 0
 17 13 S0 74 20 755 4 0 0 849 753 831 10 0 0 0 0 0 0 0 0 0 0 0 0 0 0 0 0 81 2 75
3 1295 468 7 0 10 0 0 859 0 83 1 859 1e3 84 10 754 sensorbase74 20 6 1 0 0 2 0 0
 0 0 0 0 0 0 0 0 0 0 0 0 0 0 0 0 0 1 0 
