**ABCDEFGHIJKLMNOPQRSTUVWXYZabcdefghijklmnopqrstuvwxyz**************************
**PARASOLID !"#$%&'()*+,-./:;<=>?@[\]^_`{|}~0123456789**************************
**PART1;
MC=AMD64;
MC_MODEL=Intel64 Family 6 Model 140 Stepping 2, GenuineIntel;
MC_ID=unknown;
OS=Windows_NT;
OS_RELEASE=unknown;
FRU=Parasolid Version 33.1, build 260,  4-25-2022;
APPL=SOLIDWORKS 2022-2022290;
SITE=;
USER=unknown;
FORMAT=text;
GUISE=transmit;
KEY=FILE1119ball.x_t;
DATE=Sun Nov 19 12:16:02 2023;
**PART2;
SCH=SCH_3301260_33103;
USFLD_SIZE=0;
**PART3;
**END_OF_HEADER*****************************************************************
T51 : TRANSMIT FILE created by modeller version 330126023 SCH_3301260_33103_1300
6230 0 10 21 CCCCI7 lattice222 0 CCCI4 mesh1006 0 I8 polyline1008 0 CCCCCCCCCCA1
6 mesh_offset_data206 0 Z1 43 2 3 0 0 0 0 0 0 0 0 1e3 1e-8 0 0 0 1 0 1 4 0 81 25
5 1 2 43 5 1 0 0 0 0 0 70 11 CI9 list_type0 0 1 uI10 notransmit0 0 1 lCCCDCCDI12
 finger_index0 0 1 dI12 finger_block1012 0 CZ3 0 4 T1 0 0 1 20 1 6 6 11 255 4 41
 0 1 7 8 1 9 0 9 0 12 35 CCCI7 lattice222 0 CCCI4 mesh1006 0 I8 polyline1008 0 C
CCCCCCDI5 owner1040 0 CCCCCCI13 boundary_mesh1006 0 I17 boundary_polyline1008 0
 CCCA16 index_map_offset0 0 1 dA9 index_map82 0 A17 node_id_index_map82 0 A20 sc
hema_embedding_map82 0 A5 child12 0 A14 lowest_node_id0 0 1 dA16 mesh_offset_dat
a206 0 Z7 1316 10 11 0 0 0 0 0 0 0 1e3 1e-8 4 12 0 1 0 1 1 13 14 15 16 0 0 17 18
 19 0 0 0 0 0 0 0 100 10 CCCCCCCCCA9 precision229 0 Z8 42 4 0 0 4163336342344335
e-32 1 357320277724894e-33 3791257986186615e-31 -846766469885063e-32 -1 -1 0 -37
87543221737965e-31 .0024300336477714 -.00966957584110716 .0432751010326972 1 3 ?
0 11 9 39 0 1 7 20 1 21 4 0 4 100 20 40 9 0 0 -4163336342344335e-32 -1 391406392
186056e-31 -37731118945841e-30 -591370823047534e-31 -1 1 -971445146547012e-31 -5
32777740411799e-31 .00251431795351463 .0167548523666664 .0687248989673029 1 3 ?0
 11 21 37 0 1 12 22 1 23 9 24 0 12 12 1420 25 26 0 0 0 0 0 0 0 1e3 1e-8 21 27 7
 1 0 1 1 28 29 30 0 0 0 31 32 0 0 0 0 0 0 0 0 100 22 38 21 0 0 -1 -6245004513516
51e-31 532073381166429e-32 -214596900821548e-32 21395812947105e-30 -1 6245004513
51651e-31 -1 -234267260004425e-31 -.00903747263725255 .0167548523666664 .0562850
705662721 1 3 ?0 11 23 35 0 1 27 33 1 34 21 35 0 12 27 75 36 37 0 0 0 0 0 0 0 1e
3 1e-8 23 38 12 1 0 1 1 39 40 41 0 0 0 42 43 0 0 0 0 0 0 0 0 100 33 36 23 0 0 -1
 -624500451351651e-31 532073381166429e-32 -214596900821548e-32 21395812947105e-3
0 -1 624500451351651e-31 -1 -234267260004425e-31 -.00903747263725255 .0167548523
666664 .0562850705662721 1 3 ?0 11 34 33 0 1 38 44 1 45 23 46 0 12 38 69 47 48 0
 0 0 0 0 0 0 1e3 1e-8 34 49 27 1 0 1 1 50 51 52 0 0 0 53 54 0 0 0 0 0 0 0 0 100
 44 34 34 0 0 -1 -624500451351651e-31 532073381166429e-32 -214596900821548e-32 2
1395812947105e-30 -1 624500451351651e-31 -1 -234267260004425e-31 -.0090374726372
5255 .0167548523666664 .0562850705662721 1 3 ?0 11 45 31 0 1 49 55 1 56 34 57 0
 12 49 69 58 59 0 0 0 0 0 0 0 1e3 1e-8 45 60 38 1 0 1 1 61 62 63 0 0 0 64 65 0 0
 0 0 0 0 0 0 100 55 32 45 0 0 -1 -624500451351651e-31 532073381166429e-32 -21459
6900821548e-32 21395812947105e-30 -1 624500451351651e-31 -1 -234267260004425e-31
 -.00903747263725255 .0167548523666664 .0562850705662721 1 3 ?0 11 56 29 0 1 60
 66 1 67 45 68 0 12 60 69 69 70 0 0 0 0 0 0 0 1e3 1e-8 56 71 49 1 0 1 1 72 73 74
 0 0 0 75 76 0 0 0 0 0 0 0 0 100 66 30 56 0 0 -1 -624500451351651e-31 5320733811
66429e-32 -214596900821548e-32 21395812947105e-30 -1 624500451351651e-31 -1 -234
267260004425e-31 -.00903747263725255 .0167548523666664 .0562850705662721 1 3 ?0
 11 67 27 0 1 71 77 1 78 56 79 0 12 71 69 80 81 0 0 0 0 0 0 0 1e3 1e-8 67 82 60
 1 0 1 1 83 84 85 0 0 0 86 87 0 0 0 0 0 0 0 0 100 77 28 67 0 0 -1 -6245004513516
51e-31 532073381166429e-32 -214596900821548e-32 21395812947105e-30 -1 6245004513
51651e-31 -1 -234267260004425e-31 -.00903747263725255 .0167548523666664 .0562850
705662721 1 3 ?0 11 78 25 0 1 82 88 1 89 67 90 0 12 82 69 91 92 0 0 0 0 0 0 0 1e
3 1e-8 78 93 71 1 0 1 1 94 95 96 0 0 0 97 98 0 0 0 0 0 0 0 0 100 88 26 78 0 0 -1
 -624500451351651e-31 532073381166429e-32 -214596900821548e-32 21395812947105e-3
0 -1 624500451351651e-31 -1 -234267260004425e-31 -.00903747263725255 .0167548523
666664 .0562850705662721 1 3 ?0 11 89 23 0 1 93 99 1 100 78 101 0 12 93 69 102 1
03 0 0 0 0 0 0 0 1e3 1e-8 89 104 82 1 0 1 1 105 106 107 0 0 0 108 109 0 0 0 0 0
 0 0 0 100 99 24 89 0 0 -1 -624500451351651e-31 532073381166429e-32 -21459690082
1548e-32 21395812947105e-30 -1 624500451351651e-31 -1 -234267260004425e-31 -.009
03747263725255 .0167548523666664 .0562850705662721 1 3 ?0 11 100 21 0 1 104 110
 1 24 89 111 0 12 104 69 112 113 0 0 0 0 0 0 0 1e3 1e-8 100 114 93 1 0 1 1 115 1
16 117 0 0 0 118 119 0 0 0 0 0 0 0 0 100 110 22 100 0 0 -1 -624500451351651e-31
 532073381166429e-32 -214596900821548e-32 21395812947105e-30 -1 624500451351651e
-31 -1 -234267260004425e-31 -.00903747263725255 .0167548523666664 .0562850705662
721 1 3 ?0 11 24 19 0 1 12 120 1 35 100 0 21 100 120 20 24 0 0 1 -29490299091605
7e-31 -194638823622634e-30 1623950499303475e-31 3553912203261225e-31 1 -69388939
0390723e-32 -1 382133313481842e-30 .0139144171086474 -.01966957584110715 .056285
0705662721 1 3 ?0 11 35 17 0 1 27 121 1 46 24 0 23 100 121 18 35 0 0 1 -29490299
0916057e-31 -194638823622634e-30 1623950499303475e-31 3553912203261225e-31 1 -69
3889390390723e-32 -1 382133313481842e-30 .0139144171086474 -.01966957584110715 .
0562850705662721 1 3 ?0 11 46 15 0 1 38 122 1 57 35 0 34 100 122 16 46 0 0 1 -29
4902990916057e-31 -194638823622634e-30 1623950499303475e-31 3553912203261225e-31
 1 -693889390390723e-32 -1 382133313481842e-30 .0139144171086474 -.0196695758411
0715 .0562850705662721 1 3 ?0 11 57 13 0 1 49 123 1 68 46 0 45 100 123 14 57 0 0
 1 -294902990916057e-31 -194638823622634e-30 1623950499303475e-31 35539122032612
25e-31 1 -693889390390723e-32 -1 382133313481842e-30 .0139144171086474 -.0196695
7584110715 .0562850705662721 1 3 ?0 11 68 11 0 1 60 124 1 79 57 0 56 100 124 12
 68 0 0 1 -294902990916057e-31 -194638823622634e-30 1623950499303475e-31 3553912
203261225e-31 1 -693889390390723e-32 -1 382133313481842e-30 .0139144171086474 -.
01966957584110715 .0562850705662721 1 3 ?0 11 79 9 0 1 71 125 1 90 68 0 67 100 1
25 10 79 0 0 1 -294902990916057e-31 -194638823622634e-30 1623950499303475e-31 35
53912203261225e-31 1 -693889390390723e-32 -1 382133313481842e-30 .01391441710864
74 -.01966957584110715 .0562850705662721 1 3 ?0 11 90 7 0 1 82 126 1 101 79 0 78
 100 126 8 90 0 0 1 -294902990916057e-31 -194638823622634e-30 1623950499303475e-
31 3553912203261225e-31 1 -693889390390723e-32 -1 382133313481842e-30 .013914417
1086474 -.01966957584110715 .0562850705662721 1 3 ?0 11 101 5 0 1 93 127 1 111 9
0 0 89 100 127 6 101 0 0 1 -294902990916057e-31 -194638823622634e-30 16239504993
03475e-31 3553912203261225e-31 1 -693889390390723e-32 -1 382133313481842e-30 .01
39144171086474 -.01966957584110715 .0562850705662721 1 3 ?0 11 111 3 0 1 104 128
 1 129 101 0 100 100 128 4 111 0 0 1 -294902990916057e-31 -194638823622634e-30 1
623950499303475e-31 3553912203261225e-31 1 -693889390390723e-32 -1 3821333134818
42e-30 .0139144171086474 -.01966957584110715 .0562850705662721 1 3 ?0 11 129 1 0
 1 114 130 1 0 111 0 0 12 114 867 131 132 0 0 0 0 0 0 0 1e3 1e-8 129 133 104 1 0
 1 1 134 135 136 137 0 0 138 139 140 0 0 0 0 0 0 0 100 130 2 129 0 0 1 0 0 0 1 0
 0 0 1 .002438472235697425 -.001457361737220372 .031 1 1 ?0 81 1 131 867 5 114 1
41 0 0 0 142 70 132 0 4 T114 0 0 4 20 1 143 143 13 255 134 315 0 114 144 145 0 0
 146 0 50 255 135 302 0 147 148 0 0 +.0015 0 .05 1 0 0 0 0 -1 30 255 136 314 0 1
49 150 0 0 +.0015 .003 .05 0 0 -1 29 255 137 249 0 151 152 0 -.0015 -.003 0 19 8
 CCCCCCCA5 owner12 0 Z138 111 0 114 153 0 154 V0 16 255 139 258 0 ?155 0 156 157
 0 0 114 18 255 140 91 0 158 0 159 160 ?114 17 255 158 0 161 162 163 140 164 165
 0 166 -18 159 88 0 167 140 168 169 ?114 29 160 93 0 140 169 152 -.013 -.003 .05
 29 169 90 0 159 170 160 -.0015 -.003 .05 29 152 253 0 171 160 137 .013 .003 0 1
8 171 228 0 172 151 173 152 ?114 17 172 0 174 175 176 171 177 178 0 179 +18 151
 224 0 180 181 171 137 ?114 18 173 455 0 182 171 183 184 ?114 17 182 0 174 176 1
75 173 185 186 0 187 +18 183 456 0 176 173 188 189 ?114 29 184 521 0 173 189 190
 .0015 -.003 0 29 189 522 0 183 191 184 .013 -.003 0 29 190 81 0 181 184 170 .01
3 -.003 .05 18 181 79 0 192 168 151 190 ?114 29 170 87 0 168 190 169 -.0015 .003
 .05 18 168 85 0 193 159 181 170 ?114 17 193 0 194 195 167 168 196 197 0 198 -15
 255 194 279 0 199 200 0 17 195 0 194 199 193 201 198 202 0 203 +17 167 0 194 19
3 199 159 204 205 0 162 -17 196 0 206 207 208 159 193 197 0 0 +16 197 33 0 ?196
 209 210 211 0 0 114 17 198 0 212 213 203 168 195 202 0 208 -15 212 281 0 203 21
4 0 17 213 0 212 215 198 216 208 210 0 217 -17 203 0 212 198 215 201 218 219 0 0
 +16 202 262 0 ?195 220 205 221 0 0 114 17 208 0 206 196 222 168 213 210 0 0 +15
 206 663 0 222 223 0 17 222 0 206 208 207 216 166 224 0 0 +16 210 28 0 ?208 197
 225 226 0 0 114 16 225 23 0 ?227 210 228 229 0 0 114 30 226 30 0 210 229 211 0
 +0 .003 .05 1 0 0 30 229 25 0 225 230 226 0 +0 -.003 .05 1 0 0 30 211 35 0 197
 226 231 0 +-.0015 0 .05 0 -1 0 30 231 41 0 209 211 232 0 +0 -.003 .05 1 0 0 16
 209 39 0 ?162 224 197 231 0 0 114 30 232 46 0 224 231 233 0 +-.013 0 .05 0 1 0
 16 224 44 0 ?222 234 209 232 0 0 114 30 233 242 0 186 232 235 0 +.0015 0 0 0 -1
 0 16 186 212 0 ?182 236 237 233 0 0 114 30 235 241 0 236 233 238 0 +-1131341397
376176e-34 .003 0 1 377113799125393e-31 0 16 236 207 0 ?239 178 186 235 0 0 114
 30 238 240 0 178 235 240 0 +.013 -375856753128308e-32 0 289120579329468e-30 1 0
 16 178 202 0 ?172 241 236 238 0 0 114 30 240 239 0 241 238 242 0 +0 -.003 0 1 0
 0 16 241 197 0 ?176 219 178 240 0 0 114 30 242 238 0 219 240 243 0 +0 .003 0 1
 0 0 16 219 192 0 ?203 244 241 242 0 0 114 30 243 237 0 244 242 245 0 +-.0015 0
 0 0 -1 0 16 244 186 0 ?199 246 219 243 0 0 114 30 245 236 0 246 243 247 0 +0 -.
003 0 1 0 0 16 246 181 0 ?180 248 244 245 0 0 114 30 247 235 0 248 245 249 0 +-.
013 0 0 0 1 0 16 248 176 0 ?250 251 246 247 0 0 114 30 249 303 0 220 247 252 0 +
.015 -.005 .05 0 0 -1 16 220 255 0 ?253 254 202 249 0 0 114 30 252 304 0 254 249
 255 0 +-.015 -.005 .05 0 0 -1 16 254 256 0 ?256 156 220 252 0 0 114 30 255 305
 0 156 252 157 0 +-.015 .005 .05 0 0 -1 16 156 257 0 ?257 139 254 255 0 0 114 30
 157 306 0 139 255 258 0 +.015 .005 .05 0 0 -1 30 258 307 0 259 157 260 0 +-.013
 .003 .05 0 0 -1 16 259 259 0 ?215 165 149 258 0 0 114 30 260 308 0 165 258 261
 0 +-.013 -.003 .05 0 0 -1 16 165 260 0 ?164 205 259 260 0 0 114 30 261 309 0 20
5 260 221 0 +-.0015 -.003 .05 0 0 -1 16 205 261 0 ?204 202 165 261 0 0 114 30 22
1 310 0 202 261 262 0 +-.0015 .003 .05 0 0 -1 30 262 311 0 234 221 263 0 +.0015
 -.003 .05 0 0 -1 16 234 263 0 ?187 264 224 262 0 0 114 30 263 312 0 264 262 150
 0 +.013 -.003 .05 0 0 -1 16 264 264 0 ?265 266 234 263 0 0 114 30 150 313 0 266
 263 136 0 +.013 .003 .05 0 0 -1 16 266 265 0 ?179 149 264 150 0 0 114 17 179 0
 267 177 268 171 269 266 0 239 +16 149 266 0 ?270 259 266 136 0 0 114 17 270 0 2
71 239 272 188 273 149 0 185 +15 271 287 0 239 274 0 17 239 0 271 269 270 171 17
5 236 0 0 +17 272 0 271 270 269 275 276 277 0 0 -18 188 458 0 175 183 278 191 ?1
14 17 273 0 279 280 185 275 270 149 0 272 -17 185 0 279 273 187 188 182 186 0 0
 -15 279 289 0 185 147 0 17 187 0 279 185 280 173 281 234 0 282 +17 280 0 279 18
7 273 283 284 251 0 0 +17 281 0 285 227 282 283 187 234 0 280 -17 282 0 285 281
 265 173 176 241 0 0 -15 285 283 0 282 286 0 17 265 0 285 282 227 183 287 264 0
 177 +17 176 0 174 172 182 183 282 241 0 265 +15 174 473 0 175 288 0 17 175 0 17
4 182 172 188 239 236 0 270 -14 255 288 471 289 ?286 0 174 144 290 -291 291 286
 0 292 81 1 289 855 293 288 294 0 295 296 297 14 286 284 296 ?298 288 285 144 29
9 +0 0 298 288 292 13 144 732 0 114 300 288 0 0 146 0 50 290 507 0 291 301 302 0
 +0 0 0 0 0 -1 -1 0 0 14 291 498 303 ?304 223 305 300 290 -288 288 304 223 306 1
3 292 733 0 0 0 0 0 0 153 288 19 153 734 0 114 307 138 292 V0 19 307 728 0 114 1
46 153 306 V0 19 146 316 0 114 0 307 134 S0 13 306 727 0 0 0 0 0 0 307 223 14 22
3 661 308 ?291 0 206 300 309 -310 310 291 0 306 81 1 308 861 293 223 311 0 312 3
03 313 13 300 726 0 114 0 223 0 0 146 0 50 309 692 0 310 314 301 0 +0 0 .05 0 0
 1 1 0 0 14 310 683 312 ?0 147 315 144 309 -223 223 0 147 292 81 1 312 860 293 3
10 316 0 317 308 318 14 147 290 317 ?310 274 279 144 135 +0 0 310 274 292 15 315
 685 0 284 310 0 17 284 0 315 276 319 275 280 251 0 273 -17 276 0 315 192 284 32
0 272 277 0 269 +17 319 0 315 284 192 283 227 225 0 281 -18 275 653 0 284 321 32
0 322 ?114 16 251 7 0 ?280 277 248 323 0 0 114 16 277 13 0 ?276 228 251 324 0 0
 114 30 323 9 0 251 325 324 0 +.0015 0 .05 0 -1 0 30 325 517 0 237 326 323 0 +.0
15 .005 -.003 1 0 0 30 324 15 0 277 323 230 0 +-1131341397376176e-34 .003 .05 1
 377113799125393e-31 0 30 230 20 0 228 324 229 0 +.013 -375856753128308e-32 .05
 289120579329468e-30 1 0 16 228 18 0 ?268 225 277 230 0 0 114 17 268 0 267 179 2
87 320 192 228 0 0 +15 267 285 0 177 298 0 17 287 0 267 268 177 181 265 264 0 22
7 -18 320 654 0 276 275 283 327 ?114 17 192 0 315 319 276 181 268 228 0 287 -18
 283 642 0 319 320 216 328 ?114 29 327 707 0 320 328 322 .013 .003 .05 29 328 70
9 0 283 329 327 .0015 -.003 .05 29 322 706 0 275 327 330 .0015 .003 .05 29 330 5
36 0 321 322 331 .015 -.005 -.003 18 321 462 0 253 332 275 330 ?114 29 331 535 0
 332 330 333 -.015 -.005 -.003 18 332 465 0 256 334 321 331 ?114 29 333 534 0 33
4 331 335 -.015 .005 -.003 18 334 466 0 257 336 332 333 ?114 29 335 533 0 336 33
3 337 .015 .005 -.003 18 336 467 0 155 201 334 335 ?114 29 337 528 0 201 335 338
 -.0015 .003 0 18 201 460 0 339 340 336 337 ?114 29 338 526 0 340 337 341 -.013
 -.003 0 18 340 469 0 342 278 201 338 ?114 29 341 525 0 278 338 191 -.013 .003 0
 18 278 468 0 218 188 340 341 ?114 29 191 524 0 188 341 189 .0015 .003 0 17 218
 0 305 342 339 278 203 219 0 250 -15 305 500 0 218 291 0 17 342 0 305 180 218 34
0 250 248 0 164 -17 339 0 305 218 180 201 199 244 0 195 -17 250 0 343 217 164 27
8 342 248 0 215 +15 343 275 0 250 304 0 17 217 0 343 166 250 216 215 259 0 222 -
17 164 0 343 250 166 340 158 165 0 163 +17 215 0 212 203 213 278 217 259 0 0 +17
 166 0 343 164 217 140 222 224 0 207 -17 163 0 161 158 204 340 180 246 0 0 -15 1
61 277 0 163 344 0 17 204 0 161 163 162 151 167 205 0 199 +17 180 0 305 339 342
 151 163 246 0 204 +17 162 0 161 204 158 159 207 209 0 196 +17 199 0 194 167 195
 151 339 244 0 0 +17 207 0 206 222 196 140 162 209 0 0 -14 344 278 345 ?200 304
 161 300 346 +0 0 200 304 306 81 1 345 864 293 344 347 0 348 349 350 14 200 280
 349 ?214 344 194 300 351 -0 0 214 344 306 14 304 276 348 ?344 291 343 300 352 -
0 0 344 291 306 50 346 296 0 344 352 351 0 +0 -.003 .05 0 1 0 0 0 1 50 352 295 0
 304 353 346 0 +-.013 0 .05 -1 0 0 0 0 1 50 351 297 0 200 346 354 0 +-.0015 0 .0
5 1 0 0 0 0 -1 50 354 298 0 214 351 299 0 +0 .003 .05 0 1 0 0 0 1 14 214 282 355
 ?0 200 212 300 354 -0 0 0 200 306 50 299 299 0 286 354 356 0 +0 -.003 .05 0 1 0
 0 0 1 50 356 300 0 298 299 148 0 +.013 -375856753128308e-32 .05 -1 289120579329
468e-30 0 -289120579329468e-30 -1 0 14 298 286 357 ?274 286 267 144 356 +0 0 274
 286 292 50 148 301 0 274 356 135 0 +-1131341397376176e-34 .003 .05 -37711379912
5393e-31 1 0 -1 -377113799125393e-31 0 14 274 288 358 ?147 298 271 144 148 -0 0
 147 298 292 81 1 358 858 293 274 359 0 357 317 360 80 255 1 293 0 361 8001 0 0
 0 0 3 5 0 0 0 FFFFTFTFFFFFFF2 81 1 359 827 362 274 0 358 363 364 365 81 1 357 8
57 293 298 363 0 296 358 366 81 1 317 859 293 147 367 0 358 312 368 83 255 3 360
 1 1 1 81 1 367 813 362 147 0 317 316 347 369 83 3 368 1 1 1 80 1 362 370 371 90
00 1 1 1 1 1 1 1 1 0 FFFFTFTFFFFFFF1 81 1 316 811 362 310 0 312 311 367 372 81 1
 347 816 362 344 0 345 367 373 374 82 255 1 369 203161905 81 1 373 818 362 200 0
 349 347 375 376 82 1 374 201785649 81 1 349 865 293 200 373 0 345 355 377 81 1
 375 821 362 304 0 348 373 378 379 82 1 376 201982257 81 1 348 863 293 304 375 0
 303 345 380 81 1 378 823 362 214 0 355 375 363 381 82 1 379 201523505 81 1 355
 866 293 214 378 0 349 0 382 81 1 363 825 362 298 0 357 378 359 383 82 1 381 202
309937 82 1 383 202703153 83 3 382 1 1 1 81 1 303 862 293 291 384 0 308 348 385
 83 3 380 1 1 1 81 1 384 807 362 291 0 303 386 311 387 83 3 385 1 1 1 81 1 386 8
05 362 286 0 296 294 384 388 81 1 311 809 362 223 0 308 384 316 389 82 1 387 133
6541486 82 1 389 1852047665 81 1 296 856 293 286 386 0 289 357 390 81 1 294 803
 362 288 0 289 0 386 391 82 1 388 202572081 82 1 391 1344405806 83 3 390 1 1 1 8
3 3 377 1 1 1 82 1 372 1845756209 79 255 14 371 SWEntUnchanged83 3 366 1 1 1 81
 1 364 829 362 392 0 393 359 394 395 82 1 365 202834225 14 392 270 393 ?396 397
 398 134 399 +0 0 396 397 154 81 1 393 851 293 392 364 0 400 401 402 81 1 394 83
3 362 397 0 400 364 403 404 82 1 395 200868145 14 397 272 400 ?392 145 405 134 4
06 +0 0 392 145 154 81 1 400 850 293 397 394 0 407 393 408 81 1 403 837 362 145
 0 407 394 409 410 82 1 404 201064753 14 145 274 407 ?397 0 411 134 353 -0 0 397
 0 154 81 1 407 849 293 145 403 0 0 400 412 81 1 409 841 362 396 0 401 403 413 4
14 82 1 410 201195825 14 396 268 401 ?415 392 416 134 302 -0 0 415 392 154 81 1
 401 852 293 396 409 0 393 417 418 81 1 413 845 362 419 0 295 409 420 421 82 1 4
14 200606001 14 419 680 295 ?0 415 422 134 314 +0 0 0 415 154 81 1 295 854 293 4
19 413 0 417 289 423 81 1 420 847 362 415 0 417 413 0 424 82 1 421 1840120113 14
 415 495 417 ?419 396 425 134 301 +0 0 419 396 154 81 1 417 853 293 415 420 0 40
1 295 426 82 1 424 1330905390 83 3 426 1 1 1 15 425 497 0 427 415 0 50 301 508 0
 415 309 290 0 +0 0 -.003 0 0 -1 -1 0 0 13 154 112 0 0 0 0 0 0 138 145 17 427 0
 425 428 429 321 430 431 0 0 +17 428 0 425 432 427 332 433 434 0 435 +17 429 0 4
25 427 432 336 436 237 0 430 +17 430 0 411 437 253 336 427 431 0 0 -16 431 442 0
 ?427 434 438 439 0 0 114 16 434 445 0 ?428 440 431 441 0 0 114 16 438 636 0 ?44
2 431 443 444 0 0 114 30 439 520 0 431 444 441 0 +.015 .005 -.003 0 -1 0 30 444
 702 0 438 445 439 0 +-.015 .005 .053 -1 0 0 30 441 519 0 434 439 326 0 +.015 -.
005 -.003 -1 0 0 30 326 518 0 440 441 325 0 +-.015 .005 -.003 0 1 0 16 440 448 0
 ?432 237 434 326 0 0 114 17 432 0 425 429 428 334 435 440 0 436 +16 237 451 0 ?
429 186 440 325 0 0 114 17 435 0 398 446 257 332 432 440 0 0 -17 436 0 405 447 1
55 334 429 237 0 0 -15 405 271 0 155 397 0 17 447 0 405 448 436 449 257 156 0 44
2 -17 155 0 405 436 448 336 437 139 0 429 +17 448 0 405 155 447 450 442 438 0 0
 -17 437 0 411 451 430 450 155 139 0 452 -15 411 273 0 253 145 0 17 451 0 411 25
3 437 453 452 443 0 0 -18 450 651 0 437 449 453 454 ?114 17 452 0 422 442 455 45
0 451 443 0 448 +15 422 682 0 456 419 0 17 442 0 422 456 452 449 448 438 0 457 +
17 455 0 422 452 456 453 458 459 0 451 +16 443 633 0 ?452 438 459 445 0 0 114 16
 459 630 0 ?455 443 460 461 0 0 114 30 445 703 0 443 461 444 0 +.015 .005 .053 0
 1 0 30 461 704 0 459 462 445 0 +-.015 -.005 .053 1 0 0 30 462 705 0 460 0 461 0
 +-.015 .005 .053 0 -1 0 16 460 627 0 ?456 459 0 462 0 0 114 17 456 0 422 455 44
2 463 457 460 0 0 +18 463 647 0 446 453 0 464 ?114 17 457 0 398 257 446 449 456
 460 0 0 -15 398 269 0 257 392 0 17 257 0 398 435 457 334 447 156 0 432 +17 446
 0 398 457 435 463 256 254 0 458 -18 449 652 0 447 216 450 465 ?114 18 216 640 0
 213 283 449 329 ?114 29 465 718 0 449 454 329 -.015 .005 .053 29 454 719 0 450
 466 465 .015 .005 .053 29 329 712 0 216 465 328 -.013 .003 .05 29 466 720 0 453
 464 454 .015 -.005 .053 18 453 650 0 467 450 463 466 ?114 29 464 721 0 463 0 46
6 -.015 -.005 .053 17 467 0 416 458 433 453 253 220 0 455 -15 416 267 0 256 396
 0 17 458 0 416 256 467 463 455 459 0 456 -17 433 0 416 467 256 321 428 434 0 42
7 -17 253 0 411 430 451 321 467 220 0 433 +17 256 0 416 433 458 332 446 254 0 42
8 +83 3 423 1 1 1 50 314 693 0 419 0 309 0 +0 0 .053 0 0 1 1 0 0 83 3 418 1 1 1
 50 302 291 0 396 290 399 0 +0 -.005 .05 0 1 0 0 0 1 50 399 292 0 392 302 406 0
 +-.015 0 .05 -1 0 0 0 0 1 50 406 293 0 397 399 353 0 +0 .005 .05 0 1 0 0 0 1 50
 353 294 0 145 406 352 0 +.015 0 .05 -1 0 0 0 0 1 83 3 412 1 1 1 83 3 408 1 1 1
 83 3 402 1 1 1 79 15 361 SDL/TYSA_COLOUR83 3 350 1 1 1 17 177 0 267 287 179 183
 172 178 0 0 -17 227 0 285 265 281 181 319 225 0 0 +17 269 0 271 272 239 320 179
 266 0 268 -83 3 318 1 1 1 83 3 313 1 1 1 83 3 297 1 1 1 74 4 CI16 index_map_off
set0 0 1 dCCZ20 143 4 0 0 420 141 355 131 0 0 0 0 0 0 0 0 0 0 0 0 0 0 0 0 81 2 1
41 779 468 114 0 131 0 0 469 0 80 2 468 470 471 8004 0 0 0 0 3 5 0 0 0 FFTFFFFFF
FFFFF2 3 83 1 469 1e3 79 16 471 SDL/TYSA_DENSITY80 1 5 472 473 8017 0 0 0 0 0 0
 0 0 0 TTTTTTTTTTTTTF3 84 255 4 142 ²åÍ·79 13 473 SDL/TYSA_NAME81 1 112 69 5 104
 474 0 0 0 475 70 113 0 4 T104 0 0 4 20 1 476 476 13 115 8 0 104 0 477 0 0 478 0
 50 116 26 0 479 480 0 0 +-.0245125871846065 .03795489295007765 .01 0 0 1 1 0 0
 31 255 117 25 0 481 482 0 0 --.01147594487294998 -.00671492943372793 .01 0 0 1
 1 0 0 .00301221410388678 19 118 6 0 104 478 0 483 V0 16 119 10 0 ?484 0 481 482
 0 0 104 17 484 0 485 484 484 0 486 119 0 0 +16 481 9 0 ?487 119 0 117 0 0 104 3
1 482 24 0 119 0 117 0 +-.01147594487294998 -.00671492943372793 .01 0 0 1 1 0 0
 .003212214103886785 17 487 0 488 487 487 0 489 481 0 0 +15 488 13 0 487 477 0 1
7 489 0 490 489 489 0 487 481 0 0 -15 490 17 0 489 479 491 14 479 14 492 ?493 47
7 490 115 116 -0 0 493 477 483 15 491 18 0 486 479 0 17 486 0 491 486 486 0 484
 119 0 0 -81 1 492 67 293 479 494 0 495 496 497 14 493 19 496 ?0 479 485 115 480
 -0 0 0 479 483 14 477 11 495 ?479 0 488 115 498 -0 0 479 0 483 13 483 7 0 0 0 0
 0 0 118 477 81 1 495 66 293 477 499 0 0 492 500 53 255 498 22 0 477 0 480 0 +-.
01147594487294998 -.00671492943372793 .01 .00301221410388678 -1 0 0 0 0 -1 53 48
0 23 0 493 498 116 0 --.01147594487294998 -.00671492943372793 .01 .0032122141038
86785 -1 0 0 0 0 1 81 1 499 64 362 477 0 495 501 0 502 83 3 500 .792156862745098
 .819607843137255 .933333333333333 81 1 501 62 362 493 0 496 494 499 503 82 1 50
2 -1931935513 81 1 496 68 293 493 501 0 492 0 504 81 1 494 60 362 479 0 492 0 50
1 505 82 1 503 -1932853017 82 1 505 -1520172825 83 3 504 .792156862745098 .81960
7843137255 .933333333333333 15 485 21 0 484 493 0 83 3 497 .792156862745098 .819
607843137255 .933333333333333 19 478 1 0 104 0 118 115 S0 74 20 476 4 0 0 499 47
4 496 112 0 0 0 0 0 0 0 0 0 0 0 0 0 0 0 0 81 2 474 58 468 104 0 112 0 0 506 0 83
 1 506 1e3 84 6 475 sensor81 1 102 69 5 93 507 0 0 0 508 70 103 0 4 T93 0 0 4 20
 1 509 509 13 105 8 0 93 0 510 0 0 511 0 50 106 26 0 512 513 0 0 +-.024512587184
6065 .03795489295007765 .01 0 0 1 1 0 0 31 107 25 0 514 515 0 0 --.0184759448729
5 -.00671492943372793 .01 0 0 1 1 0 0 .00301221410388678 19 108 6 0 93 511 0 516
 V0 16 109 10 0 ?517 0 514 515 0 0 93 17 517 0 518 517 517 0 519 109 0 0 +16 514
 9 0 ?520 109 0 107 0 0 93 31 515 24 0 109 0 107 0 +-.01847594487295 -.006714929
43372793 .01 0 0 1 1 0 0 .003212214103886785 17 520 0 521 520 520 0 522 514 0 0
 +15 521 13 0 520 510 0 17 522 0 523 522 522 0 520 514 0 0 -15 523 17 0 522 512
 524 14 512 14 525 ?526 510 523 105 106 -0 0 526 510 516 15 524 18 0 519 512 0 1
7 519 0 524 519 519 0 517 109 0 0 -81 1 525 67 293 512 527 0 528 529 530 14 526
 19 529 ?0 512 518 105 513 -0 0 0 512 516 14 510 11 528 ?512 0 521 105 531 -0 0
 512 0 516 13 516 7 0 0 0 0 0 0 108 510 81 1 528 66 293 510 532 0 0 525 533 53 5
31 22 0 510 0 513 0 +-.01847594487295 -.00671492943372793 .01 .00301221410388678
 -1 0 0 0 0 -1 53 513 23 0 526 531 106 0 --.01847594487295 -.00671492943372793 .
01 .003212214103886785 -1 0 0 0 0 1 81 1 532 64 362 510 0 528 534 0 535 83 3 533
 .792156862745098 .819607843137255 .933333333333333 81 1 534 62 362 526 0 529 52
7 532 536 82 1 535 -1997209369 81 1 529 68 293 526 534 0 525 0 537 81 1 527 60 3
62 512 0 525 0 534 538 82 1 536 -1998126873 82 1 538 -1518403353 83 3 537 .79215
6862745098 .819607843137255 .933333333333333 15 518 21 0 517 526 0 83 3 530 .792
156862745098 .819607843137255 .933333333333333 19 511 1 0 93 0 108 105 S0 74 20
 509 4 0 0 532 507 529 102 0 0 0 0 0 0 0 0 0 0 0 0 0 0 0 0 81 2 507 58 468 93 0
 102 0 0 539 0 83 1 539 1e3 84 6 508 sensor81 1 91 69 5 82 540 0 0 0 541 70 92 0
 4 T82 0 0 4 20 1 542 542 13 94 8 0 82 0 543 0 0 544 0 50 95 26 0 545 546 0 0 +-
.0245125871846065 .03795489295007765 .01 0 0 1 1 0 0 31 96 25 0 547 548 0 0 --.0
04475944872949975 .000285070566272073 .01 0 0 1 1 0 0 .00301221410388678 19 97 6
 0 82 544 0 549 V0 16 98 10 0 ?550 0 547 548 0 0 82 17 550 0 551 550 550 0 552 9
8 0 0 +16 547 9 0 ?553 98 0 96 0 0 82 31 548 24 0 98 0 96 0 +-.00447594487294997
5 .000285070566272073 .01 0 0 1 1 0 0 .003212214103886785 17 553 0 554 553 553 0
 555 547 0 0 +15 554 13 0 553 543 0 17 555 0 556 555 555 0 553 547 0 0 -15 556 1
7 0 555 545 557 14 545 14 558 ?559 543 556 94 95 -0 0 559 543 549 15 557 18 0 55
2 545 0 17 552 0 557 552 552 0 550 98 0 0 -81 1 558 67 293 545 560 0 561 562 563
 14 559 19 562 ?0 545 551 94 546 -0 0 0 545 549 14 543 11 561 ?545 0 554 94 564
 -0 0 545 0 549 13 549 7 0 0 0 0 0 0 97 543 81 1 561 66 293 543 565 0 0 558 566
 53 564 22 0 543 0 546 0 +-.004475944872949975 .000285070566272073 .01 .00301221
410388678 -1 0 0 0 0 -1 53 546 23 0 559 564 95 0 --.004475944872949975 .00028507
0566272073 .01 .003212214103886785 -1 0 0 0 0 1 81 1 565 64 362 543 0 561 567 0
 568 83 3 566 .792156862745098 .819607843137255 .933333333333333 81 1 567 62 362
 559 0 562 560 565 569 82 1 568 -1888419609 81 1 562 68 293 559 567 0 558 0 570
 81 1 560 60 362 545 0 558 0 567 571 82 1 569 -1889337113 82 1 571 -1521352473 8
3 3 570 .792156862745098 .819607843137255 .933333333333333 15 551 21 0 550 559 0
 83 3 563 .792156862745098 .819607843137255 .933333333333333 19 544 1 0 82 0 97
 94 S0 74 20 542 4 0 0 565 540 562 91 0 0 0 0 0 0 0 0 0 0 0 0 0 0 0 0 81 2 540 5
8 468 82 0 91 0 0 572 0 83 1 572 1e3 84 6 541 sensor81 1 80 69 5 71 573 0 0 0 57
4 70 81 0 4 T71 0 0 4 20 1 575 575 13 83 8 0 71 0 576 0 0 577 0 50 84 26 0 578 5
79 0 0 +-.0245125871846065 .03795489295007765 .01 0 0 1 1 0 0 31 85 25 0 580 581
 0 0 --.01147594487294998 .000285070566272073 .01 0 0 1 1 0 0 .00301221410388678
 19 86 6 0 71 577 0 582 V0 16 87 10 0 ?583 0 580 581 0 0 71 17 583 0 584 583 583
 0 585 87 0 0 +16 580 9 0 ?586 87 0 85 0 0 71 31 581 24 0 87 0 85 0 +-.011475944
87294998 .000285070566272073 .01 0 0 1 1 0 0 .003212214103886785 17 586 0 587 58
6 586 0 588 580 0 0 +15 587 13 0 586 576 0 17 588 0 589 588 588 0 586 580 0 0 -1
5 589 17 0 588 578 590 14 578 14 591 ?592 576 589 83 84 -0 0 592 576 582 15 590
 18 0 585 578 0 17 585 0 590 585 585 0 583 87 0 0 -81 1 591 67 293 578 593 0 594
 595 596 14 592 19 595 ?0 578 584 83 579 -0 0 0 578 582 14 576 11 594 ?578 0 587
 83 597 -0 0 578 0 582 13 582 7 0 0 0 0 0 0 86 576 81 1 594 66 293 576 598 0 0 5
91 599 53 597 22 0 576 0 579 0 +-.01147594487294998 .000285070566272073 .01 .003
01221410388678 -1 0 0 0 0 -1 53 579 23 0 592 597 84 0 --.01147594487294998 .0002
85070566272073 .01 .003212214103886785 -1 0 0 0 0 1 81 1 598 64 362 576 0 594 60
0 0 601 83 3 599 .792156862745098 .819607843137255 .933333333333333 81 1 600 62
 362 592 0 595 593 598 602 82 1 601 -1953693465 81 1 595 68 293 592 600 0 591 0
 603 81 1 593 60 362 578 0 591 0 600 604 82 1 602 -1954610969 82 1 604 -15195830
01 83 3 603 .792156862745098 .819607843137255 .933333333333333 15 584 21 0 583 5
92 0 83 3 596 .792156862745098 .819607843137255 .933333333333333 19 577 1 0 71 0
 86 83 S0 74 20 575 4 0 0 598 573 595 80 0 0 0 0 0 0 0 0 0 0 0 0 0 0 0 0 81 2 57
3 58 468 71 0 80 0 0 605 0 83 1 605 1e3 84 6 574 sensor81 1 69 69 5 60 606 0 0 0
 607 70 70 0 4 T60 0 0 4 20 1 608 608 13 72 8 0 60 0 609 0 0 610 0 50 73 26 0 61
1 612 0 0 +-.0245125871846065 .03795489295007765 .01 0 0 1 1 0 0 31 74 25 0 613
 614 0 0 --.01847594487295 .000285070566272073 .01 0 0 1 1 0 0 .0030122141038867
8 19 75 6 0 60 610 0 615 V0 16 76 10 0 ?616 0 613 614 0 0 60 17 616 0 617 616 61
6 0 618 76 0 0 +16 613 9 0 ?619 76 0 74 0 0 60 31 614 24 0 76 0 74 0 +-.01847594
487295 .000285070566272073 .01 0 0 1 1 0 0 .003212214103886785 17 619 0 620 619
 619 0 621 613 0 0 +15 620 13 0 619 609 0 17 621 0 622 621 621 0 619 613 0 0 -15
 622 17 0 621 611 623 14 611 14 624 ?625 609 622 72 73 -0 0 625 609 615 15 623 1
8 0 618 611 0 17 618 0 623 618 618 0 616 76 0 0 -81 1 624 67 293 611 626 0 627 6
28 629 14 625 19 628 ?0 611 617 72 612 -0 0 0 611 615 14 609 11 627 ?611 0 620 7
2 630 -0 0 611 0 615 13 615 7 0 0 0 0 0 0 75 609 81 1 627 66 293 609 631 0 0 624
 632 53 630 22 0 609 0 612 0 +-.01847594487295 .000285070566272073 .01 .00301221
410388678 -1 0 0 0 0 -1 53 612 23 0 625 630 73 0 --.01847594487295 .000285070566
272073 .01 .003212214103886785 -1 0 0 0 0 1 81 1 631 64 362 609 0 627 633 0 634
 83 3 632 .792156862745098 .819607843137255 .933333333333333 81 1 633 62 362 625
 0 628 626 631 635 82 1 634 -2019032857 81 1 628 68 293 625 633 0 624 0 636 81 1
 626 60 362 611 0 624 0 633 637 82 1 635 -2019950361 82 1 637 -1517813529 83 3 6
36 .792156862745098 .819607843137255 .933333333333333 15 617 21 0 616 625 0 83 3
 629 .792156862745098 .819607843137255 .933333333333333 19 610 1 0 60 0 75 72 S0
 74 20 608 4 0 0 631 606 628 69 0 0 0 0 0 0 0 0 0 0 0 0 0 0 0 0 81 2 606 58 468
 60 0 69 0 0 638 0 83 1 638 1e3 84 6 607 sensor81 1 58 69 5 49 639 0 0 0 640 70
 59 0 4 T49 0 0 4 20 1 641 641 13 61 8 0 49 0 642 0 0 643 0 50 62 26 0 644 645 0
 0 +-.0245125871846065 .03795489295007765 .01 0 0 1 1 0 0 31 63 25 0 646 647 0 0
 --.004475944872949975 .00728507056627207 .01 0 0 1 1 0 0 .00301221410388678 19
 64 6 0 49 643 0 648 V0 16 65 10 0 ?649 0 646 647 0 0 49 17 649 0 650 649 649 0
 651 65 0 0 +16 646 9 0 ?652 65 0 63 0 0 49 31 647 24 0 65 0 63 0 +-.00447594487
2949975 .00728507056627207 .01 0 0 1 1 0 0 .003212214103886785 17 652 0 653 652
 652 0 654 646 0 0 +15 653 13 0 652 642 0 17 654 0 655 654 654 0 652 646 0 0 -15
 655 17 0 654 644 656 14 644 14 657 ?658 642 655 61 62 -0 0 658 642 648 15 656 1
8 0 651 644 0 17 651 0 656 651 651 0 649 65 0 0 -81 1 657 67 293 644 659 0 660 6
61 662 14 658 19 661 ?0 644 650 61 645 -0 0 0 644 648 14 642 11 660 ?644 0 653 6
1 663 -0 0 644 0 648 13 648 7 0 0 0 0 0 0 64 642 81 1 660 66 293 642 664 0 0 657
 665 53 663 22 0 642 0 645 0 +-.004475944872949975 .00728507056627207 .01 .00301
221410388678 -1 0 0 0 0 -1 53 645 23 0 658 663 62 0 --.004475944872949975 .00728
507056627207 .01 .003212214103886785 -1 0 0 0 0 1 81 1 664 64 362 642 0 660 666
 0 667 83 3 665 .792156862745098 .819607843137255 .933333333333333 81 1 666 62 3
62 658 0 661 659 664 668 82 1 667 -1910177561 81 1 661 68 293 658 666 0 657 0 66
9 81 1 659 60 362 644 0 657 0 666 670 82 1 668 -1911095065 82 1 670 -1520762649
 83 3 669 .792156862745098 .819607843137255 .933333333333333 15 650 21 0 649 658
 0 83 3 662 .792156862745098 .819607843137255 .933333333333333 19 643 1 0 49 0 6
4 61 S0 74 20 641 4 0 0 664 639 661 58 0 0 0 0 0 0 0 0 0 0 0 0 0 0 0 0 81 2 639
 58 468 49 0 58 0 0 671 0 83 1 671 1e3 84 6 640 sensor81 1 47 69 5 38 672 0 0 0
 673 70 48 0 4 T38 0 0 4 20 1 674 674 13 50 8 0 38 0 675 0 0 676 0 50 51 26 0 67
7 678 0 0 +-.0245125871846065 .03795489295007765 .01 0 0 1 1 0 0 31 52 25 0 679
 680 0 0 --.01147594487294998 .00728507056627207 .01 0 0 1 1 0 0 .00301221410388
678 19 53 6 0 38 676 0 681 V0 16 54 10 0 ?682 0 679 680 0 0 38 17 682 0 683 682
 682 0 684 54 0 0 +16 679 9 0 ?685 54 0 52 0 0 38 31 680 24 0 54 0 52 0 +-.01147
594487294998 .00728507056627207 .01 0 0 1 1 0 0 .003212214103886785 17 685 0 686
 685 685 0 687 679 0 0 +15 686 13 0 685 675 0 17 687 0 688 687 687 0 685 679 0 0
 -15 688 17 0 687 677 689 14 677 14 690 ?691 675 688 50 51 -0 0 691 675 681 15 6
89 18 0 684 677 0 17 684 0 689 684 684 0 682 54 0 0 -81 1 690 67 293 677 692 0 6
93 694 695 14 691 19 694 ?0 677 683 50 678 -0 0 0 677 681 14 675 11 693 ?677 0 6
86 50 696 -0 0 677 0 681 13 681 7 0 0 0 0 0 0 53 675 81 1 693 66 293 675 697 0 0
 690 698 53 696 22 0 675 0 678 0 +-.01147594487294998 .00728507056627207 .01 .00
301221410388678 -1 0 0 0 0 -1 53 678 23 0 691 696 51 0 --.01147594487294998 .007
28507056627207 .01 .003212214103886785 -1 0 0 0 0 1 81 1 697 64 362 675 0 693 69
9 0 700 83 3 698 .792156862745098 .819607843137255 .933333333333333 81 1 699 62
 362 691 0 694 692 697 701 82 1 700 -1975451417 81 1 694 68 293 691 699 0 690 0
 702 81 1 692 60 362 677 0 690 0 699 703 82 1 701 -1976368921 82 1 703 -15189931
77 83 3 702 .792156862745098 .819607843137255 .933333333333333 15 683 21 0 682 6
91 0 83 3 695 .792156862745098 .819607843137255 .933333333333333 19 676 1 0 38 0
 53 50 S0 74 20 674 4 0 0 697 672 694 47 0 0 0 0 0 0 0 0 0 0 0 0 0 0 0 0 81 2 67
2 58 468 38 0 47 0 0 704 0 83 1 704 1e3 84 6 673 sensor81 1 36 75 5 27 705 0 0 0
 706 70 37 0 4 T27 0 0 4 20 1 707 707 13 39 8 0 27 0 708 0 0 709 0 50 40 32 0 71
0 711 0 0 +-.0245125871846065 .03795489295007765 .01 0 0 1 1 0 0 31 41 25 0 712
 713 0 0 --.004475944872949975 -.00671492943372793 .01 0 0 1 1 0 0 .003012214103
88678 19 42 6 0 27 709 0 714 V0 16 43 10 0 ?715 0 712 713 0 0 27 17 715 0 716 71
5 715 0 717 43 0 0 +16 712 9 0 ?718 43 0 41 0 0 27 31 713 24 0 43 0 41 0 +-.0044
75944872949975 -.00671492943372793 .01 0 0 1 1 0 0 .003212214103886785 17 718 0
 719 718 718 0 720 712 0 0 +15 719 13 0 718 708 0 17 720 0 721 720 720 0 718 712
 0 0 -15 721 17 0 720 710 722 14 710 14 723 ?724 708 721 39 40 -0 0 724 708 714
 15 722 18 0 717 710 0 17 717 0 722 717 717 0 715 43 0 0 -81 1 723 73 293 710 72
5 0 726 727 728 14 724 19 727 ?0 710 716 39 711 -0 0 0 710 714 14 708 11 726 ?71
0 0 719 39 729 -0 0 710 0 714 13 714 7 0 0 0 0 0 0 42 708 81 1 726 72 293 708 73
0 0 0 723 731 53 729 22 0 708 0 711 0 +-.004475944872949975 -.00671492943372793
 .01 .00301221410388678 -1 0 0 0 0 -1 53 711 23 0 724 729 40 0 --.00447594487294
9975 -.00671492943372793 .01 .003212214103886785 -1 0 0 0 0 1 81 1 730 70 362 70
8 0 726 732 0 733 83 3 731 .792156862745098 .819607843137255 .933333333333333 81
 1 732 68 362 724 0 727 725 730 734 82 1 733 -1866661657 81 1 727 74 293 724 732
 0 723 0 735 81 1 725 66 362 710 0 723 0 732 736 82 1 734 -1867579161 82 1 736 -
1521942297 83 3 735 .792156862745098 .819607843137255 .933333333333333 15 716 21
 0 715 724 0 83 3 728 .792156862745098 .819607843137255 .933333333333333 19 709
 1 0 27 0 42 39 S0 74 20 707 4 0 0 730 705 727 36 0 0 0 0 0 0 0 0 0 0 0 0 0 0 0
 0 81 2 705 64 468 27 0 36 0 0 737 0 83 1 737 1e3 84 6 706 sensor81 1 25 1420 5
 12 738 0 0 0 739 70 26 0 4 T12 0 0 4 20 1 740 740 13 28 160 0 12 0 741 0 0 742
 0 53 29 172 0 741 743 0 0 +-.01847594487295 .00728507056627207 .01 .00301221410
388678 -1 0 0 0 0 -1 31 30 1220 0 32 744 0 0 +-.01847594487295 .0072850705662720
7 .01 0 0 1 1 0 0 .003212214103886785 19 31 170 0 12 742 0 745 V0 16 32 1023 0 ?
746 0 747 30 0 0 12 17 746 0 748 746 746 0 749 32 0 0 +16 747 1022 0 ?750 32 0 7
44 0 0 12 17 750 0 751 750 750 0 752 747 0 0 +31 744 1229 0 747 0 30 0 --.018475
94487295 .00728507056627207 .01 0 0 1 1 0 0 .00301221410388678 15 751 167 0 750
 741 0 17 752 0 753 752 752 0 750 747 0 0 -15 753 1108 0 752 754 755 14 754 1105
 756 ?757 741 753 28 758 -0 0 757 741 745 15 755 1109 0 749 754 0 17 749 0 755 7
49 749 0 746 32 0 0 -81 1 756 1418 293 754 759 0 760 761 762 14 757 157 761 ?0 7
54 748 28 743 -0 0 0 754 745 14 741 165 760 ?754 0 751 28 29 -0 0 754 0 745 50 7
58 1213 0 754 0 743 0 +-.0245125871846065 .03795489295007765 .01 0 0 1 1 0 0 13
 745 171 0 0 0 0 0 0 31 741 53 743 173 0 757 758 29 0 --.01847594487295 .0072850
7056627207 .01 .003212214103886785 -1 0 0 0 0 1 81 1 760 1417 293 741 763 0 0 75
6 764 81 1 763 1415 362 741 0 760 765 0 766 83 3 764 .792156862745098 .819607843
137255 .933333333333333 81 1 765 1413 362 757 0 761 759 763 767 82 1 766 -632684
352 81 1 761 1419 293 757 765 0 756 0 768 81 1 759 1411 362 754 0 756 0 765 769
 82 1 767 -633601856 82 1 769 -1517223705 83 3 768 .792156862745098 .81960784313
7255 .933333333333333 15 748 159 0 746 757 0 83 3 762 .792156862745098 .81960784
3137255 .933333333333333 19 742 100 0 12 0 31 28 S0 74 20 740 4 0 0 763 738 761
 25 0 0 0 0 0 0 0 0 0 0 0 0 0 0 0 0 81 2 738 1409 468 12 0 25 0 0 770 0 83 1 770
 1e3 84 6 739 sensor81 1 10 1316 5 7 771 0 0 0 772 70 11 0 4 T7 0 0 4 20 1 773 7
73 13 13 99 0 7 0 774 0 0 775 0 50 14 94 0 774 776 0 0 +-.0245125871846065 .0121
293913556656 .01 1 0 0 0 0 -1 30 15 95 0 18 777 0 0 +-.0245125871846065 .0121293
913556656 .01 0 0 -1 29 16 872 0 19 778 0 -.000937210749999265 .0121293913556656
 0 19 17 33 0 7 775 0 779 V0 16 18 79 0 ?780 0 781 15 0 0 7 18 19 870 0 782 0 78
3 16 ?7 17 782 0 784 785 786 19 787 788 0 789 -18 783 30 0 790 19 791 792 ?7 17
 790 0 793 794 795 783 796 781 0 797 +18 791 66 0 798 783 799 778 ?7 29 792 32 0
 783 800 778 -.0245125871846065 .0121293913556656 .01 29 800 955 0 799 801 792 -
.000937210749999265 .0121293913556656 .01 29 778 75 0 791 792 16 -.0245125871846
065 .0121293913556656 0 18 799 918 0 785 791 802 800 ?7 29 801 956 0 802 803 800
 -.0245125871846065 -.01204510704992236 .01 18 802 917 0 804 799 805 801 ?7 29 8
03 957 0 805 806 801 -.000937210749999265 -.01204510704992236 .01 18 805 916 0 8
07 802 808 803 ?7 29 806 959 0 808 809 803 -.0245125871846065 -.0120451070499223
6 0 18 808 920 0 810 805 811 806 ?7 29 809 960 0 811 0 806 -.000937210749999265
 -.01204510704992236 0 18 811 919 0 812 808 0 809 ?7 17 812 0 813 814 810 811 81
5 816 0 786 -15 813 929 0 814 817 0 17 814 0 813 804 812 805 786 818 0 819 -17 8
10 0 813 812 804 808 820 821 0 815 +17 815 0 822 823 787 808 812 816 0 824 +16 8
16 911 0 ?815 825 788 826 0 0 7 17 786 0 784 782 807 811 814 818 0 787 +15 784 9
32 0 785 827 0 17 807 0 784 786 785 805 795 828 0 814 +16 818 909 0 ?786 829 821
 830 0 0 7 17 787 0 822 815 831 811 782 788 0 0 +15 822 49 0 831 832 0 17 831 0
 822 787 823 19 798 833 0 0 -16 788 910 0 ?787 816 0 834 0 0 7 30 834 950 0 788
 835 826 0 +-.000937210749999265 .0121293913556656 0 0 -1 0 30 835 951 0 828 0 8
34 0 +-.000937210749999265 .0121293913556656 .01 0 -1 0 30 826 949 0 816 834 836
 0 +-.000937210749999265 -.01204510704992236 0 -1 0 0 30 836 948 0 825 826 837 0
 +-.000937210749999265 .0121293913556656 .0847345573672973 0 0 -1 16 825 905 0 ?
789 821 816 836 0 0 7 30 837 947 0 821 836 830 0 +-.0245125871846065 -.012045107
04992236 .0847345573672973 0 0 -1 16 821 907 0 ?810 818 825 837 0 0 7 30 830 946
 0 818 837 838 0 +-.000937210749999265 -.01204510704992236 .0847345573672973 0 0
 -1 30 838 945 0 829 830 839 0 +-.000937210749999265 -.01204510704992236 .01 -1
 0 0 16 829 906 0 ?804 828 818 838 0 0 7 30 839 7 0 840 838 841 0 +-.02451258718
46065 .0121293913556656 .01 0 -1 0 16 840 5 0 ?794 781 833 839 0 0 7 30 841 19 0
 781 839 842 0 +-.0245125871846065 .0121293913556656 .01 -1 0 0 16 781 874 0 ?79
0 18 840 841 0 0 7 30 842 74 0 843 841 777 0 +-.0245125871846065 .01212939135566
56 0 0 -1 0 16 843 62 0 ?824 833 828 842 0 0 7 30 777 71 0 833 842 15 0 +-.02451
25871846065 .0121293913556656 0 -1 0 0 16 833 871 0 ?798 840 843 777 0 0 7 17 79
8 0 844 797 789 791 831 833 0 780 +15 844 83 0 796 845 0 17 797 0 844 796 798 78
3 780 18 0 846 -17 789 0 844 798 796 19 785 825 0 831 +17 780 0 847 824 846 791
 797 18 0 823 +15 847 887 0 820 774 0 17 824 0 847 820 780 808 823 843 0 0 +17 8
46 0 847 780 820 783 794 840 0 0 -17 823 0 822 831 815 791 824 843 0 0 -17 820 0
 847 846 824 802 810 821 0 794 -17 794 0 793 819 790 802 846 840 0 0 +15 793 894
 0 819 848 0 17 819 0 793 795 794 805 804 829 0 0 -17 795 0 793 790 819 799 807
 828 0 796 -17 804 0 813 810 814 802 819 829 0 820 +16 828 908 0 ?807 843 829 83
5 0 0 7 17 796 0 844 789 797 799 790 781 0 0 -14 848 144 849 ?0 827 793 13 850 +
0 0 0 827 779 81 1 849 1315 293 848 851 0 852 0 853 14 827 930 852 ?848 817 784
 13 854 +0 0 848 817 779 50 850 3 0 848 854 855 0 +0 0 .01 0 0 1 1 0 0 13 779 34
 0 0 0 0 0 0 17 774 14 774 888 856 ?845 0 847 13 14 -0 0 845 0 779 81 1 856 1310
 293 774 857 0 0 858 859 14 845 84 858 ?832 774 844 13 776 -0 0 832 774 779 81 1
 858 1311 293 845 860 0 856 861 862 14 832 48 861 ?817 845 822 13 855 -0 0 817 8
45 779 50 776 91 0 845 855 14 0 +-.0245125871846065 .0121293913556656 .01 0 -1 0
 0 0 -1 50 855 70 0 832 850 776 0 +0 0 0 0 0 1 1 0 0 81 1 861 1312 293 832 863 0
 858 864 865 14 817 927 864 ?827 832 813 13 866 +0 0 827 832 779 81 1 864 1313 2
93 817 867 0 861 852 868 50 866 940 0 817 0 854 0 +-.000937210749999265 -.012045
10704992236 .0847345573672973 0 -1 0 0 0 -1 50 854 939 0 827 866 850 0 +-.000937
210749999265 .0121293913556656 .0847345573672973 1 0 0 0 0 -1 81 1 867 1308 362
 817 0 864 863 0 869 81 1 852 1314 293 827 870 0 864 849 871 83 3 868 .792156862
745098 .819607843137255 .933333333333333 81 1 870 1300 362 827 0 852 851 857 872
 83 3 871 .792156862745098 .819607843137255 .933333333333333 81 1 851 1297 362 8
48 0 849 0 870 873 81 1 857 1302 362 774 0 856 870 860 874 82 1 872 -1614348059
 81 1 860 1304 362 845 0 858 857 863 875 82 1 874 -1559953179 81 1 863 1306 362
 832 0 861 860 867 876 82 1 875 -663682843 82 1 876 -664600347 82 1 873 -6303905
47 82 1 869 -1615986459 83 3 865 .792156862745098 .819607843137255 .933333333333
333 83 3 862 .792156862745098 .819607843137255 .933333333333333 83 3 859 .792156
862745098 .819607843137255 .933333333333333 83 3 853 .792156862745098 .819607843
137255 .933333333333333 17 785 0 784 807 782 799 789 825 0 795 -19 775 100 0 7 0
 17 13 S0 74 20 773 4 0 0 867 771 849 10 0 0 0 0 0 0 0 0 0 0 0 0 0 0 0 0 81 2 77
1 1295 468 7 0 10 0 0 877 0 83 1 877 1e3 84 10 772 sensorbase74 20 6 1 0 0 2 0 0
 0 0 0 0 0 0 0 0 0 0 0 0 0 0 0 0 0 1 0 
