**ABCDEFGHIJKLMNOPQRSTUVWXYZabcdefghijklmnopqrstuvwxyz**************************
**PARASOLID !"#$%&'()*+,-./:;<=>?@[\]^_`{|}~0123456789**************************
**PART1;
MC=AMD64;
MC_MODEL=Intel64 Family 6 Model 140 Stepping 2, GenuineIntel;
MC_ID=unknown;
OS=Windows_NT;
OS_RELEASE=unknown;
FRU=Parasolid Version 33.1, build 260,  4-25-2022;
APPL=SOLIDWORKS 2022-2022290;
SITE=;
USER=unknown;
FORMAT=text;
GUISE=transmit;
KEY=FILEpegsensor1021.x_t;
DATE=Sat Oct 21 21:48:51 2023;
**PART2;
SCH=SCH_3301260_33103;
USFLD_SIZE=0;
**PART3;
**END_OF_HEADER*****************************************************************
T51 : TRANSMIT FILE created by modeller version 330126023 SCH_3301260_33103_1300
6230 0 10 21 CCCCI7 lattice222 0 CCCI4 mesh1006 0 I8 polyline1008 0 CCCCCCCCCCA1
6 mesh_offset_data206 0 Z1 43 2 3 0 0 0 0 0 0 0 0 1e3 1e-8 0 0 0 1 0 1 4 0 81 25
5 1 2 43 5 1 0 0 0 0 0 70 11 CI9 list_type0 0 1 uI10 notransmit0 0 1 lCCCDCCDI12
 finger_index0 0 1 dI12 finger_block1012 0 CZ3 0 4 T1 0 0 1 20 1 6 6 11 255 4 41
 0 1 7 8 1 9 0 10 0 12 35 CCCI7 lattice222 0 CCCI4 mesh1006 0 I8 polyline1008 0
 CCCCCCCDI5 owner1040 0 CCCCCCI13 boundary_mesh1006 0 I17 boundary_polyline1008
 0 CCCA16 index_map_offset0 0 1 dA9 index_map82 0 A17 node_id_index_map82 0 A20
 schema_embedding_map82 0 A5 child12 0 A14 lowest_node_id0 0 1 dA16 mesh_offset_
data206 0 Z7 1412 11 12 0 0 0 0 0 0 0 1e3 1e-8 4 13 14 1 0 1 1 15 16 17 0 0 0 18
 19 0 0 0 0 0 0 0 0 100 10 CCCCCCCCCA9 precision229 0 Z8 42 4 0 0 -3816391647148
975e-31 1 343999698216588e-30 551378558027098e-30 338602921039118e-30 -1 -1 -381
6391647148975e-31 -555943590626344e-30 .0171525527830512 .0450970861444674 .0374
573007799646 1 3 ?0 11 9 39 0 1 13 20 1 21 4 22 0 12 13 67 23 24 0 0 0 0 0 0 0 1
e3 1e-8 9 25 7 1 0 1 1 26 27 28 0 0 0 29 30 0 0 0 0 0 0 0 0 100 20 40 9 0 0 -381
6391647148975e-31 1 343999698216588e-30 551378558027098e-30 338602921039118e-30
 -1 -1 -3816391647148975e-31 -555943590626344e-30 .0171525527830512 .04509708614
44674 .0374573007799646 1 3 ?0 11 21 37 0 1 25 31 1 32 9 33 0 12 25 61 34 35 0 0
 0 0 0 0 0 1e3 1e-8 21 36 13 1 0 1 1 37 38 39 0 0 0 40 41 0 0 0 0 0 0 0 0 100 31
 38 21 0 0 -3816391647148975e-31 1 343999698216588e-30 551378558027098e-30 33860
2921039118e-30 -1 -1 -3816391647148975e-31 -555943590626344e-30 .017152552783051
2 .0450970861444674 .0374573007799646 1 3 ?0 11 32 35 0 1 36 42 1 43 21 44 0 12
 36 61 45 46 0 0 0 0 0 0 0 1e3 1e-8 32 47 25 1 0 1 1 48 49 50 0 0 0 51 52 0 0 0
 0 0 0 0 0 100 42 36 32 0 0 -3816391647148975e-31 1 343999698216588e-30 55137855
8027098e-30 338602921039118e-30 -1 -1 -3816391647148975e-31 -555943590626344e-30
 .0171525527830512 .0450970861444674 .0374573007799646 1 3 ?0 11 43 33 0 1 47 53
 1 54 32 55 0 12 47 61 56 57 0 0 0 0 0 0 0 1e3 1e-8 43 58 36 1 0 1 1 59 60 61 0
 0 0 62 63 0 0 0 0 0 0 0 0 100 53 34 43 0 0 -3816391647148975e-31 1 343999698216
588e-30 551378558027098e-30 338602921039118e-30 -1 -1 -3816391647148975e-31 -555
943590626344e-30 .0171525527830512 .0450970861444674 .0374573007799646 1 3 ?0 11
 54 31 0 1 58 64 1 65 43 66 0 12 58 61 67 68 0 0 0 0 0 0 0 1e3 1e-8 54 69 47 1 0
 1 1 70 71 72 0 0 0 73 74 0 0 0 0 0 0 0 0 100 64 32 54 0 0 -3816391647148975e-31
 1 343999698216588e-30 551378558027098e-30 338602921039118e-30 -1 -1 -3816391647
148975e-31 -555943590626344e-30 .0171525527830512 .0450970861444674 .03745730077
99646 1 3 ?0 11 65 29 0 1 69 75 1 76 54 77 0 12 69 61 78 79 0 0 0 0 0 0 0 1e3 1e
-8 65 80 58 1 0 1 1 81 82 83 0 0 0 84 85 0 0 0 0 0 0 0 0 100 75 30 65 0 0 -38163
91647148975e-31 1 343999698216588e-30 551378558027098e-30 338602921039118e-30 -1
 -1 -3816391647148975e-31 -555943590626344e-30 .0171525527830512 .04509708614446
74 .0374573007799646 1 3 ?0 11 76 27 0 1 80 86 1 87 65 88 0 12 80 61 89 90 0 0 0
 0 0 0 0 1e3 1e-8 76 91 69 1 0 1 1 92 93 94 0 0 0 95 96 0 0 0 0 0 0 0 0 100 86 2
8 76 0 0 -3816391647148975e-31 1 343999698216588e-30 551378558027098e-30 3386029
21039118e-30 -1 -1 -3816391647148975e-31 -555943590626344e-30 .0171525527830512
 .0450970861444674 .0374573007799646 1 3 ?0 11 87 25 0 1 91 97 1 98 76 99 0 12 9
1 61 100 101 0 0 0 0 0 0 0 1e3 1e-8 87 102 80 1 0 1 1 103 104 105 0 0 0 106 107
 0 0 0 0 0 0 0 0 100 97 26 87 0 0 -3816391647148975e-31 1 343999698216588e-30 55
1378558027098e-30 338602921039118e-30 -1 -1 -3816391647148975e-31 -5559435906263
44e-30 .0171525527830512 .0450970861444674 .0374573007799646 1 3 ?0 11 98 23 0 1
 14 108 1 109 87 109 0 12 14 1312 110 111 0 0 0 0 0 0 0 1e3 1e-8 98 7 0 1 0 1 1
 112 113 114 115 0 0 116 117 118 0 0 0 0 0 0 0 100 108 24 98 0 0 -.0001575698709
227415 .999999987585868 213306885153789e-30 -1980489130875055e-33 -2180338760630
335e-31 1 .999999987585868 .0001575698709227495 -275573929645651e-30 .0181388320
638377 .0086726579366938 .0627041073072283 1 3 ?0 11 109 21 0 1 14 119 1 10 98 0
 98 100 119 22 109 0 0 .999999690256765 .000787074567244536 -3796152082197795e-3
1 415576634834213e-30 804330280841999e-30 1 .000787074567244468 -.99999969025676
5 720792844976509e-30 .03029610546713045 .0350970861444674 .0501194247782309 1 3
 ?0 11 10 19 0 1 7 120 1 22 109 0 4 100 120 20 10 0 0 1 -1506731261294965e-31 11
62147264762484e-31 -1162147264113082e-31 219432235707747e-30 1 -674063988690195e
-31 -1 2194322357804835e-31 .02891356822227325 .0086726579366938 .04921831621918
67 1 3 ?0 11 22 17 0 1 13 121 1 33 10 0 9 100 121 18 22 0 0 1 -1506731261294965e
-31 1162147264762484e-31 -1162147264113082e-31 219432235707747e-30 1 -6740639886
90195e-31 -1 2194322357804835e-31 .02891356822227325 .0086726579366938 .04921831
62191867 1 3 ?0 11 33 15 0 1 25 122 1 44 22 0 21 100 122 16 33 0 0 1 -1506731261
294965e-31 1162147264762484e-31 -1162147264113082e-31 219432235707747e-30 1 -674
063988690195e-31 -1 2194322357804835e-31 .02891356822227325 .0086726579366938 .0
492183162191867 1 3 ?0 11 44 13 0 1 36 123 1 55 33 0 32 100 123 14 44 0 0 1 -150
6731261294965e-31 1162147264762484e-31 -1162147264113082e-31 219432235707747e-30
 1 -674063988690195e-31 -1 2194322357804835e-31 .02891356822227325 .008672657936
6938 .0492183162191867 1 3 ?0 11 55 11 0 1 47 124 1 66 44 0 43 100 124 12 55 0 0
 1 -1506731261294965e-31 1162147264762484e-31 -1162147264113082e-31 219432235707
747e-30 1 -674063988690195e-31 -1 2194322357804835e-31 .02891356822227325 .00867
26579366938 .0492183162191867 1 3 ?0 11 66 9 0 1 58 125 1 77 55 0 54 100 125 10
 66 0 0 1 -1506731261294965e-31 1162147264762484e-31 -1162147264113082e-31 21943
2235707747e-30 1 -674063988690195e-31 -1 2194322357804835e-31 .02891356822227325
 .0086726579366938 .0492183162191867 1 3 ?0 11 77 7 0 1 69 126 1 88 66 0 65 100
 126 8 77 0 0 1 -1506731261294965e-31 1162147264762484e-31 -1162147264113082e-31
 219432235707747e-30 1 -674063988690195e-31 -1 2194322357804835e-31 .02891356822
227325 .0086726579366938 .0492183162191867 1 3 ?0 11 88 5 0 1 80 127 1 99 77 0 7
6 100 127 6 88 0 0 1 -1506731261294965e-31 1162147264762484e-31 -116214726411308
2e-31 219432235707747e-30 1 -674063988690195e-31 -1 2194322357804835e-31 .028913
56822227325 .0086726579366938 .0492183162191867 1 3 ?0 11 99 3 0 1 91 128 1 129
 88 0 87 100 128 4 99 0 0 1 -1506731261294965e-31 1162147264762484e-31 -11621472
64113082e-31 219432235707747e-30 1 -674063988690195e-31 -1 2194322357804835e-31
 .02891356822227325 .0086726579366938 .0492183162191867 1 3 ?0 11 129 1 0 1 102
 130 1 0 99 0 0 12 102 512 131 132 0 0 0 0 0 0 0 1e3 1e-8 129 133 91 1 0 1 1 134
 135 136 137 0 0 138 139 140 0 0 0 0 0 0 0 100 130 2 129 0 0 1 0 0 0 1 0 0 0 1 .
02014478155118255 .02688487204058055 .01457256483440236 1 1 ?0 81 1 131 512 5 10
2 141 0 0 0 142 70 132 0 4 T102 0 0 4 20 1 143 143 13 255 134 315 0 102 0 144 0
 0 145 0 50 255 135 302 0 146 147 0 0 +.0015 0 .05 1 0 0 0 0 -1 30 255 136 314 0
 148 149 0 0 +.0015 .003 .05 0 0 -1 29 255 137 243 0 150 151 0 .015 -.005 0 19 8
 CCCCCCCA5 owner12 0 Z138 111 0 102 145 0 152 V0 16 255 139 258 0 ?153 0 154 155
 0 0 102 18 255 140 106 0 156 0 157 158 ?102 17 255 156 0 159 160 161 140 162 16
3 0 164 +18 157 103 0 165 140 166 167 ?102 29 158 108 0 140 167 168 .015 -.005 .
05 29 167 105 0 157 169 158 -.015 -.005 .05 29 168 254 0 170 158 171 .0015 .003
 0 18 170 229 0 172 173 0 168 ?102 29 171 253 0 173 168 174 .013 .003 0 18 173 2
28 0 175 176 170 171 ?102 29 174 252 0 176 171 177 .013 -.003 0 18 176 227 0 178
 179 173 174 ?102 29 177 251 0 179 174 180 .0015 -.003 0 18 179 226 0 181 182 17
6 177 ?102 29 180 250 0 182 177 183 -.0015 .003 0 18 182 225 0 184 185 179 180 ?
102 29 183 249 0 185 180 186 -.0015 -.003 0 18 185 224 0 187 188 182 183 ?102 29
 186 248 0 188 183 189 -.013 -.003 0 18 188 223 0 190 191 185 186 ?102 29 189 24
7 0 191 186 192 -.013 .003 0 18 191 222 0 193 194 188 189 ?102 29 192 246 0 194
 189 195 .015 .005 0 18 194 221 0 153 196 191 192 ?102 29 195 245 0 196 192 151
 -.015 .005 0 18 196 220 0 197 198 194 195 ?102 29 151 244 0 198 195 137 -.015 -
.005 0 18 198 219 0 199 150 196 151 ?102 17 199 0 200 201 162 198 165 202 0 203
 +18 150 218 0 201 204 198 137 ?102 17 201 0 200 164 199 150 203 205 0 206 +18 2
04 73 0 207 208 150 209 ?102 17 207 0 210 211 212 204 172 148 0 213 -18 208 76 0
 214 215 204 216 ?102 29 209 75 0 204 0 216 .0015 .003 .05 29 216 78 0 208 209 2
17 .013 .003 .05 29 217 81 0 215 216 218 .013 -.003 .05 18 215 79 0 219 220 208
 217 ?102 29 218 84 0 220 217 221 .0015 -.003 .05 18 220 82 0 222 223 215 218 ?1
02 29 221 87 0 223 218 224 -.0015 .003 .05 18 223 85 0 225 226 220 221 ?102 29 2
24 90 0 226 221 227 -.0015 -.003 .05 18 226 88 0 228 229 223 224 ?102 29 227 93
 0 229 224 230 -.013 -.003 .05 18 229 91 0 231 232 226 227 ?102 29 230 96 0 232
 227 233 -.013 .003 .05 18 232 94 0 234 235 229 230 ?102 29 233 99 0 235 230 169
 .015 .005 .05 18 235 97 0 160 166 232 233 ?102 29 169 102 0 166 233 167 -.015 .
005 .05 18 166 100 0 236 157 235 169 ?102 17 236 0 237 238 239 166 197 154 0 240
 -15 255 237 271 0 239 241 0 17 238 0 237 153 236 235 240 242 0 0 +17 239 0 237
 236 153 196 243 244 0 245 -17 197 0 246 247 248 196 236 154 0 239 +16 154 257 0
 ?197 139 202 249 0 0 102 17 240 0 159 161 160 166 238 242 0 248 -15 159 6 0 160
 250 0 17 161 0 159 156 240 157 248 251 0 0 -17 160 0 159 240 156 235 252 253 0
 254 +16 242 54 0 ?238 251 253 255 0 0 102 17 248 0 246 197 165 166 161 251 0 0
 +15 246 269 0 247 256 0 17 165 0 246 248 247 157 199 202 0 162 -16 251 61 0 ?24
8 163 242 257 0 0 102 16 163 66 0 ?156 258 251 259 0 0 102 30 257 63 0 251 255 2
59 0 +-.015 0 .05 0 1 0 30 255 56 0 242 260 257 0 +0 .005 .05 1 0 0 30 259 68 0
 163 257 261 0 +0 -.005 .05 1 0 0 30 261 242 0 262 259 263 0 +.0015 0 0 0 -1 0 1
6 262 212 0 ?264 265 0 261 0 0 102 30 263 241 0 265 261 266 0 +-1131341397376176
e-34 .003 0 1 377113799125393e-31 0 16 265 207 0 ?267 268 262 263 0 0 102 30 266
 240 0 268 263 269 0 +.013 -375856753128308e-32 0 289120579329468e-30 1 0 16 268
 202 0 ?270 271 265 266 0 0 102 30 269 239 0 271 266 272 0 +0 -.003 0 1 0 0 16 2
71 197 0 ?273 274 268 269 0 0 102 30 272 238 0 274 269 275 0 +0 .003 0 1 0 0 16
 274 192 0 ?276 277 271 272 0 0 102 30 275 237 0 277 272 278 0 +-.0015 0 0 0 -1
 0 16 277 186 0 ?279 280 274 275 0 0 102 30 278 236 0 280 275 281 0 +0 -.003 0 1
 0 0 16 280 181 0 ?282 283 277 278 0 0 102 30 281 235 0 283 278 284 0 +-.013 0 0
 0 1 0 16 283 176 0 ?193 285 280 281 0 0 102 30 284 234 0 285 281 286 0 +.015 0
 0 0 1 0 16 285 171 0 ?287 244 283 284 0 0 102 30 286 233 0 244 284 288 0 +0 .00
5 0 1 0 0 16 244 164 0 ?243 289 285 286 0 0 102 30 288 232 0 289 286 290 0 +-.01
5 0 0 0 1 0 16 289 159 0 ?245 205 244 288 0 0 102 30 290 231 0 205 288 291 0 +0
 -.005 0 1 0 0 16 205 152 0 ?201 292 289 290 0 0 102 30 291 303 0 293 290 294 0
 +.015 -.005 .05 0 0 -1 16 293 255 0 ?206 202 295 291 0 0 102 30 294 304 0 202 2
91 249 0 +-.015 -.005 .05 0 0 -1 16 202 256 0 ?199 154 293 294 0 0 102 30 249 30
5 0 154 294 155 0 +-.015 .005 .05 0 0 -1 30 155 306 0 139 249 296 0 +.015 .005 .
05 0 0 -1 30 296 307 0 297 155 298 0 +-.013 .003 .05 0 0 -1 16 297 259 0 ?299 30
0 148 296 0 0 102 30 298 308 0 300 296 301 0 +-.013 -.003 .05 0 0 -1 16 300 260
 0 ?190 302 297 298 0 0 102 30 301 309 0 302 298 303 0 +-.0015 -.003 .05 0 0 -1
 16 302 261 0 ?187 295 300 301 0 0 102 30 303 310 0 295 301 304 0 +-.0015 .003 .
05 0 0 -1 16 295 262 0 ?305 293 302 303 0 0 102 30 304 311 0 258 303 306 0 +.001
5 -.003 .05 0 0 -1 16 258 263 0 ?181 307 163 304 0 0 102 30 306 312 0 307 304 14
9 0 +.013 -.003 .05 0 0 -1 16 307 264 0 ?178 308 258 306 0 0 102 30 149 313 0 30
8 306 136 0 +.013 .003 .05 0 0 -1 16 308 265 0 ?175 148 307 149 0 0 102 17 175 0
 309 310 311 173 312 308 0 267 +16 148 266 0 ?172 297 308 136 0 0 102 17 172 0 3
13 267 213 170 207 148 0 314 +15 313 287 0 267 315 0 17 267 0 313 312 172 173 31
4 265 0 270 +17 213 0 313 172 312 204 214 316 0 317 -17 314 0 318 264 270 170 26
7 265 0 212 -15 318 149 0 264 319 320 17 264 0 318 273 314 179 212 262 0 321 +17
 270 0 318 314 273 173 310 268 0 0 +17 212 0 210 207 181 170 264 262 0 0 -15 210
 289 0 212 146 0 17 181 0 210 212 211 179 222 258 0 264 +17 211 0 210 181 207 22
0 317 292 0 322 +17 222 0 323 324 321 220 181 258 0 211 -15 323 283 0 321 325 0
 17 324 0 323 178 222 215 322 326 0 0 +17 321 0 323 222 178 179 273 271 0 0 -17
 178 0 323 321 324 176 219 307 0 310 +17 273 0 318 270 264 176 321 271 0 0 +17 2
19 0 309 311 310 215 178 307 0 327 -17 310 0 309 219 175 176 270 268 0 273 -15 3
09 285 0 310 328 0 14 255 328 286 329 ?330 315 309 134 331 +0 0 330 315 152 81 1
 329 506 332 328 333 0 334 335 336 14 330 276 335 ?325 328 337 134 338 -0 0 325
 328 152 14 315 288 334 ?328 146 313 134 147 -0 0 328 146 152 50 331 300 0 328 3
39 147 0 +.013 -375856753128308e-32 .05 -1 289120579329468e-30 0 -28912057932946
8e-30 -1 0 13 152 112 0 0 0 0 0 0 138 144 14 144 274 340 ?241 0 341 134 342 -0 0
 241 0 152 81 1 340 498 332 144 343 0 0 344 345 14 241 272 344 ?256 144 237 134
 346 +0 0 256 144 152 15 341 273 0 287 144 0 50 342 294 0 144 346 338 0 +.015 0
 .05 -1 0 0 0 0 1 50 346 293 0 241 347 342 0 +0 .005 .05 0 1 0 0 0 1 50 338 295
 0 330 342 348 0 +-.013 0 .05 -1 0 0 0 0 1 50 348 296 0 349 338 350 0 +0 -.003 .
05 0 1 0 0 0 1 14 349 278 351 ?146 352 353 134 348 +0 0 146 352 152 50 350 297 0
 352 348 354 0 +-.0015 0 .05 1 0 0 0 0 -1 14 352 280 355 ?349 356 357 134 350 -0
 0 349 356 152 50 354 298 0 356 350 339 0 +0 .003 .05 0 1 0 0 0 1 14 356 282 358
 ?352 256 359 134 354 -0 0 352 256 152 50 339 299 0 325 354 331 0 +0 -.003 .05 0
 1 0 0 0 1 14 325 284 360 ?361 330 323 134 339 +0 0 361 330 152 81 1 360 508 332
 325 362 0 335 363 364 14 361 268 363 ?250 325 200 134 365 -0 0 250 325 152 81 1
 363 509 332 361 366 0 360 367 368 14 250 1 367 ?319 361 369 134 370 +0 0 319 36
1 152 15 200 267 0 201 361 0 50 365 291 0 361 371 347 0 +0 -.005 .05 0 1 0 0 0 1
 50 371 230 0 319 370 365 0 +0 0 0 0 0 1 1 0 0 50 347 292 0 256 365 346 0 +-.015
 0 .05 -1 0 0 0 0 1 14 256 270 372 ?356 241 246 134 347 +0 0 356 241 152 81 1 37
2 500 332 256 373 0 344 358 374 80 255 1 332 0 375 8001 0 0 0 0 3 5 0 0 0 FFFFTF
TFFFFFFF2 81 1 373 489 376 256 0 372 377 378 379 81 1 344 499 332 241 380 0 340
 372 381 81 1 358 501 332 356 382 0 372 355 383 83 255 3 374 1 1 1 81 1 382 479
 376 356 0 358 384 362 385 81 1 355 502 332 352 384 0 358 351 386 83 3 383 1 1 1
 81 1 384 476 376 352 0 355 387 382 388 81 1 351 503 332 349 387 0 355 389 390 8
3 3 386 1 1 1 81 1 387 474 376 349 0 351 380 384 391 81 1 389 504 332 146 378 0
 351 334 392 83 3 390 1 1 1 14 146 290 389 ?315 349 210 134 135 +0 0 315 349 152
 81 1 378 491 376 146 0 389 373 393 394 81 1 334 505 332 315 395 0 389 329 396 8
3 3 392 1 1 1 81 1 395 468 376 315 0 334 397 343 398 83 3 396 1 1 1 80 1 376 399
 400 9000 1 1 1 1 1 1 1 1 0 FFFFTFTFFFFFFF1 81 1 397 466 376 330 0 335 333 395 4
01 81 1 343 470 376 144 0 340 395 380 402 82 255 1 398 -1195310963 81 1 380 472
 376 241 0 344 343 387 403 82 1 402 -1196949363 82 1 403 -1197080435 81 1 335 50
7 332 330 397 0 329 360 404 81 1 333 464 376 328 0 329 0 397 405 82 1 401 -11966
21683 82 1 405 -1195442035 83 3 404 1 1 1 79 255 14 400 SWEntUnchanged81 1 393 4
94 376 319 0 406 378 0 407 82 1 394 -1194983283 14 319 148 406 ?0 250 318 134 37
1 -0 0 0 250 152 81 1 406 511 332 319 393 0 367 0 408 82 1 407 -1200881523 81 1
 367 510 332 250 377 0 363 406 409 83 3 408 1 1 1 81 1 377 485 376 250 0 367 366
 373 410 83 3 409 1 1 1 81 1 366 483 376 361 0 363 362 377 411 82 1 410 -1218379
635 81 1 362 481 376 325 0 360 382 366 412 82 1 411 -1197539187 82 1 412 -119557
3107 82 1 391 -1196359539 82 1 388 -1196162931 82 1 385 -1195835251 83 3 381 1 1
 1 82 1 379 -1197277043 79 15 375 SDL/TYSA_COLOUR50 370 3 0 250 0 371 0 +0 0 .05
 0 0 1 1 0 0 15 369 4 0 317 250 413 17 317 0 369 214 322 204 211 292 0 0 -15 413
 5 0 414 250 159 17 414 0 413 228 234 223 415 416 0 417 +17 228 0 413 418 414 22
6 225 419 0 420 +17 234 0 413 414 418 232 421 422 0 423 +17 415 0 359 299 417 23
2 414 416 0 0 -16 416 28 0 ?414 419 326 424 0 0 102 17 417 0 359 415 276 223 305
 295 0 0 -15 359 281 0 276 356 0 17 276 0 359 417 299 182 425 274 0 0 +17 305 0
 357 279 225 182 417 295 0 276 +15 357 279 0 279 352 0 17 279 0 357 420 305 185
 184 277 0 282 +17 225 0 357 305 420 223 228 419 0 414 -17 420 0 357 225 279 226
 187 302 0 426 -16 419 33 0 ?228 427 416 428 0 0 102 16 427 39 0 ?426 422 419 42
9 0 0 102 30 428 35 0 419 424 429 0 +-.0015 0 .05 0 -1 0 30 424 30 0 416 430 428
 0 +0 .003 .05 1 0 0 30 429 41 0 427 428 431 0 +0 -.003 .05 1 0 0 30 431 46 0 42
2 429 260 0 +-.013 0 .05 0 1 0 16 422 44 0 ?234 253 427 431 0 0 102 30 260 51 0
 253 431 255 0 +.015 0 .05 0 1 0 16 253 49 0 ?160 242 422 260 0 0 102 30 430 25
 0 326 432 424 0 +0 -.003 .05 1 0 0 16 326 23 0 ?324 416 433 430 0 0 102 30 432
 20 0 433 434 430 0 +.013 -375856753128308e-32 .05 289120579329468e-30 1 0 16 43
3 18 0 ?311 326 316 432 0 0 102 30 434 15 0 316 435 432 0 +-1131341397376176e-34
 .003 .05 1 377113799125393e-31 0 16 316 13 0 ?214 433 292 434 0 0 102 30 435 9
 0 292 0 434 0 +.0015 0 .05 0 -1 0 16 292 7 0 ?211 316 205 435 0 0 102 17 214 0
 369 327 317 208 213 316 0 312 +17 327 0 369 322 214 215 311 433 0 324 -17 312 0
 313 213 267 208 175 308 0 311 -17 311 0 309 175 219 208 327 433 0 0 +17 322 0 3
69 317 327 220 324 326 0 0 -17 426 0 353 187 231 226 418 427 0 0 +15 353 277 0 4
36 349 0 17 187 0 353 436 426 185 420 302 0 279 +17 231 0 353 426 436 229 190 30
0 0 421 -17 418 0 413 234 228 229 426 427 0 0 -17 436 0 353 231 187 188 282 280
 0 0 -17 190 0 337 193 421 188 231 300 0 437 +17 421 0 337 190 423 229 234 422 0
 418 -15 337 275 0 193 330 0 17 423 0 337 421 193 232 299 297 0 415 -17 193 0 33
7 423 190 191 437 283 0 299 +17 299 0 359 276 415 191 423 297 0 425 +17 425 0 32
0 437 184 191 276 274 0 0 -15 320 150 0 425 319 438 17 437 0 320 282 425 188 193
 283 0 436 -17 184 0 320 425 282 182 279 277 0 305 -17 282 0 320 184 437 185 436
 280 0 0 +15 438 151 0 439 319 0 17 439 0 438 203 243 150 287 285 0 0 -17 203 0
 438 245 439 198 201 205 0 247 -17 243 0 438 439 245 194 239 244 0 0 +17 287 0 3
41 254 206 194 439 285 0 243 +17 254 0 341 252 287 235 153 139 0 238 -17 206 0 3
41 287 252 150 164 293 0 439 +17 252 0 341 206 254 140 160 253 0 0 -17 164 0 200
 162 201 140 206 293 0 252 -17 162 0 200 199 164 157 156 163 0 161 -17 153 0 237
 239 238 194 254 139 0 287 +17 245 0 438 243 203 196 247 289 0 0 +17 247 0 246 1
65 197 198 245 289 0 0 -83 3 368 1 1 1 83 3 364 1 1 1 83 3 345 1 1 1 50 147 301
 0 315 331 135 0 +-1131341397376176e-34 .003 .05 -377113799125393e-31 1 0 -1 -37
7113799125393e-31 0 83 3 336 1 1 1 19 145 316 0 102 0 138 134 S0 74 4 CI16 index
_map_offset0 0 1 dCCZ20 143 4 0 0 393 141 406 131 0 0 0 0 0 0 0 0 0 0 0 0 0 0 0
 0 81 2 141 406 440 102 0 131 0 0 441 0 80 2 440 442 443 8004 0 0 0 0 3 5 0 0 0
 FFTFFFFFFFFFFF2 3 83 1 441 1e3 79 16 443 SDL/TYSA_DENSITY80 1 5 444 445 8017 0
 0 0 0 0 0 0 0 0 TTTTTTTTTTTTTF3 84 255 4 142 ²åÍ·79 13 445 SDL/TYSA_NAME81 1 11
0 1312 5 14 0 0 0 0 446 70 111 0 4 T14 0 0 3 20 1 447 447 13 112 99 0 14 0 448 0
 0 449 0 50 113 94 0 448 450 0 0 +-.0245125871846065 .0121293913556656 .01 1 0 0
 0 0 -1 30 114 95 0 117 451 0 0 +-.0245125871846065 .0121293913556656 .01 0 0 -1
 29 115 872 0 118 452 0 -.000937210749999265 .0121293913556656 0 19 116 33 0 14
 449 0 453 V0 16 117 79 0 ?454 0 455 114 0 0 14 18 118 870 0 456 0 457 115 ?14 1
7 456 0 458 459 460 118 461 462 0 463 -18 457 30 0 464 118 465 466 ?14 17 464 0
 467 468 469 457 470 455 0 471 +18 465 66 0 472 457 473 452 ?14 29 466 32 0 457
 474 452 -.0245125871846065 .0121293913556656 .01 29 474 955 0 473 475 466 -.000
937210749999265 .0121293913556656 .01 29 452 75 0 465 466 115 -.0245125871846065
 .0121293913556656 0 18 473 918 0 459 465 476 474 ?14 29 475 956 0 476 477 474 -
.0245125871846065 -.01204510704992236 .01 18 476 917 0 478 473 479 475 ?14 29 47
7 957 0 479 480 475 -.000937210749999265 -.01204510704992236 .01 18 479 916 0 48
1 476 482 477 ?14 29 480 959 0 482 483 477 -.0245125871846065 -.0120451070499223
6 0 18 482 920 0 484 479 485 480 ?14 29 483 960 0 485 0 480 -.000937210749999265
 -.01204510704992236 0 18 485 919 0 486 482 0 483 ?14 17 486 0 487 488 484 485 4
89 490 0 460 -15 487 929 0 488 491 0 17 488 0 487 478 486 479 460 492 0 493 -17
 484 0 487 486 478 482 494 495 0 489 +17 489 0 496 497 461 482 486 490 0 498 +16
 490 911 0 ?489 499 462 500 0 0 14 17 460 0 458 456 481 485 488 492 0 461 +15 45
8 932 0 459 501 0 17 481 0 458 460 459 479 469 502 0 488 +16 492 909 0 ?460 503
 495 504 0 0 14 17 461 0 496 489 505 485 456 462 0 0 +15 496 49 0 505 506 0 17 5
05 0 496 461 497 118 472 507 0 0 -16 462 910 0 ?461 490 0 508 0 0 14 30 508 950
 0 462 509 500 0 +-.000937210749999265 .0121293913556656 0 0 -1 0 30 509 951 0 5
02 0 508 0 +-.000937210749999265 .0121293913556656 .01 0 -1 0 30 500 949 0 490 5
08 510 0 +-.000937210749999265 -.01204510704992236 0 -1 0 0 30 510 948 0 499 500
 511 0 +-.000937210749999265 .0121293913556656 .0847345573672973 0 0 -1 16 499 9
05 0 ?463 495 490 510 0 0 14 30 511 947 0 495 510 504 0 +-.0245125871846065 -.01
204510704992236 .0847345573672973 0 0 -1 16 495 907 0 ?484 492 499 511 0 0 14 30
 504 946 0 492 511 512 0 +-.000937210749999265 -.01204510704992236 .084734557367
2973 0 0 -1 30 512 945 0 503 504 513 0 +-.000937210749999265 -.01204510704992236
 .01 -1 0 0 16 503 906 0 ?478 502 492 512 0 0 14 30 513 7 0 514 512 515 0 +-.024
5125871846065 .0121293913556656 .01 0 -1 0 16 514 5 0 ?468 455 507 513 0 0 14 30
 515 19 0 455 513 516 0 +-.0245125871846065 .0121293913556656 .01 -1 0 0 16 455
 874 0 ?464 117 514 515 0 0 14 30 516 74 0 517 515 451 0 +-.0245125871846065 .01
21293913556656 0 0 -1 0 16 517 62 0 ?498 507 502 516 0 0 14 30 451 71 0 507 516
 114 0 +-.0245125871846065 .0121293913556656 0 -1 0 0 16 507 871 0 ?472 514 517
 451 0 0 14 17 472 0 518 471 463 465 505 507 0 454 +15 518 83 0 470 519 0 17 471
 0 518 470 472 457 454 117 0 520 -17 463 0 518 472 470 118 459 499 0 505 +17 454
 0 521 498 520 465 471 117 0 497 +15 521 887 0 494 448 0 17 498 0 521 494 454 48
2 497 517 0 0 +17 520 0 521 454 494 457 468 514 0 0 -17 497 0 496 505 489 465 49
8 517 0 0 -17 494 0 521 520 498 476 484 495 0 468 -17 468 0 467 493 464 476 520
 514 0 0 +15 467 894 0 493 522 0 17 493 0 467 469 468 479 478 503 0 0 -17 469 0
 467 464 493 473 481 502 0 470 -17 478 0 487 484 488 476 493 503 0 494 +16 502 9
08 0 ?481 517 503 509 0 0 14 17 470 0 518 463 471 473 464 455 0 0 -14 522 144 52
3 ?0 501 467 112 524 +0 0 0 501 453 81 1 523 1311 332 522 525 0 526 0 527 14 501
 930 526 ?522 491 458 112 528 +0 0 522 491 453 50 524 3 0 522 528 529 0 +0 0 .01
 0 0 1 1 0 0 13 453 34 0 0 0 0 0 0 116 448 14 448 888 530 ?519 0 521 112 113 -0
 0 519 0 453 81 1 530 1306 332 448 531 0 0 532 533 14 519 84 532 ?506 448 518 11
2 450 -0 0 506 448 453 81 1 532 1307 332 519 534 0 530 535 536 14 506 48 535 ?49
1 519 496 112 529 -0 0 491 519 453 50 450 91 0 519 529 113 0 +-.0245125871846065
 .0121293913556656 .01 0 -1 0 0 0 -1 50 529 70 0 506 524 450 0 +0 0 0 0 0 1 1 0
 0 81 1 535 1308 332 506 537 0 532 538 539 14 491 927 538 ?501 506 487 112 540 +
0 0 501 506 453 81 1 538 1309 332 491 541 0 535 526 542 50 540 940 0 491 0 528 0
 +-.000937210749999265 -.01204510704992236 .0847345573672973 0 -1 0 0 0 -1 50 52
8 939 0 501 540 524 0 +-.000937210749999265 .0121293913556656 .0847345573672973
 1 0 0 0 0 -1 81 1 541 1304 376 491 0 538 537 0 543 81 1 526 1310 332 501 544 0
 538 523 545 83 3 542 .792156862745098 .819607843137255 .933333333333333 81 1 54
4 1296 376 501 0 526 525 531 546 83 3 545 .792156862745098 .819607843137255 .933
333333333333 81 1 525 1293 376 522 0 523 0 544 547 81 1 531 1298 376 448 0 530 5
44 534 548 82 1 546 -1614348059 81 1 534 1300 376 519 0 532 531 537 549 82 1 548
 -1559953179 81 1 537 1302 376 506 0 535 534 541 550 82 1 549 -663682843 82 1 55
0 -664600347 82 1 547 -630390547 82 1 543 -1615986459 83 3 539 .792156862745098
 .819607843137255 .933333333333333 83 3 536 .792156862745098 .819607843137255 .9
33333333333333 83 3 533 .792156862745098 .819607843137255 .933333333333333 83 3
 527 .792156862745098 .819607843137255 .933333333333333 17 459 0 458 481 456 473
 463 499 0 469 -19 449 100 0 14 0 116 112 S0 74 20 447 3 0 0 541 523 110 0 0 0 0
 0 0 0 0 0 0 0 0 0 0 0 0 0 84 10 446 sensorbase81 1 100 61 5 91 0 0 0 0 551 70 1
01 0 4 T91 0 0 3 20 1 552 552 13 103 8 0 91 0 553 0 0 554 0 50 104 26 0 555 556
 0 0 +-.0245125871846065 .03795489295007765 .01 0 0 1 1 0 0 31 255 105 25 0 557
 558 0 0 --.01147594487294998 -.00671492943372793 .01 0 0 1 1 0 0 .0030122141038
8678 19 106 6 0 91 554 0 559 V0 16 107 10 0 ?560 0 557 558 0 0 91 17 560 0 561 5
60 560 0 562 107 0 0 +16 557 9 0 ?563 107 0 105 0 0 91 31 558 24 0 107 0 105 0 +
-.01147594487294998 -.00671492943372793 .01 0 0 1 1 0 0 .003212214103886785 17 5
63 0 564 563 563 0 565 557 0 0 +15 564 13 0 563 553 0 17 565 0 566 565 565 0 563
 557 0 0 -15 566 17 0 565 555 567 14 555 14 568 ?569 553 566 103 104 -0 0 569 55
3 559 15 567 18 0 562 555 0 17 562 0 567 562 562 0 560 107 0 0 -81 1 568 59 332
 555 570 0 571 572 573 14 569 19 572 ?0 555 561 103 556 -0 0 0 555 559 14 553 11
 571 ?555 0 564 103 574 -0 0 555 0 559 13 559 7 0 0 0 0 0 0 106 553 81 1 571 58
 332 553 575 0 0 568 576 53 255 574 22 0 553 0 556 0 +-.01147594487294998 -.0067
1492943372793 .01 .00301221410388678 -1 0 0 0 0 -1 53 556 23 0 569 574 104 0 --.
01147594487294998 -.00671492943372793 .01 .003212214103886785 -1 0 0 0 0 1 81 1
 575 56 376 553 0 571 577 0 578 83 3 576 .792156862745098 .819607843137255 .9333
33333333333 81 1 577 54 376 569 0 572 570 575 579 82 1 578 -1931935513 81 1 572
 60 332 569 577 0 568 0 580 81 1 570 52 376 555 0 568 0 577 581 82 1 579 -193285
3017 82 1 581 -1520172825 83 3 580 .792156862745098 .819607843137255 .9333333333
33333 15 561 21 0 560 569 0 83 3 573 .792156862745098 .819607843137255 .93333333
3333333 19 554 1 0 91 0 106 103 S0 74 20 552 3 0 0 575 572 100 0 0 0 0 0 0 0 0 0
 0 0 0 0 0 0 0 0 84 6 551 sensor81 1 89 61 5 80 0 0 0 0 582 70 90 0 4 T80 0 0 3
 20 1 583 583 13 92 8 0 80 0 584 0 0 585 0 50 93 26 0 586 587 0 0 +-.02451258718
46065 .03795489295007765 .01 0 0 1 1 0 0 31 94 25 0 588 589 0 0 --.0184759448729
5 -.00671492943372793 .01 0 0 1 1 0 0 .00301221410388678 19 95 6 0 80 585 0 590
 V0 16 96 10 0 ?591 0 588 589 0 0 80 17 591 0 592 591 591 0 593 96 0 0 +16 588 9
 0 ?594 96 0 94 0 0 80 31 589 24 0 96 0 94 0 +-.01847594487295 -.006714929433727
93 .01 0 0 1 1 0 0 .003212214103886785 17 594 0 595 594 594 0 596 588 0 0 +15 59
5 13 0 594 584 0 17 596 0 597 596 596 0 594 588 0 0 -15 597 17 0 596 586 598 14
 586 14 599 ?600 584 597 92 93 -0 0 600 584 590 15 598 18 0 593 586 0 17 593 0 5
98 593 593 0 591 96 0 0 -81 1 599 59 332 586 601 0 602 603 604 14 600 19 603 ?0
 586 592 92 587 -0 0 0 586 590 14 584 11 602 ?586 0 595 92 605 -0 0 586 0 590 13
 590 7 0 0 0 0 0 0 95 584 81 1 602 58 332 584 606 0 0 599 607 53 605 22 0 584 0
 587 0 +-.01847594487295 -.00671492943372793 .01 .00301221410388678 -1 0 0 0 0 -
1 53 587 23 0 600 605 93 0 --.01847594487295 -.00671492943372793 .01 .0032122141
03886785 -1 0 0 0 0 1 81 1 606 56 376 584 0 602 608 0 609 83 3 607 .792156862745
098 .819607843137255 .933333333333333 81 1 608 54 376 600 0 603 601 606 610 82 1
 609 -1997209369 81 1 603 60 332 600 608 0 599 0 611 81 1 601 52 376 586 0 599 0
 608 612 82 1 610 -1998126873 82 1 612 -1518403353 83 3 611 .792156862745098 .81
9607843137255 .933333333333333 15 592 21 0 591 600 0 83 3 604 .792156862745098 .
819607843137255 .933333333333333 19 585 1 0 80 0 95 92 S0 74 20 583 3 0 0 606 60
3 89 0 0 0 0 0 0 0 0 0 0 0 0 0 0 0 0 0 84 6 582 sensor81 1 78 61 5 69 0 0 0 0 61
3 70 79 0 4 T69 0 0 3 20 1 614 614 13 81 8 0 69 0 615 0 0 616 0 50 82 26 0 617 6
18 0 0 +-.0245125871846065 .03795489295007765 .01 0 0 1 1 0 0 31 83 25 0 619 620
 0 0 --.004475944872949975 .000285070566272073 .01 0 0 1 1 0 0 .0030122141038867
8 19 84 6 0 69 616 0 621 V0 16 85 10 0 ?622 0 619 620 0 0 69 17 622 0 623 622 62
2 0 624 85 0 0 +16 619 9 0 ?625 85 0 83 0 0 69 31 620 24 0 85 0 83 0 +-.00447594
4872949975 .000285070566272073 .01 0 0 1 1 0 0 .003212214103886785 17 625 0 626
 625 625 0 627 619 0 0 +15 626 13 0 625 615 0 17 627 0 628 627 627 0 625 619 0 0
 -15 628 17 0 627 617 629 14 617 14 630 ?631 615 628 81 82 -0 0 631 615 621 15 6
29 18 0 624 617 0 17 624 0 629 624 624 0 622 85 0 0 -81 1 630 59 332 617 632 0 6
33 634 635 14 631 19 634 ?0 617 623 81 618 -0 0 0 617 621 14 615 11 633 ?617 0 6
26 81 636 -0 0 617 0 621 13 621 7 0 0 0 0 0 0 84 615 81 1 633 58 332 615 637 0 0
 630 638 53 636 22 0 615 0 618 0 +-.004475944872949975 .000285070566272073 .01 .
00301221410388678 -1 0 0 0 0 -1 53 618 23 0 631 636 82 0 --.004475944872949975 .
000285070566272073 .01 .003212214103886785 -1 0 0 0 0 1 81 1 637 56 376 615 0 63
3 639 0 640 83 3 638 .792156862745098 .819607843137255 .933333333333333 81 1 639
 54 376 631 0 634 632 637 641 82 1 640 -1888419609 81 1 634 60 332 631 639 0 630
 0 642 81 1 632 52 376 617 0 630 0 639 643 82 1 641 -1889337113 82 1 643 -152135
2473 83 3 642 .792156862745098 .819607843137255 .933333333333333 15 623 21 0 622
 631 0 83 3 635 .792156862745098 .819607843137255 .933333333333333 19 616 1 0 69
 0 84 81 S0 74 20 614 3 0 0 637 634 78 0 0 0 0 0 0 0 0 0 0 0 0 0 0 0 0 0 84 6 61
3 sensor81 1 67 61 5 58 0 0 0 0 644 70 68 0 4 T58 0 0 3 20 1 645 645 13 70 8 0 5
8 0 646 0 0 647 0 50 71 26 0 648 649 0 0 +-.0245125871846065 .03795489295007765
 .01 0 0 1 1 0 0 31 72 25 0 650 651 0 0 --.01147594487294998 .000285070566272073
 .01 0 0 1 1 0 0 .00301221410388678 19 73 6 0 58 647 0 652 V0 16 74 10 0 ?653 0
 650 651 0 0 58 17 653 0 654 653 653 0 655 74 0 0 +16 650 9 0 ?656 74 0 72 0 0 5
8 31 651 24 0 74 0 72 0 +-.01147594487294998 .000285070566272073 .01 0 0 1 1 0 0
 .003212214103886785 17 656 0 657 656 656 0 658 650 0 0 +15 657 13 0 656 646 0 1
7 658 0 659 658 658 0 656 650 0 0 -15 659 17 0 658 648 660 14 648 14 661 ?662 64
6 659 70 71 -0 0 662 646 652 15 660 18 0 655 648 0 17 655 0 660 655 655 0 653 74
 0 0 -81 1 661 59 332 648 663 0 664 665 666 14 662 19 665 ?0 648 654 70 649 -0 0
 0 648 652 14 646 11 664 ?648 0 657 70 667 -0 0 648 0 652 13 652 7 0 0 0 0 0 0 7
3 646 81 1 664 58 332 646 668 0 0 661 669 53 667 22 0 646 0 649 0 +-.01147594487
294998 .000285070566272073 .01 .00301221410388678 -1 0 0 0 0 -1 53 649 23 0 662
 667 71 0 --.01147594487294998 .000285070566272073 .01 .003212214103886785 -1 0
 0 0 0 1 81 1 668 56 376 646 0 664 670 0 671 83 3 669 .792156862745098 .81960784
3137255 .933333333333333 81 1 670 54 376 662 0 665 663 668 672 82 1 671 -1953693
465 81 1 665 60 332 662 670 0 661 0 673 81 1 663 52 376 648 0 661 0 670 674 82 1
 672 -1954610969 82 1 674 -1519583001 83 3 673 .792156862745098 .819607843137255
 .933333333333333 15 654 21 0 653 662 0 83 3 666 .792156862745098 .8196078431372
55 .933333333333333 19 647 1 0 58 0 73 70 S0 74 20 645 3 0 0 668 665 67 0 0 0 0
 0 0 0 0 0 0 0 0 0 0 0 0 0 84 6 644 sensor81 1 56 61 5 47 0 0 0 0 675 70 57 0 4
 T47 0 0 3 20 1 676 676 13 59 8 0 47 0 677 0 0 678 0 50 60 26 0 679 680 0 0 +-.0
245125871846065 .03795489295007765 .01 0 0 1 1 0 0 31 61 25 0 681 682 0 0 --.018
47594487295 .000285070566272073 .01 0 0 1 1 0 0 .00301221410388678 19 62 6 0 47
 678 0 683 V0 16 63 10 0 ?684 0 681 682 0 0 47 17 684 0 685 684 684 0 686 63 0 0
 +16 681 9 0 ?687 63 0 61 0 0 47 31 682 24 0 63 0 61 0 +-.01847594487295 .000285
070566272073 .01 0 0 1 1 0 0 .003212214103886785 17 687 0 688 687 687 0 689 681
 0 0 +15 688 13 0 687 677 0 17 689 0 690 689 689 0 687 681 0 0 -15 690 17 0 689
 679 691 14 679 14 692 ?693 677 690 59 60 -0 0 693 677 683 15 691 18 0 686 679 0
 17 686 0 691 686 686 0 684 63 0 0 -81 1 692 59 332 679 694 0 695 696 697 14 693
 19 696 ?0 679 685 59 680 -0 0 0 679 683 14 677 11 695 ?679 0 688 59 698 -0 0 67
9 0 683 13 683 7 0 0 0 0 0 0 62 677 81 1 695 58 332 677 699 0 0 692 700 53 698 2
2 0 677 0 680 0 +-.01847594487295 .000285070566272073 .01 .00301221410388678 -1
 0 0 0 0 -1 53 680 23 0 693 698 60 0 --.01847594487295 .000285070566272073 .01 .
003212214103886785 -1 0 0 0 0 1 81 1 699 56 376 677 0 695 701 0 702 83 3 700 .79
2156862745098 .819607843137255 .933333333333333 81 1 701 54 376 693 0 696 694 69
9 703 82 1 702 -2019032857 81 1 696 60 332 693 701 0 692 0 704 81 1 694 52 376 6
79 0 692 0 701 705 82 1 703 -2019950361 82 1 705 -1517813529 83 3 704 .792156862
745098 .819607843137255 .933333333333333 15 685 21 0 684 693 0 83 3 697 .7921568
62745098 .819607843137255 .933333333333333 19 678 1 0 47 0 62 59 S0 74 20 676 3
 0 0 699 696 56 0 0 0 0 0 0 0 0 0 0 0 0 0 0 0 0 0 84 6 675 sensor81 1 45 61 5 36
 0 0 0 0 706 70 46 0 4 T36 0 0 3 20 1 707 707 13 48 8 0 36 0 708 0 0 709 0 50 49
 26 0 710 711 0 0 +-.0245125871846065 .03795489295007765 .01 0 0 1 1 0 0 31 50 2
5 0 712 713 0 0 --.004475944872949975 .00728507056627207 .01 0 0 1 1 0 0 .003012
21410388678 19 51 6 0 36 709 0 714 V0 16 52 10 0 ?715 0 712 713 0 0 36 17 715 0
 716 715 715 0 717 52 0 0 +16 712 9 0 ?718 52 0 50 0 0 36 31 713 24 0 52 0 50 0
 +-.004475944872949975 .00728507056627207 .01 0 0 1 1 0 0 .003212214103886785 17
 718 0 719 718 718 0 720 712 0 0 +15 719 13 0 718 708 0 17 720 0 721 720 720 0 7
18 712 0 0 -15 721 17 0 720 710 722 14 710 14 723 ?724 708 721 48 49 -0 0 724 70
8 714 15 722 18 0 717 710 0 17 717 0 722 717 717 0 715 52 0 0 -81 1 723 59 332 7
10 725 0 726 727 728 14 724 19 727 ?0 710 716 48 711 -0 0 0 710 714 14 708 11 72
6 ?710 0 719 48 729 -0 0 710 0 714 13 714 7 0 0 0 0 0 0 51 708 81 1 726 58 332 7
08 730 0 0 723 731 53 729 22 0 708 0 711 0 +-.004475944872949975 .00728507056627
207 .01 .00301221410388678 -1 0 0 0 0 -1 53 711 23 0 724 729 49 0 --.00447594487
2949975 .00728507056627207 .01 .003212214103886785 -1 0 0 0 0 1 81 1 730 56 376
 708 0 726 732 0 733 83 3 731 .792156862745098 .819607843137255 .933333333333333
 81 1 732 54 376 724 0 727 725 730 734 82 1 733 -1910177561 81 1 727 60 332 724
 732 0 723 0 735 81 1 725 52 376 710 0 723 0 732 736 82 1 734 -1911095065 82 1 7
36 -1520762649 83 3 735 .792156862745098 .819607843137255 .933333333333333 15 71
6 21 0 715 724 0 83 3 728 .792156862745098 .819607843137255 .933333333333333 19
 709 1 0 36 0 51 48 S0 74 20 707 3 0 0 730 727 45 0 0 0 0 0 0 0 0 0 0 0 0 0 0 0
 0 0 84 6 706 sensor81 1 34 61 5 25 0 0 0 0 737 70 35 0 4 T25 0 0 3 20 1 738 738
 13 37 8 0 25 0 739 0 0 740 0 50 38 26 0 741 742 0 0 +-.0245125871846065 .037954
89295007765 .01 0 0 1 1 0 0 31 39 25 0 743 744 0 0 --.01147594487294998 .0072850
7056627207 .01 0 0 1 1 0 0 .00301221410388678 19 40 6 0 25 740 0 745 V0 16 41 10
 0 ?746 0 743 744 0 0 25 17 746 0 747 746 746 0 748 41 0 0 +16 743 9 0 ?749 41 0
 39 0 0 25 31 744 24 0 41 0 39 0 +-.01147594487294998 .00728507056627207 .01 0 0
 1 1 0 0 .003212214103886785 17 749 0 750 749 749 0 751 743 0 0 +15 750 13 0 749
 739 0 17 751 0 752 751 751 0 749 743 0 0 -15 752 17 0 751 741 753 14 741 14 754
 ?755 739 752 37 38 -0 0 755 739 745 15 753 18 0 748 741 0 17 748 0 753 748 748
 0 746 41 0 0 -81 1 754 59 332 741 756 0 757 758 759 14 755 19 758 ?0 741 747 37
 742 -0 0 0 741 745 14 739 11 757 ?741 0 750 37 760 -0 0 741 0 745 13 745 7 0 0
 0 0 0 0 40 739 81 1 757 58 332 739 761 0 0 754 762 53 760 22 0 739 0 742 0 +-.0
1147594487294998 .00728507056627207 .01 .00301221410388678 -1 0 0 0 0 -1 53 742
 23 0 755 760 38 0 --.01147594487294998 .00728507056627207 .01 .0032122141038867
85 -1 0 0 0 0 1 81 1 761 56 376 739 0 757 763 0 764 83 3 762 .792156862745098 .8
19607843137255 .933333333333333 81 1 763 54 376 755 0 758 756 761 765 82 1 764 -
1975451417 81 1 758 60 332 755 763 0 754 0 766 81 1 756 52 376 741 0 754 0 763 7
67 82 1 765 -1976368921 82 1 767 -1518993177 83 3 766 .792156862745098 .81960784
3137255 .933333333333333 15 747 21 0 746 755 0 83 3 759 .792156862745098 .819607
843137255 .933333333333333 19 740 1 0 25 0 40 37 S0 74 20 738 3 0 0 761 758 34 0
 0 0 0 0 0 0 0 0 0 0 0 0 0 0 0 0 84 6 737 sensor81 1 23 67 5 13 0 0 0 0 768 70 2
4 0 4 T13 0 0 3 20 1 769 769 13 26 8 0 13 0 770 0 0 771 0 50 27 32 0 772 773 0 0
 +-.0245125871846065 .03795489295007765 .01 0 0 1 1 0 0 31 28 25 0 774 775 0 0 -
-.004475944872949975 -.00671492943372793 .01 0 0 1 1 0 0 .00301221410388678 19 2
9 6 0 13 771 0 776 V0 16 30 10 0 ?777 0 774 775 0 0 13 17 777 0 778 777 777 0 77
9 30 0 0 +16 774 9 0 ?780 30 0 28 0 0 13 31 775 24 0 30 0 28 0 +-.00447594487294
9975 -.00671492943372793 .01 0 0 1 1 0 0 .003212214103886785 17 780 0 781 780 78
0 0 782 774 0 0 +15 781 13 0 780 770 0 17 782 0 783 782 782 0 780 774 0 0 -15 78
3 17 0 782 772 784 14 772 14 785 ?786 770 783 26 27 -0 0 786 770 776 15 784 18 0
 779 772 0 17 779 0 784 779 779 0 777 30 0 0 -81 1 785 65 332 772 787 0 788 789
 790 14 786 19 789 ?0 772 778 26 773 -0 0 0 772 776 14 770 11 788 ?772 0 781 26
 791 -0 0 772 0 776 13 776 7 0 0 0 0 0 0 29 770 81 1 788 64 332 770 792 0 0 785
 793 53 791 22 0 770 0 773 0 +-.004475944872949975 -.00671492943372793 .01 .0030
1221410388678 -1 0 0 0 0 -1 53 773 23 0 786 791 27 0 --.004475944872949975 -.006
71492943372793 .01 .003212214103886785 -1 0 0 0 0 1 81 1 792 62 376 770 0 788 79
4 0 795 83 3 793 .792156862745098 .819607843137255 .933333333333333 81 1 794 60
 376 786 0 789 787 792 796 82 1 795 -1866661657 81 1 789 66 332 786 794 0 785 0
 797 81 1 787 58 376 772 0 785 0 794 798 82 1 796 -1867579161 82 1 798 -15219422
97 83 3 797 .792156862745098 .819607843137255 .933333333333333 15 778 21 0 777 7
86 0 83 3 790 .792156862745098 .819607843137255 .933333333333333 19 771 1 0 13 0
 29 26 S0 74 20 769 3 0 0 792 789 23 0 0 0 0 0 0 0 0 0 0 0 0 0 0 0 0 0 84 6 768
 sensor81 1 11 1412 5 7 0 0 0 0 799 70 12 0 4 T7 0 0 3 20 1 800 800 13 15 160 0
 7 0 801 0 0 802 0 53 16 172 0 801 803 0 0 +-.01847594487295 .00728507056627207
 .01 .00301221410388678 -1 0 0 0 0 -1 31 17 1220 0 19 804 0 0 +-.01847594487295
 .00728507056627207 .01 0 0 1 1 0 0 .003212214103886785 19 18 170 0 7 802 0 805
 V0 16 19 1023 0 ?806 0 807 17 0 0 7 17 806 0 808 806 806 0 809 19 0 0 +16 807 1
022 0 ?810 19 0 804 0 0 7 17 810 0 811 810 810 0 812 807 0 0 +31 804 1229 0 807
 0 17 0 --.01847594487295 .00728507056627207 .01 0 0 1 1 0 0 .00301221410388678
 15 811 167 0 810 801 0 17 812 0 813 812 812 0 810 807 0 0 -15 813 1108 0 812 81
4 815 14 814 1105 816 ?817 801 813 15 818 -0 0 817 801 805 15 815 1109 0 809 814
 0 17 809 0 815 809 809 0 806 19 0 0 -81 1 816 1410 332 814 819 0 820 821 822 14
 817 157 821 ?0 814 808 15 803 -0 0 0 814 805 14 801 165 820 ?814 0 811 15 16 -0
 0 814 0 805 50 818 1213 0 814 0 803 0 +-.0245125871846065 .03795489295007765 .0
1 0 0 1 1 0 0 13 805 171 0 0 0 0 0 0 18 801 53 803 173 0 817 818 16 0 --.0184759
4487295 .00728507056627207 .01 .003212214103886785 -1 0 0 0 0 1 81 1 820 1409 33
2 801 823 0 0 816 824 81 1 823 1407 376 801 0 820 825 0 826 83 3 824 .7921568627
45098 .819607843137255 .933333333333333 81 1 825 1405 376 817 0 821 819 823 827
 82 1 826 -632684352 81 1 821 1411 332 817 825 0 816 0 828 81 1 819 1403 376 814
 0 816 0 825 829 82 1 827 -633601856 82 1 829 -1517223705 83 3 828 .792156862745
098 .819607843137255 .933333333333333 15 808 159 0 806 817 0 83 3 822 .792156862
745098 .819607843137255 .933333333333333 19 802 100 0 7 0 18 15 S0 74 20 800 3 0
 0 823 821 11 0 0 0 0 0 0 0 0 0 0 0 0 0 0 0 0 0 84 6 799 sensor74 20 6 1 0 0 2 0
 0 0 0 0 0 0 0 0 0 0 0 0 0 0 0 0 0 0 1 0 
