**ABCDEFGHIJKLMNOPQRSTUVWXYZabcdefghijklmnopqrstuvwxyz**************************
**PARASOLID !"#$%&'()*+,-./:;<=>?@[\]^_`{|}~0123456789**************************
**PART1;
MC=AMD64;
MC_MODEL=Intel64 Family 6 Model 140 Stepping 2, GenuineIntel;
MC_ID=unknown;
OS=Windows_NT;
OS_RELEASE=unknown;
FRU=Parasolid Version 33.1, build 260,  4-25-2022;
APPL=SOLIDWORKS 2022-2022290;
SITE=;
USER=unknown;
FORMAT=text;
GUISE=transmit;
KEY=FILEpegsensor1028.x_t;
DATE=Sat Oct 28 21:26:40 2023;
**PART2;
SCH=SCH_3301260_33103;
USFLD_SIZE=0;
**PART3;
**END_OF_HEADER*****************************************************************
T51 : TRANSMIT FILE created by modeller version 330126023 SCH_3301260_33103_1300
6230 0 10 21 CCCCI7 lattice222 0 CCCI4 mesh1006 0 I8 polyline1008 0 CCCCCCCCCCA1
6 mesh_offset_data206 0 Z1 43 2 3 0 0 0 0 0 0 0 0 1e3 1e-8 0 0 0 1 0 1 4 0 81 25
5 1 2 43 5 1 0 0 0 0 0 70 11 CI9 list_type0 0 1 uI10 notransmit0 0 1 lCCCDCCDI12
 finger_index0 0 1 dI12 finger_block1012 0 CZ3 0 4 T1 0 0 1 20 1 6 6 11 255 4 41
 0 1 7 8 1 9 0 10 0 12 35 CCCI7 lattice222 0 CCCI4 mesh1006 0 I8 polyline1008 0
 CCCCCCCDI5 owner1040 0 CCCCCCI13 boundary_mesh1006 0 I17 boundary_polyline1008
 0 CCCA16 index_map_offset0 0 1 dA9 index_map82 0 A17 node_id_index_map82 0 A20
 schema_embedding_map82 0 A5 child12 0 A14 lowest_node_id0 0 1 dA16 mesh_offset_
data206 0 Z7 1415 11 12 0 0 0 0 0 0 0 1e3 1e-8 4 13 14 1 0 1 1 15 16 17 0 0 0 18
 19 0 0 0 0 0 0 0 0 100 10 CCCCCCCCCA9 precision229 0 Z8 42 4 0 0 -3816391647148
975e-31 1 343999698216588e-30 551378558027098e-30 338602921039118e-30 -1 -1 -381
6391647148975e-31 -555943590626344e-30 .0171525527830512 .0450970861444674 .0374
573007799646 1 3 ?0 11 9 39 0 1 13 20 1 21 4 22 0 12 13 70 23 24 0 0 0 0 0 0 0 1
e3 1e-8 9 25 7 1 0 1 1 26 27 28 0 0 0 29 30 0 0 0 0 0 0 0 0 100 20 40 9 0 0 -381
6391647148975e-31 1 343999698216588e-30 551378558027098e-30 338602921039118e-30
 -1 -1 -3816391647148975e-31 -555943590626344e-30 .0171525527830512 .04509708614
44674 .0374573007799646 1 3 ?0 11 21 37 0 1 25 31 1 32 9 33 0 12 25 64 34 35 0 0
 0 0 0 0 0 1e3 1e-8 21 36 13 1 0 1 1 37 38 39 0 0 0 40 41 0 0 0 0 0 0 0 0 100 31
 38 21 0 0 -3816391647148975e-31 1 343999698216588e-30 551378558027098e-30 33860
2921039118e-30 -1 -1 -3816391647148975e-31 -555943590626344e-30 .017152552783051
2 .0450970861444674 .0374573007799646 1 3 ?0 11 32 35 0 1 36 42 1 43 21 44 0 12
 36 64 45 46 0 0 0 0 0 0 0 1e3 1e-8 32 47 25 1 0 1 1 48 49 50 0 0 0 51 52 0 0 0
 0 0 0 0 0 100 42 36 32 0 0 -3816391647148975e-31 1 343999698216588e-30 55137855
8027098e-30 338602921039118e-30 -1 -1 -3816391647148975e-31 -555943590626344e-30
 .0171525527830512 .0450970861444674 .0374573007799646 1 3 ?0 11 43 33 0 1 47 53
 1 54 32 55 0 12 47 64 56 57 0 0 0 0 0 0 0 1e3 1e-8 43 58 36 1 0 1 1 59 60 61 0
 0 0 62 63 0 0 0 0 0 0 0 0 100 53 34 43 0 0 -3816391647148975e-31 1 343999698216
588e-30 551378558027098e-30 338602921039118e-30 -1 -1 -3816391647148975e-31 -555
943590626344e-30 .0171525527830512 .0450970861444674 .0374573007799646 1 3 ?0 11
 54 31 0 1 58 64 1 65 43 66 0 12 58 64 67 68 0 0 0 0 0 0 0 1e3 1e-8 54 69 47 1 0
 1 1 70 71 72 0 0 0 73 74 0 0 0 0 0 0 0 0 100 64 32 54 0 0 -3816391647148975e-31
 1 343999698216588e-30 551378558027098e-30 338602921039118e-30 -1 -1 -3816391647
148975e-31 -555943590626344e-30 .0171525527830512 .0450970861444674 .03745730077
99646 1 3 ?0 11 65 29 0 1 69 75 1 76 54 77 0 12 69 64 78 79 0 0 0 0 0 0 0 1e3 1e
-8 65 80 58 1 0 1 1 81 82 83 0 0 0 84 85 0 0 0 0 0 0 0 0 100 75 30 65 0 0 -38163
91647148975e-31 1 343999698216588e-30 551378558027098e-30 338602921039118e-30 -1
 -1 -3816391647148975e-31 -555943590626344e-30 .0171525527830512 .04509708614446
74 .0374573007799646 1 3 ?0 11 76 27 0 1 80 86 1 87 65 88 0 12 80 64 89 90 0 0 0
 0 0 0 0 1e3 1e-8 76 91 69 1 0 1 1 92 93 94 0 0 0 95 96 0 0 0 0 0 0 0 0 100 86 2
8 76 0 0 -3816391647148975e-31 1 343999698216588e-30 551378558027098e-30 3386029
21039118e-30 -1 -1 -3816391647148975e-31 -555943590626344e-30 .0171525527830512
 .0450970861444674 .0374573007799646 1 3 ?0 11 87 25 0 1 91 97 1 98 76 99 0 12 9
1 64 100 101 0 0 0 0 0 0 0 1e3 1e-8 87 102 80 1 0 1 1 103 104 105 0 0 0 106 107
 0 0 0 0 0 0 0 0 100 97 26 87 0 0 -3816391647148975e-31 1 343999698216588e-30 55
1378558027098e-30 338602921039118e-30 -1 -1 -3816391647148975e-31 -5559435906263
44e-30 .0171525527830512 .0450970861444674 .0374573007799646 1 3 ?0 11 98 23 0 1
 14 108 1 109 87 109 0 12 14 1376 110 111 0 0 0 0 0 0 0 1e3 1e-8 98 7 0 1 0 1 1
 112 113 114 115 0 0 116 117 118 0 0 0 0 0 0 0 100 108 24 98 0 0 -.0001575698709
227415 .999999987585868 213306885153789e-30 -1980489130875055e-33 -2180338760630
335e-31 1 .999999987585868 .0001575698709227495 -275573929645651e-30 .0181388320
638377 .0086726579366938 .0627041073072283 1 3 ?0 11 109 21 0 1 14 119 1 10 98 0
 98 100 119 22 109 0 0 .999999690256765 .000787074567244536 -3796152082197795e-3
1 415576634834213e-30 804330280841999e-30 1 .000787074567244468 -.99999969025676
5 720792844976509e-30 .03029610546713045 .0350970861444674 .0501194247782309 1 3
 ?0 11 10 19 0 1 7 120 1 22 109 0 4 100 120 20 10 0 0 1 -1506731261294965e-31 11
62147264762484e-31 -1162147264113082e-31 219432235707747e-30 1 -674063988690195e
-31 -1 2194322357804835e-31 .02891356822227325 .0086726579366938 .04921831621918
67 1 3 ?0 11 22 17 0 1 13 121 1 33 10 0 9 100 121 18 22 0 0 1 -1506731261294965e
-31 1162147264762484e-31 -1162147264113082e-31 219432235707747e-30 1 -6740639886
90195e-31 -1 2194322357804835e-31 .02891356822227325 .0086726579366938 .04921831
62191867 1 3 ?0 11 33 15 0 1 25 122 1 44 22 0 21 100 122 16 33 0 0 1 -1506731261
294965e-31 1162147264762484e-31 -1162147264113082e-31 219432235707747e-30 1 -674
063988690195e-31 -1 2194322357804835e-31 .02891356822227325 .0086726579366938 .0
492183162191867 1 3 ?0 11 44 13 0 1 36 123 1 55 33 0 32 100 123 14 44 0 0 1 -150
6731261294965e-31 1162147264762484e-31 -1162147264113082e-31 219432235707747e-30
 1 -674063988690195e-31 -1 2194322357804835e-31 .02891356822227325 .008672657936
6938 .0492183162191867 1 3 ?0 11 55 11 0 1 47 124 1 66 44 0 43 100 124 12 55 0 0
 1 -1506731261294965e-31 1162147264762484e-31 -1162147264113082e-31 219432235707
747e-30 1 -674063988690195e-31 -1 2194322357804835e-31 .02891356822227325 .00867
26579366938 .0492183162191867 1 3 ?0 11 66 9 0 1 58 125 1 77 55 0 54 100 125 10
 66 0 0 1 -1506731261294965e-31 1162147264762484e-31 -1162147264113082e-31 21943
2235707747e-30 1 -674063988690195e-31 -1 2194322357804835e-31 .02891356822227325
 .0086726579366938 .0492183162191867 1 3 ?0 11 77 7 0 1 69 126 1 88 66 0 65 100
 126 8 77 0 0 1 -1506731261294965e-31 1162147264762484e-31 -1162147264113082e-31
 219432235707747e-30 1 -674063988690195e-31 -1 2194322357804835e-31 .02891356822
227325 .0086726579366938 .0492183162191867 1 3 ?0 11 88 5 0 1 80 127 1 99 77 0 7
6 100 127 6 88 0 0 1 -1506731261294965e-31 1162147264762484e-31 -116214726411308
2e-31 219432235707747e-30 1 -674063988690195e-31 -1 2194322357804835e-31 .028913
56822227325 .0086726579366938 .0492183162191867 1 3 ?0 11 99 3 0 1 91 128 1 129
 88 0 87 100 128 4 99 0 0 1 -1506731261294965e-31 1162147264762484e-31 -11621472
64113082e-31 219432235707747e-30 1 -674063988690195e-31 -1 2194322357804835e-31
 .02891356822227325 .0086726579366938 .0492183162191867 1 3 ?0 11 129 1 0 1 102
 130 1 0 99 0 0 12 102 1531 131 132 0 0 0 0 0 0 0 1e3 1e-8 129 133 91 1 0 1 1 13
4 135 136 137 0 0 138 139 140 0 0 0 0 0 0 0 100 130 2 129 0 0 1 0 0 0 1 0 0 0 1
 .02014478155118255 .02688487204058055 .01457256483440236 1 1 ?0 81 1 131 1531 5
 102 141 0 0 0 142 70 132 0 4 T102 0 0 4 20 1 143 143 13 255 134 315 0 102 0 144
 0 0 145 0 50 255 135 302 0 146 147 0 0 +.0015 0 .05 1 0 0 0 0 -1 30 255 136 107
3 0 139 148 0 0 +-173472347597681e-33 -.003 0 1 -578241158658936e-31 0 29 255 13
7 1059 0 140 149 0 .015 -.004 0 19 8 CCCCCCCA5 owner12 0 Z138 111 0 102 145 0 15
0 V0 16 255 139 1086 0 ?151 0 152 136 152 152 102 18 255 140 1057 0 153 0 154 13
7 ?102 17 255 153 0 155 156 157 140 158 159 0 160 +18 154 782 0 161 140 162 149
 ?102 17 161 0 163 164 165 154 166 167 0 168 +18 162 632 0 169 154 170 171 ?102
 29 149 784 0 154 171 137 .015 .003 0 29 171 634 0 162 172 149 -.015 .00499 .005
 29 172 475 0 170 173 171 -.015 -.005 .005 18 170 473 0 174 162 175 172 ?102 29
 173 243 0 176 177 172 .015 -.005 0 18 176 218 0 178 179 180 173 ?102 29 177 244
 0 180 181 173 -.015 -.005 0 18 180 219 0 182 176 183 177 ?102 29 181 245 0 183
 184 177 -.015 .005 0 18 183 220 0 185 180 186 181 ?102 29 184 246 0 186 187 181
 .015 .005 0 18 186 221 0 188 183 189 184 ?102 29 187 108 0 175 190 184 .015 -.0
05 .05 18 175 106 0 191 170 192 187 ?102 29 190 105 0 192 193 187 -.015 -.005 .0
5 18 192 103 0 194 175 195 190 ?102 29 193 102 0 195 196 190 -.015 .005 .05 18 1
95 100 0 197 192 198 193 ?102 29 196 99 0 198 199 193 .015 .005 .05 18 198 97 0
 200 195 201 196 ?102 29 199 96 0 201 202 196 -.013 .003 .05 18 201 94 0 203 198
 204 199 ?102 29 202 93 0 204 205 199 -.013 -.003 .05 18 204 91 0 206 201 207 20
2 ?102 29 205 90 0 207 208 202 -.0015 -.003 .05 18 207 88 0 209 204 210 205 ?102
 29 208 87 0 210 211 205 -.0015 .003 .05 18 210 85 0 212 207 213 208 ?102 29 211
 84 0 213 214 208 .0015 -.003 .05 18 213 82 0 215 210 216 211 ?102 29 214 81 0 2
16 217 211 .013 -.003 .05 18 216 79 0 218 213 219 214 ?102 29 217 78 0 219 220 2
14 .013 .003 .05 18 219 76 0 221 216 179 217 ?102 29 220 75 0 179 222 217 .0015
 .003 .05 18 179 73 0 223 219 176 220 ?102 29 222 597 0 224 225 220 -.015 -.005
 .00614436598137758 18 224 550 0 226 227 228 222 ?102 29 225 598 0 228 229 222 .
015 -.005 .00614436598137758 18 228 552 0 230 224 231 225 ?102 29 229 599 0 231
 232 225 .015 -.005 .005 18 231 554 0 233 228 234 229 ?102 29 232 601 0 189 235
 229 -.015 -.00499 .00614436598137758 18 189 547 0 236 186 237 232 ?102 29 235 6
02 0 237 238 232 .015 -.00499 .00614436598137758 18 237 549 0 239 189 240 235 ?1
02 29 238 603 0 240 241 235 .015 -.00499 .005 18 240 551 0 242 237 227 238 ?102
 29 241 604 0 227 243 238 -.015 -.00499 .005 18 227 553 0 244 240 224 241 ?102 2
9 243 756 0 245 246 241 -.015 .005 .005 18 245 709 0 247 248 249 243 ?102 29 246
 757 0 249 250 243 .015 .005 .005 18 249 711 0 251 245 252 246 ?102 29 250 758 0
 252 253 246 .015 .005 .00614436598137758 18 252 713 0 254 249 255 250 ?102 29 2
53 759 0 255 256 250 -.015 .005 .00614436598137758 18 255 707 0 257 252 258 253
 ?102 29 256 761 0 234 259 253 .015 .00499 .005 18 234 708 0 260 231 261 256 ?10
2 29 259 762 0 261 262 256 .015 .00499 .00614436598137758 18 261 710 0 263 234 2
48 259 ?102 29 262 763 0 248 264 259 -.015 .00499 .00614436598137758 18 248 712
 0 265 261 245 262 ?102 29 264 1001 0 258 266 262 -.013 .003 1e-5 18 258 929 0 2
67 255 268 264 ?102 29 266 1002 0 268 269 264 -.0015 .003 1e-5 18 268 927 0 270
 258 271 266 ?102 29 269 1003 0 271 272 266 .0015 .003 1e-5 18 271 924 0 273 268
 274 269 ?102 29 272 1004 0 274 275 269 .013 .003 1e-5 18 274 926 0 276 271 277
 272 ?102 29 275 1005 0 277 278 272 -.013 .003 0 18 277 928 0 279 274 280 275 ?1
02 29 278 1006 0 280 281 275 -.0015 .003 0 18 280 923 0 282 277 283 278 ?102 29
 281 1007 0 283 284 278 .0015 .003 0 18 283 925 0 285 280 286 281 ?102 29 284 10
08 0 286 287 281 .013 .003 0 18 286 936 0 288 283 289 284 ?102 29 287 1009 0 290
 291 284 .015 .004 0 18 290 934 0 292 293 294 287 ?102 29 291 1010 0 294 295 287
 -.015 .004 0 18 294 935 0 296 290 297 291 ?102 29 295 1011 0 297 298 291 -.015
 .003 0 18 297 938 0 299 294 300 295 ?102 29 298 1013 0 289 301 295 .015 .004 1e
-5 18 289 931 0 302 286 303 298 ?102 29 301 1014 0 303 304 298 -.015 .004 1e-5 1
8 303 933 0 305 289 306 301 ?102 29 304 1015 0 306 307 301 -.015 .003 1e-5 18 30
6 930 0 308 303 293 304 ?102 29 307 1016 0 293 309 304 .015 .003 1e-5 18 293 937
 0 310 306 290 307 ?102 29 309 1320 0 300 311 307 -.013 -.003 1e-5 18 300 1233 0
 312 297 313 309 ?102 29 311 1321 0 313 314 309 -.0015 -.003 1e-5 18 313 1228 0
 315 300 316 311 ?102 29 314 1322 0 316 317 311 .0015 -.003 1e-5 18 316 1230 0 3
18 313 319 314 ?102 29 317 1323 0 319 320 314 .013 -.003 1e-5 18 319 1236 0 321
 316 322 317 ?102 29 320 1324 0 322 323 317 -.013 -.003 0 18 322 1234 0 151 319
 324 320 ?102 29 323 1325 0 324 325 320 -.0015 -.003 0 18 324 1232 0 326 322 327
 323 ?102 29 325 1326 0 327 328 323 .0015 -.003 0 18 327 1229 0 329 324 330 325
 ?102 29 328 1327 0 330 331 325 .013 -.003 0 18 330 1231 0 332 327 333 328 ?102
 29 331 1328 0 334 335 328 -.015 -.003 0 18 334 1235 0 336 337 338 331 ?102 29 3
35 1329 0 338 339 331 -.015 -.004 0 18 338 1240 0 156 334 340 335 ?102 29 339 13
31 0 340 341 335 .015 -.003 0 18 340 1237 0 342 338 0 339 ?102 29 341 1332 0 333
 343 339 -.015 -.003 1e-5 18 333 1243 0 344 330 345 341 ?102 29 343 1333 0 345 3
46 341 -.015 -.004 1e-5 18 345 1238 0 347 333 348 343 ?102 29 346 1334 0 348 349
 343 .015 -.004 1e-5 18 348 1239 0 157 345 337 346 ?102 29 349 1335 0 337 0 346
 .015 -.003 1e-5 18 337 1241 0 350 348 334 349 ?102 17 350 0 351 352 342 337 165
 353 0 354 -15 255 351 1273 0 342 355 0 17 352 0 351 332 350 319 354 356 0 357 +
17 342 0 351 350 332 340 358 359 0 165 -17 165 0 163 161 360 340 350 353 0 166 +
16 353 1177 0 ?165 159 361 362 0 0 102 17 354 0 363 364 321 337 352 356 0 360 -1
5 363 1291 0 354 365 0 17 364 0 363 366 354 348 360 367 0 158 +17 321 0 363 354
 368 319 369 370 0 352 -16 356 1192 0 ?352 367 370 371 372 370 102 17 360 0 163
 165 158 337 364 367 0 0 -15 163 1142 0 165 144 0 17 158 0 163 360 373 348 153 1
59 0 0 -16 367 1187 0 ?364 374 356 375 0 0 102 16 374 1183 0 ?366 361 367 376 0
 0 102 30 375 1318 0 367 371 376 0 +.015 0 1e-5 0 -1 0 30 371 1319 0 356 0 375 0
 +-173472347597681e-33 -.003 1e-5 -1 578241158658936e-31 0 30 376 1317 0 374 375
 377 0 +-1156482317317874e-34 -.004 1e-5 -1 289120579329468e-31 0 30 377 1316 0
 361 376 378 0 +-.015 0 1e-5 0 1 0 16 361 1178 0 ?379 353 374 377 0 0 102 30 378
 1315 0 359 377 380 0 +-173472347597681e-33 -.003 0 -1 578241158658936e-31 0 16
 359 1171 0 ?358 381 0 378 0 0 102 30 380 1313 0 381 378 382 0 +-115648231731787
4e-34 -.004 0 -1 289120579329468e-31 0 16 381 1221 0 ?156 372 359 380 0 0 102 30
 382 1311 0 383 380 384 0 +-.015 -.003 1e-5 0 0 -1 16 383 1182 0 ?336 385 386 38
2 0 0 102 30 384 1310 0 386 382 387 0 +-.015 -.004 1e-5 0 0 -1 16 386 1186 0 ?38
8 383 159 384 0 0 102 30 387 1309 0 159 384 362 0 +.015 -.004 1e-5 0 0 -1 16 159
 1191 0 ?153 386 353 387 0 0 102 30 362 1308 0 353 387 389 0 +.015 -.003 1e-5 0
 0 -1 30 389 1307 0 385 362 390 0 +-.013 -.003 .05 0 0 1 16 385 1165 0 ?312 391
 383 389 0 0 102 30 390 1306 0 391 389 392 0 +.013 -.003 .05 0 0 1 16 391 1176 0
 ?357 393 385 390 0 0 102 30 392 1305 0 393 390 394 0 +.0015 -.003 .05 0 0 -1 16
 393 1148 0 ?395 396 391 392 0 0 102 30 394 1304 0 396 392 397 0 +-.0015 -.003 .
05 0 0 -1 16 396 1159 0 ?326 398 393 394 0 0 102 30 397 1000 0 399 394 400 0 +.0
15 .004 1e-5 0 -1 0 16 399 884 0 ?401 402 403 397 0 0 102 30 400 999 0 404 397 4
05 0 +.015 .003 1e-5 -1 0 0 16 404 896 0 ?406 407 408 400 402 408 102 30 405 998
 0 407 400 409 0 +-.015 .004 1e-5 0 1 0 16 407 892 0 ?305 410 404 405 0 0 102 30
 409 997 0 410 405 411 0 +.015 .004 1e-5 1 0 0 16 410 888 0 ?412 413 407 409 0 0
 102 30 411 995 0 398 409 414 0 +.015 .003 0 -1 0 0 16 398 902 0 ?288 403 396 41
1 0 0 102 30 414 993 0 403 411 415 0 +.015 .004 0 1 0 0 16 403 920 0 ?292 399 39
8 414 0 0 102 30 415 992 0 416 414 417 0 +.015 .004 1e-5 0 0 -1 16 416 891 0 ?41
8 419 420 415 0 0 102 30 417 991 0 420 415 421 0 +-.015 .004 1e-5 0 0 -1 16 420
 895 0 ?296 416 422 417 0 0 102 30 421 990 0 422 417 423 0 +-.015 .003 1e-5 0 0
 -1 16 422 883 0 ?424 420 413 421 0 0 102 30 423 989 0 413 421 425 0 +.015 .003
 1e-5 0 0 -1 16 413 887 0 ?168 422 410 423 0 0 102 30 425 988 0 419 423 426 0 +-
.013 .003 .05 0 0 1 16 419 879 0 ?427 428 416 425 0 0 102 30 426 987 0 428 425 4
29 0 +.013 .003 .05 0 0 1 16 428 875 0 ?276 430 419 426 0 0 102 30 429 986 0 430
 426 431 0 +.0015 .003 .05 0 0 -1 16 430 874 0 ?285 432 428 429 0 0 102 30 431 9
85 0 432 429 433 0 +-.0015 .003 .05 0 0 -1 16 432 870 0 ?434 435 430 431 0 0 102
 30 433 755 0 436 431 437 0 +-.015 .00499 .005 0 0 1 16 436 678 0 ?438 439 440 4
33 0 0 102 30 437 754 0 439 433 441 0 +-.015 .00499 .00614436598137758 1 0 0 16
 439 690 0 ?442 443 436 437 0 0 102 30 441 753 0 443 437 444 0 +.015 .00499 .005
 0 0 -1 16 443 686 0 ?260 445 439 441 0 0 102 30 444 752 0 445 441 446 0 +-.015
 .00499 .005 -1 0 0 16 445 682 0 ?169 447 443 444 0 0 102 30 446 750 0 435 444 4
48 0 +-.015 .005 .00614436598137758 1 0 0 16 435 697 0 ?254 440 432 446 0 0 102
 30 448 748 0 440 446 449 0 +-.015 .005 .005 -1 0 0 16 440 703 0 ?247 436 435 44
8 0 0 102 30 449 747 0 450 448 451 0 +-.015 .00499 .005 0 1 0 16 450 685 0 ?452
 453 454 449 0 0 102 30 451 746 0 454 449 455 0 +.015 .00499 .005 0 1 0 16 454 6
89 0 ?251 450 456 451 0 0 102 30 455 745 0 456 451 457 0 +.015 .00499 .006144365
98137758 0 1 0 16 456 693 0 ?458 454 447 455 0 0 102 30 457 744 0 447 455 459 0
 +-.015 .00499 .00614436598137758 0 1 0 16 447 681 0 ?257 456 445 457 0 0 102 30
 459 596 0 460 457 461 0 +-.015 -.00499 .005 0 0 -1 16 460 519 0 ?462 463 464 45
9 0 0 102 30 461 595 0 463 459 465 0 +-.015 -.00499 .005 1 0 0 16 463 531 0 ?466
 467 460 461 0 0 102 30 465 594 0 467 461 468 0 +.015 -.00499 .005 0 0 1 16 467
 527 0 ?239 469 463 465 0 0 102 30 468 593 0 469 465 470 0 +-.015 -.00499 .00614
436598137758 -1 0 0 16 469 523 0 ?471 472 467 468 0 0 102 30 470 591 0 453 468 4
73 0 +-.015 -.005 .005 1 0 0 16 453 538 0 ?233 464 450 470 0 0 102 30 473 589 0
 464 470 474 0 +-.015 -.005 .00614436598137758 -1 0 0 16 464 544 0 ?226 460 453
 473 0 0 102 30 474 588 0 475 473 476 0 +-.015 -.00499 .00614436598137758 0 -1 0
 16 475 526 0 ?477 478 479 474 0 0 102 30 476 587 0 479 474 480 0 +.015 -.00499
 .00614436598137758 0 -1 0 16 479 530 0 ?230 475 481 476 0 0 102 30 480 586 0 48
1 476 482 0 +.015 -.00499 .005 0 -1 0 16 481 534 0 ?483 479 472 480 0 0 102 30 4
82 585 0 472 480 484 0 +-.015 -.00499 .005 0 -1 0 16 472 522 0 ?174 481 469 482
 0 0 102 30 484 9 0 485 482 486 0 +.0015 0 .05 0 -1 0 16 485 7 0 ?487 488 489 48
4 0 0 102 30 486 15 0 488 484 490 0 +-1131341397376176e-34 .003 .05 1 3771137991
25393e-31 0 16 488 13 0 ?221 491 485 486 0 0 102 30 490 20 0 491 486 492 0 +.013
 -375856753128308e-32 .05 289120579329468e-30 1 0 16 491 18 0 ?493 494 488 490 0
 0 102 30 492 25 0 494 490 495 0 +0 -.003 .05 1 0 0 16 494 23 0 ?496 497 491 492
 0 0 102 30 495 30 0 497 492 498 0 +0 .003 .05 1 0 0 16 497 28 0 ?499 500 494 49
5 0 0 102 30 498 35 0 500 495 501 0 +-.0015 0 .05 0 -1 0 16 500 33 0 ?209 502 49
7 498 0 0 102 30 501 41 0 502 498 503 0 +0 -.003 .05 1 0 0 16 502 39 0 ?504 505
 500 501 0 0 102 30 503 46 0 505 501 506 0 +-.013 0 .05 0 1 0 16 505 44 0 ?203 5
07 502 503 0 0 102 30 506 51 0 507 503 508 0 +.015 0 .05 0 1 0 16 507 49 0 ?200
 509 505 506 0 0 102 30 508 56 0 509 506 510 0 +0 .005 .05 1 0 0 16 509 54 0 ?51
1 512 507 508 0 0 102 30 510 63 0 512 508 513 0 +-.015 0 .05 0 1 0 16 512 61 0 ?
514 515 509 510 0 0 102 30 513 68 0 515 510 516 0 +0 -.005 .05 1 0 0 16 515 66 0
 ?191 517 512 513 0 0 102 30 516 242 0 478 513 518 0 +.0015 0 0 0 -1 0 16 478 21
2 0 ?519 520 475 516 0 0 102 30 518 240 0 520 516 521 0 +.013 -375856753128308e-
32 0 289120579329468e-30 1 0 16 520 202 0 ?522 523 478 518 0 0 102 30 521 237 0
 523 518 524 0 +-.0015 0 0 0 -1 0 16 523 186 0 ?525 526 520 521 0 0 102 30 524 2
35 0 526 521 527 0 +-.013 0 0 0 1 0 16 526 176 0 ?528 529 523 524 0 0 102 30 527
 234 0 530 524 531 0 +.015 0 0 0 1 0 16 530 171 0 ?373 532 167 527 167 529 102 3
0 531 233 0 532 527 533 0 +0 .005 0 1 0 0 16 532 164 0 ?534 535 530 531 0 0 102
 30 533 232 0 536 531 537 0 +-.015 0 0 0 1 0 16 536 159 0 ?538 489 539 533 539 5
35 102 30 537 231 0 489 533 540 0 +0 -.005 0 1 0 0 16 489 152 0 ?541 485 536 537
 0 0 102 30 540 303 0 542 537 543 0 +.015 -.005 .05 0 0 -1 16 542 255 0 ?544 545
 546 540 546 546 102 30 543 304 0 547 540 548 0 +-.015 -.005 .05 0 0 -1 16 547 2
56 0 ?549 550 545 543 545 545 102 30 548 305 0 551 543 552 0 +-.015 .005 .05 0 0
 -1 16 551 257 0 ?553 554 550 548 550 550 102 30 552 306 0 555 548 556 0 +.015 .
005 .05 0 0 -1 16 555 258 0 ?557 558 554 552 554 554 102 30 556 307 0 559 552 56
0 0 +-.013 .003 .05 0 0 -1 16 559 259 0 ?561 562 563 556 0 0 102 30 560 308 0 56
2 556 564 0 +-.013 -.003 .05 0 0 -1 16 562 260 0 ?565 566 559 560 0 0 102 30 564
 309 0 566 560 567 0 +-.0015 -.003 .05 0 0 -1 16 566 261 0 ?568 569 562 564 0 0
 102 30 567 310 0 569 564 570 0 +-.0015 .003 .05 0 0 -1 16 569 262 0 ?571 546 56
6 567 0 0 102 30 570 311 0 517 567 572 0 +.0015 -.003 .05 0 0 -1 16 517 263 0 ?5
73 574 515 570 0 0 102 30 572 312 0 574 570 575 0 +.013 -.003 .05 0 0 -1 16 574
 264 0 ?576 577 517 572 0 0 102 30 575 313 0 577 572 578 0 +.013 .003 .05 0 0 -1
 16 577 265 0 ?579 563 574 575 0 0 102 30 578 314 0 563 575 148 0 +.0015 .003 .0
5 0 0 -1 16 563 266 0 ?580 559 577 578 0 0 102 30 148 795 0 581 578 136 0 +0 .00
3 0 1 0 0 16 581 797 0 ?582 152 558 148 558 558 102 17 582 0 583 584 299 277 585
 581 0 528 +16 152 1079 0 ?329 139 581 136 139 139 102 16 558 796 0 ?586 581 555
 148 581 581 102 17 586 0 587 519 588 283 282 558 0 589 +15 587 1080 0 590 591 0
 17 519 0 587 590 586 327 589 478 0 0 +17 588 0 587 586 590 280 525 523 0 0 -17
 282 0 592 270 285 280 586 558 0 434 -17 589 0 593 594 395 283 519 478 0 0 -15 5
93 289 0 589 146 0 17 594 0 593 223 589 271 285 430 0 580 -17 395 0 593 589 573
 327 318 393 0 519 +17 573 0 593 395 487 316 215 517 0 0 +17 318 0 595 596 329 3
16 395 393 0 368 -15 595 1249 0 326 597 0 17 596 0 595 326 318 313 368 598 0 599
 +17 329 0 595 318 326 327 590 152 0 395 +17 368 0 363 321 315 316 596 598 0 369
 -17 315 0 363 368 600 313 601 602 0 596 -16 598 1202 0 ?596 370 602 371 370 602
 102 17 369 0 603 215 576 316 321 370 0 573 +15 603 283 0 576 604 0 17 215 0 603
 496 369 213 573 517 0 487 -17 576 0 603 369 496 319 218 574 0 0 +16 370 1197 0
 ?369 356 598 371 356 598 102 17 496 0 603 576 215 216 605 494 0 0 +17 218 0 606
 493 357 216 576 574 0 607 -15 606 285 0 608 609 0 17 493 0 606 579 218 219 607
 491 0 0 +17 357 0 606 218 608 319 332 391 0 576 +17 607 0 610 605 221 216 493 4
91 0 496 -15 610 4 0 611 612 613 17 605 0 610 611 607 213 496 494 0 0 -17 221 0
 610 607 611 219 614 488 0 615 +17 611 0 610 221 605 179 487 485 0 0 -17 614 0 6
16 580 615 179 221 488 0 611 -17 615 0 616 614 617 219 579 577 0 493 -15 616 822
 0 617 618 0 17 617 0 616 615 580 274 619 408 0 579 -17 579 0 606 620 493 274 61
5 577 0 0 +17 620 0 606 608 579 286 276 428 0 522 -17 608 0 606 357 620 330 522
 520 0 0 -17 276 0 621 310 288 274 620 428 0 406 +17 522 0 622 623 358 286 608 5
20 0 0 +15 622 1072 0 358 624 0 17 623 0 622 166 522 154 288 398 0 0 -17 358 0 6
22 522 166 330 342 359 0 608 +17 166 0 622 358 623 340 161 167 0 0 -16 167 1061
 0 ?161 530 529 527 529 530 102 16 529 786 0 ?188 167 526 527 530 167 102 17 188
 0 163 625 418 186 626 529 0 627 +17 625 0 163 628 188 249 627 554 0 0 -17 418 0
 163 188 629 290 302 416 0 626 +17 626 0 630 631 534 290 188 529 0 0 -17 627 0 6
32 633 634 186 625 554 0 534 +15 632 657 0 634 635 0 17 633 0 632 636 627 183 53
4 532 0 0 -17 634 0 632 627 636 249 247 440 0 625 -16 554 648 0 ?627 555 551 552
 555 555 102 17 534 0 630 626 185 186 633 532 0 0 +15 630 798 0 626 637 0 17 185
 0 630 534 631 183 638 535 0 639 +17 631 0 630 185 626 294 292 403 0 638 -17 638
 0 640 641 639 294 185 535 0 0 -16 535 792 0 ?185 539 532 533 536 539 102 17 639
 0 640 638 452 183 636 550 0 633 +15 640 846 0 642 643 0 17 452 0 640 639 644 24
5 645 450 0 636 +17 636 0 632 634 633 245 639 550 0 0 -16 550 627 0 ?639 551 547
 548 551 551 102 17 644 0 640 452 646 162 438 436 0 0 -17 645 0 647 648 247 162
 452 450 0 644 -15 647 721 0 247 649 0 17 648 0 647 251 645 234 169 445 0 628 -1
7 247 0 647 645 251 245 634 440 0 452 +17 251 0 647 247 648 249 628 454 0 634 +1
7 628 0 163 650 625 234 251 454 0 0 -17 650 0 163 458 628 261 260 443 0 0 -17 45
8 0 163 651 650 252 263 456 0 557 +17 260 0 652 169 442 234 650 443 0 648 +15 65
2 732 0 438 653 0 17 169 0 652 438 260 162 648 445 0 645 +17 442 0 652 260 438 2
61 265 439 0 650 +17 438 0 652 442 169 248 644 436 0 646 +17 265 0 654 257 263 2
48 442 439 0 438 -15 654 729 0 254 655 0 17 257 0 654 254 265 255 646 447 0 656
 +17 263 0 654 265 254 261 458 456 0 442 -17 254 0 654 263 257 252 656 435 0 458
 +17 656 0 657 197 557 255 254 435 0 553 -15 657 651 0 656 658 0 17 197 0 657 51
1 656 195 553 551 0 659 -17 557 0 657 656 511 252 651 555 0 0 +17 553 0 640 646
 514 255 197 551 0 0 +17 646 0 640 644 553 248 257 447 0 0 -17 514 0 640 553 194
 195 660 512 0 0 +17 194 0 640 514 477 192 549 547 0 661 -17 660 0 662 191 659 1
92 514 512 0 0 -15 662 6 0 200 612 0 17 191 0 662 200 660 175 661 515 0 663 +17
 659 0 662 660 200 195 511 509 0 514 -17 200 0 662 659 191 198 664 507 0 651 +17
 511 0 657 557 197 198 659 509 0 0 +17 664 0 163 544 651 175 200 507 0 0 -17 651
 0 163 664 458 198 557 555 0 511 -17 544 0 163 665 664 228 663 542 0 0 +17 665 0
 163 666 544 237 230 479 0 0 -17 663 0 667 661 668 175 544 542 0 664 -15 667 477
 0 549 669 0 17 661 0 667 549 663 192 191 515 0 660 -17 668 0 667 663 549 228 22
6 464 0 544 -17 549 0 667 668 661 224 194 547 0 0 +17 226 0 670 236 230 224 668
 464 0 477 +15 670 562 0 226 671 0 17 236 0 670 672 226 189 477 475 0 471 -17 23
0 0 670 226 672 228 665 479 0 668 +17 477 0 640 194 673 224 236 475 0 549 +17 67
3 0 640 477 674 189 462 460 0 0 -17 674 0 640 673 675 227 174 472 0 0 -17 462 0
 676 466 471 227 673 460 0 674 +15 676 573 0 462 677 0 17 466 0 676 239 462 240
 244 463 0 666 +17 471 0 676 462 239 189 672 469 0 673 +17 239 0 676 471 466 237
 666 467 0 672 +17 672 0 670 230 236 237 471 469 0 665 -17 666 0 163 483 665 240
 239 467 0 0 -17 483 0 163 178 666 231 242 481 0 678 +17 178 0 163 373 483 176 6
78 546 0 541 +17 242 0 679 244 233 240 483 481 0 466 -17 678 0 680 681 541 231 1
78 546 0 0 -15 680 267 0 678 682 0 17 681 0 680 182 678 170 233 453 0 675 -17 54
1 0 680 678 182 176 683 489 0 684 +16 546 468 0 ?178 542 569 540 542 542 102 17
 182 0 680 541 681 180 675 545 0 683 +17 683 0 685 538 684 180 541 489 0 686 -17
 684 0 685 683 160 176 373 530 0 0 -15 685 150 0 538 687 0 17 160 0 685 684 538
 140 156 381 0 373 -17 373 0 163 158 178 140 684 530 0 0 +17 538 0 685 160 683 3
38 686 536 0 0 +17 156 0 155 347 153 338 160 381 0 388 +15 155 1282 0 156 688 0
 17 347 0 155 157 156 345 388 386 0 366 -17 388 0 640 686 689 338 347 386 0 538
 +17 686 0 640 675 388 180 538 536 0 0 -17 689 0 640 388 690 345 379 361 0 0 -17
 690 0 640 689 642 333 336 383 0 0 -17 379 0 363 600 366 333 689 361 0 690 +17 6
00 0 363 315 379 300 344 372 0 601 -17 366 0 363 379 364 345 157 374 0 689 +17 1
57 0 155 153 347 348 366 374 0 364 -17 344 0 691 336 312 333 600 372 0 379 +16 3
72 1212 0 ?344 602 381 371 602 356 102 17 601 0 692 206 568 300 315 602 0 565 +1
5 692 277 0 568 693 0 17 206 0 692 504 601 204 565 562 0 694 -17 568 0 692 601 5
04 313 695 566 0 0 +16 602 1207 0 ?601 598 372 371 598 372 102 17 565 0 696 697
 694 300 206 562 0 0 +15 696 275 0 528 698 0 17 697 0 696 528 565 322 312 385 0
 584 -17 694 0 696 565 699 204 203 505 0 700 -17 699 0 696 694 427 201 561 559 0
 701 -17 203 0 613 499 700 201 694 505 0 699 +17 700 0 613 203 209 204 504 502 0
 0 -15 613 5 0 499 612 662 17 209 0 613 700 499 207 212 500 0 695 +17 504 0 692
 568 206 207 700 502 0 0 +17 499 0 613 209 203 210 701 497 0 702 +17 212 0 703 5
71 695 210 209 500 0 499 -17 695 0 703 212 599 207 568 566 0 504 -15 703 279 0 5
25 704 0 17 599 0 703 695 525 313 326 396 0 568 -17 525 0 703 599 434 324 588 52
3 0 0 +17 326 0 595 329 596 324 599 396 0 590 +17 590 0 587 588 519 324 329 152
 0 525 -17 434 0 703 525 571 280 270 432 0 588 +17 571 0 703 434 212 268 702 569
 0 0 +17 270 0 592 273 282 268 434 432 0 705 -15 592 942 0 273 706 0 17 273 0 59
2 285 270 271 705 707 0 619 -17 705 0 708 709 619 268 273 707 0 710 +15 708 973
 0 401 711 0 17 709 0 708 308 705 258 710 712 0 427 +17 619 0 708 705 406 271 61
7 408 0 594 +16 707 867 0 ?705 408 712 400 408 712 102 17 710 0 713 702 561 268
 709 712 0 571 -15 713 831 0 710 714 0 17 702 0 713 701 710 210 571 569 0 0 -17
 561 0 713 710 701 258 699 559 0 0 +16 712 876 0 ?709 707 402 400 707 402 102 16
 402 880 0 ?308 712 399 400 712 404 102 17 308 0 708 305 709 306 267 402 0 715 +
17 305 0 708 412 308 303 716 407 0 717 +17 267 0 718 279 715 258 308 402 0 709 -
17 715 0 718 267 585 306 424 422 0 716 -15 718 954 0 585 719 0 17 585 0 718 715
 279 297 582 581 0 424 -17 424 0 640 642 716 297 715 422 0 0 +17 716 0 640 424 6
41 306 305 407 0 0 -17 641 0 640 716 638 303 296 420 0 0 -17 296 0 720 292 717 2
94 641 420 0 631 +15 720 962 0 292 721 0 17 292 0 720 302 296 290 631 403 0 418
 +17 717 0 720 296 302 303 412 410 0 641 -17 302 0 720 717 292 289 418 416 0 412
 -17 412 0 708 401 305 289 717 410 0 629 +17 401 0 708 406 412 293 629 399 0 164
 +17 629 0 163 418 164 289 401 399 0 0 -17 164 0 163 629 161 293 168 413 0 0 -17
 168 0 621 288 310 154 164 413 0 623 +15 621 970 0 276 722 0 17 288 0 621 276 16
8 286 623 398 0 620 +17 310 0 621 168 276 293 406 404 0 401 -17 406 0 708 619 40
1 274 310 404 0 617 +14 255 722 967 723 ?711 721 621 134 724 -706 719 711 721 15
0 81 1 723 1524 725 722 726 0 727 728 729 14 711 971 728 ?597 722 708 134 730 +0
 0 597 722 150 14 721 959 727 ?722 719 720 134 731 -0 0 722 719 150 50 724 980 0
 722 731 732 0 +.015 .003 1e-5 0 -1 0 0 0 -1 14 706 939 733 ?719 653 592 134 724
 -719 722 719 653 150 14 719 951 734 ?721 706 718 134 724 -722 706 721 706 150 1
3 150 112 0 0 0 0 0 0 138 144 14 144 1144 735 ?643 0 163 134 736 -0 0 643 0 150
 81 1 735 1495 725 144 737 0 0 738 739 14 643 1129 738 ?693 144 640 134 740 +0 0
 693 144 150 50 736 294 0 144 741 742 0 +.015 0 .05 -1 0 0 0 0 1 50 741 293 0 65
8 740 736 0 +0 .005 .05 0 1 0 0 0 1 50 742 295 0 698 736 743 0 +-.013 0 .05 -1 0
 0 0 0 1 14 698 276 744 ?682 609 696 134 742 -0 0 682 609 150 50 743 296 0 693 7
42 745 0 +0 -.003 .05 0 1 0 0 0 1 14 693 1114 746 ?604 643 692 134 743 +0 0 604
 643 150 50 745 297 0 704 743 747 0 +-.0015 0 .05 1 0 0 0 0 -1 14 704 280 748 ?1
46 658 703 134 745 -0 0 146 658 150 50 747 298 0 714 745 749 0 +0 .003 .05 0 1 0
 0 0 1 14 714 833 750 ?618 624 713 134 747 -0 0 618 624 150 50 749 299 0 604 747
 751 0 +0 -.003 .05 0 1 0 0 0 1 14 604 1102 752 ?753 693 603 134 749 +0 0 753 69
3 150 50 751 300 0 609 749 147 0 +.013 -375856753128308e-32 .05 -1 2891205793294
68e-30 0 -289120579329468e-30 -1 0 14 609 286 754 ?698 146 606 134 751 +0 0 698
 146 150 50 147 301 0 618 751 135 0 +-1131341397376176e-34 .003 .05 -37711379912
5393e-31 1 0 -1 -377113799125393e-31 0 14 618 824 755 ?637 714 616 134 147 -0 0
 637 714 150 81 1 755 1503 725 618 756 0 750 757 758 14 637 799 757 ?635 618 630
 134 759 -687 624 635 618 150 81 1 757 1504 725 637 760 0 755 761 762 14 635 653
 761 ?669 637 632 134 741 +658 658 669 637 150 50 759 230 0 687 763 764 0 +0 0 0
 0 0 1 1 0 0 14 687 148 765 ?671 612 685 134 759 -753 637 671 612 150 14 624 107
4 766 ?714 591 622 134 759 -637 591 714 591 150 81 1 766 1501 725 624 767 0 768
 750 769 14 591 1081 768 ?624 753 587 134 759 -624 753 624 753 150 81 1 768 1500
 725 591 770 0 771 766 772 14 753 1088 771 ?591 604 583 134 759 -591 687 591 604
 150 81 1 771 1499 725 753 773 0 752 768 774 15 583 1087 0 775 753 0 17 775 0 58
3 299 584 334 151 139 0 642 -17 299 0 583 582 775 297 642 539 0 585 +17 584 0 58
3 775 582 322 528 526 0 0 -17 151 0 691 312 336 322 775 139 0 697 +17 642 0 640
 690 424 334 299 539 0 0 -16 539 1055 0 ?299 536 535 533 535 536 102 15 691 1267
 0 312 776 0 17 312 0 691 344 151 300 697 385 0 600 +17 336 0 691 151 344 334 69
0 383 0 775 +14 776 1262 777 ?355 597 691 134 778 +355 597 355 597 150 81 1 777
 1527 725 776 779 0 780 781 782 14 355 1268 781 ?688 776 351 134 778 +597 776 68
8 776 150 14 597 1244 780 ?776 711 595 134 778 +776 355 776 711 150 50 778 1298
 0 355 783 730 0 +-173472347597681e-33 -.003 1e-5 -578241158658936e-31 -1 0 1 -5
78241158658936e-31 0 50 783 1300 0 688 784 778 0 +-1156482317317874e-34 -.004 1e
-5 -289120579329468e-31 -1 0 1 -289120579329468e-31 0 50 730 984 0 711 778 731 0
 +0 0 1e-5 0 0 -1 -1 0 0 50 731 982 0 721 730 724 0 +.015 .004 1e-5 0 1 0 0 0 1
 14 688 1279 785 ?365 355 155 134 783 -0 0 365 355 150 50 784 1303 0 365 0 783 0
 +0 0 1e-5 0 0 -1 -1 0 0 14 365 1288 786 ?0 688 363 134 784 +0 0 0 688 150 81 1
 786 1530 725 365 787 0 785 0 788 80 255 1 725 0 789 8001 0 0 0 0 3 5 0 0 0 FFFF
TFTFFFFFFF2 81 1 787 1468 790 365 0 786 791 792 793 81 1 785 1529 725 688 791 0
 781 786 794 83 255 3 788 1 1 1 81 1 791 1466 790 688 0 785 795 787 796 81 1 781
 1528 725 355 797 0 777 785 798 83 3 794 1 1 1 81 1 797 1458 790 355 0 781 779 7
95 799 83 3 798 1 1 1 80 1 790 800 801 9000 1 1 1 1 1 1 1 1 0 FFFFTFTFFFFFFF1 81
 1 779 1454 790 776 0 777 773 797 802 81 1 795 1462 790 597 0 780 797 791 803 82
 255 1 799 -1239154472 81 1 780 1526 725 597 795 0 728 777 804 82 1 803 -1224736
552 81 1 728 1525 725 711 805 0 723 780 806 83 3 804 1 1 1 81 1 805 1405 790 711
 0 728 726 807 808 83 3 806 1 1 1 81 1 726 1403 790 722 0 723 0 805 809 81 1 807
 1407 790 721 0 727 805 810 811 82 1 808 1534197973 81 1 727 1523 725 721 807 0
 734 723 812 81 1 810 1409 790 706 0 733 807 813 814 82 1 811 1540751573 81 1 73
3 1521 725 706 810 0 815 734 816 81 1 813 1411 790 719 0 734 810 737 817 82 1 81
4 1552220373 81 1 734 1522 725 719 813 0 733 727 818 81 1 737 1413 790 144 0 735
 813 819 820 82 1 817 1550647509 81 1 819 1415 790 643 0 738 737 821 822 82 1 82
0 -1219493672 81 1 738 1496 725 643 819 0 735 746 823 81 1 821 1417 790 698 0 74
4 819 824 825 82 1 822 -1220869928 81 1 744 1511 725 698 821 0 754 826 827 81 1
 824 1419 790 693 0 746 821 828 829 82 1 825 73203928 81 1 746 1497 725 693 824
 0 738 752 830 81 1 828 1421 790 704 0 748 824 831 832 82 1 829 -1222246184 81 1
 748 1508 725 704 828 0 833 834 835 81 1 831 1424 790 714 0 750 828 836 837 82 1
 832 73728216 81 1 750 1502 725 714 831 0 766 755 838 81 1 836 1426 790 604 0 75
2 831 839 840 82 1 837 1554579669 81 1 752 1498 725 604 836 0 746 771 841 81 1 8
39 1428 790 609 0 754 836 756 842 82 1 840 -1223425832 81 1 754 1510 725 609 839
 0 834 744 843 81 1 756 1430 790 618 0 755 839 760 844 82 1 842 79560920 81 1 76
0 1432 790 637 0 757 756 845 846 82 1 844 1553727701 81 1 845 1436 790 635 0 761
 760 847 848 82 1 846 1545666773 81 1 761 1505 725 635 845 0 757 849 850 81 1 84
7 1438 790 687 0 765 845 767 851 82 1 848 -963116856 81 1 765 1514 725 687 847 0
 852 853 854 81 1 767 1442 790 624 0 766 847 770 855 82 1 851 74514648 81 1 770
 1446 790 591 0 768 767 773 856 82 1 855 -1233256232 81 1 773 1450 790 753 0 771
 770 779 857 82 1 856 -1232666408 82 1 857 -1232076584 81 1 852 1513 725 612 858
 0 826 765 859 81 1 853 1515 725 671 860 0 765 861 862 83 3 854 1 1 1 14 671 559
 853 ?863 687 670 134 864 -0 0 863 687 150 81 1 860 1483 790 671 0 853 865 866 8
67 81 1 861 1516 725 863 866 0 853 868 869 83 3 862 1 1 1 14 863 567 861 ?677 67
1 679 134 870 -0 0 677 671 150 81 1 866 1485 790 863 0 861 860 858 871 81 1 868
 1517 725 677 865 0 861 872 873 83 3 869 1 1 1 14 677 571 868 ?649 863 676 134 8
74 -0 0 649 863 150 81 1 865 1481 790 677 0 868 875 860 876 81 1 872 1518 725 64
9 877 0 868 878 879 83 3 873 1 1 1 14 649 718 872 ?655 677 647 134 880 -0 0 655
 677 150 81 1 877 1475 790 649 0 872 881 882 883 81 1 878 1519 725 655 882 0 872
 815 884 83 3 879 1 1 1 14 655 726 878 ?653 649 654 134 885 -0 0 653 649 150 81
 1 882 1477 790 655 0 878 877 875 886 81 1 815 1520 725 653 875 0 878 733 887 83
 3 884 1 1 1 14 653 730 815 ?706 655 652 134 732 +0 0 706 655 150 81 1 875 1479
 790 653 0 815 882 865 888 83 3 887 1 1 1 82 1 888 -975568696 50 732 743 0 653 7
24 880 0 +0 .00499 0 0 1 0 0 0 1 50 880 741 0 649 732 885 0 +-.015 .00499 .005 0
 0 -1 -1 0 0 50 885 739 0 655 880 874 0 +-.015 .00499 .00614436598137758 0 0 1 1
 0 0 50 874 584 0 677 885 864 0 +0 -.00499 0 0 1 0 0 0 1 50 864 582 0 671 874 87
0 0 +-.015 -.00499 .00614436598137758 0 0 1 1 0 0 50 870 580 0 863 864 763 0 +-.
015 -.00499 .005 0 0 -1 -1 0 0 50 763 3 0 612 870 759 0 +0 0 .05 0 0 1 1 0 0 14
 612 1 852 ?687 682 610 134 763 +0 0 687 682 150 14 682 268 826 ?612 698 680 134
 764 -669 669 612 698 150 81 1 826 1512 725 682 889 0 744 852 890 50 764 291 0 6
82 759 740 0 +0 -.005 .05 0 1 0 0 0 1 14 669 479 849 ?658 635 667 134 764 -682 6
82 658 635 150 81 1 849 1506 725 669 891 0 761 833 892 14 658 272 833 ?704 669 6
57 134 741 +635 635 704 669 150 81 1 833 1507 725 658 881 0 849 748 893 81 1 881
 1473 790 658 0 833 792 877 894 83 3 893 1 1 1 81 1 792 1470 790 146 0 834 787 8
81 895 82 1 894 43319496 14 146 290 834 ?609 704 593 134 135 +0 0 609 704 150 81
 1 834 1509 725 146 792 0 748 754 896 82 1 895 79757528 83 3 896 1 1 1 81 1 891
 1493 790 669 0 849 889 0 897 83 3 892 1 1 1 81 1 889 1491 790 682 0 826 858 891
 898 82 1 897 -1301086015 81 1 858 1487 790 612 0 852 866 889 899 82 1 898 44236
993 82 1 899 -1218379635 50 740 292 0 643 764 741 0 +-.015 0 .05 -1 0 0 0 0 1 83
 3 890 1 1 1 82 1 886 -968752952 82 1 883 -969015096 82 1 876 -1312161599 82 1 8
71 -1305345855 15 679 570 0 233 863 0 17 233 0 679 242 174 231 681 453 0 483 +17
 174 0 679 233 244 170 674 472 0 681 +17 244 0 679 174 242 227 466 463 0 462 -82
 1 867 -1305607999 83 3 859 1 1 1 83 3 850 1 1 1 83 3 843 1 1 1 83 3 841 1 1 1 8
3 3 838 1 1 1 83 3 835 1 1 1 83 3 830 1 1 1 83 3 827 1 1 1 83 3 823 1 1 1 83 3 8
18 1 1 1 83 3 816 1 1 1 83 3 812 1 1 1 82 1 809 1541013717 82 1 802 -1226702632
 79 255 14 801 SWEntUnchanged82 1 796 -1239416616 82 1 793 -1248460584 79 15 789
 SDL/TYSA_COLOUR83 3 782 1 1 1 17 528 0 696 427 697 277 584 526 0 0 +17 427 0 69
6 699 528 258 279 419 0 561 +17 279 0 718 585 267 277 427 419 0 582 -83 3 774 1
 1 1 83 3 772 1 1 1 83 3 769 1 1 1 83 3 762 1 1 1 83 3 758 1 1 1 83 3 739 1 1 1
 83 3 729 1 1 1 17 701 0 713 561 702 201 499 497 0 0 -16 408 871 0 ?619 404 707
 400 404 707 102 17 285 0 592 282 273 283 594 430 0 586 +17 675 0 640 674 686 17
0 182 545 0 0 -16 545 474 0 ?182 547 542 543 547 547 102 17 580 0 616 617 614 27
1 223 563 0 0 +17 223 0 593 487 594 179 580 563 0 614 -17 487 0 593 573 223 213
 611 485 0 605 +17 332 0 351 342 352 330 357 391 0 358 -19 145 316 0 102 0 138 1
34 S0 74 4 CI16 index_map_offset0 0 1 dCCZ20 143 4 0 0 891 141 786 131 0 0 0 0 0
 0 0 0 0 0 0 0 0 0 0 0 81 2 141 406 900 102 0 131 0 0 901 0 80 2 900 902 903 800
4 0 0 0 0 3 5 0 0 0 FFTFFFFFFFFFFF2 3 83 1 901 1e3 79 16 903 SDL/TYSA_DENSITY80
 1 5 904 905 8017 0 0 0 0 0 0 0 0 0 TTTTTTTTTTTTTF3 84 255 4 142 ²åÍ·79 13 905 S
DL/TYSA_NAME81 1 110 1376 5 14 0 0 0 0 906 70 111 0 4 T14 0 0 3 20 1 907 907 13
 112 99 0 14 0 908 0 0 909 0 50 113 94 0 908 910 0 0 +-.0245125871846065 .012129
3913556656 .01 1 0 0 0 0 -1 30 114 95 0 117 911 0 0 +-.0245125871846065 .0121293
913556656 .01 0 0 -1 29 115 872 0 118 912 0 -.000937210749999265 .01212939135566
56 0 19 116 33 0 14 909 0 913 V0 16 117 79 0 ?914 0 915 114 0 0 14 18 118 870 0
 916 0 917 115 ?14 17 916 0 918 919 920 118 921 922 0 923 -18 917 30 0 924 118 9
25 926 ?14 17 924 0 927 928 929 917 930 915 0 931 +18 925 66 0 932 917 933 912 ?
14 29 926 32 0 917 934 912 -.0245125871846065 .0121293913556656 .01 29 934 955 0
 933 935 926 -.000937210749999265 .0121293913556656 .01 29 912 75 0 925 926 115
 -.0245125871846065 .0121293913556656 0 18 933 918 0 919 925 936 934 ?14 29 935
 956 0 936 937 934 -.0245125871846065 -.01204510704992236 .01 18 936 917 0 938 9
33 939 935 ?14 29 937 957 0 939 940 935 -.000937210749999265 -.01204510704992236
 .01 18 939 916 0 941 936 942 937 ?14 29 940 959 0 942 943 937 -.024512587184606
5 -.01204510704992236 0 18 942 920 0 944 939 945 940 ?14 29 943 960 0 945 0 940
 -.000937210749999265 -.01204510704992236 0 18 945 919 0 946 942 0 943 ?14 17 94
6 0 947 948 944 945 949 950 0 920 -15 947 929 0 948 951 0 17 948 0 947 938 946 9
39 920 952 0 953 -17 944 0 947 946 938 942 954 955 0 949 +17 949 0 956 957 921 9
42 946 950 0 958 +16 950 911 0 ?949 959 922 960 0 0 14 17 920 0 918 916 941 945
 948 952 0 921 +15 918 932 0 919 961 0 17 941 0 918 920 919 939 929 962 0 948 +1
6 952 909 0 ?920 963 955 964 0 0 14 17 921 0 956 949 965 945 916 922 0 0 +15 956
 49 0 965 966 0 17 965 0 956 921 957 118 932 967 0 0 -16 922 910 0 ?921 950 0 96
8 0 0 14 30 968 950 0 922 969 960 0 +-.000937210749999265 .0121293913556656 0 0
 -1 0 30 969 951 0 962 0 968 0 +-.000937210749999265 .0121293913556656 .01 0 -1
 0 30 960 949 0 950 968 970 0 +-.000937210749999265 -.01204510704992236 0 -1 0 0
 30 970 948 0 959 960 971 0 +-.000937210749999265 .0121293913556656 .08473455736
72973 0 0 -1 16 959 905 0 ?923 955 950 970 0 0 14 30 971 947 0 955 970 964 0 +-.
0245125871846065 -.01204510704992236 .0847345573672973 0 0 -1 16 955 907 0 ?944
 952 959 971 0 0 14 30 964 946 0 952 971 972 0 +-.000937210749999265 -.012045107
04992236 .0847345573672973 0 0 -1 30 972 945 0 963 964 973 0 +-.0009372107499992
65 -.01204510704992236 .01 -1 0 0 16 963 906 0 ?938 962 952 972 0 0 14 30 973 7
 0 974 972 975 0 +-.0245125871846065 .0121293913556656 .01 0 -1 0 16 974 5 0 ?92
8 915 967 973 0 0 14 30 975 19 0 915 973 976 0 +-.0245125871846065 .012129391355
6656 .01 -1 0 0 16 915 874 0 ?924 117 974 975 0 0 14 30 976 74 0 977 975 911 0 +
-.0245125871846065 .0121293913556656 0 0 -1 0 16 977 62 0 ?958 967 962 976 0 0 1
4 30 911 71 0 967 976 114 0 +-.0245125871846065 .0121293913556656 0 -1 0 0 16 96
7 871 0 ?932 974 977 911 0 0 14 17 932 0 978 931 923 925 965 967 0 914 +15 978 8
3 0 930 979 0 17 931 0 978 930 932 917 914 117 0 980 -17 923 0 978 932 930 118 9
19 959 0 965 +17 914 0 981 958 980 925 931 117 0 957 +15 981 887 0 954 908 0 17
 958 0 981 954 914 942 957 977 0 0 +17 980 0 981 914 954 917 928 974 0 0 -17 957
 0 956 965 949 925 958 977 0 0 -17 954 0 981 980 958 936 944 955 0 928 -17 928 0
 927 953 924 936 980 974 0 0 +15 927 894 0 953 982 0 17 953 0 927 929 928 939 93
8 963 0 0 -17 929 0 927 924 953 933 941 962 0 930 -17 938 0 947 944 948 936 953
 963 0 954 +16 962 908 0 ?941 977 963 969 0 0 14 17 930 0 978 923 931 933 924 91
5 0 0 -14 982 144 983 ?0 961 927 112 984 +0 0 0 961 913 81 1 983 1375 725 982 98
5 0 986 0 987 14 961 930 986 ?982 951 918 112 988 +0 0 982 951 913 50 984 3 0 98
2 988 989 0 +0 0 .01 0 0 1 1 0 0 13 913 34 0 0 0 0 0 0 116 908 14 908 888 990 ?9
79 0 981 112 113 -0 0 979 0 913 81 1 990 1370 725 908 991 0 0 992 993 14 979 84
 992 ?966 908 978 112 910 -0 0 966 908 913 81 1 992 1371 725 979 994 0 990 995 9
96 14 966 48 995 ?951 979 956 112 989 -0 0 951 979 913 50 910 91 0 979 989 113 0
 +-.0245125871846065 .0121293913556656 .01 0 -1 0 0 0 -1 50 989 70 0 966 984 910
 0 +0 0 0 0 0 1 1 0 0 81 1 995 1372 725 966 997 0 992 998 999 14 951 927 998 ?96
1 966 947 112 1000 +0 0 961 966 913 81 1 998 1373 725 951 1001 0 995 986 1002 50
 1000 940 0 951 0 988 0 +-.000937210749999265 -.01204510704992236 .0847345573672
973 0 -1 0 0 0 -1 50 988 939 0 961 1000 984 0 +-.000937210749999265 .01212939135
56656 .0847345573672973 1 0 0 0 0 -1 81 1 1001 1368 790 951 0 998 997 0 1003 81
 1 986 1374 725 961 1004 0 998 983 1005 83 3 1002 .792156862745098 .819607843137
255 .933333333333333 81 1 1004 1360 790 961 0 986 985 991 1006 83 3 1005 .792156
862745098 .819607843137255 .933333333333333 81 1 985 1357 790 982 0 983 0 1004 1
007 81 1 991 1362 790 908 0 990 1004 994 1008 82 1 1006 -1614348059 81 1 994 136
4 790 979 0 992 991 997 1009 82 1 1008 -1559953179 81 1 997 1366 790 966 0 995 9
94 1001 1010 82 1 1009 -663682843 82 1 1010 -664600347 82 1 1007 -630390547 82 1
 1003 -1615986459 83 3 999 .792156862745098 .819607843137255 .933333333333333 83
 3 996 .792156862745098 .819607843137255 .933333333333333 83 3 993 .792156862745
098 .819607843137255 .933333333333333 83 3 987 .792156862745098 .819607843137255
 .933333333333333 17 919 0 918 941 916 933 923 959 0 929 -19 909 100 0 14 0 116
 112 S0 74 20 907 3 0 0 1001 983 110 0 0 0 0 0 0 0 0 0 0 0 0 0 0 0 0 0 84 10 906
 sensorbase81 1 100 64 5 91 0 0 0 0 1011 70 101 0 4 T91 0 0 3 20 1 1012 1012 13
 103 8 0 91 0 1013 0 0 1014 0 50 104 26 0 1015 1016 0 0 +-.0245125871846065 .037
95489295007765 .01 0 0 1 1 0 0 31 255 105 25 0 1017 1018 0 0 --.0114759448729499
8 -.00671492943372793 .01 0 0 1 1 0 0 .00301221410388678 19 106 6 0 91 1014 0 10
19 V0 16 107 10 0 ?1020 0 1017 1018 0 0 91 17 1020 0 1021 1020 1020 0 1022 107 0
 0 +16 1017 9 0 ?1023 107 0 105 0 0 91 31 1018 24 0 107 0 105 0 +-.0114759448729
4998 -.00671492943372793 .01 0 0 1 1 0 0 .003212214103886785 17 1023 0 1024 1023
 1023 0 1025 1017 0 0 +15 1024 13 0 1023 1013 0 17 1025 0 1026 1025 1025 0 1023
 1017 0 0 -15 1026 17 0 1025 1015 1027 14 1015 14 1028 ?1029 1013 1026 103 104 -
0 0 1029 1013 1019 15 1027 18 0 1022 1015 0 17 1022 0 1027 1022 1022 0 1020 107
 0 0 -81 1 1028 62 725 1015 1030 0 1031 1032 1033 14 1029 19 1032 ?0 1015 1021 1
03 1016 -0 0 0 1015 1019 14 1013 11 1031 ?1015 0 1024 103 1034 -0 0 1015 0 1019
 13 1019 7 0 0 0 0 0 0 106 1013 81 1 1031 61 725 1013 1035 0 0 1028 1036 53 255
 1034 22 0 1013 0 1016 0 +-.01147594487294998 -.00671492943372793 .01 .003012214
10388678 -1 0 0 0 0 -1 53 1016 23 0 1029 1034 104 0 --.01147594487294998 -.00671
492943372793 .01 .003212214103886785 -1 0 0 0 0 1 81 1 1035 59 790 1013 0 1031 1
037 0 1038 83 3 1036 .792156862745098 .819607843137255 .933333333333333 81 1 103
7 57 790 1029 0 1032 1030 1035 1039 82 1 1038 -1931935513 81 1 1032 63 725 1029
 1037 0 1028 0 1040 81 1 1030 55 790 1015 0 1028 0 1037 1041 82 1 1039 -19328530
17 82 1 1041 -1520172825 83 3 1040 .792156862745098 .819607843137255 .9333333333
33333 15 1021 21 0 1020 1029 0 83 3 1033 .792156862745098 .819607843137255 .9333
33333333333 19 1014 1 0 91 0 106 103 S0 74 20 1012 3 0 0 1035 1032 100 0 0 0 0 0
 0 0 0 0 0 0 0 0 0 0 0 0 84 6 1011 sensor81 1 89 64 5 80 0 0 0 0 1042 70 90 0 4
 T80 0 0 3 20 1 1043 1043 13 92 8 0 80 0 1044 0 0 1045 0 50 93 26 0 1046 1047 0
 0 +-.0245125871846065 .03795489295007765 .01 0 0 1 1 0 0 31 94 25 0 1048 1049 0
 0 --.01847594487295 -.00671492943372793 .01 0 0 1 1 0 0 .00301221410388678 19 9
5 6 0 80 1045 0 1050 V0 16 96 10 0 ?1051 0 1048 1049 0 0 80 17 1051 0 1052 1051
 1051 0 1053 96 0 0 +16 1048 9 0 ?1054 96 0 94 0 0 80 31 1049 24 0 96 0 94 0 +-.
01847594487295 -.00671492943372793 .01 0 0 1 1 0 0 .003212214103886785 17 1054 0
 1055 1054 1054 0 1056 1048 0 0 +15 1055 13 0 1054 1044 0 17 1056 0 1057 1056 10
56 0 1054 1048 0 0 -15 1057 17 0 1056 1046 1058 14 1046 14 1059 ?1060 1044 1057
 92 93 -0 0 1060 1044 1050 15 1058 18 0 1053 1046 0 17 1053 0 1058 1053 1053 0 1
051 96 0 0 -81 1 1059 62 725 1046 1061 0 1062 1063 1064 14 1060 19 1063 ?0 1046
 1052 92 1047 -0 0 0 1046 1050 14 1044 11 1062 ?1046 0 1055 92 1065 -0 0 1046 0
 1050 13 1050 7 0 0 0 0 0 0 95 1044 81 1 1062 61 725 1044 1066 0 0 1059 1067 53
 1065 22 0 1044 0 1047 0 +-.01847594487295 -.00671492943372793 .01 .003012214103
88678 -1 0 0 0 0 -1 53 1047 23 0 1060 1065 93 0 --.01847594487295 -.006714929433
72793 .01 .003212214103886785 -1 0 0 0 0 1 81 1 1066 59 790 1044 0 1062 1068 0 1
069 83 3 1067 .792156862745098 .819607843137255 .933333333333333 81 1 1068 57 79
0 1060 0 1063 1061 1066 1070 82 1 1069 -1997209369 81 1 1063 63 725 1060 1068 0
 1059 0 1071 81 1 1061 55 790 1046 0 1059 0 1068 1072 82 1 1070 -1998126873 82 1
 1072 -1518403353 83 3 1071 .792156862745098 .819607843137255 .933333333333333 1
5 1052 21 0 1051 1060 0 83 3 1064 .792156862745098 .819607843137255 .93333333333
3333 19 1045 1 0 80 0 95 92 S0 74 20 1043 3 0 0 1066 1063 89 0 0 0 0 0 0 0 0 0 0
 0 0 0 0 0 0 0 84 6 1042 sensor81 1 78 64 5 69 0 0 0 0 1073 70 79 0 4 T69 0 0 3
 20 1 1074 1074 13 81 8 0 69 0 1075 0 0 1076 0 50 82 26 0 1077 1078 0 0 +-.02451
25871846065 .03795489295007765 .01 0 0 1 1 0 0 31 83 25 0 1079 1080 0 0 --.00447
5944872949975 .000285070566272073 .01 0 0 1 1 0 0 .00301221410388678 19 84 6 0 6
9 1076 0 1081 V0 16 85 10 0 ?1082 0 1079 1080 0 0 69 17 1082 0 1083 1082 1082 0
 1084 85 0 0 +16 1079 9 0 ?1085 85 0 83 0 0 69 31 1080 24 0 85 0 83 0 +-.0044759
44872949975 .000285070566272073 .01 0 0 1 1 0 0 .003212214103886785 17 1085 0 10
86 1085 1085 0 1087 1079 0 0 +15 1086 13 0 1085 1075 0 17 1087 0 1088 1087 1087
 0 1085 1079 0 0 -15 1088 17 0 1087 1077 1089 14 1077 14 1090 ?1091 1075 1088 81
 82 -0 0 1091 1075 1081 15 1089 18 0 1084 1077 0 17 1084 0 1089 1084 1084 0 1082
 85 0 0 -81 1 1090 62 725 1077 1092 0 1093 1094 1095 14 1091 19 1094 ?0 1077 108
3 81 1078 -0 0 0 1077 1081 14 1075 11 1093 ?1077 0 1086 81 1096 -0 0 1077 0 1081
 13 1081 7 0 0 0 0 0 0 84 1075 81 1 1093 61 725 1075 1097 0 0 1090 1098 53 1096
 22 0 1075 0 1078 0 +-.004475944872949975 .000285070566272073 .01 .0030122141038
8678 -1 0 0 0 0 -1 53 1078 23 0 1091 1096 82 0 --.004475944872949975 .0002850705
66272073 .01 .003212214103886785 -1 0 0 0 0 1 81 1 1097 59 790 1075 0 1093 1099
 0 1100 83 3 1098 .792156862745098 .819607843137255 .933333333333333 81 1 1099 5
7 790 1091 0 1094 1092 1097 1101 82 1 1100 -1888419609 81 1 1094 63 725 1091 109
9 0 1090 0 1102 81 1 1092 55 790 1077 0 1090 0 1099 1103 82 1 1101 -1889337113 8
2 1 1103 -1521352473 83 3 1102 .792156862745098 .819607843137255 .93333333333333
3 15 1083 21 0 1082 1091 0 83 3 1095 .792156862745098 .819607843137255 .93333333
3333333 19 1076 1 0 69 0 84 81 S0 74 20 1074 3 0 0 1097 1094 78 0 0 0 0 0 0 0 0
 0 0 0 0 0 0 0 0 0 84 6 1073 sensor81 1 67 64 5 58 0 0 0 0 1104 70 68 0 4 T58 0
 0 3 20 1 1105 1105 13 70 8 0 58 0 1106 0 0 1107 0 50 71 26 0 1108 1109 0 0 +-.0
245125871846065 .03795489295007765 .01 0 0 1 1 0 0 31 72 25 0 1110 1111 0 0 --.0
1147594487294998 .000285070566272073 .01 0 0 1 1 0 0 .00301221410388678 19 73 6
 0 58 1107 0 1112 V0 16 74 10 0 ?1113 0 1110 1111 0 0 58 17 1113 0 1114 1113 111
3 0 1115 74 0 0 +16 1110 9 0 ?1116 74 0 72 0 0 58 31 1111 24 0 74 0 72 0 +-.0114
7594487294998 .000285070566272073 .01 0 0 1 1 0 0 .003212214103886785 17 1116 0
 1117 1116 1116 0 1118 1110 0 0 +15 1117 13 0 1116 1106 0 17 1118 0 1119 1118 11
18 0 1116 1110 0 0 -15 1119 17 0 1118 1108 1120 14 1108 14 1121 ?1122 1106 1119
 70 71 -0 0 1122 1106 1112 15 1120 18 0 1115 1108 0 17 1115 0 1120 1115 1115 0 1
113 74 0 0 -81 1 1121 62 725 1108 1123 0 1124 1125 1126 14 1122 19 1125 ?0 1108
 1114 70 1109 -0 0 0 1108 1112 14 1106 11 1124 ?1108 0 1117 70 1127 -0 0 1108 0
 1112 13 1112 7 0 0 0 0 0 0 73 1106 81 1 1124 61 725 1106 1128 0 0 1121 1129 53
 1127 22 0 1106 0 1109 0 +-.01147594487294998 .000285070566272073 .01 .003012214
10388678 -1 0 0 0 0 -1 53 1109 23 0 1122 1127 71 0 --.01147594487294998 .0002850
70566272073 .01 .003212214103886785 -1 0 0 0 0 1 81 1 1128 59 790 1106 0 1124 11
30 0 1131 83 3 1129 .792156862745098 .819607843137255 .933333333333333 81 1 1130
 57 790 1122 0 1125 1123 1128 1132 82 1 1131 -1953693465 81 1 1125 63 725 1122 1
130 0 1121 0 1133 81 1 1123 55 790 1108 0 1121 0 1130 1134 82 1 1132 -1954610969
 82 1 1134 -1519583001 83 3 1133 .792156862745098 .819607843137255 .933333333333
333 15 1114 21 0 1113 1122 0 83 3 1126 .792156862745098 .819607843137255 .933333
333333333 19 1107 1 0 58 0 73 70 S0 74 20 1105 3 0 0 1128 1125 67 0 0 0 0 0 0 0
 0 0 0 0 0 0 0 0 0 0 84 6 1104 sensor81 1 56 64 5 47 0 0 0 0 1135 70 57 0 4 T47
 0 0 3 20 1 1136 1136 13 59 8 0 47 0 1137 0 0 1138 0 50 60 26 0 1139 1140 0 0 +-
.0245125871846065 .03795489295007765 .01 0 0 1 1 0 0 31 61 25 0 1141 1142 0 0 --
.01847594487295 .000285070566272073 .01 0 0 1 1 0 0 .00301221410388678 19 62 6 0
 47 1138 0 1143 V0 16 63 10 0 ?1144 0 1141 1142 0 0 47 17 1144 0 1145 1144 1144
 0 1146 63 0 0 +16 1141 9 0 ?1147 63 0 61 0 0 47 31 1142 24 0 63 0 61 0 +-.01847
594487295 .000285070566272073 .01 0 0 1 1 0 0 .003212214103886785 17 1147 0 1148
 1147 1147 0 1149 1141 0 0 +15 1148 13 0 1147 1137 0 17 1149 0 1150 1149 1149 0
 1147 1141 0 0 -15 1150 17 0 1149 1139 1151 14 1139 14 1152 ?1153 1137 1150 59 6
0 -0 0 1153 1137 1143 15 1151 18 0 1146 1139 0 17 1146 0 1151 1146 1146 0 1144 6
3 0 0 -81 1 1152 62 725 1139 1154 0 1155 1156 1157 14 1153 19 1156 ?0 1139 1145
 59 1140 -0 0 0 1139 1143 14 1137 11 1155 ?1139 0 1148 59 1158 -0 0 1139 0 1143
 13 1143 7 0 0 0 0 0 0 62 1137 81 1 1155 61 725 1137 1159 0 0 1152 1160 53 1158
 22 0 1137 0 1140 0 +-.01847594487295 .000285070566272073 .01 .00301221410388678
 -1 0 0 0 0 -1 53 1140 23 0 1153 1158 60 0 --.01847594487295 .000285070566272073
 .01 .003212214103886785 -1 0 0 0 0 1 81 1 1159 59 790 1137 0 1155 1161 0 1162 8
3 3 1160 .792156862745098 .819607843137255 .933333333333333 81 1 1161 57 790 115
3 0 1156 1154 1159 1163 82 1 1162 -2019032857 81 1 1156 63 725 1153 1161 0 1152
 0 1164 81 1 1154 55 790 1139 0 1152 0 1161 1165 82 1 1163 -2019950361 82 1 1165
 -1517813529 83 3 1164 .792156862745098 .819607843137255 .933333333333333 15 114
5 21 0 1144 1153 0 83 3 1157 .792156862745098 .819607843137255 .933333333333333
 19 1138 1 0 47 0 62 59 S0 74 20 1136 3 0 0 1159 1156 56 0 0 0 0 0 0 0 0 0 0 0 0
 0 0 0 0 0 84 6 1135 sensor81 1 45 64 5 36 0 0 0 0 1166 70 46 0 4 T36 0 0 3 20 1
 1167 1167 13 48 8 0 36 0 1168 0 0 1169 0 50 49 26 0 1170 1171 0 0 +-.0245125871
846065 .03795489295007765 .01 0 0 1 1 0 0 31 50 25 0 1172 1173 0 0 --.0044759448
72949975 .00728507056627207 .01 0 0 1 1 0 0 .00301221410388678 19 51 6 0 36 1169
 0 1174 V0 16 52 10 0 ?1175 0 1172 1173 0 0 36 17 1175 0 1176 1175 1175 0 1177 5
2 0 0 +16 1172 9 0 ?1178 52 0 50 0 0 36 31 1173 24 0 52 0 50 0 +-.00447594487294
9975 .00728507056627207 .01 0 0 1 1 0 0 .003212214103886785 17 1178 0 1179 1178
 1178 0 1180 1172 0 0 +15 1179 13 0 1178 1168 0 17 1180 0 1181 1180 1180 0 1178
 1172 0 0 -15 1181 17 0 1180 1170 1182 14 1170 14 1183 ?1184 1168 1181 48 49 -0
 0 1184 1168 1174 15 1182 18 0 1177 1170 0 17 1177 0 1182 1177 1177 0 1175 52 0
 0 -81 1 1183 62 725 1170 1185 0 1186 1187 1188 14 1184 19 1187 ?0 1170 1176 48
 1171 -0 0 0 1170 1174 14 1168 11 1186 ?1170 0 1179 48 1189 -0 0 1170 0 1174 13
 1174 7 0 0 0 0 0 0 51 1168 81 1 1186 61 725 1168 1190 0 0 1183 1191 53 1189 22
 0 1168 0 1171 0 +-.004475944872949975 .00728507056627207 .01 .00301221410388678
 -1 0 0 0 0 -1 53 1171 23 0 1184 1189 49 0 --.004475944872949975 .00728507056627
207 .01 .003212214103886785 -1 0 0 0 0 1 81 1 1190 59 790 1168 0 1186 1192 0 119
3 83 3 1191 .792156862745098 .819607843137255 .933333333333333 81 1 1192 57 790
 1184 0 1187 1185 1190 1194 82 1 1193 -1910177561 81 1 1187 63 725 1184 1192 0 1
183 0 1195 81 1 1185 55 790 1170 0 1183 0 1192 1196 82 1 1194 -1911095065 82 1 1
196 -1520762649 83 3 1195 .792156862745098 .819607843137255 .933333333333333 15
 1176 21 0 1175 1184 0 83 3 1188 .792156862745098 .819607843137255 .933333333333
333 19 1169 1 0 36 0 51 48 S0 74 20 1167 3 0 0 1190 1187 45 0 0 0 0 0 0 0 0 0 0
 0 0 0 0 0 0 0 84 6 1166 sensor81 1 34 64 5 25 0 0 0 0 1197 70 35 0 4 T25 0 0 3
 20 1 1198 1198 13 37 8 0 25 0 1199 0 0 1200 0 50 38 26 0 1201 1202 0 0 +-.02451
25871846065 .03795489295007765 .01 0 0 1 1 0 0 31 39 25 0 1203 1204 0 0 --.01147
594487294998 .00728507056627207 .01 0 0 1 1 0 0 .00301221410388678 19 40 6 0 25
 1200 0 1205 V0 16 41 10 0 ?1206 0 1203 1204 0 0 25 17 1206 0 1207 1206 1206 0 1
208 41 0 0 +16 1203 9 0 ?1209 41 0 39 0 0 25 31 1204 24 0 41 0 39 0 +-.011475944
87294998 .00728507056627207 .01 0 0 1 1 0 0 .003212214103886785 17 1209 0 1210 1
209 1209 0 1211 1203 0 0 +15 1210 13 0 1209 1199 0 17 1211 0 1212 1211 1211 0 12
09 1203 0 0 -15 1212 17 0 1211 1201 1213 14 1201 14 1214 ?1215 1199 1212 37 38 -
0 0 1215 1199 1205 15 1213 18 0 1208 1201 0 17 1208 0 1213 1208 1208 0 1206 41 0
 0 -81 1 1214 62 725 1201 1216 0 1217 1218 1219 14 1215 19 1218 ?0 1201 1207 37
 1202 -0 0 0 1201 1205 14 1199 11 1217 ?1201 0 1210 37 1220 -0 0 1201 0 1205 13
 1205 7 0 0 0 0 0 0 40 1199 81 1 1217 61 725 1199 1221 0 0 1214 1222 53 1220 22
 0 1199 0 1202 0 +-.01147594487294998 .00728507056627207 .01 .00301221410388678
 -1 0 0 0 0 -1 53 1202 23 0 1215 1220 38 0 --.01147594487294998 .007285070566272
07 .01 .003212214103886785 -1 0 0 0 0 1 81 1 1221 59 790 1199 0 1217 1223 0 1224
 83 3 1222 .792156862745098 .819607843137255 .933333333333333 81 1 1223 57 790 1
215 0 1218 1216 1221 1225 82 1 1224 -1975451417 81 1 1218 63 725 1215 1223 0 121
4 0 1226 81 1 1216 55 790 1201 0 1214 0 1223 1227 82 1 1225 -1976368921 82 1 122
7 -1518993177 83 3 1226 .792156862745098 .819607843137255 .933333333333333 15 12
07 21 0 1206 1215 0 83 3 1219 .792156862745098 .819607843137255 .933333333333333
 19 1200 1 0 25 0 40 37 S0 74 20 1198 3 0 0 1221 1218 34 0 0 0 0 0 0 0 0 0 0 0 0
 0 0 0 0 0 84 6 1197 sensor81 1 23 70 5 13 0 0 0 0 1228 70 24 0 4 T13 0 0 3 20 1
 1229 1229 13 26 8 0 13 0 1230 0 0 1231 0 50 27 32 0 1232 1233 0 0 +-.0245125871
846065 .03795489295007765 .01 0 0 1 1 0 0 31 28 25 0 1234 1235 0 0 --.0044759448
72949975 -.00671492943372793 .01 0 0 1 1 0 0 .00301221410388678 19 29 6 0 13 123
1 0 1236 V0 16 30 10 0 ?1237 0 1234 1235 0 0 13 17 1237 0 1238 1237 1237 0 1239
 30 0 0 +16 1234 9 0 ?1240 30 0 28 0 0 13 31 1235 24 0 30 0 28 0 +-.004475944872
949975 -.00671492943372793 .01 0 0 1 1 0 0 .003212214103886785 17 1240 0 1241 12
40 1240 0 1242 1234 0 0 +15 1241 13 0 1240 1230 0 17 1242 0 1243 1242 1242 0 124
0 1234 0 0 -15 1243 17 0 1242 1232 1244 14 1232 14 1245 ?1246 1230 1243 26 27 -0
 0 1246 1230 1236 15 1244 18 0 1239 1232 0 17 1239 0 1244 1239 1239 0 1237 30 0
 0 -81 1 1245 68 725 1232 1247 0 1248 1249 1250 14 1246 19 1249 ?0 1232 1238 26
 1233 -0 0 0 1232 1236 14 1230 11 1248 ?1232 0 1241 26 1251 -0 0 1232 0 1236 13
 1236 7 0 0 0 0 0 0 29 1230 81 1 1248 67 725 1230 1252 0 0 1245 1253 53 1251 22
 0 1230 0 1233 0 +-.004475944872949975 -.00671492943372793 .01 .0030122141038867
8 -1 0 0 0 0 -1 53 1233 23 0 1246 1251 27 0 --.004475944872949975 -.006714929433
72793 .01 .003212214103886785 -1 0 0 0 0 1 81 1 1252 65 790 1230 0 1248 1254 0 1
255 83 3 1253 .792156862745098 .819607843137255 .933333333333333 81 1 1254 63 79
0 1246 0 1249 1247 1252 1256 82 1 1255 -1866661657 81 1 1249 69 725 1246 1254 0
 1245 0 1257 81 1 1247 61 790 1232 0 1245 0 1254 1258 82 1 1256 -1867579161 82 1
 1258 -1521942297 83 3 1257 .792156862745098 .819607843137255 .933333333333333 1
5 1238 21 0 1237 1246 0 83 3 1250 .792156862745098 .819607843137255 .93333333333
3333 19 1231 1 0 13 0 29 26 S0 74 20 1229 3 0 0 1252 1249 23 0 0 0 0 0 0 0 0 0 0
 0 0 0 0 0 0 0 84 6 1228 sensor81 1 11 1415 5 7 0 0 0 0 1259 70 12 0 4 T7 0 0 3
 20 1 1260 1260 13 15 160 0 7 0 1261 0 0 1262 0 53 16 172 0 1261 1263 0 0 +-.018
47594487295 .00728507056627207 .01 .00301221410388678 -1 0 0 0 0 -1 31 17 1220 0
 19 1264 0 0 +-.01847594487295 .00728507056627207 .01 0 0 1 1 0 0 .0032122141038
86785 19 18 170 0 7 1262 0 1265 V0 16 19 1023 0 ?1266 0 1267 17 0 0 7 17 1266 0
 1268 1266 1266 0 1269 19 0 0 +16 1267 1022 0 ?1270 19 0 1264 0 0 7 17 1270 0 12
71 1270 1270 0 1272 1267 0 0 +31 1264 1229 0 1267 0 17 0 --.01847594487295 .0072
8507056627207 .01 0 0 1 1 0 0 .00301221410388678 15 1271 167 0 1270 1261 0 17 12
72 0 1273 1272 1272 0 1270 1267 0 0 -15 1273 1108 0 1272 1274 1275 14 1274 1105
 1276 ?1277 1261 1273 15 1278 -0 0 1277 1261 1265 15 1275 1109 0 1269 1274 0 17
 1269 0 1275 1269 1269 0 1266 19 0 0 -81 1 1276 1413 725 1274 1279 0 1280 1281 1
282 14 1277 157 1281 ?0 1274 1268 15 1263 -0 0 0 1274 1265 14 1261 165 1280 ?127
4 0 1271 15 16 -0 0 1274 0 1265 50 1278 1213 0 1274 0 1263 0 +-.0245125871846065
 .03795489295007765 .01 0 0 1 1 0 0 13 1265 171 0 0 0 0 0 0 18 1261 53 1263 173
 0 1277 1278 16 0 --.01847594487295 .00728507056627207 .01 .003212214103886785 -
1 0 0 0 0 1 81 1 1280 1412 725 1261 1283 0 0 1276 1284 81 1 1283 1410 790 1261 0
 1280 1285 0 1286 83 3 1284 .792156862745098 .819607843137255 .933333333333333 8
1 1 1285 1408 790 1277 0 1281 1279 1283 1287 82 1 1286 -632684352 81 1 1281 1414
 725 1277 1285 0 1276 0 1288 81 1 1279 1406 790 1274 0 1276 0 1285 1289 82 1 128
7 -633601856 82 1 1289 -1517223705 83 3 1288 .792156862745098 .819607843137255 .
933333333333333 15 1268 159 0 1266 1277 0 83 3 1282 .792156862745098 .8196078431
37255 .933333333333333 19 1262 100 0 7 0 18 15 S0 74 20 1260 3 0 0 1283 1281 11
 0 0 0 0 0 0 0 0 0 0 0 0 0 0 0 0 0 84 6 1259 sensor74 20 6 1 0 0 2 0 0 0 0 0 0 0
 0 0 0 0 0 0 0 0 0 0 0 0 1 0 
