**ABCDEFGHIJKLMNOPQRSTUVWXYZabcdefghijklmnopqrstuvwxyz**************************
**PARASOLID !"#$%&'()*+,-./:;<=>?@[\]^_`{|}~0123456789**************************
**PART1;
MC=AMD64;
MC_MODEL=Intel64 Family 6 Model 140 Stepping 2, GenuineIntel;
MC_ID=unknown;
OS=Windows_NT;
OS_RELEASE=unknown;
FRU=Parasolid Version 33.1, build 260,  4-25-2022;
APPL=SOLIDWORKS 2022-2022290;
SITE=;
USER=unknown;
FORMAT=text;
GUISE=transmit;
KEY=FILEpegsensor1026.x_t;
DATE=Thu Oct 26 16:58:36 2023;
**PART2;
SCH=SCH_3301260_33103;
USFLD_SIZE=0;
**PART3;
**END_OF_HEADER*****************************************************************
T51 : TRANSMIT FILE created by modeller version 330126023 SCH_3301260_33103_1300
6230 0 10 21 CCCCI7 lattice222 0 CCCI4 mesh1006 0 I8 polyline1008 0 CCCCCCCCCCA1
6 mesh_offset_data206 0 Z1 43 2 3 0 0 0 0 0 0 0 0 1e3 1e-8 0 0 0 1 0 1 4 0 81 25
5 1 2 43 5 1 0 0 0 0 0 70 11 CI9 list_type0 0 1 uI10 notransmit0 0 1 lCCCDCCDI12
 finger_index0 0 1 dI12 finger_block1012 0 CZ3 0 4 T1 0 0 1 20 1 6 6 11 255 4 41
 0 1 7 8 1 9 0 10 0 12 35 CCCI7 lattice222 0 CCCI4 mesh1006 0 I8 polyline1008 0
 CCCCCCCDI5 owner1040 0 CCCCCCI13 boundary_mesh1006 0 I17 boundary_polyline1008
 0 CCCA16 index_map_offset0 0 1 dA9 index_map82 0 A17 node_id_index_map82 0 A20
 schema_embedding_map82 0 A5 child12 0 A14 lowest_node_id0 0 1 dA16 mesh_offset_
data206 0 Z7 1415 11 12 0 0 0 0 0 0 0 1e3 1e-8 4 13 14 1 0 1 1 15 16 17 0 0 0 18
 19 0 0 0 0 0 0 0 0 100 10 CCCCCCCCCA9 precision229 0 Z8 42 4 0 0 -3816391647148
975e-31 1 343999698216588e-30 551378558027098e-30 338602921039118e-30 -1 -1 -381
6391647148975e-31 -555943590626344e-30 .0171525527830512 .0450970861444674 .0374
573007799646 1 3 ?0 11 9 39 0 1 13 20 1 21 4 22 0 12 13 70 23 24 0 0 0 0 0 0 0 1
e3 1e-8 9 25 7 1 0 1 1 26 27 28 0 0 0 29 30 0 0 0 0 0 0 0 0 100 20 40 9 0 0 -381
6391647148975e-31 1 343999698216588e-30 551378558027098e-30 338602921039118e-30
 -1 -1 -3816391647148975e-31 -555943590626344e-30 .0171525527830512 .04509708614
44674 .0374573007799646 1 3 ?0 11 21 37 0 1 25 31 1 32 9 33 0 12 25 64 34 35 0 0
 0 0 0 0 0 1e3 1e-8 21 36 13 1 0 1 1 37 38 39 0 0 0 40 41 0 0 0 0 0 0 0 0 100 31
 38 21 0 0 -3816391647148975e-31 1 343999698216588e-30 551378558027098e-30 33860
2921039118e-30 -1 -1 -3816391647148975e-31 -555943590626344e-30 .017152552783051
2 .0450970861444674 .0374573007799646 1 3 ?0 11 32 35 0 1 36 42 1 43 21 44 0 12
 36 64 45 46 0 0 0 0 0 0 0 1e3 1e-8 32 47 25 1 0 1 1 48 49 50 0 0 0 51 52 0 0 0
 0 0 0 0 0 100 42 36 32 0 0 -3816391647148975e-31 1 343999698216588e-30 55137855
8027098e-30 338602921039118e-30 -1 -1 -3816391647148975e-31 -555943590626344e-30
 .0171525527830512 .0450970861444674 .0374573007799646 1 3 ?0 11 43 33 0 1 47 53
 1 54 32 55 0 12 47 64 56 57 0 0 0 0 0 0 0 1e3 1e-8 43 58 36 1 0 1 1 59 60 61 0
 0 0 62 63 0 0 0 0 0 0 0 0 100 53 34 43 0 0 -3816391647148975e-31 1 343999698216
588e-30 551378558027098e-30 338602921039118e-30 -1 -1 -3816391647148975e-31 -555
943590626344e-30 .0171525527830512 .0450970861444674 .0374573007799646 1 3 ?0 11
 54 31 0 1 58 64 1 65 43 66 0 12 58 64 67 68 0 0 0 0 0 0 0 1e3 1e-8 54 69 47 1 0
 1 1 70 71 72 0 0 0 73 74 0 0 0 0 0 0 0 0 100 64 32 54 0 0 -3816391647148975e-31
 1 343999698216588e-30 551378558027098e-30 338602921039118e-30 -1 -1 -3816391647
148975e-31 -555943590626344e-30 .0171525527830512 .0450970861444674 .03745730077
99646 1 3 ?0 11 65 29 0 1 69 75 1 76 54 77 0 12 69 64 78 79 0 0 0 0 0 0 0 1e3 1e
-8 65 80 58 1 0 1 1 81 82 83 0 0 0 84 85 0 0 0 0 0 0 0 0 100 75 30 65 0 0 -38163
91647148975e-31 1 343999698216588e-30 551378558027098e-30 338602921039118e-30 -1
 -1 -3816391647148975e-31 -555943590626344e-30 .0171525527830512 .04509708614446
74 .0374573007799646 1 3 ?0 11 76 27 0 1 80 86 1 87 65 88 0 12 80 64 89 90 0 0 0
 0 0 0 0 1e3 1e-8 76 91 69 1 0 1 1 92 93 94 0 0 0 95 96 0 0 0 0 0 0 0 0 100 86 2
8 76 0 0 -3816391647148975e-31 1 343999698216588e-30 551378558027098e-30 3386029
21039118e-30 -1 -1 -3816391647148975e-31 -555943590626344e-30 .0171525527830512
 .0450970861444674 .0374573007799646 1 3 ?0 11 87 25 0 1 91 97 1 98 76 99 0 12 9
1 64 100 101 0 0 0 0 0 0 0 1e3 1e-8 87 102 80 1 0 1 1 103 104 105 0 0 0 106 107
 0 0 0 0 0 0 0 0 100 97 26 87 0 0 -3816391647148975e-31 1 343999698216588e-30 55
1378558027098e-30 338602921039118e-30 -1 -1 -3816391647148975e-31 -5559435906263
44e-30 .0171525527830512 .0450970861444674 .0374573007799646 1 3 ?0 11 98 23 0 1
 14 108 1 109 87 109 0 12 14 1376 110 111 0 0 0 0 0 0 0 1e3 1e-8 98 7 0 1 0 1 1
 112 113 114 115 0 0 116 117 118 0 0 0 0 0 0 0 100 108 24 98 0 0 -.0001575698709
227415 .999999987585868 213306885153789e-30 -1980489130875055e-33 -2180338760630
335e-31 1 .999999987585868 .0001575698709227495 -275573929645651e-30 .0181388320
638377 .0086726579366938 .0627041073072283 1 3 ?0 11 109 21 0 1 14 119 1 10 98 0
 98 100 119 22 109 0 0 .999999690256765 .000787074567244536 -3796152082197795e-3
1 415576634834213e-30 804330280841999e-30 1 .000787074567244468 -.99999969025676
5 720792844976509e-30 .03029610546713045 .0350970861444674 .0501194247782309 1 3
 ?0 11 10 19 0 1 7 120 1 22 109 0 4 100 120 20 10 0 0 1 -1506731261294965e-31 11
62147264762484e-31 -1162147264113082e-31 219432235707747e-30 1 -674063988690195e
-31 -1 2194322357804835e-31 .02891356822227325 .0086726579366938 .04921831621918
67 1 3 ?0 11 22 17 0 1 13 121 1 33 10 0 9 100 121 18 22 0 0 1 -1506731261294965e
-31 1162147264762484e-31 -1162147264113082e-31 219432235707747e-30 1 -6740639886
90195e-31 -1 2194322357804835e-31 .02891356822227325 .0086726579366938 .04921831
62191867 1 3 ?0 11 33 15 0 1 25 122 1 44 22 0 21 100 122 16 33 0 0 1 -1506731261
294965e-31 1162147264762484e-31 -1162147264113082e-31 219432235707747e-30 1 -674
063988690195e-31 -1 2194322357804835e-31 .02891356822227325 .0086726579366938 .0
492183162191867 1 3 ?0 11 44 13 0 1 36 123 1 55 33 0 32 100 123 14 44 0 0 1 -150
6731261294965e-31 1162147264762484e-31 -1162147264113082e-31 219432235707747e-30
 1 -674063988690195e-31 -1 2194322357804835e-31 .02891356822227325 .008672657936
6938 .0492183162191867 1 3 ?0 11 55 11 0 1 47 124 1 66 44 0 43 100 124 12 55 0 0
 1 -1506731261294965e-31 1162147264762484e-31 -1162147264113082e-31 219432235707
747e-30 1 -674063988690195e-31 -1 2194322357804835e-31 .02891356822227325 .00867
26579366938 .0492183162191867 1 3 ?0 11 66 9 0 1 58 125 1 77 55 0 54 100 125 10
 66 0 0 1 -1506731261294965e-31 1162147264762484e-31 -1162147264113082e-31 21943
2235707747e-30 1 -674063988690195e-31 -1 2194322357804835e-31 .02891356822227325
 .0086726579366938 .0492183162191867 1 3 ?0 11 77 7 0 1 69 126 1 88 66 0 65 100
 126 8 77 0 0 1 -1506731261294965e-31 1162147264762484e-31 -1162147264113082e-31
 219432235707747e-30 1 -674063988690195e-31 -1 2194322357804835e-31 .02891356822
227325 .0086726579366938 .0492183162191867 1 3 ?0 11 88 5 0 1 80 127 1 99 77 0 7
6 100 127 6 88 0 0 1 -1506731261294965e-31 1162147264762484e-31 -116214726411308
2e-31 219432235707747e-30 1 -674063988690195e-31 -1 2194322357804835e-31 .028913
56822227325 .0086726579366938 .0492183162191867 1 3 ?0 11 99 3 0 1 91 128 1 129
 88 0 87 100 128 4 99 0 0 1 -1506731261294965e-31 1162147264762484e-31 -11621472
64113082e-31 219432235707747e-30 1 -674063988690195e-31 -1 2194322357804835e-31
 .02891356822227325 .0086726579366938 .0492183162191867 1 3 ?0 11 129 1 0 1 102
 130 1 0 99 0 0 12 102 1154 131 132 0 0 0 0 0 0 0 1e3 1e-8 129 133 91 1 0 1 1 13
4 135 136 137 0 0 138 139 140 0 0 0 0 0 0 0 100 130 2 129 0 0 1 0 0 0 1 0 0 0 1
 .02014478155118255 .02688487204058055 .01457256483440236 1 1 ?0 81 1 131 1154 5
 102 141 0 0 0 142 70 132 0 4 T102 0 0 4 20 1 143 143 13 255 134 315 0 102 0 144
 0 0 145 0 50 255 135 302 0 146 147 0 0 +.0015 0 .05 1 0 0 0 0 -1 30 255 136 795
 0 139 148 0 0 +0 .003 0 1 0 0 29 255 137 784 0 140 149 0 .015 .003 0 19 8 CCCCC
CCA5 owner12 0 Z138 111 0 102 145 0 150 V0 16 255 139 797 0 ?151 0 152 136 152 1
52 102 18 255 140 782 0 153 0 154 137 ?102 17 255 153 0 155 156 157 140 158 159
 0 160 +18 154 632 0 161 140 162 149 ?102 17 161 0 163 164 165 154 166 167 0 168
 +18 162 473 0 169 154 170 171 ?102 29 149 634 0 154 171 137 -.015 .00499 .005 2
9 171 475 0 162 172 149 -.015 -.005 .005 29 172 243 0 173 174 171 .015 -.005 0 1
8 173 218 0 175 176 177 172 ?102 29 174 244 0 177 178 172 -.015 -.005 0 18 177 2
19 0 179 173 180 174 ?102 29 178 245 0 180 181 174 -.015 .005 0 18 180 220 0 182
 177 183 178 ?102 29 181 246 0 183 184 178 .015 .005 0 18 183 221 0 185 180 186
 181 ?102 29 184 248 0 186 187 181 -.013 -.003 0 18 186 223 0 188 183 189 184 ?1
02 29 187 249 0 189 190 184 -.0015 -.003 0 18 189 224 0 191 186 192 187 ?102 29
 190 251 0 192 193 187 .0015 -.003 0 18 192 226 0 194 189 195 190 ?102 29 193 25
2 0 195 196 190 .013 -.003 0 18 195 227 0 197 192 198 193 ?102 29 196 108 0 170
 199 193 .015 -.005 .05 18 170 106 0 200 162 201 196 ?102 29 199 105 0 201 202 1
96 -.015 -.005 .05 18 201 103 0 203 170 204 199 ?102 29 202 102 0 204 205 199 -.
015 .005 .05 18 204 100 0 206 201 207 202 ?102 29 205 99 0 207 208 202 .015 .005
 .05 18 207 97 0 209 204 210 205 ?102 29 208 96 0 210 211 205 -.013 .003 .05 18
 210 94 0 212 207 213 208 ?102 29 211 93 0 213 214 208 -.013 -.003 .05 18 213 91
 0 215 210 216 211 ?102 29 214 90 0 216 217 211 -.0015 -.003 .05 18 216 88 0 218
 213 219 214 ?102 29 217 87 0 219 220 214 -.0015 .003 .05 18 219 85 0 221 216 22
2 217 ?102 29 220 84 0 222 223 217 .0015 -.003 .05 18 222 82 0 224 219 225 220 ?
102 29 223 81 0 225 226 220 .013 -.003 .05 18 225 79 0 227 222 228 223 ?102 29 2
26 78 0 228 229 223 .013 .003 .05 18 228 76 0 230 225 176 226 ?102 29 229 75 0 1
76 231 226 .0015 .003 .05 18 176 73 0 232 228 173 229 ?102 29 231 597 0 233 234
 229 -.015 -.005 .00614436598137758 18 233 550 0 235 236 237 231 ?102 29 234 598
 0 237 238 231 .015 -.005 .00614436598137758 18 237 552 0 239 233 240 234 ?102 2
9 238 599 0 240 241 234 .015 -.005 .005 18 240 554 0 242 237 243 238 ?102 29 241
 601 0 198 244 238 -.015 -.00499 .00614436598137758 18 198 547 0 245 195 246 241
 ?102 29 244 602 0 246 247 241 .015 -.00499 .00614436598137758 18 246 549 0 248
 198 249 244 ?102 29 247 603 0 249 250 244 .015 -.00499 .005 18 249 551 0 251 24
6 236 247 ?102 29 250 604 0 236 252 247 -.015 -.00499 .005 18 236 553 0 253 249
 233 250 ?102 29 252 756 0 254 255 250 -.015 .005 .005 18 254 709 0 256 257 258
 252 ?102 29 255 757 0 258 259 252 .015 .005 .005 18 258 711 0 260 254 261 255 ?
102 29 259 758 0 261 262 255 .015 .005 .00614436598137758 18 261 713 0 263 258 2
64 259 ?102 29 262 759 0 264 265 259 -.015 .005 .00614436598137758 18 264 707 0
 266 261 267 262 ?102 29 265 761 0 243 268 262 .015 .00499 .005 18 243 708 0 165
 240 269 265 ?102 29 268 762 0 269 270 265 .015 .00499 .00614436598137758 18 269
 710 0 271 243 257 268 ?102 29 270 763 0 257 272 268 -.015 .00499 .0061443659813
7758 18 257 712 0 273 269 254 270 ?102 29 272 1001 0 267 274 270 -.013 .003 1e-5
 18 267 929 0 275 264 276 272 ?102 29 274 1002 0 276 277 272 -.0015 .003 1e-5 18
 276 927 0 278 267 279 274 ?102 29 277 1003 0 279 280 274 .0015 .003 1e-5 18 279
 924 0 281 276 282 277 ?102 29 280 1004 0 282 283 277 .013 .003 1e-5 18 282 926
 0 284 279 285 280 ?102 29 283 1005 0 285 286 280 -.013 .003 0 18 285 928 0 287
 282 288 283 ?102 29 286 1006 0 288 289 283 -.0015 .003 0 18 288 923 0 290 285 2
91 286 ?102 29 289 1007 0 291 292 286 .0015 .003 0 18 291 925 0 293 288 294 289
 ?102 29 292 1008 0 294 295 289 .013 .003 0 18 294 936 0 156 291 296 292 ?102 29
 295 1009 0 297 298 292 .015 .004 0 18 297 934 0 299 300 301 295 ?102 29 298 101
0 0 301 302 295 -.015 .004 0 18 301 935 0 303 297 304 298 ?102 29 302 1011 0 304
 305 298 -.015 .003 0 18 304 938 0 306 301 0 302 ?102 29 305 1013 0 296 307 302
 .015 .004 1e-5 18 296 931 0 308 294 309 305 ?102 29 307 1014 0 309 310 305 -.01
5 .004 1e-5 18 309 933 0 311 296 312 307 ?102 29 310 1015 0 312 313 307 -.015 .0
03 1e-5 18 312 930 0 314 309 300 310 ?102 29 313 1016 0 300 0 310 .015 .003 1e-5
 18 300 937 0 157 312 297 313 ?102 17 157 0 155 153 284 300 315 316 0 317 -15 25
5 155 970 0 284 318 0 17 284 0 155 157 156 282 319 320 0 315 +17 315 0 321 322 3
17 282 157 316 0 323 +16 316 896 0 ?315 324 325 326 327 325 102 17 317 0 321 315
 328 300 329 330 0 158 +15 321 973 0 317 331 0 17 328 0 321 317 311 296 332 333
 0 329 +17 329 0 334 335 158 296 317 330 0 0 -16 330 884 0 ?317 327 336 337 0 0
 102 17 158 0 334 329 338 300 153 159 0 0 -15 334 663 0 329 339 0 17 338 0 334 1
58 175 140 340 341 0 0 +16 159 887 0 ?153 342 333 343 0 0 102 16 342 883 0 ?344
 345 159 346 0 0 102 16 333 888 0 ?328 159 324 347 0 0 102 30 343 989 0 159 346
 348 0 +.015 .003 1e-5 0 0 -1 30 346 990 0 342 349 343 0 +-.015 .003 1e-5 0 0 -1
 30 348 988 0 350 343 351 0 +-.013 .003 .05 0 0 1 16 350 879 0 ?352 320 353 348
 0 0 102 30 351 987 0 320 348 354 0 +.013 .003 .05 0 0 1 16 320 875 0 ?284 355 3
50 351 0 0 102 30 354 986 0 355 351 356 0 +.0015 .003 .05 0 0 -1 16 355 874 0 ?2
93 357 320 354 0 0 102 30 356 985 0 357 354 358 0 +-.0015 .003 .05 0 0 -1 16 357
 870 0 ?359 360 355 356 0 0 102 30 358 755 0 361 356 362 0 +-.015 .00499 .005 0
 0 1 16 361 678 0 ?164 363 364 358 0 0 102 30 362 754 0 363 358 365 0 +-.015 .00
499 .00614436598137758 1 0 0 16 363 690 0 ?366 367 361 362 0 0 102 30 365 753 0
 367 362 368 0 +.015 .00499 .005 0 0 -1 16 367 686 0 ?165 167 363 365 0 0 102 30
 368 752 0 167 365 369 0 +-.015 .00499 .005 -1 0 0 16 167 682 0 ?161 370 367 368
 0 0 102 30 369 750 0 360 368 371 0 +-.015 .005 .00614436598137758 1 0 0 16 360
 697 0 ?263 364 357 369 0 0 102 30 371 748 0 364 369 372 0 +-.015 .005 .005 -1 0
 0 16 364 703 0 ?256 361 360 371 0 0 102 30 372 747 0 373 371 374 0 +-.015 .0049
9 .005 0 1 0 16 373 685 0 ?375 376 377 372 0 0 102 30 374 746 0 377 372 378 0 +.
015 .00499 .005 0 1 0 16 377 689 0 ?260 373 379 374 0 0 102 30 378 745 0 379 374
 380 0 +.015 .00499 .00614436598137758 0 1 0 16 379 693 0 ?381 377 370 378 0 0 1
02 30 380 744 0 370 378 382 0 +-.015 .00499 .00614436598137758 0 1 0 16 370 681
 0 ?266 379 167 380 0 0 102 30 382 596 0 383 380 384 0 +-.015 -.00499 .005 0 0 -
1 16 383 519 0 ?385 386 387 382 0 0 102 30 384 595 0 386 382 388 0 +-.015 -.0049
9 .005 1 0 0 16 386 531 0 ?389 390 383 384 0 0 102 30 388 594 0 390 384 391 0 +.
015 -.00499 .005 0 0 1 16 390 527 0 ?248 392 386 388 0 0 102 30 391 593 0 392 38
8 393 0 +-.015 -.00499 .00614436598137758 -1 0 0 16 392 523 0 ?394 395 390 391 0
 0 102 30 393 591 0 376 391 396 0 +-.015 -.005 .005 1 0 0 16 376 538 0 ?242 387
 373 393 0 0 102 30 396 589 0 387 393 397 0 +-.015 -.005 .00614436598137758 -1 0
 0 16 387 544 0 ?235 383 376 396 0 0 102 30 397 588 0 398 396 399 0 +-.015 -.004
99 .00614436598137758 0 -1 0 16 398 526 0 ?400 401 402 397 0 0 102 30 399 587 0
 402 397 403 0 +.015 -.00499 .00614436598137758 0 -1 0 16 402 530 0 ?239 398 404
 399 0 0 102 30 403 586 0 404 399 405 0 +.015 -.00499 .005 0 -1 0 16 404 534 0 ?
406 402 395 403 0 0 102 30 405 585 0 395 403 407 0 +-.015 -.00499 .005 0 -1 0 16
 395 522 0 ?169 404 392 405 0 0 102 30 407 9 0 408 405 409 0 +.0015 0 .05 0 -1 0
 16 408 7 0 ?410 411 412 407 0 0 102 30 409 15 0 411 407 413 0 +-113134139737617
6e-34 .003 .05 1 377113799125393e-31 0 16 411 13 0 ?230 414 408 409 0 0 102 30 4
13 20 0 414 409 415 0 +.013 -375856753128308e-32 .05 289120579329468e-30 1 0 16
 414 18 0 ?416 417 411 413 0 0 102 30 415 25 0 417 413 418 0 +0 -.003 .05 1 0 0
 16 417 23 0 ?419 420 414 415 0 0 102 30 418 30 0 420 415 421 0 +0 .003 .05 1 0
 0 16 420 28 0 ?422 423 417 418 0 0 102 30 421 35 0 423 418 424 0 +-.0015 0 .05
 0 -1 0 16 423 33 0 ?218 425 420 421 0 0 102 30 424 41 0 425 421 426 0 +0 -.003
 .05 1 0 0 16 425 39 0 ?427 428 423 424 0 0 102 30 426 46 0 428 424 429 0 +-.013
 0 .05 0 1 0 16 428 44 0 ?212 430 425 426 0 0 102 30 429 51 0 430 426 431 0 +.01
5 0 .05 0 1 0 16 430 49 0 ?209 432 428 429 0 0 102 30 431 56 0 432 429 433 0 +0
 .005 .05 1 0 0 16 432 54 0 ?434 435 430 431 0 0 102 30 433 63 0 435 431 436 0 +
-.015 0 .05 0 1 0 16 435 61 0 ?437 438 432 433 0 0 102 30 436 68 0 438 433 439 0
 +0 -.005 .05 1 0 0 16 438 66 0 ?200 440 435 436 0 0 102 30 439 242 0 401 436 44
1 0 +.0015 0 0 0 -1 0 16 401 212 0 ?442 443 398 439 0 0 102 30 441 240 0 443 439
 444 0 +.013 -375856753128308e-32 0 289120579329468e-30 1 0 16 443 202 0 ?445 44
6 401 441 0 0 102 30 444 239 0 446 441 447 0 +0 -.003 0 1 0 0 16 446 197 0 ?448
 449 443 444 0 0 102 30 447 237 0 449 444 450 0 +-.0015 0 0 0 -1 0 16 449 186 0
 ?451 452 446 447 0 0 102 30 450 236 0 452 447 453 0 +0 -.003 0 1 0 0 16 452 181
 0 ?454 455 449 450 0 0 102 30 453 235 0 455 450 456 0 +-.013 0 0 0 1 0 16 455 1
76 0 ?457 458 452 453 0 0 102 30 456 234 0 341 453 459 0 +.015 0 0 0 1 0 16 341
 171 0 ?338 460 458 456 458 458 102 30 459 233 0 460 456 461 0 +0 .005 0 1 0 0 1
6 460 164 0 ?462 463 341 459 0 0 102 30 461 232 0 464 459 465 0 +-.015 0 0 0 1 0
 16 464 159 0 ?466 412 463 461 463 463 102 30 465 231 0 412 461 467 0 +0 -.005 0
 1 0 0 16 412 152 0 ?468 408 464 465 0 0 102 30 467 303 0 469 465 470 0 +.015 -.
005 .05 0 0 -1 16 469 255 0 ?471 472 473 467 473 473 102 30 470 304 0 474 467 47
5 0 +-.015 -.005 .05 0 0 -1 16 474 256 0 ?476 477 472 470 472 472 102 30 475 305
 0 478 470 479 0 +-.015 .005 .05 0 0 -1 16 478 257 0 ?480 481 477 475 477 477 10
2 30 479 306 0 482 475 483 0 +.015 .005 .05 0 0 -1 16 482 258 0 ?484 152 481 479
 481 481 102 30 483 307 0 485 479 486 0 +-.013 .003 .05 0 0 -1 16 485 259 0 ?487
 488 489 483 0 0 102 30 486 308 0 488 483 490 0 +-.013 -.003 .05 0 0 -1 16 488 2
60 0 ?188 491 485 486 0 0 102 30 490 309 0 491 486 492 0 +-.0015 -.003 .05 0 0 -
1 16 491 261 0 ?191 493 488 490 0 0 102 30 492 310 0 493 490 494 0 +-.0015 .003
 .05 0 0 -1 16 493 262 0 ?495 473 491 492 0 0 102 30 494 311 0 440 492 496 0 +.0
015 -.003 .05 0 0 -1 16 440 263 0 ?194 497 438 494 0 0 102 30 496 312 0 497 494
 498 0 +.013 -.003 .05 0 0 -1 16 497 264 0 ?197 499 440 496 0 0 102 30 498 313 0
 499 496 148 0 +.013 .003 .05 0 0 -1 16 499 265 0 ?500 489 497 498 0 0 102 30 14
8 314 0 489 498 136 0 +.0015 .003 .05 0 0 -1 16 489 266 0 ?501 485 499 148 0 0 1
02 17 501 0 502 323 503 279 232 489 0 0 +15 502 822 0 323 504 0 17 323 0 502 505
 501 282 322 325 0 500 -17 503 0 502 501 505 176 230 411 0 506 -17 232 0 507 410
 508 176 501 489 0 503 -15 507 289 0 509 146 0 17 410 0 507 194 232 222 506 408
 0 510 +17 508 0 507 232 509 279 293 355 0 501 -17 509 0 507 508 194 291 442 401
 0 0 -17 293 0 511 290 281 291 508 355 0 512 +15 511 942 0 281 513 0 17 290 0 51
1 278 293 288 512 152 0 359 -17 281 0 511 293 278 279 514 515 0 322 -17 512 0 51
6 442 517 291 290 152 0 509 +15 516 150 0 466 518 0 17 442 0 516 448 512 192 509
 401 0 519 +17 517 0 516 512 454 288 451 449 0 0 -16 152 796 0 ?512 139 482 136
 139 139 102 17 454 0 516 517 520 189 521 452 0 0 +17 451 0 522 523 359 189 517
 449 0 454 +15 522 279 0 451 524 0 17 523 0 522 221 451 216 191 491 0 427 -17 35
9 0 522 451 495 288 278 357 0 517 +17 495 0 522 359 221 276 525 493 0 0 +17 278
 0 511 281 290 276 359 357 0 514 -17 514 0 321 526 322 276 281 515 0 527 +17 526
 0 321 314 514 267 527 528 0 352 +17 322 0 321 514 315 279 323 325 0 508 +16 515
 867 0 ?514 325 528 326 325 528 102 17 527 0 529 525 487 276 526 528 0 495 -15 5
29 831 0 527 144 0 17 525 0 529 530 527 219 495 493 0 0 -17 487 0 529 527 530 26
7 531 485 0 0 +16 528 876 0 ?526 515 327 326 515 327 102 16 327 880 0 ?314 528 3
30 326 528 316 102 30 326 999 0 316 337 532 0 +.015 .003 1e-5 -1 0 0 30 337 1000
 0 330 0 326 0 +.015 .004 1e-5 0 -1 0 30 532 998 0 324 326 347 0 +-.015 .004 1e-
5 0 1 0 16 324 892 0 ?311 333 316 532 0 0 102 30 347 997 0 333 532 533 0 +.015 .
004 1e-5 1 0 0 30 533 995 0 534 347 535 0 +.015 .003 0 -1 0 0 16 534 902 0 ?156
 336 0 533 0 0 102 30 535 993 0 336 533 536 0 +.015 .004 0 1 0 0 16 336 920 0 ?2
99 330 534 535 0 0 102 30 536 992 0 353 535 349 0 +.015 .004 1e-5 0 0 -1 16 353
 891 0 ?335 350 345 536 0 0 102 30 349 991 0 345 536 346 0 +-.015 .004 1e-5 0 0
 -1 16 345 895 0 ?303 353 342 349 0 0 102 17 303 0 537 299 332 301 538 345 0 539
 +15 537 962 0 299 540 0 17 299 0 537 308 303 297 539 336 0 335 +17 332 0 537 30
3 308 309 328 333 0 538 -17 538 0 541 542 543 309 303 345 0 0 -17 539 0 544 182
 545 301 299 336 0 543 -15 544 798 0 545 546 0 17 182 0 544 462 539 180 543 463
 0 547 +17 545 0 544 539 462 297 185 458 0 0 -17 543 0 541 538 547 301 182 463 0
 0 -15 541 846 0 538 548 0 17 547 0 541 543 375 180 549 477 0 550 +16 463 792 0
 ?182 464 460 461 464 464 102 17 375 0 541 547 551 254 168 373 0 549 +17 549 0 5
52 553 550 254 547 477 0 0 -16 477 627 0 ?547 478 474 475 478 478 102 17 550 0 5
52 549 554 180 462 460 0 0 -15 552 657 0 553 555 0 17 554 0 552 550 553 183 556
 481 0 462 +17 462 0 544 545 182 183 550 460 0 0 +17 553 0 552 554 549 258 256 3
64 0 556 -17 556 0 334 557 185 258 554 481 0 0 -16 481 648 0 ?554 482 478 479 48
2 482 102 17 557 0 334 558 556 243 260 377 0 0 -17 185 0 334 556 335 183 545 458
 0 554 +17 335 0 334 185 329 297 308 353 0 545 +16 458 786 0 ?185 341 455 456 34
1 341 102 17 308 0 537 332 299 296 335 353 0 328 -17 558 0 334 381 557 269 165 3
67 0 0 -17 260 0 559 256 166 258 557 377 0 553 +15 559 721 0 256 560 0 17 256 0
 559 168 260 254 553 364 0 375 +17 166 0 559 260 168 243 161 167 0 557 -17 168 0
 559 166 256 154 375 373 0 551 -17 551 0 541 375 561 154 164 361 0 0 -17 561 0 5
41 551 480 257 266 370 0 0 -17 164 0 163 366 161 257 551 361 0 561 +15 163 732 0
 164 562 0 17 366 0 163 165 164 269 273 363 0 558 +17 165 0 163 161 366 243 558
 367 0 166 +17 273 0 563 266 271 257 366 363 0 164 -15 563 729 0 263 564 0 17 26
6 0 563 263 273 264 561 370 0 565 +17 271 0 563 273 263 269 381 379 0 366 -17 26
3 0 563 271 266 261 565 360 0 381 +17 381 0 334 566 558 261 271 379 0 484 +17 56
6 0 334 567 381 207 484 482 0 434 -17 484 0 568 565 434 261 566 482 0 0 +15 568
 651 0 565 569 0 17 565 0 568 206 484 264 263 360 0 480 -17 434 0 568 484 206 20
7 570 432 0 0 +17 206 0 568 434 565 204 480 478 0 570 -17 570 0 571 572 209 204
 434 432 0 437 -15 571 6 0 209 573 0 17 572 0 571 200 570 201 437 435 0 0 -17 20
9 0 571 570 200 207 567 430 0 566 +17 437 0 541 480 203 204 572 435 0 0 +17 480
 0 541 561 437 264 206 478 0 0 +17 203 0 541 437 400 201 476 474 0 574 -17 400 0
 541 203 575 233 245 398 0 476 +17 476 0 576 577 574 233 203 474 0 0 +17 574 0 5
76 476 578 201 200 438 0 572 -15 576 477 0 476 579 0 17 578 0 576 574 577 170 47
1 469 0 567 -17 200 0 571 209 572 170 574 438 0 578 +17 577 0 576 578 476 237 23
5 387 0 471 -17 471 0 334 580 567 237 578 469 0 0 +17 567 0 334 471 566 170 209
 430 0 0 -17 580 0 334 581 471 246 239 402 0 0 -17 581 0 334 406 580 249 248 390
 0 0 -17 239 0 582 235 583 237 580 402 0 577 +15 582 562 0 235 584 0 17 235 0 58
2 245 239 233 577 387 0 400 +17 583 0 582 239 245 246 394 392 0 580 -17 245 0 58
2 583 235 198 400 398 0 394 -17 394 0 585 385 248 198 583 392 0 575 +15 585 573
 0 385 586 0 17 385 0 585 389 394 236 575 383 0 587 +17 248 0 585 394 389 246 58
1 390 0 583 +17 575 0 541 400 587 198 385 383 0 0 -17 587 0 541 575 588 236 169
 395 0 0 -17 588 0 541 587 589 162 179 472 0 0 -17 169 0 590 242 253 162 587 395
 0 591 +15 590 570 0 242 592 0 17 242 0 590 251 169 240 591 376 0 406 +17 253 0
 590 169 251 236 389 386 0 385 -17 591 0 593 179 594 162 242 376 0 588 -15 593 2
67 0 594 595 0 17 179 0 593 468 591 177 588 472 0 596 +17 594 0 593 591 468 240
 175 473 0 0 -17 468 0 593 594 179 173 596 412 0 340 +17 175 0 334 338 406 173 5
94 473 0 468 +16 473 468 0 ?175 469 493 467 469 469 102 17 406 0 334 175 581 240
 251 404 0 594 +17 251 0 590 253 242 249 406 404 0 389 -17 389 0 585 248 385 249
 253 386 0 581 +17 596 0 516 466 340 177 468 412 0 589 -17 340 0 516 596 160 173
 338 341 0 0 -17 160 0 516 340 445 140 156 534 0 338 -17 445 0 516 160 448 294 5
97 443 0 0 +17 156 0 155 284 153 294 160 534 0 319 +17 319 0 598 597 500 294 284
 320 0 445 -15 598 285 0 597 599 0 17 597 0 598 227 319 195 445 443 0 448 -17 50
0 0 598 319 416 282 505 499 0 0 +17 416 0 598 500 227 228 600 414 0 0 +17 505 0
 502 503 323 228 500 499 0 416 -17 227 0 598 416 597 225 197 497 0 600 -17 600 0
 601 510 230 225 416 414 0 419 -15 601 4 0 506 573 602 17 510 0 601 506 600 222
 419 417 0 0 -17 230 0 601 600 506 228 503 411 0 505 +17 419 0 603 197 224 225 5
10 417 0 0 +15 603 283 0 519 604 0 17 197 0 603 519 419 195 227 497 0 597 +17 22
4 0 603 419 519 222 194 440 0 410 -17 519 0 603 224 197 192 448 446 0 0 -17 194
 0 507 509 410 192 224 440 0 442 +17 448 0 516 445 442 195 519 446 0 0 +14 255 6
04 284 605 ?595 606 603 134 607 +0 0 595 606 150 81 1 605 1139 608 604 609 0 610
 611 612 14 595 268 611 ?573 604 593 134 613 -579 579 573 604 150 14 606 276 610
 ?604 599 614 134 615 -0 0 604 599 150 50 607 299 0 604 616 617 0 +0 -.003 .05 0
 1 0 0 0 1 13 150 112 0 0 0 0 0 0 138 144 14 144 833 618 ?504 0 529 134 616 -0 0
 504 0 150 81 1 618 1126 608 144 619 0 0 620 621 14 504 824 620 ?546 144 502 134
 147 -0 0 546 144 150 50 616 298 0 144 622 607 0 +0 .003 .05 0 1 0 0 0 1 50 622
 297 0 524 623 616 0 +-.0015 0 .05 1 0 0 0 0 -1 14 524 280 624 ?625 548 522 134
 622 -0 0 625 548 150 50 623 296 0 625 615 622 0 +0 -.003 .05 0 1 0 0 0 1 14 625
 278 626 ?146 524 627 134 623 +0 0 146 524 150 50 615 295 0 606 628 623 0 +-.013
 0 .05 -1 0 0 0 0 1 50 628 294 0 339 629 615 0 +.015 0 .05 -1 0 0 0 0 1 14 339 2
74 630 ?569 579 334 134 628 -0 0 569 579 150 50 629 293 0 569 631 628 0 +0 .005
 .05 0 1 0 0 0 1 14 569 272 632 ?548 339 568 134 629 +555 555 548 339 150 50 631
 292 0 548 613 629 0 +-.015 0 .05 -1 0 0 0 0 1 14 548 270 633 ?524 569 541 134 6
31 +0 0 524 569 150 50 613 291 0 595 634 631 0 +0 -.005 .05 0 1 0 0 0 1 50 634 2
30 0 518 635 613 0 +0 0 0 0 0 1 1 0 0 14 518 148 636 ?584 573 516 134 634 -546 5
46 584 573 150 50 635 3 0 573 637 634 0 +0 0 .05 0 0 1 1 0 0 14 573 1 638 ?518 5
95 601 134 635 +0 0 518 595 150 50 637 580 0 592 639 635 0 +-.015 -.00499 .005 0
 0 -1 -1 0 0 14 592 567 640 ?586 584 590 134 637 -0 0 586 584 150 50 639 582 0 5
84 641 637 0 +-.015 -.00499 .00614436598137758 0 0 1 1 0 0 14 584 559 642 ?592 5
18 582 134 639 -0 0 592 518 150 50 641 584 0 586 643 639 0 +0 -.00499 0 0 1 0 0
 0 1 14 586 571 644 ?560 592 585 134 641 -0 0 560 592 150 50 643 739 0 564 645 6
41 0 +-.015 .00499 .00614436598137758 0 0 1 1 0 0 14 564 726 646 ?562 560 563 13
4 643 -0 0 562 560 150 50 645 741 0 560 647 643 0 +-.015 .00499 .005 0 0 -1 -1 0
 0 14 560 718 648 ?564 586 559 134 645 -0 0 564 586 150 50 647 743 0 562 649 645
 0 +0 .00499 0 0 1 0 0 0 1 14 562 730 650 ?513 564 163 134 647 +0 0 513 564 150
 50 649 980 0 318 651 647 0 +.015 .003 1e-5 0 -1 0 0 0 -1 14 318 967 652 ?331 54
0 155 134 649 -513 653 331 540 150 50 651 982 0 540 654 649 0 +.015 .004 1e-5 0
 1 0 0 0 1 14 540 959 655 ?318 653 537 134 651 -0 0 318 653 150 50 654 984 0 331
 0 651 0 +0 0 1e-5 0 0 -1 -1 0 0 14 331 971 656 ?0 318 321 134 654 +0 0 0 318 15
0 81 1 656 1153 608 331 657 0 652 0 658 80 255 1 608 0 659 8001 0 0 0 0 3 5 0 0
 0 FFFFTFTFFFFFFF2 81 1 657 1107 660 331 0 656 661 662 663 81 1 652 1152 608 318
 664 0 655 656 665 83 255 3 658 1 1 1 81 1 664 1103 660 318 0 652 666 661 667 81
 1 655 1151 608 540 661 0 668 652 669 83 3 665 1 1 1 81 1 661 1105 660 540 0 655
 664 657 670 81 1 668 1150 608 653 662 0 671 655 672 83 3 669 1 1 1 14 653 951 6
68 ?540 513 673 134 649 -318 513 540 513 150 81 1 662 1109 660 653 0 668 657 674
 675 81 1 671 1149 608 513 674 0 650 668 676 83 3 672 1 1 1 14 513 939 671 ?653
 562 511 134 649 -653 318 653 562 150 81 1 674 1111 660 513 0 671 662 677 678 81
 1 650 1148 608 562 666 0 646 671 679 83 3 676 1 1 1 81 1 666 1101 660 562 0 650
 680 664 681 81 1 646 1147 608 564 682 0 648 650 683 83 3 679 1 1 1 81 1 682 109
7 660 564 0 646 684 680 685 81 1 648 1146 608 560 680 0 644 646 686 83 3 683 1 1
 1 81 1 680 1099 660 560 0 648 682 666 687 81 1 644 1145 608 586 684 0 640 648 6
88 83 3 686 1 1 1 81 1 684 1095 660 586 0 644 689 682 690 81 1 640 1144 608 592
 691 0 642 644 692 83 3 688 1 1 1 81 1 691 1091 660 592 0 640 693 689 694 81 1 6
42 1143 608 584 689 0 636 640 695 83 3 692 1 1 1 81 1 689 1093 660 584 0 642 691
 684 696 81 1 636 1142 608 518 697 0 638 642 698 83 3 695 1 1 1 81 1 697 1083 66
0 518 0 636 699 693 700 81 1 638 1141 608 573 693 0 611 636 701 83 3 698 1 1 1 8
1 1 693 1087 660 573 0 638 697 691 702 81 1 611 1140 608 595 703 0 605 638 704 8
3 3 701 1 1 1 81 1 703 1064 660 595 0 611 609 705 706 83 3 704 1 1 1 80 1 660 70
7 708 9000 1 1 1 1 1 1 1 1 0 FFFFTFTFFFFFFF1 81 1 609 1062 660 604 0 605 0 703 7
09 81 1 705 1066 660 606 0 610 703 619 710 82 255 1 706 44236993 81 1 610 1138 6
08 606 705 0 711 605 712 81 1 619 1068 660 144 0 618 705 713 714 82 1 710 429262
85 81 1 713 1070 660 504 0 620 619 715 716 82 1 714 -586219315 81 1 620 1127 608
 504 713 0 618 717 718 81 1 715 1072 660 524 0 624 713 719 720 82 1 716 -5870712
83 81 1 624 1134 608 524 715 0 633 626 721 81 1 719 1075 660 625 0 626 715 722 7
23 82 1 720 43843789 81 1 626 1135 608 625 719 0 624 724 725 81 1 722 1077 660 3
39 0 630 719 726 727 82 1 723 -1196359539 81 1 630 1131 608 339 722 0 728 632 72
9 81 1 726 1079 660 569 0 632 722 699 730 82 1 727 43188429 81 1 632 1132 608 56
9 726 0 630 633 731 81 1 699 1081 660 548 0 633 726 697 732 82 1 730 43319496 81
 1 633 1133 608 548 699 0 632 624 733 82 1 732 44695757 83 3 733 1 1 1 83 3 731
 1 1 1 81 1 728 1130 608 579 734 0 735 630 736 83 3 729 1 1 1 14 579 479 728 ?33
9 555 576 134 613 -595 595 339 555 150 81 1 734 1124 660 579 0 728 737 0 738 81
 1 735 1129 608 555 737 0 717 728 739 83 3 736 1 1 1 14 555 653 735 ?579 546 552
 134 629 +569 569 579 546 150 81 1 737 1122 660 555 0 735 740 734 741 81 1 717 1
128 608 546 740 0 620 735 742 83 3 739 1 1 1 14 546 799 717 ?555 504 544 134 634
 -518 518 555 504 150 81 1 740 1118 660 546 0 717 743 737 744 83 3 742 1 1 1 81
 1 743 1115 660 146 0 724 677 740 745 82 1 744 -595132211 14 146 290 724 ?599 62
5 507 134 135 +0 0 599 625 150 81 1 724 1136 608 146 743 0 626 711 746 81 1 677
 1113 660 599 0 711 674 743 747 82 1 745 45416653 14 599 286 711 ?606 146 598 13
4 617 +0 0 606 146 150 81 1 711 1137 608 599 677 0 724 610 748 82 1 747 42795213
 83 3 748 1 1 1 50 617 300 0 599 607 147 0 +.013 -375856753128308e-32 .05 -1 289
120579329468e-30 0 -289120579329468e-30 -1 0 50 147 301 0 504 617 135 0 +-113134
1397376176e-34 .003 .05 -377113799125393e-31 1 0 -1 -377113799125393e-31 0 83 3
 746 1 1 1 82 1 741 -963116856 82 1 738 -1301086015 83 3 725 1 1 1 83 3 721 1 1
 1 83 3 718 1 1 1 83 3 712 1 1 1 82 1 709 -1195573107 79 255 14 708 SWEntUnchang
ed82 1 702 -1218379635 82 1 700 46596301 82 1 696 -1305607999 82 1 694 -13053458
55 82 1 690 -1312161599 82 1 687 -969015096 82 1 685 -968752952 82 1 681 -975568
696 82 1 678 -588578611 82 1 675 -590151475 15 673 954 0 306 653 0 17 306 0 673
 749 287 304 151 139 0 344 -17 749 0 673 275 306 312 344 342 0 542 -17 287 0 673
 306 275 285 352 350 0 151 -17 151 0 516 520 466 285 306 139 0 457 +17 344 0 541
 589 542 304 749 342 0 466 +17 589 0 541 588 344 177 466 464 0 0 -17 542 0 541 3
44 538 312 311 324 0 0 -17 466 0 516 151 596 304 589 464 0 0 +17 311 0 321 328 3
14 309 542 324 0 332 +17 314 0 321 311 526 312 275 327 0 749 +17 275 0 673 287 7
49 267 314 327 0 526 -17 520 0 516 454 151 186 457 455 0 521 -17 457 0 614 352 1
88 285 520 455 0 0 +15 614 275 0 457 606 0 17 352 0 614 531 457 267 287 350 0 48
7 +17 188 0 614 457 750 186 215 488 0 520 +17 750 0 614 188 531 213 212 428 0 75
1 -17 215 0 627 427 521 213 188 488 0 750 -15 627 277 0 521 625 0 17 427 0 627 1
91 215 216 751 425 0 0 +17 521 0 627 215 191 186 454 452 0 0 -17 191 0 627 521 4
27 189 523 491 0 451 +17 751 0 602 212 218 213 427 425 0 0 -15 602 5 0 422 573 5
71 17 212 0 602 422 751 210 750 428 0 531 +17 218 0 602 751 422 216 221 423 0 52
3 +17 422 0 602 218 212 219 530 420 0 525 +17 221 0 522 495 523 219 218 423 0 42
2 -17 530 0 529 487 525 210 422 420 0 0 -17 531 0 614 750 352 210 487 485 0 530
 -82 1 670 -600047411 82 1 667 -599785267 82 1 663 -606601011 79 15 659 SDL/TYSA
_COLOUR83 3 621 1 1 1 83 3 612 1 1 1 17 506 0 601 230 510 176 410 408 0 0 -16 47
2 474 0 ?179 474 469 470 474 474 102 16 325 871 0 ?322 316 515 326 316 515 102 1
9 145 316 0 102 0 138 134 S0 74 4 CI16 index_map_offset0 0 1 dCCZ20 143 4 0 0 73
4 141 656 131 0 0 0 0 0 0 0 0 0 0 0 0 0 0 0 0 81 2 141 406 752 102 0 131 0 0 753
 0 80 2 752 754 755 8004 0 0 0 0 3 5 0 0 0 FFTFFFFFFFFFFF2 3 83 1 753 1e3 79 16
 755 SDL/TYSA_DENSITY80 1 5 756 757 8017 0 0 0 0 0 0 0 0 0 TTTTTTTTTTTTTF3 84 25
5 4 142 ²åÍ·79 13 757 SDL/TYSA_NAME81 1 110 1376 5 14 0 0 0 0 758 70 111 0 4 T14
 0 0 3 20 1 759 759 13 112 99 0 14 0 760 0 0 761 0 50 113 94 0 760 762 0 0 +-.02
45125871846065 .0121293913556656 .01 1 0 0 0 0 -1 30 114 95 0 117 763 0 0 +-.024
5125871846065 .0121293913556656 .01 0 0 -1 29 115 872 0 118 764 0 -.000937210749
999265 .0121293913556656 0 19 116 33 0 14 761 0 765 V0 16 117 79 0 ?766 0 767 11
4 0 0 14 18 118 870 0 768 0 769 115 ?14 17 768 0 770 771 772 118 773 774 0 775 -
18 769 30 0 776 118 777 778 ?14 17 776 0 779 780 781 769 782 767 0 783 +18 777 6
6 0 784 769 785 764 ?14 29 778 32 0 769 786 764 -.0245125871846065 .012129391355
6656 .01 29 786 955 0 785 787 778 -.000937210749999265 .0121293913556656 .01 29
 764 75 0 777 778 115 -.0245125871846065 .0121293913556656 0 18 785 918 0 771 77
7 788 786 ?14 29 787 956 0 788 789 786 -.0245125871846065 -.01204510704992236 .0
1 18 788 917 0 790 785 791 787 ?14 29 789 957 0 791 792 787 -.000937210749999265
 -.01204510704992236 .01 18 791 916 0 793 788 794 789 ?14 29 792 959 0 794 795 7
89 -.0245125871846065 -.01204510704992236 0 18 794 920 0 796 791 797 792 ?14 29
 795 960 0 797 0 792 -.000937210749999265 -.01204510704992236 0 18 797 919 0 798
 794 0 795 ?14 17 798 0 799 800 796 797 801 802 0 772 -15 799 929 0 800 803 0 17
 800 0 799 790 798 791 772 804 0 805 -17 796 0 799 798 790 794 806 807 0 801 +17
 801 0 808 809 773 794 798 802 0 810 +16 802 911 0 ?801 811 774 812 0 0 14 17 77
2 0 770 768 793 797 800 804 0 773 +15 770 932 0 771 813 0 17 793 0 770 772 771 7
91 781 814 0 800 +16 804 909 0 ?772 815 807 816 0 0 14 17 773 0 808 801 817 797
 768 774 0 0 +15 808 49 0 817 818 0 17 817 0 808 773 809 118 784 819 0 0 -16 774
 910 0 ?773 802 0 820 0 0 14 30 820 950 0 774 821 812 0 +-.000937210749999265 .0
121293913556656 0 0 -1 0 30 821 951 0 814 0 820 0 +-.000937210749999265 .0121293
913556656 .01 0 -1 0 30 812 949 0 802 820 822 0 +-.000937210749999265 -.01204510
704992236 0 -1 0 0 30 822 948 0 811 812 823 0 +-.000937210749999265 .01212939135
56656 .0847345573672973 0 0 -1 16 811 905 0 ?775 807 802 822 0 0 14 30 823 947 0
 807 822 816 0 +-.0245125871846065 -.01204510704992236 .0847345573672973 0 0 -1
 16 807 907 0 ?796 804 811 823 0 0 14 30 816 946 0 804 823 824 0 +-.000937210749
999265 -.01204510704992236 .0847345573672973 0 0 -1 30 824 945 0 815 816 825 0 +
-.000937210749999265 -.01204510704992236 .01 -1 0 0 16 815 906 0 ?790 814 804 82
4 0 0 14 30 825 7 0 826 824 827 0 +-.0245125871846065 .0121293913556656 .01 0 -1
 0 16 826 5 0 ?780 767 819 825 0 0 14 30 827 19 0 767 825 828 0 +-.0245125871846
065 .0121293913556656 .01 -1 0 0 16 767 874 0 ?776 117 826 827 0 0 14 30 828 74
 0 829 827 763 0 +-.0245125871846065 .0121293913556656 0 0 -1 0 16 829 62 0 ?810
 819 814 828 0 0 14 30 763 71 0 819 828 114 0 +-.0245125871846065 .0121293913556
656 0 -1 0 0 16 819 871 0 ?784 826 829 763 0 0 14 17 784 0 830 783 775 777 817 8
19 0 766 +15 830 83 0 782 831 0 17 783 0 830 782 784 769 766 117 0 832 -17 775 0
 830 784 782 118 771 811 0 817 +17 766 0 833 810 832 777 783 117 0 809 +15 833 8
87 0 806 760 0 17 810 0 833 806 766 794 809 829 0 0 +17 832 0 833 766 806 769 78
0 826 0 0 -17 809 0 808 817 801 777 810 829 0 0 -17 806 0 833 832 810 788 796 80
7 0 780 -17 780 0 779 805 776 788 832 826 0 0 +15 779 894 0 805 834 0 17 805 0 7
79 781 780 791 790 815 0 0 -17 781 0 779 776 805 785 793 814 0 782 -17 790 0 799
 796 800 788 805 815 0 806 +16 814 908 0 ?793 829 815 821 0 0 14 17 782 0 830 77
5 783 785 776 767 0 0 -14 834 144 835 ?0 813 779 112 836 +0 0 0 813 765 81 1 835
 1375 608 834 837 0 838 0 839 14 813 930 838 ?834 803 770 112 840 +0 0 834 803 7
65 50 836 3 0 834 840 841 0 +0 0 .01 0 0 1 1 0 0 13 765 34 0 0 0 0 0 0 116 760 1
4 760 888 842 ?831 0 833 112 113 -0 0 831 0 765 81 1 842 1370 608 760 843 0 0 84
4 845 14 831 84 844 ?818 760 830 112 762 -0 0 818 760 765 81 1 844 1371 608 831
 846 0 842 847 848 14 818 48 847 ?803 831 808 112 841 -0 0 803 831 765 50 762 91
 0 831 841 113 0 +-.0245125871846065 .0121293913556656 .01 0 -1 0 0 0 -1 50 841
 70 0 818 836 762 0 +0 0 0 0 0 1 1 0 0 81 1 847 1372 608 818 849 0 844 850 851 1
4 803 927 850 ?813 818 799 112 852 +0 0 813 818 765 81 1 850 1373 608 803 853 0
 847 838 854 50 852 940 0 803 0 840 0 +-.000937210749999265 -.01204510704992236
 .0847345573672973 0 -1 0 0 0 -1 50 840 939 0 813 852 836 0 +-.00093721074999926
5 .0121293913556656 .0847345573672973 1 0 0 0 0 -1 81 1 853 1368 660 803 0 850 8
49 0 855 81 1 838 1374 608 813 856 0 850 835 857 83 3 854 .792156862745098 .8196
07843137255 .933333333333333 81 1 856 1360 660 813 0 838 837 843 858 83 3 857 .7
92156862745098 .819607843137255 .933333333333333 81 1 837 1357 660 834 0 835 0 8
56 859 81 1 843 1362 660 760 0 842 856 846 860 82 1 858 -1614348059 81 1 846 136
4 660 831 0 844 843 849 861 82 1 860 -1559953179 81 1 849 1366 660 818 0 847 846
 853 862 82 1 861 -663682843 82 1 862 -664600347 82 1 859 -630390547 82 1 855 -1
615986459 83 3 851 .792156862745098 .819607843137255 .933333333333333 83 3 848 .
792156862745098 .819607843137255 .933333333333333 83 3 845 .792156862745098 .819
607843137255 .933333333333333 83 3 839 .792156862745098 .819607843137255 .933333
333333333 17 771 0 770 793 768 785 775 811 0 781 -19 761 100 0 14 0 116 112 S0 7
4 20 759 3 0 0 853 835 110 0 0 0 0 0 0 0 0 0 0 0 0 0 0 0 0 0 84 10 758 sensorbas
e81 1 100 64 5 91 0 0 0 0 863 70 101 0 4 T91 0 0 3 20 1 864 864 13 103 8 0 91 0
 865 0 0 866 0 50 104 26 0 867 868 0 0 +-.0245125871846065 .03795489295007765 .0
1 0 0 1 1 0 0 31 255 105 25 0 869 870 0 0 --.01147594487294998 -.006714929433727
93 .01 0 0 1 1 0 0 .00301221410388678 19 106 6 0 91 866 0 871 V0 16 107 10 0 ?87
2 0 869 870 0 0 91 17 872 0 873 872 872 0 874 107 0 0 +16 869 9 0 ?875 107 0 105
 0 0 91 31 870 24 0 107 0 105 0 +-.01147594487294998 -.00671492943372793 .01 0 0
 1 1 0 0 .003212214103886785 17 875 0 876 875 875 0 877 869 0 0 +15 876 13 0 875
 865 0 17 877 0 878 877 877 0 875 869 0 0 -15 878 17 0 877 867 879 14 867 14 880
 ?881 865 878 103 104 -0 0 881 865 871 15 879 18 0 874 867 0 17 874 0 879 874 87
4 0 872 107 0 0 -81 1 880 62 608 867 882 0 883 884 885 14 881 19 884 ?0 867 873
 103 868 -0 0 0 867 871 14 865 11 883 ?867 0 876 103 886 -0 0 867 0 871 13 871 7
 0 0 0 0 0 0 106 865 81 1 883 61 608 865 887 0 0 880 888 53 255 886 22 0 865 0 8
68 0 +-.01147594487294998 -.00671492943372793 .01 .00301221410388678 -1 0 0 0 0
 -1 53 868 23 0 881 886 104 0 --.01147594487294998 -.00671492943372793 .01 .0032
12214103886785 -1 0 0 0 0 1 81 1 887 59 660 865 0 883 889 0 890 83 3 888 .792156
862745098 .819607843137255 .933333333333333 81 1 889 57 660 881 0 884 882 887 89
1 82 1 890 -1931935513 81 1 884 63 608 881 889 0 880 0 892 81 1 882 55 660 867 0
 880 0 889 893 82 1 891 -1932853017 82 1 893 -1520172825 83 3 892 .7921568627450
98 .819607843137255 .933333333333333 15 873 21 0 872 881 0 83 3 885 .79215686274
5098 .819607843137255 .933333333333333 19 866 1 0 91 0 106 103 S0 74 20 864 3 0
 0 887 884 100 0 0 0 0 0 0 0 0 0 0 0 0 0 0 0 0 0 84 6 863 sensor81 1 89 64 5 80
 0 0 0 0 894 70 90 0 4 T80 0 0 3 20 1 895 895 13 92 8 0 80 0 896 0 0 897 0 50 93
 26 0 898 899 0 0 +-.0245125871846065 .03795489295007765 .01 0 0 1 1 0 0 31 94 2
5 0 900 901 0 0 --.01847594487295 -.00671492943372793 .01 0 0 1 1 0 0 .003012214
10388678 19 95 6 0 80 897 0 902 V0 16 96 10 0 ?903 0 900 901 0 0 80 17 903 0 904
 903 903 0 905 96 0 0 +16 900 9 0 ?906 96 0 94 0 0 80 31 901 24 0 96 0 94 0 +-.0
1847594487295 -.00671492943372793 .01 0 0 1 1 0 0 .003212214103886785 17 906 0 9
07 906 906 0 908 900 0 0 +15 907 13 0 906 896 0 17 908 0 909 908 908 0 906 900 0
 0 -15 909 17 0 908 898 910 14 898 14 911 ?912 896 909 92 93 -0 0 912 896 902 15
 910 18 0 905 898 0 17 905 0 910 905 905 0 903 96 0 0 -81 1 911 62 608 898 913 0
 914 915 916 14 912 19 915 ?0 898 904 92 899 -0 0 0 898 902 14 896 11 914 ?898 0
 907 92 917 -0 0 898 0 902 13 902 7 0 0 0 0 0 0 95 896 81 1 914 61 608 896 918 0
 0 911 919 53 917 22 0 896 0 899 0 +-.01847594487295 -.00671492943372793 .01 .00
301221410388678 -1 0 0 0 0 -1 53 899 23 0 912 917 93 0 --.01847594487295 -.00671
492943372793 .01 .003212214103886785 -1 0 0 0 0 1 81 1 918 59 660 896 0 914 920
 0 921 83 3 919 .792156862745098 .819607843137255 .933333333333333 81 1 920 57 6
60 912 0 915 913 918 922 82 1 921 -1997209369 81 1 915 63 608 912 920 0 911 0 92
3 81 1 913 55 660 898 0 911 0 920 924 82 1 922 -1998126873 82 1 924 -1518403353
 83 3 923 .792156862745098 .819607843137255 .933333333333333 15 904 21 0 903 912
 0 83 3 916 .792156862745098 .819607843137255 .933333333333333 19 897 1 0 80 0 9
5 92 S0 74 20 895 3 0 0 918 915 89 0 0 0 0 0 0 0 0 0 0 0 0 0 0 0 0 0 84 6 894 se
nsor81 1 78 64 5 69 0 0 0 0 925 70 79 0 4 T69 0 0 3 20 1 926 926 13 81 8 0 69 0
 927 0 0 928 0 50 82 26 0 929 930 0 0 +-.0245125871846065 .03795489295007765 .01
 0 0 1 1 0 0 31 83 25 0 931 932 0 0 --.004475944872949975 .000285070566272073 .0
1 0 0 1 1 0 0 .00301221410388678 19 84 6 0 69 928 0 933 V0 16 85 10 0 ?934 0 931
 932 0 0 69 17 934 0 935 934 934 0 936 85 0 0 +16 931 9 0 ?937 85 0 83 0 0 69 31
 932 24 0 85 0 83 0 +-.004475944872949975 .000285070566272073 .01 0 0 1 1 0 0 .0
03212214103886785 17 937 0 938 937 937 0 939 931 0 0 +15 938 13 0 937 927 0 17 9
39 0 940 939 939 0 937 931 0 0 -15 940 17 0 939 929 941 14 929 14 942 ?943 927 9
40 81 82 -0 0 943 927 933 15 941 18 0 936 929 0 17 936 0 941 936 936 0 934 85 0
 0 -81 1 942 62 608 929 944 0 945 946 947 14 943 19 946 ?0 929 935 81 930 -0 0 0
 929 933 14 927 11 945 ?929 0 938 81 948 -0 0 929 0 933 13 933 7 0 0 0 0 0 0 84
 927 81 1 945 61 608 927 949 0 0 942 950 53 948 22 0 927 0 930 0 +-.004475944872
949975 .000285070566272073 .01 .00301221410388678 -1 0 0 0 0 -1 53 930 23 0 943
 948 82 0 --.004475944872949975 .000285070566272073 .01 .003212214103886785 -1 0
 0 0 0 1 81 1 949 59 660 927 0 945 951 0 952 83 3 950 .792156862745098 .81960784
3137255 .933333333333333 81 1 951 57 660 943 0 946 944 949 953 82 1 952 -1888419
609 81 1 946 63 608 943 951 0 942 0 954 81 1 944 55 660 929 0 942 0 951 955 82 1
 953 -1889337113 82 1 955 -1521352473 83 3 954 .792156862745098 .819607843137255
 .933333333333333 15 935 21 0 934 943 0 83 3 947 .792156862745098 .8196078431372
55 .933333333333333 19 928 1 0 69 0 84 81 S0 74 20 926 3 0 0 949 946 78 0 0 0 0
 0 0 0 0 0 0 0 0 0 0 0 0 0 84 6 925 sensor81 1 67 64 5 58 0 0 0 0 956 70 68 0 4
 T58 0 0 3 20 1 957 957 13 70 8 0 58 0 958 0 0 959 0 50 71 26 0 960 961 0 0 +-.0
245125871846065 .03795489295007765 .01 0 0 1 1 0 0 31 72 25 0 962 963 0 0 --.011
47594487294998 .000285070566272073 .01 0 0 1 1 0 0 .00301221410388678 19 73 6 0
 58 959 0 964 V0 16 74 10 0 ?965 0 962 963 0 0 58 17 965 0 966 965 965 0 967 74
 0 0 +16 962 9 0 ?968 74 0 72 0 0 58 31 963 24 0 74 0 72 0 +-.01147594487294998
 .000285070566272073 .01 0 0 1 1 0 0 .003212214103886785 17 968 0 969 968 968 0
 970 962 0 0 +15 969 13 0 968 958 0 17 970 0 971 970 970 0 968 962 0 0 -15 971 1
7 0 970 960 972 14 960 14 973 ?974 958 971 70 71 -0 0 974 958 964 15 972 18 0 96
7 960 0 17 967 0 972 967 967 0 965 74 0 0 -81 1 973 62 608 960 975 0 976 977 978
 14 974 19 977 ?0 960 966 70 961 -0 0 0 960 964 14 958 11 976 ?960 0 969 70 979
 -0 0 960 0 964 13 964 7 0 0 0 0 0 0 73 958 81 1 976 61 608 958 980 0 0 973 981
 53 979 22 0 958 0 961 0 +-.01147594487294998 .000285070566272073 .01 .003012214
10388678 -1 0 0 0 0 -1 53 961 23 0 974 979 71 0 --.01147594487294998 .0002850705
66272073 .01 .003212214103886785 -1 0 0 0 0 1 81 1 980 59 660 958 0 976 982 0 98
3 83 3 981 .792156862745098 .819607843137255 .933333333333333 81 1 982 57 660 97
4 0 977 975 980 984 82 1 983 -1953693465 81 1 977 63 608 974 982 0 973 0 985 81
 1 975 55 660 960 0 973 0 982 986 82 1 984 -1954610969 82 1 986 -1519583001 83 3
 985 .792156862745098 .819607843137255 .933333333333333 15 966 21 0 965 974 0 83
 3 978 .792156862745098 .819607843137255 .933333333333333 19 959 1 0 58 0 73 70
 S0 74 20 957 3 0 0 980 977 67 0 0 0 0 0 0 0 0 0 0 0 0 0 0 0 0 0 84 6 956 sensor
81 1 56 64 5 47 0 0 0 0 987 70 57 0 4 T47 0 0 3 20 1 988 988 13 59 8 0 47 0 989
 0 0 990 0 50 60 26 0 991 992 0 0 +-.0245125871846065 .03795489295007765 .01 0 0
 1 1 0 0 31 61 25 0 993 994 0 0 --.01847594487295 .000285070566272073 .01 0 0 1
 1 0 0 .00301221410388678 19 62 6 0 47 990 0 995 V0 16 63 10 0 ?996 0 993 994 0
 0 47 17 996 0 997 996 996 0 998 63 0 0 +16 993 9 0 ?999 63 0 61 0 0 47 31 994 2
4 0 63 0 61 0 +-.01847594487295 .000285070566272073 .01 0 0 1 1 0 0 .00321221410
3886785 17 999 0 1000 999 999 0 1001 993 0 0 +15 1000 13 0 999 989 0 17 1001 0 1
002 1001 1001 0 999 993 0 0 -15 1002 17 0 1001 991 1003 14 991 14 1004 ?1005 989
 1002 59 60 -0 0 1005 989 995 15 1003 18 0 998 991 0 17 998 0 1003 998 998 0 996
 63 0 0 -81 1 1004 62 608 991 1006 0 1007 1008 1009 14 1005 19 1008 ?0 991 997 5
9 992 -0 0 0 991 995 14 989 11 1007 ?991 0 1000 59 1010 -0 0 991 0 995 13 995 7
 0 0 0 0 0 0 62 989 81 1 1007 61 608 989 1011 0 0 1004 1012 53 1010 22 0 989 0 9
92 0 +-.01847594487295 .000285070566272073 .01 .00301221410388678 -1 0 0 0 0 -1
 53 992 23 0 1005 1010 60 0 --.01847594487295 .000285070566272073 .01 .003212214
103886785 -1 0 0 0 0 1 81 1 1011 59 660 989 0 1007 1013 0 1014 83 3 1012 .792156
862745098 .819607843137255 .933333333333333 81 1 1013 57 660 1005 0 1008 1006 10
11 1015 82 1 1014 -2019032857 81 1 1008 63 608 1005 1013 0 1004 0 1016 81 1 1006
 55 660 991 0 1004 0 1013 1017 82 1 1015 -2019950361 82 1 1017 -1517813529 83 3
 1016 .792156862745098 .819607843137255 .933333333333333 15 997 21 0 996 1005 0
 83 3 1009 .792156862745098 .819607843137255 .933333333333333 19 990 1 0 47 0 62
 59 S0 74 20 988 3 0 0 1011 1008 56 0 0 0 0 0 0 0 0 0 0 0 0 0 0 0 0 0 84 6 987 s
ensor81 1 45 64 5 36 0 0 0 0 1018 70 46 0 4 T36 0 0 3 20 1 1019 1019 13 48 8 0 3
6 0 1020 0 0 1021 0 50 49 26 0 1022 1023 0 0 +-.0245125871846065 .03795489295007
765 .01 0 0 1 1 0 0 31 50 25 0 1024 1025 0 0 --.004475944872949975 .007285070566
27207 .01 0 0 1 1 0 0 .00301221410388678 19 51 6 0 36 1021 0 1026 V0 16 52 10 0
 ?1027 0 1024 1025 0 0 36 17 1027 0 1028 1027 1027 0 1029 52 0 0 +16 1024 9 0 ?1
030 52 0 50 0 0 36 31 1025 24 0 52 0 50 0 +-.004475944872949975 .007285070566272
07 .01 0 0 1 1 0 0 .003212214103886785 17 1030 0 1031 1030 1030 0 1032 1024 0 0
 +15 1031 13 0 1030 1020 0 17 1032 0 1033 1032 1032 0 1030 1024 0 0 -15 1033 17
 0 1032 1022 1034 14 1022 14 1035 ?1036 1020 1033 48 49 -0 0 1036 1020 1026 15 1
034 18 0 1029 1022 0 17 1029 0 1034 1029 1029 0 1027 52 0 0 -81 1 1035 62 608 10
22 1037 0 1038 1039 1040 14 1036 19 1039 ?0 1022 1028 48 1023 -0 0 0 1022 1026 1
4 1020 11 1038 ?1022 0 1031 48 1041 -0 0 1022 0 1026 13 1026 7 0 0 0 0 0 0 51 10
20 81 1 1038 61 608 1020 1042 0 0 1035 1043 53 1041 22 0 1020 0 1023 0 +-.004475
944872949975 .00728507056627207 .01 .00301221410388678 -1 0 0 0 0 -1 53 1023 23
 0 1036 1041 49 0 --.004475944872949975 .00728507056627207 .01 .0032122141038867
85 -1 0 0 0 0 1 81 1 1042 59 660 1020 0 1038 1044 0 1045 83 3 1043 .792156862745
098 .819607843137255 .933333333333333 81 1 1044 57 660 1036 0 1039 1037 1042 104
6 82 1 1045 -1910177561 81 1 1039 63 608 1036 1044 0 1035 0 1047 81 1 1037 55 66
0 1022 0 1035 0 1044 1048 82 1 1046 -1911095065 82 1 1048 -1520762649 83 3 1047
 .792156862745098 .819607843137255 .933333333333333 15 1028 21 0 1027 1036 0 83
 3 1040 .792156862745098 .819607843137255 .933333333333333 19 1021 1 0 36 0 51 4
8 S0 74 20 1019 3 0 0 1042 1039 45 0 0 0 0 0 0 0 0 0 0 0 0 0 0 0 0 0 84 6 1018 s
ensor81 1 34 64 5 25 0 0 0 0 1049 70 35 0 4 T25 0 0 3 20 1 1050 1050 13 37 8 0 2
5 0 1051 0 0 1052 0 50 38 26 0 1053 1054 0 0 +-.0245125871846065 .03795489295007
765 .01 0 0 1 1 0 0 31 39 25 0 1055 1056 0 0 --.01147594487294998 .0072850705662
7207 .01 0 0 1 1 0 0 .00301221410388678 19 40 6 0 25 1052 0 1057 V0 16 41 10 0 ?
1058 0 1055 1056 0 0 25 17 1058 0 1059 1058 1058 0 1060 41 0 0 +16 1055 9 0 ?106
1 41 0 39 0 0 25 31 1056 24 0 41 0 39 0 +-.01147594487294998 .00728507056627207
 .01 0 0 1 1 0 0 .003212214103886785 17 1061 0 1062 1061 1061 0 1063 1055 0 0 +1
5 1062 13 0 1061 1051 0 17 1063 0 1064 1063 1063 0 1061 1055 0 0 -15 1064 17 0 1
063 1053 1065 14 1053 14 1066 ?1067 1051 1064 37 38 -0 0 1067 1051 1057 15 1065
 18 0 1060 1053 0 17 1060 0 1065 1060 1060 0 1058 41 0 0 -81 1 1066 62 608 1053
 1068 0 1069 1070 1071 14 1067 19 1070 ?0 1053 1059 37 1054 -0 0 0 1053 1057 14
 1051 11 1069 ?1053 0 1062 37 1072 -0 0 1053 0 1057 13 1057 7 0 0 0 0 0 0 40 105
1 81 1 1069 61 608 1051 1073 0 0 1066 1074 53 1072 22 0 1051 0 1054 0 +-.0114759
4487294998 .00728507056627207 .01 .00301221410388678 -1 0 0 0 0 -1 53 1054 23 0
 1067 1072 38 0 --.01147594487294998 .00728507056627207 .01 .003212214103886785
 -1 0 0 0 0 1 81 1 1073 59 660 1051 0 1069 1075 0 1076 83 3 1074 .79215686274509
8 .819607843137255 .933333333333333 81 1 1075 57 660 1067 0 1070 1068 1073 1077
 82 1 1076 -1975451417 81 1 1070 63 608 1067 1075 0 1066 0 1078 81 1 1068 55 660
 1053 0 1066 0 1075 1079 82 1 1077 -1976368921 82 1 1079 -1518993177 83 3 1078 .
792156862745098 .819607843137255 .933333333333333 15 1059 21 0 1058 1067 0 83 3
 1071 .792156862745098 .819607843137255 .933333333333333 19 1052 1 0 25 0 40 37
 S0 74 20 1050 3 0 0 1073 1070 34 0 0 0 0 0 0 0 0 0 0 0 0 0 0 0 0 0 84 6 1049 se
nsor81 1 23 70 5 13 0 0 0 0 1080 70 24 0 4 T13 0 0 3 20 1 1081 1081 13 26 8 0 13
 0 1082 0 0 1083 0 50 27 32 0 1084 1085 0 0 +-.0245125871846065 .037954892950077
65 .01 0 0 1 1 0 0 31 28 25 0 1086 1087 0 0 --.004475944872949975 -.006714929433
72793 .01 0 0 1 1 0 0 .00301221410388678 19 29 6 0 13 1083 0 1088 V0 16 30 10 0
 ?1089 0 1086 1087 0 0 13 17 1089 0 1090 1089 1089 0 1091 30 0 0 +16 1086 9 0 ?1
092 30 0 28 0 0 13 31 1087 24 0 30 0 28 0 +-.004475944872949975 -.00671492943372
793 .01 0 0 1 1 0 0 .003212214103886785 17 1092 0 1093 1092 1092 0 1094 1086 0 0
 +15 1093 13 0 1092 1082 0 17 1094 0 1095 1094 1094 0 1092 1086 0 0 -15 1095 17
 0 1094 1084 1096 14 1084 14 1097 ?1098 1082 1095 26 27 -0 0 1098 1082 1088 15 1
096 18 0 1091 1084 0 17 1091 0 1096 1091 1091 0 1089 30 0 0 -81 1 1097 68 608 10
84 1099 0 1100 1101 1102 14 1098 19 1101 ?0 1084 1090 26 1085 -0 0 0 1084 1088 1
4 1082 11 1100 ?1084 0 1093 26 1103 -0 0 1084 0 1088 13 1088 7 0 0 0 0 0 0 29 10
82 81 1 1100 67 608 1082 1104 0 0 1097 1105 53 1103 22 0 1082 0 1085 0 +-.004475
944872949975 -.00671492943372793 .01 .00301221410388678 -1 0 0 0 0 -1 53 1085 23
 0 1098 1103 27 0 --.004475944872949975 -.00671492943372793 .01 .003212214103886
785 -1 0 0 0 0 1 81 1 1104 65 660 1082 0 1100 1106 0 1107 83 3 1105 .79215686274
5098 .819607843137255 .933333333333333 81 1 1106 63 660 1098 0 1101 1099 1104 11
08 82 1 1107 -1866661657 81 1 1101 69 608 1098 1106 0 1097 0 1109 81 1 1099 61 6
60 1084 0 1097 0 1106 1110 82 1 1108 -1867579161 82 1 1110 -1521942297 83 3 1109
 .792156862745098 .819607843137255 .933333333333333 15 1090 21 0 1089 1098 0 83
 3 1102 .792156862745098 .819607843137255 .933333333333333 19 1083 1 0 13 0 29 2
6 S0 74 20 1081 3 0 0 1104 1101 23 0 0 0 0 0 0 0 0 0 0 0 0 0 0 0 0 0 84 6 1080 s
ensor81 1 11 1415 5 7 0 0 0 0 1111 70 12 0 4 T7 0 0 3 20 1 1112 1112 13 15 160 0
 7 0 1113 0 0 1114 0 53 16 172 0 1113 1115 0 0 +-.01847594487295 .00728507056627
207 .01 .00301221410388678 -1 0 0 0 0 -1 31 17 1220 0 19 1116 0 0 +-.01847594487
295 .00728507056627207 .01 0 0 1 1 0 0 .003212214103886785 19 18 170 0 7 1114 0
 1117 V0 16 19 1023 0 ?1118 0 1119 17 0 0 7 17 1118 0 1120 1118 1118 0 1121 19 0
 0 +16 1119 1022 0 ?1122 19 0 1116 0 0 7 17 1122 0 1123 1122 1122 0 1124 1119 0
 0 +31 1116 1229 0 1119 0 17 0 --.01847594487295 .00728507056627207 .01 0 0 1 1
 0 0 .00301221410388678 15 1123 167 0 1122 1113 0 17 1124 0 1125 1124 1124 0 112
2 1119 0 0 -15 1125 1108 0 1124 1126 1127 14 1126 1105 1128 ?1129 1113 1125 15 1
130 -0 0 1129 1113 1117 15 1127 1109 0 1121 1126 0 17 1121 0 1127 1121 1121 0 11
18 19 0 0 -81 1 1128 1413 608 1126 1131 0 1132 1133 1134 14 1129 157 1133 ?0 112
6 1120 15 1115 -0 0 0 1126 1117 14 1113 165 1132 ?1126 0 1123 15 16 -0 0 1126 0
 1117 50 1130 1213 0 1126 0 1115 0 +-.0245125871846065 .03795489295007765 .01 0
 0 1 1 0 0 13 1117 171 0 0 0 0 0 0 18 1113 53 1115 173 0 1129 1130 16 0 --.01847
594487295 .00728507056627207 .01 .003212214103886785 -1 0 0 0 0 1 81 1 1132 1412
 608 1113 1135 0 0 1128 1136 81 1 1135 1410 660 1113 0 1132 1137 0 1138 83 3 113
6 .792156862745098 .819607843137255 .933333333333333 81 1 1137 1408 660 1129 0 1
133 1131 1135 1139 82 1 1138 -632684352 81 1 1133 1414 608 1129 1137 0 1128 0 11
40 81 1 1131 1406 660 1126 0 1128 0 1137 1141 82 1 1139 -633601856 82 1 1141 -15
17223705 83 3 1140 .792156862745098 .819607843137255 .933333333333333 15 1120 15
9 0 1118 1129 0 83 3 1134 .792156862745098 .819607843137255 .933333333333333 19
 1114 100 0 7 0 18 15 S0 74 20 1112 3 0 0 1135 1133 11 0 0 0 0 0 0 0 0 0 0 0 0 0
 0 0 0 0 84 6 1111 sensor74 20 6 1 0 0 2 0 0 0 0 0 0 0 0 0 0 0 0 0 0 0 0 0 0 0 1
 0 
